<?xml version="1.0" encoding="UTF-8"?>
<svg width="150px" height="115px" viewBox="0 0 150 115" version="1.1" xmlns="http://www.w3.org/2000/svg" xmlns:xlink="http://www.w3.org/1999/xlink">
    <title>AD4CD30A-DF00-43FF-82D2-CD052FE39149</title>
    <defs>
        <polygon id="path-1" points="0 113.544304 149.906796 113.544304 149.906796 1.39018987 0 1.39018987"></polygon>
    </defs>
    <g id="Page-1" stroke="none" stroke-width="1" fill="none" fill-rule="evenodd">
        <g id="HOME" transform="translate(-108.000000, -1389.000000)">
            <g id="Group-45" transform="translate(108.000000, 1389.000000)">
                <polygon id="Fill-1" fill="#424444" points="27.3699029 108.60338 31.6135922 108.60338 31.6135922 84.8304051 27.3699029 84.8304051"></polygon>
                <polygon id="Fill-2" fill="#424444" points="107.599515 108.60338 111.843204 108.60338 111.843204 84.8304051 107.599515 84.8304051"></polygon>
                <polygon id="Fill-3" fill="#D0D1DE" points="0 86.9950253 139.213107 86.9950253 139.213107 1.45686076 0 1.45686076"></polygon>
                <polygon id="Fill-4" fill="#FFFFFF" points="6.6538835 81.2654051 132.557767 81.2654051 132.557767 7.18648101 6.6538835 7.18648101"></polygon>
                <g id="Group-44" transform="translate(0.000000, 0.065215)">
                    <path d="M94.3469417,74.240943 L14.9357767,74.240943 C14.9357767,74.240943 15.3289806,44.3307532 25.0775243,40.033538 C34.8246117,35.7348671 41.3459709,57.3694241 45.9333495,57.6561962 C50.5192718,57.9429684 50.1158738,39.9432848 56.7916019,37.273538 C73.9920874,30.3982848 72.2357767,57.513538 75.3886893,57.2267658 C78.5430583,56.9399937 81.3726699,32.1873354 85.7095631,32.1873354 C96.3537379,32.1873354 94.3469417,74.240943 94.3469417,74.240943" id="Fill-5" fill="#E4E5EC"></path>
                    <path d="M94.3469417,74.240943 L14.9357767,74.240943 C14.9357767,74.240943 16.9425728,48.7371456 26.6896602,44.4384747 C36.4367476,40.1398038 40.7357767,60.7728418 45.3246117,61.0596139 C49.910534,61.3463861 54.2110194,46.7326519 61.3775243,46.1591076 C68.5454854,45.5841076 73.4197573,63.0655633 76.5726699,62.7787911 C79.7255825,62.4934747 81.4076214,34.9822722 85.7459709,34.9822722 C94.3469417,34.9822722 94.3469417,74.240943 94.3469417,74.240943" id="Fill-7" fill="#00D8DF"></path>
                    <path d="M94.3469417,74.240943 L14.9357767,74.240943 C14.9357767,74.240943 17.5149029,61.6331582 27.2634466,57.3344873 C37.010534,53.0358165 42.1702427,64.9288544 46.7576214,65.2156266 C51.345,65.500943 53.2076214,48.2363861 60.3755825,47.6628418 C67.5420874,47.0907532 63.5634466,68.5098671 74.9241262,68.5098671 C83.1653883,68.5098671 81.9100485,50.8872089 86.2469417,50.8872089 C94.8493689,50.8872089 94.3469417,74.240943 94.3469417,74.240943" id="Fill-9" fill="#FF5D12"></path>
                    <mask id="mask-2" fill="white">
                        <use xlink:href="#path-1"></use>
                    </mask>
                    <g id="Clip-12"></g>
                    <polygon id="Fill-11" fill="#E4E5EC" mask="url(#mask-2)" points="103.590291 34.9832911 127.134466 34.9832911 127.134466 30.8593038 103.590291 30.8593038"></polygon>
                    <polygon id="Fill-13" fill="#E4E5EC" mask="url(#mask-2)" points="103.590291 44.16 127.134466 44.16 127.134466 40.034557 103.590291 40.034557"></polygon>
                    <polygon id="Fill-14" fill="#00D8DF" mask="url(#mask-2)" points="103.590291 53.3367089 127.134466 53.3367089 127.134466 49.2127215 103.590291 49.2127215"></polygon>
                    <polygon id="Fill-15" fill="#E4E5EC" mask="url(#mask-2)" points="103.590291 62.5148734 127.134466 62.5148734 127.134466 58.3908861 103.590291 58.3908861"></polygon>
                    <polygon id="Fill-16" fill="#FF5D12" mask="url(#mask-2)" points="103.590291 71.6915823 127.134466 71.6915823 127.134466 67.5675949 103.590291 67.5675949"></polygon>
                    <polygon id="Fill-17" fill="#00D8DF" mask="url(#mask-2)" points="12.7951456 15.8685443 17.0941748 15.8685443 17.0941748 11.5713291 12.7951456 11.5713291"></polygon>
                    <polygon id="Fill-18" fill="#E4E5EC" mask="url(#mask-2)" points="21.238835 15.8685443 40.738835 15.8685443 40.738835 11.5713291 21.238835 11.5713291"></polygon>
                    <polygon id="Fill-19" fill="#00D8DF" mask="url(#mask-2)" points="12.7951456 23.0829747 17.0941748 23.0829747 17.0941748 18.7857595 12.7951456 18.7857595"></polygon>
                    <polygon id="Fill-20" fill="#E4E5EC" mask="url(#mask-2)" points="21.238835 23.0829747 40.738835 23.0829747 40.738835 18.7857595 21.238835 18.7857595"></polygon>
                    <polygon id="Fill-21" fill="#00D8DF" mask="url(#mask-2)" points="12.7951456 30.2959494 17.0941748 30.2959494 17.0941748 25.9987342 12.7951456 25.9987342"></polygon>
                    <polygon id="Fill-22" fill="#E4E5EC" mask="url(#mask-2)" points="21.238835 30.2959494 40.738835 30.2959494 40.738835 25.9987342 21.238835 25.9987342"></polygon>
                    <polygon id="Fill-23" fill="#E4E5EC" mask="url(#mask-2)" points="65.9169903 17.5571519 127.134466 17.5571519 127.134466 11.5713291 65.9169903 11.5713291"></polygon>
                    <polygon id="Fill-24" fill="#E4E5EC" mask="url(#mask-2)" points="49.2160194 29.3744937 79.9252427 29.3744937 79.9252427 24.3101266 49.2160194 24.3101266"></polygon>
                    <polygon id="Fill-25" fill="#D0D1DE" mask="url(#mask-2)" points="23.8529126 109.72019 35.1305825 109.72019 35.1305825 105.517595 23.8529126 105.517595"></polygon>
                    <polygon id="Fill-26" fill="#D0D1DE" mask="url(#mask-2)" points="104.082524 109.72019 115.360194 109.72019 115.360194 105.517595 104.082524 105.517595"></polygon>
                    <path d="M53.7835922,12.7136139 C55.32,12.8286139 56.7209709,13.4836772 56.7297087,15.0194367 L54.1709709,15.0339937 C54.1534951,14.4531709 53.5578641,14.3323481 53.1835922,14.3352595 C52.9476699,14.3367152 52.1874757,14.3410823 52.188932,14.8098165 C52.1962136,15.8622848 56.908835,14.7428544 56.92491,17.7153861 C56.9350485,19.4986139 55.5428155,20.1711456 53.8272816,20.3050696 L53.9496117,22.2003861 L52.385534,22.2091203 L52.4714563,20.2992468 C50.8797087,20.1434873 49.3942718,19.4054494 49.3840777,17.7998165 L51.9442718,17.7852595 L51.9442718,17.8405759 C51.9632039,18.5465886 52.7525243,18.6805127 53.1530097,18.6776013 C53.5418447,18.6761456 54.3020388,18.6426646 54.2991262,18.1317152 C54.293301,17.039943 49.5806796,18.0632975 49.5632039,15.1853861 C49.554466,13.5273481 50.8374757,12.881019 52.4263107,12.7354494 L52.3185437,10.8270316 L53.881165,10.8168418 L53.7835922,12.7136139 Z" id="Fill-27" fill="#00D8DF" mask="url(#mask-2)"></path>
                    <polygon id="Fill-28" fill="#FF5D12" mask="url(#mask-2)" points="63.7714078 15.2083861 61.3626699 10.5225 58.953932 15.2083861 60.6068447 15.2083861 60.6068447 22.2102848 62.1388835 22.2102848 62.1388835 15.2083861"></polygon>
                    <path d="M130.514272,40.4002278 C130.514272,40.4002278 128.254078,41.7744051 126.360874,45.5519367 C124.469126,49.3294684 123.285146,51.3543418 123.059417,51.1738354 C122.05165,50.3688354 119.390971,48.0921266 115.496796,41.9898481 C115.023495,41.247443 115.514272,40.7670633 115.530291,40.1876962 C115.546311,39.6083291 116.323981,38.2647215 116.156505,37.8833291 C115.987573,37.5019367 115.514272,37.5936456 115.05699,38.5092785 C114.598252,39.4249114 114.752621,39.9897215 114.385631,39.7291519 C114.018641,39.470038 113.118641,38.3404177 112.827379,37.8687722 C112.537573,37.3956709 111.621553,36.4640253 111.376893,36.6168734 C111.14534,36.7609873 111.09,37.0113671 112.470583,38.9882025 C111.971068,38.2836456 110.736117,36.6518101 110.309417,37.0433924 C109.990485,37.337443 111.205049,38.8004177 111.754078,39.4525696 C111.283689,38.9066835 110.211845,37.7552278 109.828835,38.1351646 C109.364272,38.5980759 111.649223,40.3318101 111.649223,40.3318101 C111.649223,40.3318101 109.942427,38.9809241 109.713786,39.3783291 C109.485146,39.7757342 110.476893,40.653519 111.454078,41.2023165 C112.431262,41.7525696 112.606019,41.9490886 113.002136,42.148519 C113.254078,42.2751646 113.660388,42.9113038 113.896311,43.3028861 C113.910874,43.3363671 121.052621,58.6182658 123.614272,57.2091519 C126.178835,55.7985823 129.585146,50.7938987 129.585146,50.7938987 C129.585146,50.7938987 130.533204,49.2246582 130.906019,46.796557 C131.233689,44.6508608 131.029806,41.707443 130.514272,40.4002278" id="Fill-29" fill="#F88667" mask="url(#mask-2)"></path>
                    <path d="M124.953641,46.9508608 C125.470631,45.7426329 128.460437,39.6913038 130.595388,38.7829494 L133.457039,39.8994684 C134.71966,41.4716203 133.107524,45.2011139 132.586165,45.6232658 C132.144903,45.9784557 130.025971,50.3382658 129.586165,50.7938987 C126.807524,48.837443 124.953641,46.9508608 124.953641,46.9508608" id="Fill-30" fill="#FF5D12" mask="url(#mask-2)"></path>
                    <path d="M135.745049,30.0468797 L139.848932,30.6859304 C139.848932,30.6859304 138.695534,34.3324494 140.464951,37.4447278 C140.464951,37.4447278 137.515922,40.6385253 135.458155,39.7942215 C133.259126,38.8916899 134.077573,36.6717532 134.077573,36.6717532 C134.077573,36.6717532 136.318835,34.8987152 135.745049,30.0468797" id="Fill-31" fill="#E45940" mask="url(#mask-2)"></path>
                    <path d="M143.96534,106.695544 C143.96534,106.695544 145.072136,111.085924 144.440097,111.799215 C143.809515,112.513962 134.605631,114.084658 133.718738,113.355354 C132.830388,112.626051 133.107087,111.167443 134.981359,110.375544 C136.991068,109.525418 138.08767,109.960671 139.322621,109.24738 C140.559029,108.534089 139.944466,106.520861 139.944466,106.520861 L143.96534,106.695544 Z" id="Fill-32" fill="#424444" mask="url(#mask-2)"></path>
                    <path d="M132.522379,105.94062 C132.522379,105.94062 132.743738,111.447519 132.009757,112.056 C131.277233,112.665937 121.940825,112.808595 121.176262,111.95119 C120.411699,111.093785 120.854417,109.872456 122.747621,109.454671 C124.448592,109.077646 125.715583,109.411 127.029175,108.850557 C128.181117,108.358532 128.754903,105.777582 128.754903,105.777582 L132.522379,105.94062 Z" id="Fill-33" fill="#424444" mask="url(#mask-2)"></path>
                    <path d="M128.583058,60.0378608 L140.583058,57.9052658 C140.583058,57.9052658 136.040825,82.5982405 135.437913,85.4455823 C134.835,88.2929241 133.043738,107.064127 133.043738,107.064127 L127.814126,106.449823 C127.814126,106.449823 127.873835,85.9346962 128.137427,84.1092532 C128.401019,82.2838101 128.583058,60.0378608 128.583058,60.0378608" id="Fill-34" fill="#00D8DF" mask="url(#mask-2)"></path>
                    <path d="M133.015922,69.8667215 C132.421748,65.9945696 132.822233,62.9856456 131.965922,61.0976076 C131.626602,60.3479241 130.51835,60.5429873 130.267864,59.7772911 C130.420777,59.5953291 130.551845,59.4031772 130.64068,59.1877342 L140.606214,57.6971013 C140.606214,57.6971013 136.087282,78.9837468 134.914951,84.2053291 C134.914951,84.2053291 133.489223,72.9571646 133.015922,69.8667215" id="Fill-35" fill="#00A7CC" mask="url(#mask-2)"></path>
                    <path d="M133.560583,58.8395316 L143.19699,61.2923797 C143.19699,61.2923797 144.439223,64.8311772 143.780971,69.2797848 C142.987282,74.6382025 142.908641,83.0419367 142.812524,84.1817468 C142.713495,85.321557 144.613981,103.428962 144.759612,107.76257 L139.566408,107.983835 C139.566408,107.983835 135.586311,85.3011772 135.353301,84.8033291 C135.120291,84.305481 133.560583,58.8395316 133.560583,58.8395316" id="Fill-36" fill="#00D8DF" mask="url(#mask-2)"></path>
                    <path d="M129.106311,50.4039177 C129.308738,46.3454367 128.21068,40.2227785 130.59466,38.7830949 C132.594175,37.5748671 134.242718,36.5966392 134.242718,36.5966392 C134.242718,36.5966392 134.841262,38.0508797 136.261165,38.2415759 C137.683981,38.4322722 139.941262,36.2923987 139.941262,36.2923987 C139.941262,36.2923987 142.543689,37.8237911 144.886893,38.8704367 C144.318932,40.7511962 145.491262,42.4368924 145.481068,44.3118291 C145.476699,45.4123354 145.632524,46.4080316 145.888835,47.3673354 C144.936408,49.4053101 144.013107,51.4010696 143.813592,52.8349304 C143.292233,56.5323987 144.964078,62.2110696 144.964078,62.2110696 C144.964078,62.2110696 141.173301,63.1310696 136.036893,63.5634114 C133.262621,63.7963228 130.057282,63.2256899 127.232039,62.5167658 C127.232039,62.5167658 128.902427,54.4623987 129.106311,50.4039177" id="Fill-37" fill="#FF5D12" mask="url(#mask-2)"></path>
                    <path d="M145.888107,47.3616582 C145.813835,47.0879873 145.770146,46.7997595 145.714806,46.5173544 C145.674029,46.3077342 145.615777,46.1068481 145.58665,45.8914051 C145.516748,45.3862785 145.48034,44.8622278 145.481796,44.3119747 C145.487621,43.3919747 145.420631,42.4108354 145.41335,41.4267848 C144.928398,41.7819747 144.334223,42.6350127 143.745874,42.2914684 C140.984709,40.6698228 140.606068,48.0662152 140.606068,51.7927975 C140.606068,55.5048228 140.512864,59.8675443 139.040534,63.2418481 C142.580825,62.7876709 144.96335,62.2112152 144.96335,62.2112152 C144.96335,62.2112152 144.728883,61.412038 144.462379,60.2183671 C144.329854,59.6229873 144.188592,58.9271646 144.064806,58.1847595 C144.024029,57.9372911 143.984709,57.6825443 143.948301,57.4263418 C143.840534,56.6562785 143.757524,55.8556456 143.726942,55.072481 C143.694903,54.2907722 143.715291,53.5279873 143.812864,52.8350759 C144.015291,51.3968481 144.938592,49.4010886 145.888107,47.3616582" id="Fill-38" fill="#D64C1D" mask="url(#mask-2)"></path>
                    <path d="M139.771311,23.2802215 C139.771311,23.2802215 133.896553,22.3907911 133.219369,23.0414873 C132.543641,23.6921835 132.431505,26.0576899 132.459175,28.0549051 C132.488301,30.0535759 131.646553,33.8791456 133.979563,34.5866139 C136.315485,35.2926266 140.767427,33.1134494 142.344612,29.1539557 C144.352864,24.1114241 140.173252,23.3369937 139.771311,23.2802215" id="Fill-39" fill="#F88667" mask="url(#mask-2)"></path>
                    <path d="M140.766845,22.8110506 C140.766845,22.8110506 137.988204,22.9042152 137.50034,27.0893418 C137.278981,28.9744684 136.80568,30.4287089 137.388204,30.5233291 C137.969272,30.6164937 138.570728,30.2234557 138.570728,29.6790253 C138.570728,29.1345949 138.738204,27.3586456 139.846456,27.8521266 C140.954709,28.3470633 140.578981,30.485481 139.170728,31.1041519 C139.170728,31.1041519 138.879466,32.3051013 140.00665,32.9805443 C140.00665,32.9805443 142.935291,31.1405443 143.357621,27.8521266 C143.779951,24.5651646 142.540631,22.7178861 140.766845,22.8110506" id="Fill-40" fill="#424444" mask="url(#mask-2)"></path>
                    <path d="M141.88034,23.1806519 C141.88034,23.1806519 141.222087,20.5531203 138.124515,20.3478671 C135.026942,20.1397025 132.549757,21.9986266 131.065777,24.4762215 C131.065777,24.4762215 131.910437,25.9566646 135.10267,26.1459051 C136.429369,26.223057 138.788592,25.8547658 139.965291,25.2448291 C141.61966,24.3874241 141.88034,23.1806519 141.88034,23.1806519" id="Fill-41" fill="#424444" mask="url(#mask-2)"></path>
                    <path d="M149.847379,57.1449557 C149.655146,56.2031203 148.766796,50.6409051 148.455146,48.5825506 C146.653689,49.1764747 144.990583,49.7922342 143.135243,50.2871709 C143.685728,51.6031203 144.965825,56.5597658 145.11,57.9048291 C145.310971,59.7826772 144.457573,68.0859684 144.202718,70.9609684 C144.180874,71.1909684 144.164854,71.3860316 144.150291,71.5490696 C144.06,72.0556519 143.864854,72.7776772 143.486214,73.2507785 C143.06534,73.7806519 141.657087,75.4998291 141.897379,76.2495127 C142.136214,77.0006519 143.31,75.6264747 143.739612,75.1591962 C144.167767,74.6919177 144.242039,76.2538797 144.135728,77.0938165 C144.029417,77.9352089 142.335728,79.3428671 142.516311,79.9207785 C142.641553,80.3240063 143.16,80.0328671 143.81534,79.2890063 C143.506602,79.7490063 143.273592,80.1973608 143.445437,80.3152722 C143.67699,80.4724873 144.09932,80.1828038 144.559515,79.6864114 C144.313398,80.0678038 144.156117,80.4098924 144.317767,80.4943228 C144.558058,80.6195127 145.041553,80.2191962 145.482816,79.7373608 C145.252718,80.0838165 145.095437,80.4157152 145.258544,80.5190696 C145.565825,80.7112215 146.55466,79.8043228 146.931845,78.6135633 C147.239126,77.6484367 146.509515,74.9262848 146.247379,73.5360949 C146.170194,73.1168544 146.200777,72.701981 146.334757,72.2958418 C147.132816,69.8837532 150.384757,59.7841329 149.847379,57.1449557" id="Fill-42" fill="#F88667" mask="url(#mask-2)"></path>
                    <path d="M143.13466,52.1012595 C144.985631,51.8203101 147.487573,51.040057 149.618155,50.153538 C149.121553,46.6569557 147.890971,41.8531582 146.083689,39.9389177 C145.582718,39.4061329 144.688544,38.4322722 143.875922,38.7117658 C142.804078,39.0786013 141.433689,40.5415759 141.325922,43.3801835 C141.299709,44.0730949 141.902621,48.2261962 142.397767,49.5596139 C142.619126,50.1549937 142.839029,51.2423987 143.13466,52.1012595" id="Fill-43" fill="#FF5D12" mask="url(#mask-2)"></path>
                </g>
            </g>
        </g>
    </g>
</svg>