<?xml version="1.0" encoding="UTF-8"?>
<svg width="170px" height="130px" viewBox="0 0 170 130" version="1.1" xmlns="http://www.w3.org/2000/svg" xmlns:xlink="http://www.w3.org/1999/xlink">
    <title>A3A2D717-BF49-45EA-A2BD-7BE59EE49B7E</title>
    <defs>
        <polygon id="path-1" points="0.109422752 0.00475609756 74.7865715 0.00475609756 74.7865715 102.931189 0.109422752 102.931189"></polygon>
        <polygon id="path-3" points="0 0.279471135 79.7638474 0.279471135 79.7638474 96.0603038 0 96.0603038"></polygon>
        <polygon id="path-5" points="0 129.995085 169.183364 129.995085 169.183364 -0.000158536585 0 -0.000158536585"></polygon>
    </defs>
    <g id="Page-1" stroke="none" stroke-width="1" fill="none" fill-rule="evenodd">
        <g id="HOME" transform="translate(-363.000000, -1371.000000)">
            <g id="Group-53" transform="translate(363.000000, 1371.000000)">
                <g id="Group-3" transform="translate(47.663551, -0.004915)">
                    <mask id="mask-2" fill="white">
                        <use xlink:href="#path-1"></use>
                    </mask>
                    <g id="Clip-2"></g>
                    <path d="M20.5253551,99.3428293 C14.3497477,92.3894146 -3.88950467,82.9327073 0.902271028,72.0903902 C4.97909346,62.8667317 24.5418037,64.0018537 22.1872243,52.8805122 C20.7954486,46.3028293 18.9874112,40.6890488 23.2437664,33.210878 C27.8798411,25.0620976 41.7356355,29.4979512 46.5385327,21.9325854 C50.6661963,15.4341707 45.3008692,5.39246341 53.8247009,1.05173171 C61.3936729,-2.80070732 70.5371308,4.72660976 71.9003084,11.3994146 C73.6066636,19.7431951 65.3259159,23.6638049 64.2630187,30.9263659 C63.587785,35.5492927 67.8075981,37.1600244 70.2241402,40.3957561 C72.539,43.4951463 74.6203084,47.9531951 74.7744206,51.7913659 C75.2335794,63.3280732 62.5630187,64.8214878 56.5574112,72.1569756 C50.993486,78.9486829 61.2538598,83.325878 59.7159159,90.7136829 C58.0556355,98.6833171 46.6847009,103.036732 38.6804019,102.917829 C33.1307757,102.836976 24.3527383,103.651854 20.5253551,99.3428293" id="Fill-1" fill="#00D8DF" mask="url(#mask-2)"></path>
                </g>
                <path d="M76.2553271,103.138829 C76.2060748,103.130902 76.1568224,103.115049 76.1107477,103.092854 C75.8485981,102.972366 75.761215,102.688585 75.9169159,102.465049 C76.0265421,102.298585 87.3386916,85.3256585 87.993271,63.994561 C88.4254206,49.7738293 94.3484112,40.6754146 99.2053271,33.2099268 C102.141402,28.7027317 104.697757,24.769439 105.090187,20.8298049 C105.12514,20.5079756 105.419065,20.2574878 105.75271,20.2697096 C106.099065,20.2828537 106.331028,20.5602927 106.299252,20.8805366 C105.871869,25.1007805 103.234486,29.1402927 100.214206,33.769561 C95.4271963,41.1066341 89.5884112,50.054439 89.1403738,63.981878 C88.4460748,85.5729756 76.9686916,102.737732 76.8558879,102.904195 C76.7319626,103.089683 76.4841121,103.178463 76.2553271,103.138829" id="Fill-4" fill="#FFFFFF"></path>
                <path d="M88.9594112,64.0503659 C88.687729,63.994878 88.5034299,63.7681707 88.5352056,63.5081707 C88.5685701,63.2228049 88.8529626,63.0040244 89.1691308,63.0246341 C93.9593178,63.31 100.362121,60.5165854 102.297262,55.8571951 C102.529224,55.2959756 102.762776,54.6745122 103.007449,54.0229268 C104.176794,50.895 105.648009,46.9680488 108.725486,45.5539024 C110.233243,44.8626829 111.97614,44.8610976 113.884271,45.517439 C114.181374,45.6204878 114.313243,45.9328049 114.182963,46.2134146 C114.052682,46.4940244 113.726981,46.6256098 113.413991,46.54 C111.774364,45.9756098 110.401654,45.9676829 109.187822,46.522561 C106.580626,47.7210976 105.199972,51.3912195 104.098944,54.3162195 C103.849505,54.9804878 103.611187,55.6130488 103.374458,56.1821951 C101.170813,61.4678049 94.2357664,64.3706098 89.0452056,64.0614634 C89.0150187,64.059878 88.9864206,64.055122 88.9594112,64.0503659" id="Fill-6" fill="#FFFFFF"></path>
                <path d="M85.5600467,63.5132439 C83.3357477,63.0138537 81.6468692,62.040439 80.5267757,60.6025122 C78.7489252,58.3227561 78.4692991,54.8856829 79.7419159,50.6400732 C79.8690187,50.2199512 80.029486,49.7316585 80.2058411,49.1989756 C81.2035981,46.1661707 82.7288318,41.5337317 81.2258411,38.9638537 C80.7285514,38.1093415 79.9341589,37.5560488 78.7997664,37.2722683 C78.4835981,37.1914146 78.2977103,36.8838537 78.3898598,36.5842195 C78.4820093,36.2861707 78.8108879,36.1070244 79.1270561,36.183122 C79.1286449,36.183122 79.1318224,36.1847073 79.1334112,36.1847073 C80.5712617,36.5477561 81.6309813,37.2960488 82.2807944,38.410561 C84.0125701,41.3862927 82.3920093,46.2834878 81.3307009,49.4890976 C81.1575234,50.0106829 81.0002336,50.487878 80.8763084,50.9016585 C79.6926636,54.825439 79.9071495,57.9565366 81.4832243,59.9794634 C82.8241589,61.7059268 85.1771495,62.6634878 88.4579907,62.8394634 C88.7884579,62.8537317 89.0045327,63.1042195 88.9743458,63.388 C88.9409813,63.6749512 88.6613551,63.8953171 88.3451869,63.877878 C87.3378972,63.825561 86.4100467,63.7034878 85.5600467,63.5132439" id="Fill-8" fill="#FFFFFF"></path>
                <path d="M82.8340093,96.4173537 C82.1683084,96.2968659 81.5439159,96.0796707 80.9910187,95.7467439 C80.7463458,95.5993049 80.6923271,95.3044268 80.8750374,95.0888171 C81.0561589,94.8700366 81.3929813,94.8097927 81.6455981,94.9619878 C84.5133551,96.6868659 90.3473738,94.4451585 92.8274673,92.6980854 C93.8617664,91.9704024 94.7912056,90.7036951 95.7762523,89.3593049 C97.5413925,86.9558902 99.3748505,84.4541829 102.274383,84.3717439 C102.593729,84.3511341 102.822514,84.5730854 102.809804,84.8410122 C102.798682,85.1121098 102.544477,85.3372317 102.241019,85.3435732 C99.954757,85.4101585 98.2928879,87.6708902 96.6961589,89.8428415 C95.6555047,91.2585732 94.6752243,92.5902805 93.4884019,93.4241829 C91.2656916,94.9905244 86.4024206,97.0673537 82.8340093,96.4173537" id="Fill-10" fill="#FFFFFF"></path>
                <path d="M78.1374019,95.3714878 C77.4589907,95.2478293 76.7980561,95.0147805 76.1530093,94.6739268 C72.5417009,92.7572195 70.3984299,87.8489268 69.8391776,84.9889268 C69.5420748,83.4527073 70.0028224,81.4250244 70.4921682,79.2657561 C71.2754393,75.816 72.0920748,72.2140488 69.8407664,70.5731951 C69.599271,70.3956341 69.5674953,70.0722195 69.7708598,69.8502683 C69.9742243,69.6314878 70.3380561,69.6013659 70.5811402,69.7741707 C73.3503925,71.7986829 72.4161869,75.8794146 71.602729,79.4401463 C71.129271,81.505878 70.6875888,83.4463659 70.9513271,84.803439 C71.4502056,87.3907561 73.4695514,92.1088049 76.7567477,93.8574634 C78.0325421,94.5344146 79.3877757,94.696122 80.7795514,94.3362439 C81.0734766,94.2633171 81.3753458,94.4028293 81.4531963,94.6549024 C81.5278692,94.9069756 81.3499252,95.1717317 81.0575888,95.2478293 C80.058243,95.5030732 79.082729,95.5442927 78.1374019,95.3714878" id="Fill-12" fill="#FFFFFF"></path>
                <path d="M112.446738,122.756939 C101.851131,120.145841 93.4591682,117.785232 93.2303832,106.583037 C93.1112243,100.788524 95.7041215,96.7886463 101.830477,93.571939 C106.785897,90.9735244 109.329542,90.079378 110.47029,84.9475488 C112.292626,76.736939 108.320664,68.6404756 113.504869,60.699378 C119.288047,51.841939 132.336738,55.8814512 138.359822,47.8484024 C143.761692,40.6429146 146.724776,31.3003537 158.144963,31.431939 C167.755523,31.5445 171.675056,41.5608415 167.560103,48.5095 C165.245243,52.4205976 161.192252,55.1759634 159.54786,59.3629146 C157.979729,63.3580366 159.701972,66.6238902 161.244682,70.2734024 C164.649449,78.3334024 165.480383,86.6438902 156.208234,91.9707195 C150.666551,95.1541341 146.394308,97.9491341 148.391411,103.919622 C150.490196,110.1945 151.430757,113.774256 143.795056,118.497061 C138.08814,122.027671 132.88328,121.74072 126.329542,122.013402 C120.18571,122.268646 111.976458,123.947549 106.177393,121.292061 L112.446738,122.756939 Z" id="Fill-14" fill="#E5E6ED"></path>
                <path d="M115.885028,116.946573 C114.990542,115.93828 114.389981,114.884012 114.09129,113.79328 C112.810729,109.094256 117.291103,104.387305 121.347271,100.121085 C123.395215,97.9729146 125.346243,95.9198659 126.262972,94.1680366 C128.765308,89.3976707 129.512037,85.1409634 128.981383,78.4681585 C128.347458,70.5571829 130.478019,67.3182805 136.94914,62.0865732 C142.403439,57.6697439 147.797364,52.8058415 149.316243,47.9895 C149.432224,47.6137683 149.912037,47.4124268 150.387084,47.5376707 C150.860542,47.6597439 151.15129,48.0655976 151.032131,48.4397439 C149.408393,53.5636463 143.823813,58.5781585 138.193159,63.1091341 C131.925402,68.1426707 129.985495,71.0645 130.573346,78.5918171 C131.019794,84.2785244 130.692505,89.2026707 127.715121,94.8418171 C126.733252,96.709378 124.723439,98.8068171 122.623065,101.000963 C118.701944,105.094378 114.370916,109.617427 115.513252,113.824988 C115.953346,115.448402 117.175121,116.937061 119.251664,118.373402 C119.588486,118.617549 119.704467,118.991695 119.489981,119.216817 C119.273907,119.443524 118.821103,119.432427 118.476336,119.193037 C117.43886,118.47011 116.574561,117.721817 115.885028,116.946573" id="Fill-16" fill="#FFFFFF"></path>
                <path d="M129.295009,85.956 C129.186972,85.8355122 129.117065,85.6944146 129.109121,85.548561 C129.094822,85.1966098 129.434822,84.9492927 129.873327,84.9952683 C133.705477,85.4122195 136.53828,82.428561 139.588748,79.213439 C142.291271,76.3677073 145.128841,73.3777073 149.013421,72.5612439 C149.455103,72.4677073 149.961925,72.6912439 150.130336,73.0542927 C150.306692,73.4189268 150.092206,73.7883171 149.648935,73.8802683 C146.242579,74.5889268 143.538467,77.4188049 140.963047,80.1139268 C137.798187,83.4257561 134.59043,86.7883171 129.933701,86.2746585 C129.677907,86.2445366 129.447533,86.120878 129.295009,85.956" id="Fill-18" fill="#FFFFFF"></path>
                <path d="M126.236916,95.6942683 C126.176542,95.6276829 126.12729,95.5515854 126.093925,95.4707317 C125.718972,94.5242683 125.563271,93.7173171 125.412336,92.932561 C125.170841,91.6690244 124.956355,90.575122 123.841028,89.1863415 C123.248411,88.4507317 122.585888,87.8118293 121.947196,87.1935366 C120.606262,85.882439 119.216075,84.5459756 118.591682,82.3962195 C117.701963,79.3253659 117.759159,75.5030488 118.774393,71.0006098 C118.915794,70.3728049 119.243084,69.4945122 119.58785,68.5591463 C120.086729,67.21 121.024112,64.6876829 120.711121,64.124878 C120.523645,63.7887805 120.653925,63.4035366 121.030467,63.2782927 C121.400654,63.1514634 121.862991,63.2909756 122.069533,63.6143902 C122.709813,64.5735366 122.121963,66.3380488 121.087664,69.1045122 C120.749252,70.0065854 120.433084,70.8595122 120.302804,71.4223171 C119.622804,74.4123171 119.03972,78.7007317 120.08514,82.3153659 C120.603084,84.1210976 121.73271,85.2134146 123.048224,86.4832927 C123.725047,87.1380488 124.424112,87.8197561 125.088224,88.6378049 C126.438692,90.3087805 126.697664,91.6690244 126.948692,92.9817073 C127.086916,93.7141463 127.233084,94.4719512 127.568318,95.3137805 C127.706542,95.6578049 127.485701,95.9732927 127.077383,96.0160976 C126.769159,96.0509756 126.435514,95.9146341 126.236916,95.6942683" id="Fill-20" fill="#FFFFFF"></path>
                <g id="Group-24" transform="translate(0.000000, 25.360939)">
                    <mask id="mask-4" fill="white">
                        <use xlink:href="#path-3"></use>
                    </mask>
                    <g id="Clip-23"></g>
                    <path d="M48.7432897,95.8927561 C37.0117009,93.7667805 26.0268411,94.6688537 21.2779626,81.8527561 C17.5220748,71.7127561 26.2810467,62.1561707 17.4648785,55.1869024 C12.1599252,50.9936098 3.78861682,48.4776341 1.93768224,41.3070244 C0.0104859813,33.8383659 9.58609346,29.1060488 7.86543925,21.9401951 C6.44188785,16.0172683 -1.79437383,15.6240976 0.355252336,7.91129268 C2.26179439,1.07043902 8.29282243,-0.652853659 13.0877757,0.712146341 C19.4985234,2.5384878 20.0291776,8.39165854 24.2823551,12.4549512 C27.1231028,15.1659268 31.1459065,12.4406829 35.3117009,11.9412927 C39.4616075,11.4419024 44.7745047,11.8112927 48.2888972,13.6376341 C59.7011402,19.5700732 50.5560935,32.1356829 52.6278692,42.362878 C54.6329159,52.2508049 68.5840374,46.2739756 75.7923551,53.7014146 C84.2129159,62.3749512 77.8609533,77.3756829 69.5643178,84.4559268 C64.0369346,89.1723902 56.6713271,97.3306829 48.7432897,95.8927561" id="Fill-22" fill="#D0D1DE" mask="url(#mask-4)"></path>
                </g>
                <path d="M60.064972,118.671293 C60.0093645,118.703 59.9458131,118.729951 59.8774953,118.742634 C59.4993645,118.833 59.1053458,118.606293 59.000486,118.244829 C58.9210467,117.980073 51.2885234,92.5206829 32.6997383,75.7538537 C22.2344112,66.3177561 19.7479626,56.5693415 17.8032897,48.9500732 C16.6720748,44.5062927 15.7029159,40.7220244 13.477028,38.6753171 C13.2990841,38.5088537 13.3181495,38.1759268 13.521514,37.9270244 C13.7328224,37.6686098 14.0394579,37.6115366 14.2205794,37.7732439 C16.6196449,39.9658049 17.6221682,43.8658049 18.7994579,48.4490976 C20.7330093,55.9653171 23.2035701,65.5853171 33.5274953,74.8232439 C52.4880561,91.793 60.2921682,117.656659 60.3684299,117.924585 C60.4574019,118.222634 60.3255327,118.523854 60.064972,118.671293" id="Fill-25" fill="#FFFFFF"></path>
                <path d="M33.4512336,75.0155488 C33.2097383,75.1962805 32.8888037,75.189939 32.7013271,74.9870122 C32.4979626,74.7666463 32.5281495,74.3925 32.7728224,74.1531098 C36.5334766,70.4528659 38.9786168,63.3218902 36.5287103,58.8305488 C36.2395514,58.3010366 35.902729,57.7382317 35.5500187,57.1484756 C33.8833832,54.3661585 31.8481495,50.962378 32.9062804,47.647378 C33.4258131,46.0255488 34.6555327,44.5575 36.538243,43.2765244 C36.8353458,43.0767683 37.1832897,43.1227439 37.3151589,43.3811585 C37.4486168,43.6379878 37.321514,43.9867683 37.0244112,44.2087195 C35.3974953,45.307378 34.4124486,46.4631098 33.9914206,47.7757927 C33.0874019,50.6009146 35.0130093,53.7954268 36.5874953,56.4065244 C36.9481495,57.007378 37.2929159,57.5828659 37.5900187,58.1218902 C40.4021682,63.2442073 37.6313271,70.9332317 33.5211402,74.9553049 C33.4988972,74.9775 33.4750654,74.9981098 33.4512336,75.0155488" id="Fill-27" fill="#FFFFFF"></path>
                <path d="M30.5577383,77.3580854 C28.5828785,78.7627195 26.6493271,79.4079634 24.7936262,79.2906463 C21.9179252,79.1115 19.2948411,77.0647927 17.1992336,73.4232073 C16.9958692,73.0696707 16.7686729,72.6495488 16.5224112,72.191378 C15.1354019,69.6215 13.0763364,65.8023537 10.5549346,65.4504024 C9.7351215,65.3362561 8.92801869,65.6025976 8.09231776,66.258939 C7.85876636,66.4412561 7.56642991,66.401622 7.44091589,66.1701585 C7.31857944,65.9402805 7.40119626,65.6073537 7.62998131,65.4234512 C7.63157009,65.4218659 7.63315888,65.4202805 7.63474766,65.4186951 C8.69128972,64.586378 9.76848598,64.2328415 10.8409159,64.3771098 C13.7658692,64.7718659 15.9568037,68.8082073 17.432785,71.5302805 C17.6790467,71.978939 17.9014766,72.3911341 18.1032523,72.7399146 C20.0558692,76.1088171 22.4326916,77.9906463 24.9858692,78.1396707 C27.2165234,78.2665 29.6155888,77.0806463 32.1099813,74.596378 C32.3610093,74.3427195 32.718486,74.3379634 32.9266168,74.5535732 C33.1331589,74.7755244 33.1061495,75.1496707 32.8630654,75.3922317 C32.0893271,76.1611341 31.3203551,76.8158902 30.5577383,77.3580854" id="Fill-29" fill="#FFFFFF"></path>
                <path d="M58.8036355,106.369963 C58.0616729,106.817037 57.2609252,107.132524 56.4013925,107.278378 C56.0248505,107.340207 55.665785,107.102402 55.6006449,106.74411 C55.5355047,106.384232 55.7738224,106.044963 56.161486,105.976793 C60.6513925,105.198378 63.619243,98.0119146 63.9989626,94.2197195 C64.1530748,92.6438659 63.6112991,90.6938659 63.0393364,88.6424024 C62.0320467,85.0182561 60.9993364,81.3100854 63.5604579,78.6213049 C63.8289626,78.3121585 64.2865327,78.2820366 64.572514,78.5071585 C64.8616729,78.7354512 64.8743832,79.1508171 64.5979346,79.4345976 C62.5627009,81.5653293 63.5112056,84.9405732 64.4342897,88.2349634 C65.0443832,90.4085 65.6227009,92.4726463 65.4431682,94.2894756 C65.1063458,97.7091098 62.8439159,103.936427 58.8036355,106.369963" id="Fill-31" fill="#FFFFFF"></path>
                <path d="M53.4507009,109.28989 C52.7230374,109.729037 51.9000467,110.047695 50.9864953,110.247451 C45.9897664,111.330256 39.6378037,108.478183 36.6492991,106.36489 C35.0843458,105.255134 33.7068692,103.164037 32.2674299,100.980988 C30.0224766,97.5724512 27.7473364,94.1226951 24.8843458,94.5570854 C24.5792991,94.603061 24.3123832,94.3811098 24.2869626,94.0608659 C24.2615421,93.7422073 24.4935047,93.4473293 24.7953738,93.3965976 C28.327243,92.848061 30.9153738,96.7512317 33.2508879,100.273915 C34.6378972,102.366598 35.9645327,104.367329 37.3563084,105.342329 C40.0667757,107.244768 46.1454673,109.977939 50.6893925,108.974402 C52.4942523,108.573305 53.8621963,107.607817 54.7296729,106.108061 C54.913972,105.794159 55.3302336,105.673671 55.6654673,105.846476 C55.9991121,106.024037 56.1198598,106.423549 55.9323832,106.743793 C55.3032243,107.821841 54.4722897,108.674768 53.4507009,109.28989" id="Fill-33" fill="#FFFFFF"></path>
                <path d="M137.454692,129.994927 L32.9650654,129.994927 C31.5605794,129.994927 30.4214206,128.85822 30.4214206,127.456756 L30.4214206,59.219439 C30.4214206,57.8179756 31.5605794,56.6812683 32.9650654,56.6812683 L137.454692,56.6812683 C138.859178,56.6812683 139.998336,57.8179756 139.998336,59.219439 L139.998336,127.456756 C139.998336,128.85822 138.859178,129.994927 137.454692,129.994927" id="Fill-35" fill="#424444"></path>
                <mask id="mask-6" fill="white">
                    <use xlink:href="#path-5"></use>
                </mask>
                <g id="Clip-38"></g>
                <polygon id="Fill-37" fill="#FFFFFF" mask="url(#mask-6)" points="35.4680374 124.378134 129.934019 124.378134 129.934019 61.5374024 35.4680374 61.5374024"></polygon>
                <path d="M136.590393,93.337939 C136.590393,94.4286707 135.702262,95.3148902 134.609178,95.3148902 C133.514505,95.3148902 132.627963,94.4286707 132.627963,93.337939 C132.627963,92.2472073 133.514505,91.3609878 134.609178,91.3609878 C135.702262,91.3609878 136.590393,92.2472073 136.590393,93.337939" id="Fill-39" fill="#FFFFFF" mask="url(#mask-6)"></path>
                <path d="M108.724692,112.651817 L56.7046916,112.651817 C55.2684299,112.651817 54.1022617,111.489744 54.1022617,110.056573 L54.1022617,76.619622 C54.1022617,75.1864512 55.2684299,74.024378 56.7046916,74.024378 L108.724692,74.024378 C110.160953,74.024378 111.327121,75.1864512 111.327121,76.619622 L111.327121,110.056573 C111.327121,111.489744 110.160953,112.651817 108.724692,112.651817" id="Fill-40" fill="#E5E6ED" mask="url(#mask-6)"></path>
                <polygon id="Fill-41" fill="#00D8DF" mask="url(#mask-6)" points="56.7053271 109.573988 108.725327 109.573988 108.725327 77.100939 56.7053271 77.100939"></polygon>
                <polygon id="Fill-42" fill="#FF5D12" mask="url(#mask-6)" points="73.0545607 83.100439 73.0545607 104.456902 93.8882991 93.777878"></polygon>
                <path d="M83.5383178,56.2738293 C83.5383178,56.2738293 70.3164486,56.2009024 65.6740187,53.1110244 C61.0315888,50.0227317 60.2197196,37.7424878 66.9625234,32.7232195 C73.7069159,27.7039512 75.1034579,26.1598049 75.4005607,22.8511463 C75.6960748,19.5424878 75.627757,12.0326098 84.3597196,12.0007951 C92.9248598,11.9691951 92.1860748,18.9701707 92.8390654,23.4266341 C93.2918692,26.5291951 97.5688785,31.1077317 101.313645,33.964561 C106.122897,37.6315122 111.500935,59.362122 83.5383178,56.2738293" id="Fill-43" fill="#424444" mask="url(#mask-6)"></path>
                <path d="M82.013243,20.6433659 L84.8873551,20.7337317 L87.7614673,20.8240976 C87.7614673,20.8240976 88.3429626,28.6653171 89.8141776,29.6419024 C89.8141776,29.6419024 91.3743645,38.9321463 84.3217477,38.7101951 C75.7867944,38.4438537 79.4092243,29.3153171 79.4092243,29.3153171 C80.9392243,28.4322683 82.013243,20.6433659 82.013243,20.6433659" id="Fill-44" fill="#E45940" mask="url(#mask-6)"></path>
                <path d="M72.4014112,56.6291098 L95.5944953,56.6291098 L97.5423458,49.1287439 C97.8489813,41.5237439 97.9554299,33.7617927 97.9554299,33.7617927 C94.6364579,31.0888659 89.3124393,29.1689878 89.3124393,29.1689878 C86.5177664,31.2806951 82.2661776,31.4725244 79.5938411,29.1689878 C79.5938411,29.1689878 74.3238411,31.3282561 70.8618785,33.7617927 C70.8618785,33.7617927 70.1644019,36.9769146 70.510757,42.0469146 C70.8459907,46.9488659 71.4894486,51.8206951 72.4014112,56.6291098" id="Fill-45" fill="#FF5D12" mask="url(#mask-6)"></path>
                <path d="M106.206467,56.6291098 C104.433383,47.7161829 102.784224,42.065939 101.328897,38.7144756 C99.4271215,34.3356951 97.9559065,33.7617927 97.9559065,33.7617927 C96.2622617,33.6080122 94.9785234,47.7875244 92.0726355,56.6291098 L106.206467,56.6291098 Z" id="Fill-46" fill="#FF5D12" mask="url(#mask-6)"></path>
                <path d="M95.5085421,43.7541951 C95.0541495,45.0050488 94.2406916,46.0228537 93.4494766,47.1437073 C92.7329346,48.1615122 90.7644299,53.7974878 83.0461121,53.2632195 C79.8558318,53.0428537 76.9038692,49.8959024 75.5867664,46.7061463 C75.0449907,45.3982195 74.7971402,44.1235854 74.5095701,42.739561 C74.3046168,41.7487073 74.2378879,40.4613902 73.7262991,39.5878537 C72.7634953,39.8304146 72.6554579,41.2715122 72.3154579,42.1022439 C72.1073271,42.6159024 70.710785,44.546878 70.5995701,43.0978537 C70.947514,47.6462683 71.5576075,52.164561 72.4028411,56.6289512 L97.3292897,56.6289512 C96.8558318,51.4083415 95.4672336,45.3474878 95.5085421,43.7541951" id="Fill-47" fill="#D64C1D" mask="url(#mask-6)"></path>
                <path d="M91.2774486,22.0289756 C90.4512804,21.1395854 89.5393178,22.5600732 89.5393178,22.5600732 C89.5393178,22.5600732 89.8888505,20.9747073 89.9698785,19.1800732 C88.0649252,18.1273902 86.1409065,16.9003171 84.3376355,16.3470244 L84.3376355,16.3327561 C84.3328692,16.3343415 84.326514,16.3375122 84.3201589,16.3406829 C84.3153925,16.3375122 84.3090374,16.3343415 84.3026822,16.3327561 L84.3026822,16.3470244 C82.501,16.9003171 80.5769813,18.1273902 78.6704393,19.1800732 C78.7530561,20.9747073 79.1025888,22.5600732 79.1025888,22.5600732 C79.1025888,22.5600732 78.1906262,21.1395854 77.3628692,22.0289756 C76.5382897,22.9183659 78.5767009,25.2900732 79.0469813,25.5833659 C79.0469813,25.5833659 80.7247383,29.6672683 82.8425888,31.0259268 C83.3923084,31.377878 85.0716542,31.473 85.8851121,30.9466585 C88.0013738,29.5832439 89.5933364,25.5833659 89.5933364,25.5833659 C90.0636168,25.2900732 92.1036168,22.9183659 91.2774486,22.0289756" id="Fill-48" fill="#F88667" mask="url(#mask-6)"></path>
                <path d="M89.9601869,17.7186829 C89.9601869,17.7186829 87.0638318,22.8314878 79.8936449,22.3431951 C79.8936449,22.3431951 80.2447664,22.9488049 79.8157944,24.045878 C79.8157944,24.045878 79.301028,22.0324634 78.1904673,22.6602683 C77.608972,22.9900244 77.5962617,23.8255122 78.2015888,24.7069756 C78.4748598,25.1049024 76.441215,24.3724634 76.441215,24.3724634 C76.441215,24.3724634 75.6023364,16.5946585 80.7674766,14.8253902 C85.931028,13.056122 89.9601869,17.7186829 89.9601869,17.7186829" id="Fill-49" fill="#424444" mask="url(#mask-6)"></path>
                <path d="M87.5692243,15.0489268 C87.5056729,15.4214878 87.4564206,15.7940488 87.4611869,16.1602683 C87.4707196,16.9545366 86.3252056,17.5189268 86.2950187,18.308439 C86.4538972,18.4796585 86.6095981,18.6667317 86.7652991,18.8601463 C87.7281028,20.0666098 88.1491308,20.7562439 88.4923084,22.2591707 C88.5876355,22.676122 88.3524953,22.9757561 89.005486,24.1124634 C89.005486,24.1124634 89.5059533,22.0895366 90.7452056,22.3907561 C90.9867009,22.4494146 91.4712804,22.8140488 91.045486,23.8255122 C90.889785,24.1901463 92.3292243,22.3194146 92.3292243,22.3194146 C92.3292243,22.3194146 92.2783832,14.8888049 87.5692243,15.0489268" id="Fill-50" fill="#424444" mask="url(#mask-6)"></path>
                <path d="M77.5385888,90.8839512 C77.8134486,91.5085854 79.2401776,92.4629756 78.7349439,93.309561 C78.4823271,93.734439 77.1906449,92.837122 76.9078411,92.4693171 C76.5058785,91.9524878 73.7318598,87.6561463 73.2949439,86.4163902 C72.9533551,85.4461463 72.6324206,84.5012683 72.2511121,83.6102927 C73.2599907,83.0141951 74.181486,82.242122 75.0251308,81.3923659 C76.4423271,82.0423659 77.9484953,82.9476098 79.3434486,83.5579756 C80.0885888,83.884561 80.9115794,84.114439 81.6710187,84.3950488 C82.1508318,84.5741951 83.1740093,84.8326098 83.2169065,85.4746829 C83.2661589,86.1785854 82.2366262,85.9709024 81.831486,85.8900488 C81.2452243,85.7711463 80.168028,85.2130976 79.7549439,85.8837073 C79.1512056,86.857122 80.9767196,87.9874878 81.5899907,88.6533415 C82.1587757,89.2684634 84.2464393,91.1677317 82.7196168,91.3199268 C82.3986822,91.3516341 80.2315794,89.4935854 79.8915794,89.2478537 C79.961486,89.3350488 81.3516729,90.6778537 81.4199907,90.7698049 C81.7790561,91.2533415 82.8212991,92.2584634 82.5098972,92.7562683 C81.8441963,93.8184634 79.5579346,91.0155366 79.2084019,90.6413902 C79.2052243,90.6366341 80.0806449,91.749561 80.0774673,91.7448049 C80.8178411,92.5834634 81.2833551,93.2937073 80.6589626,93.556878 C79.8709252,93.8898049 78.2281215,91.589439 77.5385888,90.8839512" id="Fill-51" fill="#F88667" mask="url(#mask-6)"></path>
                <path d="M77.229729,82.2945976 L72.4903832,85.4463049 C72.4903832,85.4463049 57.5589813,66.1492317 59.1827196,58.8628902 C61.1035607,50.2416707 66.1114112,40.6042317 68.8758972,36.1208171 C69.9451495,34.3848415 70.8618785,33.7617927 70.8618785,33.7617927 C73.7105701,36.493378 75.3390748,40.3093537 74.9720654,43.7353293 C74.8084206,45.2667927 74.0648692,46.2624024 73.2418785,47.8208171 C70.7220654,52.5927683 67.6414112,60.863622 67.7415047,61.7038659 C67.9051495,63.0545976 77.229729,82.2945976 77.229729,82.2945976" id="Fill-52" fill="#FF5D12" mask="url(#mask-6)"></path>
            </g>
        </g>
    </g>
</svg>