<?xml version="1.0" encoding="UTF-8"?>
<svg width="147px" height="130px" viewBox="0 0 147 130" version="1.1" xmlns="http://www.w3.org/2000/svg" xmlns:xlink="http://www.w3.org/1999/xlink">
    <title>0B7F94BF-CFA6-46AC-9230-57CCCBA5B261</title>
    <defs>
        <polygon id="path-1" points="0 129 146.381968 129 146.381968 0.195162782 0 0.195162782"></polygon>
    </defs>
    <g id="Page-1" stroke="none" stroke-width="1" fill="none" fill-rule="evenodd">
        <g id="HOME" transform="translate(-642.000000, -1373.000000)">
            <g id="Group-64" transform="translate(642.000000, 1373.000000)">
                <polygon id="Fill-1" fill="#424444" points="22 108.555556 125 108.555556 125 92.5555556 22 92.5555556"></polygon>
                <g id="Group-63" transform="translate(0.000000, 0.555556)">
                    <path d="M128.127413,102.540398 L18.2536065,102.540398 C14.7667032,102.540398 11.9405097,99.7081833 11.9405097,96.215804 L11.9405097,26.6183525 C11.9405097,23.1259732 14.7667032,20.2937581 18.2536065,20.2937581 L128.127413,20.2937581 C131.614316,20.2937581 134.44209,23.1259732 134.44209,26.6183525 L134.44209,96.215804 C134.44209,99.7081833 131.614316,102.540398 128.127413,102.540398" id="Fill-2" fill="#424444"></path>
                    <mask id="mask-2" fill="white">
                        <use xlink:href="#path-1"></use>
                    </mask>
                    <g id="Clip-5"></g>
                    <polygon id="Fill-4" fill="#FEFEFE" mask="url(#mask-2)" points="17.5815161 96.2403425 128.802032 96.2403425 128.802032 25.7436745 17.5815161 25.7436745"></polygon>
                    <path d="M-0.000474193548,124.499327 L-0.000474193548,126.747368 C-0.000474193548,127.991706 1.35097742,129.000158 3.02013871,129.000158 L143.362461,129.000158 C145.030042,129.000158 146.381494,127.991706 146.381494,126.747368 L146.381494,124.499327 L-0.000474193548,124.499327 Z" id="Fill-6" fill="#424444" mask="url(#mask-2)"></path>
                    <path d="M73.1908258,107.152999 L13.1089226,107.152999 C12.9050194,107.368304 3.46066452,115.836453 0.575987097,122.127802 C-0.658496774,124.817535 0.147632258,126.232851 2.44430968,126.232851 L73.1908258,126.232851 L143.937342,126.232851 C146.234019,126.232851 147.040148,124.817535 145.805665,122.127802 C142.920987,115.836453 133.476632,107.368304 133.272729,107.152999 L73.1908258,107.152999 Z" id="Fill-7" fill="#424444" mask="url(#mask-2)"></path>
                    <polygon id="Fill-8" fill="#9C9EB9" mask="url(#mask-2)" points="138.779855 123.015145 10.7602419 123.015145 19.6308226 109.860938 129.907694 109.860938"></polygon>
                    <path d="M117.762174,120.295015 L116.494497,117.10343 L126.017884,117.10343 L127.582723,120.295015 L117.762174,120.295015 Z M107.122852,120.295015 L106.179206,117.10343 L115.699432,117.10343 L116.941819,120.295015 L107.122852,120.295015 Z M96.4819484,120.295015 L95.8639161,117.10343 L105.384142,117.10343 L106.302497,120.295015 L96.4819484,120.295015 Z M95.1621097,113.501815 L104.347239,113.501815 L105.265594,116.6934 L95.7833032,116.6934 L95.1621097,113.501815 Z M85.8442065,120.295015 L85.5470452,117.10343 L95.0688516,117.10343 L95.6631742,120.295015 L85.8442065,120.295015 Z M85.2119484,113.501815 L94.3970774,113.501815 L94.9914,116.6934 L85.5091097,116.6934 L85.2119484,113.501815 Z M114.298981,113.501815 L115.539787,116.6934 L106.057497,116.6934 L105.113852,113.501815 L114.298981,113.501815 Z M124.249142,113.501815 L125.815561,116.6934 L116.33169,116.6934 L115.064013,113.501815 L124.249142,113.501815 Z M75.7296581,120.295015 L75.7296581,117.10343 L84.7519806,117.10343 L85.022271,120.295015 L75.7296581,120.295015 Z M75.7296581,113.501815 L84.4453355,113.501815 L84.7172065,116.6934 L75.7296581,116.6934 L75.7296581,113.501815 Z M74.9172065,116.6934 L65.613529,116.6934 L65.8854,113.501815 L74.9172065,113.501815 L74.9172065,116.6934 Z M74.9172065,120.295015 L65.3068839,120.295015 L65.5771742,117.10343 L74.9172065,117.10343 L74.9172065,120.295015 Z M64.8216258,116.6934 L55.3393355,116.6934 L55.9336581,113.501815 L65.1172065,113.501815 L64.8216258,116.6934 Z M64.4881097,120.295015 L54.6675613,120.295015 L55.2618839,117.10343 L64.7821097,117.10343 L64.4881097,120.295015 Z M54.5474323,116.6934 L45.0651419,116.6934 L45.9834968,113.501815 L55.1670452,113.501815 L54.5474323,116.6934 Z M53.8472065,120.295015 L44.0282387,120.295015 L44.9465935,117.10343 L54.4668194,117.10343 L53.8472065,120.295015 Z M43.2078839,120.295015 L33.3873355,120.295015 L34.6297226,117.10343 L44.151529,117.10343 L43.2078839,120.295015 Z M32.5685613,120.295015 L22.7480129,120.295015 L24.3128516,117.10343 L33.8346581,117.10343 L32.5685613,120.295015 Z M26.0815935,113.501815 L35.2651419,113.501815 L33.9990452,116.6934 L24.5151742,116.6934 L26.0815935,113.501815 Z M36.0317548,113.501815 L45.2168839,113.501815 L44.2732387,116.6934 L34.7893677,116.6934 L36.0317548,113.501815 Z M137.223077,120.706628 L136.944884,120.295015 L128.401497,120.295015 L126.811368,117.10343 L134.792045,117.10343 L134.515432,116.6934 L126.607465,116.6934 L125.015755,113.501815 L132.362594,113.501815 L132.087561,113.090202 L124.810271,113.090202 L123.199594,109.860622 L122.463013,109.860622 L124.0484,113.090202 L114.901206,113.090202 L113.619303,109.860622 L112.881142,109.860622 L114.137755,113.090202 L104.992142,113.090202 L104.037432,109.860622 L103.299271,109.860622 L104.22869,113.090202 L95.0830774,113.090202 L94.4555613,109.860622 L93.7174,109.860622 L94.3196258,113.090202 L85.1740129,113.090202 L84.8736903,109.860622 L84.1371097,109.860622 L84.4105613,113.090202 L75.7296581,113.090202 L75.7296581,109.860622 L74.9172065,109.860622 L74.9172065,113.090202 L65.9185935,113.090202 L66.1936258,109.860622 L65.4554645,109.860622 L65.1567226,113.090202 L56.0111097,113.090202 L56.6117548,109.860622 L55.8751742,109.860622 L55.2460774,113.090202 L46.1004645,113.090202 L47.0314645,109.860622 L46.2917226,109.860622 L45.3385935,113.090202 L36.1929806,113.090202 L37.4480129,109.860622 L36.7114323,109.860622 L35.4279484,113.090202 L26.2823355,113.090202 L27.8677226,109.860622 L27.1295613,109.860622 L25.5204645,113.090202 L17.4528516,113.090202 L17.1746581,113.501815 L25.3149806,113.501815 L23.723271,116.6934 L15.0234,116.6934 L14.7452065,117.10343 L23.5193677,117.10343 L21.9276581,120.295015 L12.5939484,120.295015 L12.3157548,120.706628 L21.7221742,120.706628 L20.5714645,123.014828 L21.4123677,123.014828 L22.5456903,120.706628 L32.4041742,120.706628 L31.4874,123.014828 L32.3283032,123.014828 L33.2276903,120.706628 L43.0861742,120.706628 L42.4033355,123.014828 L43.2442387,123.014828 L43.9081097,120.706628 L53.7681742,120.706628 L53.3176903,123.014828 L54.1601742,123.014828 L54.5901097,120.706628 L64.4485935,120.706628 L64.2352065,123.014828 L65.0761097,123.014828 L65.2721097,120.706628 L74.9172065,120.706628 L74.9172065,123.014828 L75.7296581,123.014828 L75.7296581,120.706628 L85.0586258,120.706628 L85.2546258,123.014828 L86.095529,123.014828 L85.8805613,120.706628 L95.7390452,120.706628 L96.1705613,123.014828 L97.0114645,123.014828 L96.5625613,120.706628 L106.421045,120.706628 L107.084916,123.014828 L107.925819,123.014828 L107.244561,120.706628 L117.103045,120.706628 L118.000852,123.014828 L118.843335,123.014828 L117.926561,120.706628 L127.785045,120.706628 L128.918368,123.014828 L129.759271,123.014828 L128.606981,120.706628 L137.223077,120.706628 Z" id="Fill-9" fill="#D0D1DE" mask="url(#mask-2)"></path>
                    <path d="M73.1908258,126.232535 L66.9725677,126.232535 C66.975729,126.248366 66.9583419,126.78188 67.2839548,127.093756 C67.4056645,127.210908 67.5779548,127.269483 67.7549871,127.269483 L73.1908258,127.269483 L78.6266645,127.269483 C78.8052774,127.269483 78.9759871,127.210908 79.0976968,127.093756 C79.4233097,126.78188 79.4059226,126.248366 79.4090839,126.232535 L73.1908258,126.232535 Z" id="Fill-10" fill="#424444" mask="url(#mask-2)"></path>
                    <polygon id="Fill-11" fill="#FEFEFE" mask="url(#mask-2)" points="17.5815161 96.2403425 128.792548 96.2403425 128.792548 25.750007 17.5815161 25.750007"></polygon>
                    <polygon id="Fill-12" fill="#00D8DF" mask="url(#mask-2)" points="75.2515129 61.7075821 65.2159968 66.1767511 52.5234161 53.4642372 17.5816742 80.1336032 17.5816742 96.2387593 128.792706 96.2387593 128.792706 13.4063618 82.3280613 69.7245398"></polygon>
                    <polygon id="Fill-13" fill="#FEFEFE" mask="url(#mask-2)" points="39.5113871 77.4185395 43.0615161 77.4185395 43.0615161 74.7240565 39.5113871 74.7240565"></polygon>
                    <polygon id="Fill-14" fill="#FEFEFE" mask="url(#mask-2)" points="44.5172903 77.4185395 48.0658387 77.4185395 48.0658387 74.7240565 44.5172903 74.7240565"></polygon>
                    <polygon id="Fill-15" fill="#FF5D12" mask="url(#mask-2)" points="49.5216129 77.4185395 53.0717419 77.4185395 53.0717419 74.7240565 49.5216129 74.7240565"></polygon>
                    <polygon id="Fill-16" fill="#FEFEFE" mask="url(#mask-2)" points="54.5275161 77.4185395 58.0760645 77.4185395 58.0760645 74.7240565 54.5275161 74.7240565"></polygon>
                    <polygon id="Fill-17" fill="#FEFEFE" mask="url(#mask-2)" points="59.5318387 77.4185395 63.0819677 77.4185395 63.0819677 74.7240565 59.5318387 74.7240565"></polygon>
                    <polygon id="Fill-18" fill="#FF5D12" mask="url(#mask-2)" points="64.5377419 77.4185395 68.087871 77.4185395 68.087871 74.7240565 64.5377419 74.7240565"></polygon>
                    <polygon id="Fill-19" fill="#FEFEFE" mask="url(#mask-2)" points="39.5113871 82.0206912 43.0615161 82.0206912 43.0615161 79.3262082 39.5113871 79.3262082"></polygon>
                    <polygon id="Fill-20" fill="#FEFEFE" mask="url(#mask-2)" points="44.5172903 82.0206912 48.0658387 82.0206912 48.0658387 79.3262082 44.5172903 79.3262082"></polygon>
                    <polygon id="Fill-21" fill="#FEFEFE" mask="url(#mask-2)" points="49.5216129 82.0206912 53.0717419 82.0206912 53.0717419 79.3262082 49.5216129 79.3262082"></polygon>
                    <polygon id="Fill-22" fill="#FEFEFE" mask="url(#mask-2)" points="54.5275161 82.0206912 58.0760645 82.0206912 58.0760645 79.3262082 54.5275161 79.3262082"></polygon>
                    <polygon id="Fill-23" fill="#FF5D12" mask="url(#mask-2)" points="59.5318387 82.0206912 63.0819677 82.0206912 63.0819677 79.3262082 59.5318387 79.3262082"></polygon>
                    <polygon id="Fill-24" fill="#FEFEFE" mask="url(#mask-2)" points="64.5377419 82.0206912 68.087871 82.0206912 68.087871 79.3262082 64.5377419 79.3262082"></polygon>
                    <polygon id="Fill-25" fill="#FEFEFE" mask="url(#mask-2)" points="39.5113871 86.6228429 43.0615161 86.6228429 43.0615161 83.9267767 39.5113871 83.9267767"></polygon>
                    <polygon id="Fill-26" fill="#FF5D12" mask="url(#mask-2)" points="44.5172903 86.6228429 48.0658387 86.6228429 48.0658387 83.9267767 44.5172903 83.9267767"></polygon>
                    <polygon id="Fill-27" fill="#FEFEFE" mask="url(#mask-2)" points="49.5216129 86.6228429 53.0717419 86.6228429 53.0717419 83.9267767 49.5216129 83.9267767"></polygon>
                    <polygon id="Fill-28" fill="#FEFEFE" mask="url(#mask-2)" points="54.5275161 86.6228429 58.0760645 86.6228429 58.0760645 83.9267767 54.5275161 83.9267767"></polygon>
                    <polygon id="Fill-29" fill="#FEFEFE" mask="url(#mask-2)" points="59.5318387 86.6228429 63.0819677 86.6228429 63.0819677 83.9267767 59.5318387 83.9267767"></polygon>
                    <polygon id="Fill-30" fill="#FEFEFE" mask="url(#mask-2)" points="64.5377419 86.6228429 68.087871 86.6228429 68.087871 83.9267767 64.5377419 83.9267767"></polygon>
                    <polygon id="Fill-31" fill="#FEFEFE" mask="url(#mask-2)" points="39.5113871 91.2249945 43.0615161 91.2249945 43.0615161 88.5289284 39.5113871 88.5289284"></polygon>
                    <polygon id="Fill-32" fill="#FEFEFE" mask="url(#mask-2)" points="44.5172903 91.2249945 48.0658387 91.2249945 48.0658387 88.5289284 44.5172903 88.5289284"></polygon>
                    <polygon id="Fill-33" fill="#FF5D12" mask="url(#mask-2)" points="49.5216129 91.2249945 53.0717419 91.2249945 53.0717419 88.5289284 49.5216129 88.5289284"></polygon>
                    <polygon id="Fill-34" fill="#FEFEFE" mask="url(#mask-2)" points="54.5275161 91.2249945 58.0760645 91.2249945 58.0760645 88.5289284 54.5275161 88.5289284"></polygon>
                    <polygon id="Fill-35" fill="#FFFFFF" mask="url(#mask-2)" points="76.4524871 67.0986062 76.0968419 66.7455688 75.6447774 66.933961 75.3602613 66.2373849 76.2454226 65.8637668 76.9488097 66.5603429"></polygon>
                    <path d="M73.2248097,67.9534951 L72.9387129,67.2553359 L74.1510677,66.7455688 L74.4371645,67.443728 L73.2248097,67.9534951 Z M70.8001,68.9761955 L70.5140032,68.2764531 L71.7279387,67.7651029 L72.0124548,68.4648453 L70.8001,68.9761955 Z M68.3659065,70.000479 L68.0798097,69.3007366 L69.2984871,68.7878033 L69.5830032,69.4891288 L68.3659065,70.000479 Z" id="Fill-36" fill="#FFFFFF" mask="url(#mask-2)"></path>
                    <polygon id="Fill-37" fill="#FFFFFF" mask="url(#mask-2)" points="66.2661774 70.8863971 65.5295968 70.2420642 65.9990484 69.6673889 66.3910484 70.0109276 66.8620806 69.8130367 67.1481774 70.5143621"></polygon>
                    <path d="M55.8391355,61.7686908 L54.7611355,60.82673 L55.235329,60.2568041 L56.313329,61.1987649 L55.8391355,61.7686908 Z M57.9919742,63.6510295 L56.9171355,62.7106517 L57.3881677,62.1391427 L58.4661677,63.0811036 L57.9919742,63.6510295 Z M60.1463935,65.5349512 L59.0699742,64.5929903 L59.5425871,64.0214813 L60.6174258,64.9634422 L60.1463935,65.5349512 Z M62.3008129,67.4172898 L61.2243935,66.4769121 L61.6954258,65.9038199 L62.7718452,66.8457808 L62.3008129,67.4172898 Z M64.4536516,69.2996284 L63.3788129,68.3592507 L63.8466839,67.7861585 L64.9231032,68.7281194 L64.4536516,69.2996284 Z" id="Fill-38" fill="#FFFFFF" mask="url(#mask-2)"></path>
                    <polygon id="Fill-39" fill="#FFFFFF" mask="url(#mask-2)" points="53.6844 59.8841359 53.3382387 59.5801754 52.9652065 59.8429745 52.5400129 59.2176392 53.3793355 58.6302989 54.1601742 59.31421"></polygon>
                    <path d="M50.4907065,61.5831483 L50.0639323,60.9578129 L51.3031581,60.0886759 L51.7299323,60.710845 L50.4907065,61.5831483 Z M48.0059323,63.3309211 L47.5807387,62.7040026 L48.8247065,61.8316993 L49.2499,62.4570347 L48.0059323,63.3309211 Z M45.5148355,65.0850264 L45.0864806,64.4581079 L46.3336097,63.5810552 L46.7619645,64.2063906 L45.5148355,65.0850264 Z M43.0126742,66.843881 L42.5843194,66.2169625 L43.8361903,65.3367436 L44.2645452,65.9636621 L43.0126742,66.843881 Z M40.501029,68.6106513 L40.0726742,67.9821497 L41.3292871,67.0987645 L41.7576419,67.7272662 L40.501029,68.6106513 Z M37.9814806,70.3837541 L37.5515452,69.7536694 L38.8129,68.867118 L39.2428355,69.4972027 L37.9814806,70.3837541 Z M35.4508677,72.1631894 L35.0225129,71.5315216 L36.2886097,70.6418039 L36.7169645,71.2734718 L35.4508677,72.1631894 Z M32.9139323,73.9489573 L32.4839968,73.3157063 L33.7548355,72.4228224 L34.184771,73.0560734 L32.9139323,73.9489573 Z M30.3675129,75.7410576 L29.9359968,75.1062235 L31.2131581,74.2101733 L31.6415129,74.8434243 L30.3675129,75.7410576 Z M27.810029,77.5394905 L27.3800935,76.9030732 L28.6588355,76.0038568 L29.0903516,76.6386909 L27.810029,77.5394905 Z M25.2446419,79.3442558 L24.8131258,78.7062554 L26.0966097,77.8038728 L26.5297065,78.44029 L25.2446419,79.3442558 Z M22.669771,81.1553537 L22.2382548,80.5173533 L23.5264806,79.6118044 L23.9579968,80.2498048 L22.669771,81.1553537 Z M20.0869968,82.9743672 L19.6539,82.3332006 L20.9468677,81.4244854 L21.3799645,82.0640689 L20.0869968,82.9743672 Z" id="Fill-40" fill="#FFFFFF" mask="url(#mask-2)"></path>
                    <path d="M127.0423,22.9852331 L126.517526,22.4944636 L127.404268,21.4606814 L127.930623,21.9514509 L127.0423,22.9852331 Z M125.387365,24.9498944 L124.86101,24.4591249 L125.749332,23.4253426 L126.274106,23.9161121 L125.387365,24.9498944 Z M123.732429,26.9145556 L123.206074,26.4237861 L124.094397,25.391587 L124.619171,25.8807734 L123.732429,26.9145556 Z M121.954203,28.9900358 L121.427848,28.4976831 L122.317752,27.4607346 L122.844106,27.9515041 L121.954203,28.9900358 Z M120.171235,31.0702653 L119.6433,30.5779127 L120.536365,29.5377979 L121.0643,30.0301506 L120.171235,31.0702653 Z M118.381945,33.1584105 L117.85401,32.6660579 L118.748655,31.6211937 L119.278171,32.1151295 L118.381945,33.1584105 Z M116.586332,35.2544713 L116.056816,34.7605356 L116.954623,33.7125051 L117.484139,34.2064409 L116.586332,35.2544713 Z M114.784397,37.3568647 L114.2533,36.8629289 L115.155848,35.8117322 L115.685365,36.305668 L114.784397,37.3568647 Z M112.977719,39.4671736 L112.445042,38.9716547 L113.350752,37.9172918 L113.881848,38.4112276 L112.977719,39.4671736 Z M111.161558,41.5853982 L110.628881,41.0882962 L111.537752,40.0291839 L112.068848,40.5262859 L111.161558,41.5853982 Z M109.340655,43.7083722 L108.806397,43.2128533 L109.718429,42.1489916 L110.251106,42.6445105 L109.340655,43.7083722 Z M107.513429,45.840845 L106.979171,45.3437429 L107.894365,44.276715 L108.428623,44.7722339 L107.513429,45.840845 Z M105.679881,47.9796502 L105.144042,47.4825482 L106.063977,46.4107709 L106.596655,46.9078729 L105.679881,47.9796502 Z M103.84001,50.1263711 L103.304171,49.627686 L104.224106,48.5527424 L104.759945,49.0514276 L103.84001,50.1263711 Z M101.993816,52.2794246 L101.456397,51.7807394 L102.381074,50.7026296 L102.918494,51.2013147 L101.993816,52.2794246 Z M100.1413,54.4419767 L99.6038806,53.9417084 L100.531719,52.8604324 L101.069139,53.3607006 L100.1413,54.4419767 Z M98.2840419,56.6108614 L97.7450419,56.10901 L98.6760419,55.0245677 L99.2150419,55.524836 L98.2840419,56.6108614 Z M96.4173,58.7876617 L95.8783,58.2842272 L96.8124613,57.1950355 L97.3514613,57.69847 L96.4173,58.7876617 Z M94.5458161,60.9723777 L94.0052355,60.46736 L94.9425581,59.3750021 L95.4831387,59.8800197 L94.5458161,60.9723777 Z M92.6680097,63.1634262 L92.1258484,62.6599916 L93.0663323,61.5628843 L93.6084935,62.0679019 L92.6680097,63.1634262 Z M90.7838806,65.3639734 L90.2401387,64.8573726 L91.1822032,63.757099 L91.7259452,64.2636998 L90.7838806,65.3639734 Z M88.8902677,67.5708532 L88.3481065,67.0642524 L89.2949129,65.9608125 L89.8370742,66.4674133 L88.8902677,67.5708532 Z M86.9934935,69.7856485 L86.448171,69.2790477 L87.3981387,68.1708585 L87.9434613,68.6774593 L86.9934935,69.7856485 Z M85.0872355,72.0099427 L84.5419129,71.5017588 L85.4966226,70.3888201 L86.0419452,70.8970041 L85.0872355,72.0099427 Z" id="Fill-41" fill="#FFFFFF" mask="url(#mask-2)"></path>
                    <polygon id="Fill-42" fill="#FFFFFF" mask="url(#mask-2)" points="83.4093806 73.9668466 82.6032516 73.1721166 83.0979935 72.630687 83.3556387 72.8839874 83.5848323 72.6148557 84.1317355 73.1230396"></polygon>
                    <path d="M78.9129194,69.5274405 L77.6831774,68.3131817 L78.1795,67.7749183 L79.4076613,68.987594 L78.9129194,69.5274405 Z M81.3739839,71.9559581 L80.1426613,70.7416993 L80.6389839,70.2018528 L81.8671452,71.4161116 L81.3739839,71.9559581 Z" id="Fill-43" fill="#FFFFFF" mask="url(#mask-2)"></path>
                    <path d="M125.838323,5.17884818 L82.4843871,60.2194423 L75.4710645,51.7402113 L65.2031935,56.6178272 L52.1597097,42.6783895 L17.5815161,70.8358953 L17.5815161,74.220622 L52.0316774,46.1691856 L64.8823226,59.9012336 L75.090129,55.050531 L82.5128387,64.0252808 L127.502742,6.90445716 C126.916323,6.35669504 126.340968,5.79151852 125.838323,5.17884818" id="Fill-44" fill="#FF5D12" mask="url(#mask-2)"></path>
                    <polygon id="Fill-45" fill="#FF5D12" mask="url(#mask-2)" points="132.554484 0.195321094 122.324548 3.66395347 129.09129 10.4413223"></polygon>
                    <path d="M30.9626258,34.7233321 C33.2751097,34.8974761 35.3836903,35.8853476 35.3979161,38.1998801 L31.5443032,38.2220438 C31.5205935,37.3481575 30.6227871,37.1645147 30.0616581,37.1676809 C29.7060129,37.1708472 28.5616258,37.1771797 28.5647871,37.8864208 C28.574271,39.4711315 35.6650452,37.7819344 35.6920049,42.2653515 C35.7077226,44.953502 33.6117871,45.9682867 31.0305935,46.1693439 L31.2139484,49.0268891 L28.8619484,49.0411372 L28.9899806,46.1614283 C26.5937226,45.9255423 24.3586903,44.8141868 24.3444645,42.3935848 L28.1964968,42.371421 L28.1980774,42.4537437 C28.2249484,43.5176054 29.4135935,43.7202457 30.0158194,43.7154963 C30.6006581,43.71233 31.7450452,43.6648362 31.7387226,42.89227 C31.7292387,41.2458174 24.6400452,42.7893667 24.6131742,38.4515973 C24.600529,35.9486727 26.5289161,34.9782156 28.9235935,34.7565777 L28.7607871,31.880035 L31.1127871,31.8642038 L30.9626258,34.7233321 Z" id="Fill-46" fill="#FF5D12" mask="url(#mask-2)"></path>
                    <path d="M89.7180516,112.282648 C89.7180516,112.282648 89.8792774,115.418824 89.422471,115.884264 C88.9672452,116.351286 82.7679548,117.028865 82.1862774,116.5001 C81.6077613,115.971336 81.8464387,114.985047 83.150471,114.508526 C84.5493419,113.997176 85.2811806,114.332799 86.1473742,113.88794 C87.0151484,113.443081 86.6658258,112.048346 86.6658258,112.048346 L89.7180516,112.282648 Z" id="Fill-47" fill="#424444" mask="url(#mask-2)"></path>
                    <path d="M110.047361,112.282648 C110.047361,112.282648 109.886135,115.418824 110.342942,115.884264 C110.798168,116.351286 116.997458,117.028865 117.579135,116.5001 C118.157652,115.971336 117.918974,114.985047 116.613361,114.508526 C115.216071,113.997176 114.484232,114.332799 113.616458,113.88794 C112.750265,113.443081 113.099587,112.048346 113.099587,112.048346 L110.047361,112.282648 Z" id="Fill-48" fill="#424444" mask="url(#mask-2)"></path>
                    <path d="M110.386884,94.1431735 C109.708787,90.7267843 106.076465,81.4021633 104.731335,78.1678338 C104.189174,77.984191 103.596432,77.8052976 102.995787,77.6295704 C103.153852,76.9013318 103.258174,76.2759964 103.375142,75.7282343 C102.320852,76.0068647 101.200174,76.1414306 100.068432,76.5023836 C99.913529,76.5514606 99.7428194,76.6021207 99.5626258,76.655947 C99.3824323,76.6021207 99.2117226,76.5514606 99.0584,76.5023836 C97.9234968,76.1414306 96.8044,76.0068647 95.7501097,75.7282343 C95.8654968,76.2759964 95.9729806,76.9013318 96.1294645,77.6295704 C95.5304,77.8052976 94.9376581,77.984191 94.3954968,78.1678338 C93.0487871,81.4021633 89.4148839,90.7267843 88.7399484,94.1431735 C87.8026258,98.8703922 86.2377871,112.882654 86.2377871,112.882654 L90.2273355,113.408252 C90.2273355,113.408252 94.234271,94.5832829 94.8080452,93.5400019 C95.8338839,91.6703283 96.9118839,90.0143769 97.8713355,88.5484008 C98.6727226,87.3262264 100.45411,87.3262264 101.255497,88.5484008 C102.214948,90.0143769 103.292948,91.6703283 104.318787,93.5400019 C104.890981,94.5832829 108.899497,113.408252 108.899497,113.408252 L112.887465,112.882654 C112.887465,112.882654 111.322626,98.8703922 110.386884,94.1431735" id="Fill-49" fill="#FF5D12" mask="url(#mask-2)"></path>
                    <path d="M111.485906,35.887564 C111.25039,34.2648583 111.008552,34.0147242 110.46481,33.6965156 C110.207165,33.5461184 109.955842,33.416302 109.78039,33.180416 C109.600197,32.9381975 109.301455,32.7244753 109.051713,32.5170856 C108.817777,32.3223609 108.507971,32.1165543 108.402068,31.7920132 C108.277197,31.4025638 108.786165,31.5086333 109.114939,31.628951 C109.473745,31.7587675 110.143939,32.746639 110.526455,32.6104901 C110.90581,32.4743411 110.012745,31.3234074 109.830971,31.0970202 C109.404197,30.5619231 108.89681,30.634747 108.327777,30.3877791 C107.995842,30.2437145 107.888358,30.0774861 108.247165,29.8621807 C108.514294,29.7022848 108.855713,29.8336844 109.126003,29.9255058 C109.674487,30.1107317 110.260906,30.4384391 110.659229,30.8785486 C110.388939,30.498598 109.739294,30.0537392 109.322003,29.8416001 C109.034326,29.6943692 107.698681,29.2859223 107.891519,28.8125672 C108.274035,27.8626907 110.867874,29.6532079 111.15081,30.1534762 C110.817294,29.6817042 110.341519,29.3587462 109.872068,29.0247063 C109.598616,28.8283985 108.928423,28.3914553 109.489552,28.165068 C110.31939,27.8310281 111.321519,29.3729943 111.893713,29.9824984 C111.656616,29.4632326 111.315197,29.1481902 110.927939,28.6764182 C110.469552,28.1207405 111.038584,27.9766759 111.604455,28.4674454 C111.844713,28.6716688 112.247777,29.1608552 112.334713,29.2685079 C113.238842,30.4131091 113.273616,31.1777597 113.433261,32.572495 C113.491745,33.0727633 113.50439,33.8896571 113.668777,35.3477175 C113.762035,36.185192 112.186132,35.7529982 111.485906,35.887564" id="Fill-50" fill="#F88667" mask="url(#mask-2)"></path>
                    <path d="M72.6613097,58.5592164 C71.1280839,57.982958 70.9384065,57.3671214 70.7455677,56.765533 C70.6538903,56.4837363 70.5811806,56.2098552 70.3899226,55.9866342 C70.1923419,55.7570808 70.0469226,55.4214577 69.8967613,55.1317454 C69.7560839,54.8610306 69.6233097,54.5143257 69.3293097,54.3401816 C68.9752452,54.1343751 68.9705032,54.6568071 69.0163419,55.0035121 C69.0685032,55.3818795 69.8872774,56.2510165 69.6723097,56.5929721 C69.4589226,56.9365108 68.5279226,55.8172396 68.3461484,55.5908524 C67.9146323,55.0589215 68.0932452,54.5776508 67.9746968,53.9697298 C67.9051484,53.6135261 67.7660516,53.4726278 67.4815355,53.7765882 C67.2665677,54.0045586 67.323471,54.3655117 67.3535032,54.6488915 C67.416729,55.2283162 67.612729,55.8694828 67.955729,56.3523367 C67.6427613,56.008798 67.3503419,55.27581 67.2302129,54.8246187 C67.1496,54.5111594 67.0326323,53.1180072 66.5315677,53.2034961 C65.5231161,53.376057 66.7149226,56.2969272 67.1448581,56.6800441 C66.7544387,56.2525997 66.5410516,55.7190857 66.3150194,55.188738 C66.1822452,54.8768619 65.9008903,54.1296257 65.559471,54.6314771 C65.0552452,55.3707976 66.3450516,56.6816272 66.8176645,57.3702877 C66.3624387,57.0283321 66.1269226,56.6246346 65.750729,56.1465301 C65.3049871,55.5797705 65.0457613,56.1053688 65.3998258,56.7639499 C65.5499871,57.0409972 65.9404065,57.5428486 66.0273419,57.6489181 C66.9488581,58.7792712 67.6886,58.9771621 69.0131806,59.4315197 C69.4905355,59.5945818 69.9947613,59.63416 71.5659226,60.3972275 C72.3230516,60.7645131 72.3783742,59.2162144 72.6613097,58.5592164" id="Fill-51" fill="#F88667" mask="url(#mask-2)"></path>
                    <path d="M101.529739,55.5204032 C100.660384,55.691381 99.7483516,55.7182941 98.9169323,55.6470534 C98.6118677,55.6217234 98.3004806,55.5536489 98.0017387,55.4507456 C98.0396742,56.5399373 98.0396742,59.0666088 97.2746419,60.1035573 C97.2746419,60.1035573 97.5449323,61.3225655 99.7673194,61.3542281 C101.991287,61.3858906 102.263158,60.1035573 102.263158,60.1035573 C102.263158,60.1035573 101.447545,58.2845438 101.529739,55.5204032" id="Fill-52" fill="#F88667" mask="url(#mask-2)"></path>
                    <path d="M110.076603,61.6759196 C109.471216,60.9017702 106.599184,59.198325 104.651829,58.8896152 C101.498442,58.3877637 98.2660226,58.3877637 95.1110548,58.8896152 C93.1668613,59.198325 91.2321516,59.6906777 90.6267645,60.464827 C89.8680548,61.4352842 92.1362806,66.8749103 92.5156355,71.8665113 C92.8286032,76.0032235 93.3913129,79.2027242 93.3913129,79.2027242 C94.6368613,81.4950929 104.381539,81.558418 105.628668,79.2644662 C105.628668,79.2644662 105.862603,75.7277593 106.539119,71.8665113 C107.417958,66.8369153 110.843216,62.6574586 110.076603,61.6759196" id="Fill-53" fill="#E5E6ED" mask="url(#mask-2)"></path>
                    <path d="M94.4245806,70.7155776 C94.4862258,69.3730855 94.9303871,66.9667317 94.4356452,65.7350585 C93.7306774,63.9746207 92.1342258,63.3160397 90.6579032,62.5118109 C91.0989032,64.7630182 92.2543548,68.4073777 92.5151613,71.8665113 C92.828129,76.0032235 93.3924194,79.2027242 93.3924194,79.2027242 C93.6216129,79.6254193 94.1621935,79.9642086 94.8671613,80.2333402 C93.4809355,77.5768523 94.3012903,73.3340705 94.4245806,70.7155776" id="Fill-54" fill="#ABADC4" mask="url(#mask-2)"></path>
                    <path d="M104.521268,49.4608243 C104.521268,49.4608243 99.918429,46.7473438 99.2197839,47.4154236 C98.5211387,48.0819203 97.4304935,50.350542 96.9009774,50.6972469 C96.3698806,51.0423687 95.5432032,51.3716592 95.6174935,51.778523 C95.6902032,52.1869699 95.9589129,52.2138831 95.9367839,52.6254962 C95.9162355,53.0371094 94.9836548,55.0017706 95.4926226,55.5843615 C96.0015903,56.1653693 99.3478161,57.4429532 101.356816,56.1052105 C103.367397,54.7674678 106.789494,50.6750831 104.521268,49.4608243" id="Fill-55" fill="#F88667" mask="url(#mask-2)"></path>
                    <path d="M105.536832,50.4580364 L101.65951,50.5197783 C101.65951,50.5197783 100.927671,52.440112 99.2743161,53.6733683 C99.2743161,53.6733683 99.3675742,54.2464605 99.7801226,54.1293091 C100.195832,54.0121576 100.451897,53.9630807 100.73009,53.5277206 C101.008284,53.0923605 101.844445,51.9604244 102.413477,52.9546284 C102.98251,53.9488325 101.765413,54.2892049 101.254865,54.2812893 C101.254865,54.2812893 99.4908645,56.4248439 100.862865,56.8253752 C100.862865,56.8253752 102.39609,56.5974048 104.727542,54.1182272 C107.060574,51.6390495 106.581639,50.2633117 105.536832,50.4580364" id="Fill-56" fill="#424444" mask="url(#mask-2)"></path>
                    <path d="M98.2016903,45.91731 C98.2016903,45.91731 96.3175613,47.0634944 98.4988516,49.3606124 C100.680142,51.6561473 105.818819,50.4466378 105.818819,50.4466378 C105.818819,50.4466378 106.365723,48.9505823 104.508465,47.3801199 C103.120658,46.2070224 101.598497,45.6086002 100.376658,46.1706104 C98.2981097,47.1268195 98.2016903,45.91731 98.2016903,45.91731" id="Fill-57" fill="#424444" mask="url(#mask-2)"></path>
                    <path d="M72.155029,57.8232205 L70.5064161,60.4527953 C70.5064161,60.4527953 74.7504484,64.5309317 79.6251581,67.7684275 C82.4624161,69.6539323 92.1849645,66.6380744 93.6865774,66.1868831 C95.8315129,65.5425502 97.4453516,60.9942249 93.8651903,59.3050278 C91.7676742,58.31399 83.3554806,64.7161576 81.2943194,63.6317153 C78.7115452,62.2733919 72.155029,57.8232205 72.155029,57.8232205" id="Fill-58" fill="#E5E6ED" mask="url(#mask-2)"></path>
                    <path d="M110.772719,35.205711 L114.044655,34.6579489 C114.044655,34.6579489 116.206977,44.1218851 116.075784,47.5319418 C115.947752,50.9404153 110.537203,63.3283881 109.302719,64.295679 C107.818494,65.4608608 103.704074,62.0967149 106.686752,58.472936 C109.67101,54.847574 111.600977,47.3783784 111.68001,47.0744179 C111.760623,46.7704575 110.772719,35.205711 110.772719,35.205711" id="Fill-59" fill="#E5E6ED" mask="url(#mask-2)"></path>
                    <polygon id="Fill-60" fill="#D0D1DE" mask="url(#mask-2)" points="43.1026129 32.1838372 69.4993871 32.1838372 69.4993871 29.8059797 43.1026129 29.8059797"></polygon>
                    <polygon id="Fill-61" fill="#D0D1DE" mask="url(#mask-2)" points="43.1026129 35.9421819 69.4993871 35.9421819 69.4993871 33.5643244 43.1026129 33.5643244"></polygon>
                    <polygon id="Fill-62" fill="#D0D1DE" mask="url(#mask-2)" points="43.1026129 39.6989435 63.0819677 39.6989435 63.0819677 37.321086 43.1026129 37.321086"></polygon>
                </g>
            </g>
        </g>
    </g>
</svg>