<?xml version="1.0" encoding="UTF-8"?>
<svg width="130px" height="111px" viewBox="0 0 130 111" version="1.1" xmlns="http://www.w3.org/2000/svg" xmlns:xlink="http://www.w3.org/1999/xlink">
    <title>91787333-1A1E-4D1D-8B74-04065F3B3B6F</title>
    <defs>
        <polygon id="path-1" points="0 111 129.90734 111 129.90734 0.608444444 0 0.608444444"></polygon>
    </defs>
    <g id="Page-1" stroke="none" stroke-width="1" fill="none" fill-rule="evenodd">
        <g id="HOME" transform="translate(-245.000000, -1681.000000)">
            <g id="Group-53" transform="translate(245.000000, 1681.000000)">
                <polygon id="Fill-1" fill="#424444" points="79.7333333 108.398438 59.8 108.398438 61.4384876 84.1171875 78.0948457 84.1171875"></polygon>
                <g id="Group-52">
                    <path d="M82.2965,104.482107 C82.0517128,104.1217 81.6423511,103.905181 81.2053298,103.905181 L70.0709681,103.905181 L69.1471383,103.905181 L58.0127766,103.905181 C57.5743723,103.905181 57.1650106,104.1217 56.9202234,104.482107 L53.8832021,108.972811 C53.2982021,109.837515 53.9233085,110.999589 54.9743723,110.999589 L69.1471383,110.999589 L70.0709681,110.999589 L84.2423511,110.999589 C85.2934149,110.999589 85.9185213,109.837515 85.3335213,108.972811 L82.2965,104.482107 Z" id="Fill-2" fill="#424444"></path>
                    <path d="M118.836043,90.6967296 L20.3831702,90.6967296 C17.2576383,90.6967296 14.7240213,88.1862111 14.7240213,85.0891741 L14.7240213,23.3909889 C14.7240213,20.2939519 17.2576383,17.7834333 20.3831702,17.7834333 L118.836043,17.7834333 C121.961574,17.7834333 124.493809,20.2939519 124.493809,23.3909889 L124.493809,85.0891741 C124.493809,88.1862111 121.961574,90.6967296 118.836043,90.6967296" id="Fill-4" fill="#424444"></path>
                    <mask id="mask-2" fill="white">
                        <use xlink:href="#path-1"></use>
                    </mask>
                    <g id="Clip-7"></g>
                    <polygon id="Fill-6" fill="#FEFEFE" mask="url(#mask-2)" points="19.7779787 85.110963 119.439574 85.110963 119.439574 22.6152222 19.7779787 22.6152222"></polygon>
                    <polygon id="Fill-8" fill="#E5E6ED" mask="url(#mask-2)" points="22.2673404 85.110963 116.950213 85.110963 116.950213 29.4204815 22.2673404 29.4204815"></polygon>
                    <polygon id="Fill-9" fill="#B3EEF6" mask="url(#mask-2)" points="22.2673404 34.0276667 116.950213 34.0276667 116.950213 29.4218519 22.2673404 29.4218519"></polygon>
                    <polygon id="Fill-10" fill="#FEFEFE" mask="url(#mask-2)" points="82.9496809 52.9004074 112.354574 52.9004074 112.354574 49.0537778 82.9496809 49.0537778"></polygon>
                    <polygon id="Fill-11" fill="#FEFEFE" mask="url(#mask-2)" points="82.9496809 59.7001852 112.354574 59.7001852 112.354574 55.8535556 82.9496809 55.8535556"></polygon>
                    <polygon id="Fill-12" fill="#FEFEFE" mask="url(#mask-2)" points="82.9496809 66.499963 112.354574 66.499963 112.354574 62.6533333 82.9496809 62.6533333"></polygon>
                    <polygon id="Fill-13" fill="#FEFEFE" mask="url(#mask-2)" points="30.9994681 42.4965556 60.4057447 42.4965556 60.4057447 38.6499259 30.9994681 38.6499259"></polygon>
                    <polygon id="Fill-14" fill="#FEFEFE" mask="url(#mask-2)" points="30.9994681 49.2963333 60.4057447 49.2963333 60.4057447 45.4497037 30.9994681 45.4497037"></polygon>
                    <path d="M59.034383,46.6387741 L3.51885106,46.6387741 C1.57576596,46.6387741 -0.000829787234,48.2009963 -0.000829787234,50.1263667 L-0.000829787234,67.8644407 C-0.000829787234,69.7911815 1.57576596,71.3520333 3.51885106,71.3520333 L38.299383,71.3520333 L51.5469362,82.5137 L45.255766,71.3520333 L59.034383,71.3520333 C60.9774681,71.3520333 62.5540638,69.7911815 62.5540638,67.8644407 L62.5540638,50.1263667 C62.5540638,48.2009963 60.9774681,46.6387741 59.034383,46.6387741" id="Fill-15" fill="#FF5D12" mask="url(#mask-2)"></path>
                    <polygon id="Fill-16" fill="#FFFFFF" mask="url(#mask-2)" points="20.9189362 53.5568148 58.3312766 53.5568148 58.3312766 51.4217778 20.9189362 51.4217778"></polygon>
                    <polygon id="Fill-17" fill="#FFFFFF" mask="url(#mask-2)" points="20.9189362 57.9104815 58.3312766 57.9104815 58.3312766 55.7754444 20.9189362 55.7754444"></polygon>
                    <polygon id="Fill-18" fill="#FFFFFF" mask="url(#mask-2)" points="20.9189362 62.2655185 58.3312766 62.2655185 58.3312766 60.1304815 20.9189362 60.1304815"></polygon>
                    <polygon id="Fill-19" fill="#FFFFFF" mask="url(#mask-2)" points="20.9189362 66.6205556 45.7489362 66.6205556 45.7489362 64.4855185 20.9189362 64.4855185"></polygon>
                    <path d="M17.9570106,58.6148519 C17.9570106,62.5642593 14.7249894,65.7668148 10.7378617,65.7668148 C6.75211702,65.7668148 3.52147872,62.5642593 3.52147872,58.6148519 C3.52147872,54.6640741 6.75211702,51.4628889 10.7378617,51.4628889 C14.7249894,51.4628889 17.9570106,54.6640741 17.9570106,58.6148519" id="Fill-20" fill="#424444" mask="url(#mask-2)"></path>
                    <path d="M12.776234,56.4883111 C12.776234,57.6380519 11.8634681,58.5699037 10.7377234,58.5699037 C9.61474468,58.5699037 8.70197872,57.6380519 8.70197872,56.4883111 C8.70197872,55.3385704 9.61474468,54.4067185 10.7377234,54.4067185 C11.8634681,54.4067185 12.776234,55.3385704 12.776234,56.4883111" id="Fill-21" fill="#FFFFFF" mask="url(#mask-2)"></path>
                    <path d="M10.7760319,58.8838556 L10.7013511,58.8838556 C8.70571277,58.8838556 7.08624468,60.4871889 7.08624468,62.4660037 L7.08624468,64.7504111 C8.16081915,65.3807815 9.39996809,65.7658556 10.7386915,65.7658556 C12.0774149,65.7658556 13.3165638,65.3807815 14.3911383,64.7504111 L14.3911383,62.4660037 C14.3911383,60.4871889 12.7716702,58.8838556 10.7760319,58.8838556" id="Fill-22" fill="#FFFFFF" mask="url(#mask-2)"></path>
                    <path d="M126.387106,0.608307407 L70.8715745,0.608307407 C68.9284894,0.608307407 67.3518936,2.17052963 67.3518936,4.0959 L67.3518936,21.8339741 C67.3518936,23.7607148 68.9284894,25.3215667 70.8715745,25.3215667 L86.9459362,25.3215667 L82.6393404,36.4832333 L93.9037021,25.3215667 L126.387106,25.3215667 C128.330191,25.3215667 129.906787,23.7607148 129.906787,21.8339741 L129.906787,4.0959 C129.906787,2.17052963 128.330191,0.608307407 126.387106,0.608307407" id="Fill-23" fill="#D0D1DE" mask="url(#mask-2)"></path>
                    <polygon id="Fill-24" fill="#FFFFFF" mask="url(#mask-2)" points="88.271383 7.52607407 125.683723 7.52607407 125.683723 5.39103704 88.271383 5.39103704"></polygon>
                    <polygon id="Fill-25" fill="#FFFFFF" mask="url(#mask-2)" points="88.271383 11.8797407 125.683723 11.8797407 125.683723 9.7447037 88.271383 9.7447037"></polygon>
                    <polygon id="Fill-26" fill="#FFFFFF" mask="url(#mask-2)" points="88.271383 16.2347778 125.683723 16.2347778 125.683723 14.0997407 88.271383 14.0997407"></polygon>
                    <polygon id="Fill-27" fill="#FFFFFF" mask="url(#mask-2)" points="88.271383 20.5898148 113.101383 20.5898148 113.101383 18.4547778 88.271383 18.4547778"></polygon>
                    <path d="M85.3095957,12.5843852 C85.3095957,16.5337926 82.0775745,19.7363481 78.0918298,19.7363481 C74.1047021,19.7363481 70.8740638,16.5337926 70.8740638,12.5843852 C70.8740638,8.63497778 74.1047021,5.43242222 78.0918298,5.43242222 C82.0775745,5.43242222 85.3095957,8.63497778 85.3095957,12.5843852" id="Fill-28" fill="#424444" mask="url(#mask-2)"></path>
                    <path d="M80.1288191,10.4578444 C80.1288191,11.6075852 79.2160532,12.539437 78.0916915,12.539437 C76.9673298,12.539437 76.0545638,11.6075852 76.0545638,10.4578444 C76.0545638,9.3081037 76.9673298,8.37625185 78.0916915,8.37625185 C79.2160532,8.37625185 80.1288191,9.3081037 80.1288191,10.4578444" id="Fill-29" fill="#FFFFFF" mask="url(#mask-2)"></path>
                    <path d="M78.1287553,12.8532519 L78.0540745,12.8532519 C76.0584362,12.8532519 74.4389681,14.4565852 74.4389681,16.4354 L74.4389681,18.7198074 C75.5135426,19.3501778 76.7526915,19.7352519 78.0927979,19.7352519 C79.4301383,19.7352519 80.6692872,19.3501778 81.7438617,18.7198074 L81.7438617,16.4354 C81.7438617,14.4565852 80.1243936,12.8532519 78.1287553,12.8532519" id="Fill-30" fill="#FFFFFF" mask="url(#mask-2)"></path>
                    <path d="M110.820436,81.7131296 L88.8020319,81.7131296 C87.0096915,81.7131296 85.5575638,80.2742407 85.5575638,78.4996111 L85.5575638,75.9630556 C85.5575638,74.1884259 87.0096915,72.749537 88.8020319,72.749537 L110.820436,72.749537 C112.611394,72.749537 114.063521,74.1884259 114.063521,75.9630556 L114.063521,78.4996111 C114.063521,80.2742407 112.611394,81.7131296 110.820436,81.7131296" id="Fill-31" fill="#FF5D12" mask="url(#mask-2)"></path>
                    <path d="M72.9681702,44.3035259 C71.489766,44.5858222 69.9352979,44.6228222 68.5135957,44.4994889 C67.9949787,44.4528963 67.4611489,44.3364148 66.9494468,44.1610074 C67.0227447,45.9986741 67.0365745,50.3071185 65.7172128,52.0913407 C65.7172128,52.0913407 66.1929574,54.208563 70.0514681,54.2702296 C73.9113617,54.334637 74.345617,51.448637 74.345617,51.448637 C74.345617,51.448637 73.048383,47.0154889 72.9681702,44.3035259" id="Fill-32" fill="#F88667" mask="url(#mask-2)"></path>
                    <path d="M65.737266,52.1578037 C65.7497128,52.1934333 65.7676915,52.2455074 65.796734,52.3071741 C65.7995,52.3140259 65.8036489,52.3208778 65.8064149,52.3263593 C65.8354574,52.392137 65.8755638,52.4675074 65.9253511,52.5497296 C65.928117,52.5538407 65.9295,52.5565815 65.932266,52.5606926 C65.9834362,52.6429148 66.0512021,52.7361 66.127266,52.8320259 C66.1383298,52.8443593 66.1493936,52.858063 66.1618404,52.8717667 C66.3277979,53.0663593 66.5546064,53.2746556 66.8602447,53.4733593 C66.8768404,53.4843222 66.8934362,53.4952852 66.9114149,53.5062481 C67.0649255,53.6021741 67.2391809,53.6926185 67.4341809,53.7775815 C67.4576915,53.7871741 67.486734,53.798137 67.5116277,53.8091 C67.7163085,53.894063 67.9375851,53.9721741 68.1879043,54.0379519 C68.3082234,53.0677296 68.6816277,52.1221741 69.3260957,51.3232481 C70.4642872,49.9103963 71.971734,49.0922852 73.6700319,48.8236926 C73.340883,47.3889148 73.0075851,45.6389519 72.9688617,44.3042111 C71.4890745,44.5865074 69.9346064,44.6235074 68.5142872,44.4988037 C67.9956702,44.4535815 67.4604574,44.3371 66.9501383,44.1616926 C67.0234362,45.9993593 67.035883,50.3064333 65.7165213,52.0906556 L65.7303511,52.1358778 C65.731734,52.1413593 65.7345,52.1495815 65.737266,52.1578037" id="Fill-33" fill="#E45940" mask="url(#mask-2)"></path>
                    <path d="M67.6226809,33.9897074 C67.6226809,33.9897074 73.9456596,32.138337 74.9538511,33.6567074 C75.9592766,35.1737074 75.7767234,37.6253 76.1971489,38.7051519 C76.6175745,39.7850037 78.1858723,40.9237815 78.3545957,41.3554481 C78.5219362,41.7871148 77.3021489,42.6120778 77.1334255,42.9505593 C76.9633191,43.2876704 76.3271489,46.8341889 75.2290638,47.6166704 C74.1309787,48.4005222 68.2422553,46.3216704 66.7845957,43.5658556 C65.3255532,40.8114111 65.925766,34.8968926 67.6226809,33.9897074" id="Fill-34" fill="#F88667" mask="url(#mask-2)"></path>
                    <path d="M70.5020426,35.0897037 C70.5020426,35.0897037 70.6956596,36.6272593 69.8368298,38.3265185 C69.4578936,39.0761111 71.3456596,41.0686296 70.8201277,41.9744444 C70.471617,42.5774074 69.9585319,42.4252963 69.4938511,41.2330741 C69.3348085,40.8260741 68.8811915,40.5424074 68.4718298,40.3683704 C66.9242766,39.7051111 66.5633191,42.0415926 67.9518298,42.7363704 C68.9226809,43.2228519 68.3445957,45.6593704 68.3445957,45.6593704 C67.3032128,46.4541852 63.8540638,45.4962963 64.233,43.0008519 C64.4736383,41.4125926 64.5801277,40.8082593 64.0186383,40.4218148 C63.000766,39.7215556 61.6786383,37.7783704 63.3506596,36.1298148 C65.6560851,33.8591111 63.5539574,33.1369259 66.2189574,32.4832593 C68.8839574,31.8268519 71.0870426,33.4397778 70.5020426,35.0897037" id="Fill-35" fill="#424444" mask="url(#mask-2)"></path>
                    <path d="M65.7845638,33.7541407 C65.9339255,33.1785852 66.9863723,32.4358444 67.5063723,32.0507704 C68.3085,31.4574 69.2392447,31.0832889 70.2349894,30.8311407 C71.2210532,30.5831037 72.276266,30.5406222 73.2733936,30.7297333 C74.1377553,30.8941778 74.8624362,31.2737704 75.7475426,31.3751778 C76.566266,31.4656222 77.3794574,31.4299926 77.9533936,30.950363 C78.1331809,31.4875481 78.1290319,32.5632889 78.061266,32.9319185 C77.9174362,33.7144 77.3960532,34.4132889 76.9244574,35.1121778 C75.6424362,37.0087704 72.1517979,38.0598444 69.6914787,37.0567333 C68.5035,36.5729926 67.4358404,36.1536593 66.8522234,35.1299926 C66.5161596,34.539363 66.2616915,34.2543259 65.7845638,33.7541407" id="Fill-36" fill="#424444" mask="url(#mask-2)"></path>
                    <path d="M99.5364362,37.839763 L105.650585,51.285837 C105.650585,51.285837 103.861011,53.2797259 103.263564,52.8357259 C102.668883,52.3930963 93.4983511,41.4835778 92.6021809,40.9176148 C91.7087766,40.3516519 99.5364362,37.839763 99.5364362,37.839763" id="Fill-37" fill="#424444" mask="url(#mask-2)"></path>
                    <path d="M84.3777447,39.5139444 C84.3777447,39.5139444 84.4026383,43.3797593 86.7882766,44.2663889 C86.7882766,44.2663889 99.0151915,39.2467222 101.474128,38.7643519 C103.93583,38.2833519 112.880936,38.2093519 112.880936,38.2093519 L103.861149,22.2513889 C103.861149,22.2513889 99.5365745,30.8216852 95.5854043,33.6295741 C91.634234,36.4360926 84.3777447,39.5139444 84.3777447,39.5139444" id="Fill-38" fill="#FF5D12" mask="url(#mask-2)"></path>
                    <path d="M92.3082979,42.0513222 C93.275,41.6703593 94.2845745,41.277063 95.2775532,40.8961 C93.7797872,39.2242481 93.0025532,36.8946185 92.7052128,35.4283222 C91.777234,35.9559148 90.8174468,36.4629519 89.8867021,36.9343593 C90.3015957,39.0269148 91.193617,40.7672852 92.3082979,42.0513222" id="Fill-39" fill="#424444" mask="url(#mask-2)"></path>
                    <path d="M116.211979,26.3563333 C118.759426,32.4421481 117.857723,38.5951111 114.201128,40.097037 C110.544532,41.598963 105.516021,37.8825185 102.968574,31.7967037 C100.422511,25.7095185 101.321447,19.5579259 104.979426,18.0546296 C108.634638,16.5540741 113.664532,20.2705185 116.211979,26.3563333" id="Fill-40" fill="#00D8DF" mask="url(#mask-2)"></path>
                    <path d="M115.717564,26.5583259 C117.883309,31.7355852 117.119904,36.9704 114.008202,38.2475852 C110.897883,39.5261407 106.618947,36.3646963 104.451819,31.187437 C102.286074,26.0101778 103.052245,20.775363 106.162564,19.4981778 C109.274266,18.2196222 113.551819,21.3810667 115.717564,26.5583259" id="Fill-41" fill="#424444" mask="url(#mask-2)"></path>
                    <path d="M98.7343085,47.5207444 C98.4425,47.3467074 98.5254787,46.2641148 98.5849468,45.9831889 C98.6762234,45.5433 98.9846277,44.9677444 98.6748404,44.5470407 C98.1299468,43.8015593 97.3637766,45.8050407 97.2642021,46.0969296 C97.0719681,46.6533 97.0028191,47.0328926 97.1231383,47.4330407 C97.2227128,47.7660407 97.8270745,48.8088926 98.2931383,49.1830037 C98.2364362,49.3817074 98.1742021,49.5900037 98.0967553,49.8106333 C98.6803723,50.0668926 99.0053723,50.2272259 99.5696277,50.549263 C100.16016,50.8863741 100.131117,51.304337 100.682926,51.6798185 L101.234734,50.4231889 C101.003777,50.1367815 99.219734,47.8126333 98.7343085,47.5207444" id="Fill-42" fill="#F88667" mask="url(#mask-2)"></path>
                    <path d="M102.649521,43.1206222 C102.121223,42.5574 101.298351,42.7739185 100.660798,43.2357333 C100.193351,43.5728444 98.8477128,44.6513259 99.2100532,45.432437 C99.5101596,46.0819926 101.240266,44.6444741 101.240266,44.6444741 C100.604096,45.1885111 99.416117,45.6215481 99.7148404,46.1669556 C100.048138,46.7726593 101.558351,45.9079556 101.888883,45.6667704 C101.550053,45.7544741 99.8628191,46.7685481 100.539096,47.2988815 C101.002394,47.6606593 102.241543,46.9001037 102.613564,46.6397333 C102.115691,46.7904741 101.438032,47.2276222 101.569415,47.911437 C101.786543,48.2869185 102.538883,48.0375111 102.957926,47.8689556 C103.589947,47.6140667 104.184628,47.5167704 104.234415,46.7397704 C104.244096,46.5931407 104.26484,46.4670667 104.256543,46.3163259 C104.230266,45.7531037 103.971649,45.1158815 103.701968,44.6225481 C103.401862,44.0744 103.053351,43.5509185 102.649521,43.1206222" id="Fill-43" fill="#F88667" mask="url(#mask-2)"></path>
                    <path d="M38.2870745,47.5836444 C37.9855851,47.1273111 37.7615426,46.6065704 37.5803723,46.0940519 C37.4227128,45.6473111 37.3120745,45.1909778 37.1571809,44.7456074 C37.0064362,44.3153111 36.8266489,43.8877556 36.8529255,43.4245704 C36.8681383,43.1354222 36.9414362,42.8969778 37.016117,42.6174222 C37.1060106,42.2748296 37.2332447,41.9418296 37.3037766,41.5951259 C37.3673936,41.2854222 37.339734,40.9853111 37.3978191,40.6769778 C37.5084574,40.1055333 37.6426064,39.4943481 37.9385638,38.9832 C38.1681383,38.5857926 38.4184574,38.2527926 38.7227128,37.9115704 C38.8845213,37.7334222 38.9979255,37.5758296 39.1873936,37.4209778 C39.3644149,37.2770889 39.5372872,37.1208667 39.614734,36.900237 C39.7212234,36.5919037 39.5580319,36.3096074 39.2482447,36.2328667 C38.704734,36.0944593 37.8472872,36.3424963 37.5153723,36.7947185 C37.0548404,37.4223481 36.8377128,38.1911259 36.3246277,38.7968296 C34.7563298,40.6468296 33.2862234,38.4693111 31.4565426,37.6840889 C30.9310106,37.4593481 30.1427128,36.8947556 29.6863298,36.5549037 C29.3599468,36.3109778 27.9548404,34.9899407 27.2910106,35.3339037 C26.8028191,35.5874222 27.7598404,36.6987926 28.2217553,36.9701259 C28.4043085,37.0770148 29.9712234,38.3391259 30.1759043,38.3994222 C29.7139894,38.3213111 28.5135638,37.5347185 27.5468617,36.7864963 C26.8526064,36.2479407 26.1804787,35.7189778 25.8029255,36.0245704 C24.6384574,36.9701259 29.2064362,39.1339407 29.5632447,39.3326444 C29.1829255,39.364163 25.6051596,36.8550148 25.2677128,37.7772741 C25.0810106,38.2843111 25.8236702,38.787237 26.4307979,39.1133852 C27.1928191,39.5244963 28.4679255,39.8177556 28.7555851,40.0383852 C28.2189894,40.2206444 25.8499468,38.624163 25.8485638,39.5984963 C25.8485638,40.2357185 27.3186702,40.7126074 27.8732447,40.8797926 C28.4430319,41.0510889 30.1192021,42.1816444 30.648883,42.4310519 C32.4163298,43.2669778 33.1465426,43.1683111 33.8435638,44.2180148 C34.2875,44.8867556 35.0799468,48.4195704 35.7216489,49.7639037 L38.2870745,47.5836444 Z" id="Fill-44" fill="#F88667" mask="url(#mask-2)"></path>
                    <path d="M97.748383,49.3300444 C96.1717872,53.8769333 92.8014681,61.9223778 91.6881702,61.3577852 C89.5998723,60.2984889 85.1065745,56.6587852 81.7514681,54.4319333 C79.1500851,52.706637 77.8459362,52.2023407 77.8459362,52.2023407 L80.1845532,63.1803778 C80.1845532,63.1803778 91.2608298,71.5163407 93.5800851,70.2405259 C95.405617,69.2346741 99.8975319,56.5601185 101.482426,51.3074889 C101.482426,51.3074889 97.7746596,49.3506 97.748383,49.3300444" id="Fill-45" fill="#00D8DF" mask="url(#mask-2)"></path>
                    <path d="M86.7790106,64.9902259 C85.5315638,63.3841519 80.7658191,58.7618926 79.478266,57.7765963 L79.8502872,62.9840037 C79.8502872,62.9840037 91.0150745,71.2994111 93.4864574,70.2620407 C91.3594362,68.9067444 88.2961383,66.9416333 86.7790106,64.9902259" id="Fill-46" fill="#00A7CC" mask="url(#mask-2)"></path>
                    <path d="M59.0519468,52.784063 C59.0519468,52.784063 45.4296064,58.2326556 43.9470532,57.8489519 C42.465883,57.4652481 37.527266,43.549137 37.527266,43.549137 L33.4018404,45.2100259 C33.4018404,45.2100259 37.8080106,65.2818407 40.643117,66.2219148 C43.4796064,67.1592481 60.3865213,62.3204704 60.3865213,62.3204704 C60.3865213,62.3204704 60.663117,57.446063 59.0519468,52.784063" id="Fill-47" fill="#00D8DF" mask="url(#mask-2)"></path>
                    <path d="M47.4303617,64.9702185 C46.2299362,65.3964037 45.008766,65.8171074 43.7820638,66.1747741 C49.5601489,65.4183296 60.3861064,62.3199222 60.3861064,62.3199222 C60.3861064,62.3199222 60.5022766,60.0917 60.0901489,57.2180333 C56.7364255,60.8179963 51.9665319,63.3559222 47.4303617,64.9702185" id="Fill-48" fill="#00A7CC" mask="url(#mask-2)"></path>
                    <path d="M109.261957,30.2653148 C108.639617,28.3605 106.764298,27.2573519 105.075681,27.8000185 C104.497596,27.9863889 104.026,28.349537 103.667809,28.8099815 C103.864191,29.5952037 104.11866,30.3900185 104.451957,31.1875741 C105.025894,32.5552037 105.747809,33.7775741 106.555468,34.8190556 C106.814085,34.809463 107.075468,34.7779444 107.331319,34.6943519 C109.021319,34.1530556 109.885681,32.1687593 109.261957,30.2653148" id="Fill-49" fill="#D0D1DE" mask="url(#mask-2)"></path>
                    <path d="M59.0749043,69.2031556 C58.5936277,73.8884519 58.2202234,83.734563 57.9380957,85.1104148 L80.2884149,85.1104148 C80.6825638,77.7542667 80.5497979,67.1023778 80.1846915,63.1803778 C79.5443723,56.3504519 77.8460745,52.2023407 77.8460745,52.2023407 C77.8460745,52.2023407 76.1782021,51.6802296 74.1991596,50.9251556 C74.1991596,50.9251556 70.0847979,53.4151185 66.2539468,50.9594148 C66.2539468,50.9594148 59.3390532,52.580563 58.503734,52.9766 C57.8094787,53.3041185 59.5893723,64.2013037 59.0749043,69.2031556" id="Fill-50" fill="#00D8DF" mask="url(#mask-2)"></path>
                    <path d="M64.9863085,75.6159407 C64.955883,73.4233481 64.5465213,71.2554222 63.7070532,69.2259037 C63.5175851,68.7627185 63.3626915,68.2885704 63.2963085,67.7924963 C63.1040745,66.3220889 62.7846064,65.3573481 62.351734,64.5214222 C61.8510957,63.7732 61.3449255,63.0290889 60.8525851,62.2781259 C60.5773723,61.9081259 60.2897128,61.5189407 59.9716277,61.0584963 C59.556734,60.4569037 58.9330106,59.3564963 58.6066277,58.6658296 C58.8680106,62.1054593 59.3326915,66.6989407 59.0754574,69.2026074 C58.5941809,73.8879037 58.2193936,83.7340148 57.937266,85.111237 L68.3386489,85.111237 C67.0013085,83.4064963 66.1991809,81.3317556 65.4150319,78.7993111 C65.0955638,77.7715333 65.0029043,76.6985333 64.9863085,75.6159407" id="Fill-51" fill="#00A7CC" mask="url(#mask-2)"></path>
                </g>
            </g>
        </g>
    </g>
</svg>