<?xml version="1.0" encoding="UTF-8"?>
<svg width="110px" height="116px" viewBox="0 0 110 116" version="1.1" xmlns="http://www.w3.org/2000/svg" xmlns:xlink="http://www.w3.org/1999/xlink">
    <title>EE2FA4C7-E914-44F8-9578-27A5155844DE</title>
    <defs>
        <polygon id="path-1" points="0 116 109.984727 116 109.984727 0.825033708 0 0.825033708"></polygon>
    </defs>
    <g id="Page-1" stroke="none" stroke-width="1" fill="none" fill-rule="evenodd">
        <g id="HOME" transform="translate(-526.000000, -1678.000000)">
            <g id="Group-39" transform="translate(526.000000, 1678.000000)">
                <polygon id="Fill-1" fill="#424444" points="65.2542373 109.504 44.7457627 109.504 46.4310087 85.376 63.5689913 85.376"></polygon>
                <g id="Group-38">
                    <path d="M67.7050637,105.793303 C67.461143,105.429663 67.0502607,105.210697 66.6106818,105.210697 L55.455552,105.210697 L54.5294362,105.210697 L43.3743064,105.210697 C42.9347275,105.210697 42.5238452,105.429663 42.2799246,105.793303 L39.2367864,110.330337 C38.651116,111.204899 39.2772224,112.379236 40.3298639,112.379236 L54.5294362,112.379236 L55.455552,112.379236 L69.6551244,112.379236 C70.7077658,112.379236 71.3351767,111.204899 70.7482019,110.330337 L67.7050637,105.793303 Z" id="Fill-2" fill="#424444"></path>
                    <path d="M104.315855,91.8641798 L5.67017647,91.8641798 C2.53833987,91.8641798 0,89.3278202 0,86.1997303 L0,23.8595056 C0,20.7314157 2.53833987,18.1950562 5.67017647,18.1950562 L104.315855,18.1950562 C107.446387,18.1950562 109.984727,20.7314157 109.984727,23.8595056 L109.984727,86.1997303 C109.984727,89.3278202 107.446387,91.8641798 104.315855,91.8641798" id="Fill-4" fill="#424444"></path>
                    <mask id="mask-2" fill="white">
                        <use xlink:href="#path-1"></use>
                    </mask>
                    <g id="Clip-7"></g>
                    <polygon id="Fill-6" fill="#FF5D12" mask="url(#mask-2)" points="5.06363585 86.2205843 104.921092 86.2205843 104.921092 23.0748764 5.06363585 23.0748764"></polygon>
                    <path d="M91.8731637,104.962796 C80.2719331,102.81484 66.7454251,100.266751 66.7087223,104.75556 C66.6736838,108.998031 71.8155829,112.287739 76.2570255,114.388773 C78.6649265,113.4712 81.3819676,113.297852 83.9516128,112.900324 C88.4961021,112.197807 92.9558061,112.923784 97.5055129,112.915964 C102.248269,110.971335 104.755304,107.553897 104.755304,107.553897 C104.755304,107.553897 100.813442,106.61938 91.8731637,104.962796" id="Fill-8" fill="#616161" mask="url(#mask-2)"></path>
                    <path d="M82.1023813,113.009025 C82.4702189,113.198013 78.0352982,115.29253 78.3887875,115.468485 C80.2866726,116.064126 98.9811675,116.171002 100.695134,115.72916 C103.6574,114.967991 95.2010499,111.293789 98.1541852,110.679901 C103.011728,107.248126 105.741813,102.755407 103.110861,102.194957 C100.144682,101.562822 95.5088855,103.125564 92.5100965,103.438373 C90.2261124,103.67689 88.9021582,103.830688 86.7329602,103.074733 L79.4322982,102.270553 C71.9464131,103.756396 70.4059303,106.447856 70.327667,106.412665 C70.327667,107.478822 75.787837,109.677609 80.6819023,112.26871 C81.1749612,112.435542 81.6497585,112.677969 82.1023813,113.009025" id="Fill-9" fill="#00BAD1" mask="url(#mask-2)"></path>
                    <path d="M82.1023813,113.009025 C82.4702189,113.198013 78.0352982,115.29253 78.3887875,115.468485 C80.2866726,116.064126 98.9811675,116.171002 100.695134,115.72916 C103.6574,114.967991 95.2010499,111.293789 98.1541852,110.679901 C103.011728,107.248126 105.741813,102.755407 103.110861,102.194957 C100.144682,101.562822 95.5088855,103.125564 92.5100965,103.438373 C90.2261124,103.67689 88.9021582,103.830688 86.7329602,103.074733 L79.4322982,102.270553 C71.9464131,103.756396 70.4059303,106.447856 70.327667,106.412665 C70.327667,107.478822 75.787837,109.677609 80.6819023,112.26871 C81.1749612,112.435542 81.6497585,112.677969 82.1023813,113.009025" id="Fill-10" fill="#00547A" mask="url(#mask-2)"></path>
                    <path d="M79.3121641,110.138742 L81.686151,113.350247 C81.686151,113.350247 79.1086795,115.148899 78.388657,115.468225 C77.6686346,115.787551 71.8458447,116.024764 70.3210147,114.85564 C68.9527112,113.806427 68.481827,112.431371 69.183588,111.783596 C70.0757896,110.955955 72.2345525,110.693978 73.3093685,110.550607 C75.6768335,110.239101 79.3121641,110.138742 79.3121641,110.138742" id="Fill-11" fill="#000000" mask="url(#mask-2)"></path>
                    <path d="M77.8765542,110.255784 L79.2435532,115.096503 C79.2435532,115.096503 102.228182,114.756324 104.630865,111.230706 C107.714439,108.049178 108.962739,101.795604 102.749937,101.670481 C101.812082,101.65093 100.3016,101.949402 98.7428557,102.474661 C90.311289,105.314706 77.8765542,110.255784 77.8765542,110.255784" id="Fill-12" fill="#00BAD1" mask="url(#mask-2)"></path>
                    <path d="M103.275214,109.927465 C101.841691,109.927465 100.642958,109.211915 99.4664,108.500274 C97.9924411,107.608769 96.3815214,107.020948 94.7066866,106.632544 C93.2535979,106.296274 91.7339854,105.786656 90.5691666,105.389128 C83.8880891,107.55533 77.8761628,110.255915 77.8761628,110.255915 L78.9483701,114.05133 C79.5340405,114.190791 80.1236241,114.341982 80.7105989,114.502297 C81.4110555,114.567465 82.1167296,114.645667 82.796316,114.829443 C82.9411031,114.868544 83.0858902,114.897218 83.2332861,114.921982 C89.8374047,114.560948 103.14608,113.539106 104.910917,110.949308 C105.192665,110.536139 105.777031,109.819285 105.985733,109.350072 C105.465282,109.541667 103.920886,109.927465 103.275214,109.927465" id="Fill-13" fill="#00547A" mask="url(#mask-2)"></path>
                    <path d="M97.6671266,110.431479 L95.6753255,112.954804 C95.6753255,112.954804 98.9258614,114.932018 99.602839,115.259164 C100.279817,115.585007 104.978224,115.805276 106.46914,114.735209 C107.806138,113.777231 108.296588,112.479074 107.647002,111.840422 C106.821325,111.024512 104.770826,110.707793 103.74949,110.539658 C101.500724,110.169501 97.6671266,110.431479 97.6671266,110.431479" id="Fill-14" fill="#000000" mask="url(#mask-2)"></path>
                    <path d="M99.9753724,109.807164 L97.9300913,115.46249 C97.9300913,115.46249 69.7005171,113.241546 67.4034891,109.30276 C66.0312725,106.948872 65.831701,103.287703 68.790054,101.981726 C70.6083714,101.178849 73.1819298,100.765681 76.8420437,102.023434 C85.9414573,105.152827 99.9753724,109.807164 99.9753724,109.807164" id="Fill-15" fill="#00BAD1" mask="url(#mask-2)"></path>
                    <path d="M88.8790705,72.291982 L86.8807474,72.291982 L84.8824244,72.291982 C84.8824244,72.291982 84.3071891,77.7322517 83.2636783,78.380027 C83.2636783,78.380027 81.9775514,84.8069483 86.8807474,84.8069483 C92.8144104,84.8069483 90.4978165,78.380027 90.4978165,78.380027 C89.4543058,77.7322517 88.8790705,72.291982 88.8790705,72.291982" id="Fill-16" fill="#E45940" mask="url(#mask-2)"></path>
                    <path d="M92.0776918,73.3567056 C91.5233267,72.7206607 90.8580886,73.6890652 90.8580886,73.6890652 C90.8580886,73.6890652 91.7724649,70.0917618 90.8580886,68.5146831 C89.9450167,66.9363011 86.9814462,67.7665483 86.9814462,67.7665483 C86.9814462,67.7665483 84.0178757,66.9363011 83.1048038,68.5146831 C82.1904275,70.0917618 83.1048038,73.6890652 83.1048038,73.6890652 C83.1048038,73.6890652 82.4395657,72.7206607 81.886505,73.3567056 C81.33214,73.9940539 82.7995769,75.5985034 83.132196,75.7927056 C83.132196,75.7927056 85.2648711,79.7771101 86.9814462,79.7771101 C88.6993258,79.7771101 90.8306965,75.7927056 90.8306965,75.7927056 C91.1633155,75.5985034 92.6307525,73.9940539 92.0776918,73.3567056" id="Fill-17" fill="#F88667" mask="url(#mask-2)"></path>
                    <path d="M86.2359882,69.1920449 C86.2359882,69.1920449 83.9924401,69.5869663 83.743302,70.7899775 C83.6232982,71.375191 83.7563458,72.0086292 83.8633057,72.5860225 C83.9206988,72.8910112 84.1359229,74.5280449 84.0550508,74.5684494 C83.9754831,74.6075506 83.824174,74.5658427 83.7641722,74.517618 C83.4602497,74.2777978 83.222851,73.9180674 83.0063225,73.6026517 C82.5797875,72.9796404 81.9680293,73.0839101 81.7906325,73.4788315 C81.7906325,73.4788315 81.2923561,67.5732584 83.7641722,67.3660225 C86.2359882,67.1574831 86.2359882,69.1920449 86.2359882,69.1920449" id="Fill-18" fill="#424444" mask="url(#mask-2)"></path>
                    <path d="M87.6963815,69.1920449 C87.6963815,69.1920449 89.9399296,69.5869663 90.1890678,70.7899775 C90.3090715,71.375191 90.1760239,72.0086292 90.0690641,72.5860225 C90.011671,72.8910112 89.7964469,74.5280449 89.877319,74.5684494 C89.9555823,74.6075506 90.1081957,74.5658427 90.1681976,74.517618 C90.4721201,74.2777978 90.7095188,73.9180674 90.9260472,73.6026517 C91.3525823,72.9796404 91.9643404,73.0839101 92.1417373,73.4788315 C92.1417373,73.4788315 92.6400136,67.5732584 90.1681976,67.3660225 C87.6963815,67.1574831 87.6963815,69.1920449 87.6963815,69.1920449" id="Fill-19" fill="#424444" mask="url(#mask-2)"></path>
                    <path d="M90.9936146,67.7149348 C90.9936146,67.7149348 91.0470945,66.7426202 89.9396687,66.1404629 C88.832243,65.539609 86.6304353,65.2698112 84.8851636,66.1404629 C83.1411963,67.012418 82.6116146,67.2105303 82.1029031,66.9198787 C81.5928872,66.629227 81.9163755,66.3385753 81.9163755,66.3385753 C81.9163755,66.3385753 80.7737313,66.3281483 80.8285156,68.0981258 C80.8846043,69.8694067 83.062933,72.0708 85.9104129,72.0708 C90.2592439,72.0708 91.6653746,69.0326427 90.9936146,67.7149348" id="Fill-20" fill="#424444" mask="url(#mask-2)"></path>
                    <path d="M90.4975556,78.3798966 C90.2875491,83.843627 86.8804866,83.2792674 86.8804866,83.2792674 C86.8804866,83.2792674 83.4747284,83.843627 83.2647218,78.3798966 C83.2647218,78.3798966 77.8241177,79.8826831 75.1709917,81.6591775 C75.1709917,81.6591775 76.2992877,86.4321213 76.371029,91.7290202 L79.4819954,103.766953 L86.8804866,102.417964 L94.2776733,103.766953 L97.3886397,91.7290202 C97.460381,86.4321213 98.5899814,81.6591775 98.5899814,81.6591775 C95.935551,79.8826831 90.4975556,78.3798966 90.4975556,78.3798966" id="Fill-21" fill="#D0D1DE" mask="url(#mask-2)"></path>
                    <path d="M96.852536,84.8165933 C93.4715613,86.6178517 91.8267275,90.7612674 88.5422774,92.7906157 C85.1443456,94.8916494 82.7390533,90.6478742 81.0863932,88.4412674 C79.6606966,86.5370427 77.8528143,85.005582 75.6470935,84.1140764 C75.9653642,86.0052674 76.3318974,88.7840539 76.371029,91.7283685 L79.4819954,103.766301 L86.8791822,102.860458 L94.2776733,103.766301 L97.3886397,91.7283685 C97.4277713,88.8427056 97.7799562,86.1186607 98.0943138,84.2313798 C97.6638656,84.4164584 97.2438526,84.6067506 96.852536,84.8165933" id="Fill-22" fill="#B8B9CD" mask="url(#mask-2)"></path>
                    <path d="M75.1703395,81.6593079 C75.1703395,81.6593079 69.0044954,96.1293303 68.9314497,98.1221843 C68.7892713,101.981465 77.2377951,103.544207 81.0896542,102.835173 L82.657529,102.545825 C82.657529,102.545825 76.9390902,81.5550382 75.1703395,81.6593079" id="Fill-23" fill="#D0D1DE" mask="url(#mask-2)"></path>
                    <path d="M98.5766767,81.6593079 C98.5766767,81.6593079 104.802523,96.128027 104.815628,98.1221843 C104.841654,102.024476 96.509221,103.544207 92.6560576,102.835173 L91.0894871,102.545825 C91.0894871,102.545825 96.807926,81.5550382 98.5766767,81.6593079" id="Fill-24" fill="#D0D1DE" mask="url(#mask-2)"></path>
                    <path d="M77.7930733,86.7410202 C77.7826382,87.4109528 77.7069837,88.1121663 77.5361088,88.8629079 C76.9400033,91.4878966 76.0034524,94.2288854 76.9869613,96.895582 C77.7304627,98.9118966 78.9239781,100.960796 80.0235775,102.897604 C80.4044589,102.911942 80.7631657,102.894998 81.0892628,102.835043 L82.6571377,102.545694 C82.6571377,102.545694 80.035317,92.9242112 77.7930733,86.7410202" id="Fill-25" fill="#B8B9CD" mask="url(#mask-2)"></path>
                    <path d="M94.89791,102.760881 C95.38836,101.540926 95.6883694,100.258409 95.6427158,98.8898697 C95.552713,96.2075326 95.5383647,93.5238921 95.5801051,90.8402517 C95.599671,89.6802517 95.6296719,88.5567461 95.6975001,87.4567011 C93.5165627,93.6372854 91.0890958,102.545825 91.0890958,102.545825 L92.6569707,102.835173 C93.3013386,102.95378 94.068319,102.912072 94.89791,102.760881" id="Fill-26" fill="#B8B9CD" mask="url(#mask-2)"></path>
                    <polygon id="Fill-27" fill="#424444" mask="url(#mask-2)" points="77.1858805 103.861708 96.5756144 103.861708 96.5756144 102.713438 77.1858805 102.713438"></polygon>
                    <path d="M99.4270075,89.2810292 L74.3344874,89.2810292 C74.3344874,89.2810292 72.9805322,89.2810292 73.2127134,90.7903326 C73.4448945,92.3009393 76.606732,102.860849 77.2458824,102.860849 L86.8800952,102.860849 L96.5169169,102.860849 C97.0764995,102.860849 100.317905,92.3009393 100.548782,90.7903326 C100.782267,89.2810292 99.4270075,89.2810292 99.4270075,89.2810292" id="Fill-28" fill="#424444" mask="url(#mask-2)"></path>
                    <path d="M87.9193015,96.5915056 C87.9193015,97.1649888 87.4549392,97.6289888 86.8810083,97.6289888 C86.3070774,97.6289888 85.8427151,97.1649888 85.8427151,96.5915056 C85.8427151,96.0193258 86.3070774,95.5540225 86.8810083,95.5540225 C87.4549392,95.5540225 87.9193015,96.0193258 87.9193015,96.5915056" id="Fill-29" fill="#FFFFFF" mask="url(#mask-2)"></path>
                    <path d="M21.4031879,54.6481213 C21.4031879,54.6481213 52.8232962,94.2536494 88.5818004,54.6481213 C52.8232962,15.0438966 21.4031879,54.6481213 21.4031879,54.6481213" id="Fill-30" fill="#424444" mask="url(#mask-2)"></path>
                    <path d="M26.1053777,54.6481213 C26.1053777,54.6481213 53.1270882,88.7078067 83.8793497,54.6481213 C53.1270882,20.588436 26.1053777,54.6481213 26.1053777,54.6481213" id="Fill-31" fill="#FFFFFF" mask="url(#mask-2)"></path>
                    <path d="M69.9247415,54.6481213 C69.9247415,62.8880315 63.2397508,69.5691101 54.9921028,69.5691101 C46.7457592,69.5691101 40.0607685,62.8880315 40.0607685,54.6481213 C40.0607685,46.4082112 46.7457592,39.728436 54.9921028,39.728436 C63.2397508,39.728436 69.9247415,46.4082112 69.9247415,54.6481213" id="Fill-32" fill="#00D8DF" mask="url(#mask-2)"></path>
                    <path d="M64.3976564,54.6481213 C64.3976564,59.8381438 60.1870906,64.0454247 54.9930159,64.0454247 C49.7989412,64.0454247 45.587071,59.8381438 45.587071,54.6481213 C45.587071,49.4580989 49.7989412,45.250818 54.9930159,45.250818 C60.1870906,45.250818 64.3976564,49.4580989 64.3976564,54.6481213" id="Fill-33" fill="#424444" mask="url(#mask-2)"></path>
                    <path d="M66.1211448,48.7282112 C66.1211448,50.8396719 64.4084828,52.5509978 62.296678,52.5509978 C60.1835687,52.5509978 58.4709067,50.8396719 58.4709067,48.7282112 C58.4709067,46.6167506 60.1835687,44.9067281 62.296678,44.9067281 C64.4084828,44.9067281 66.1211448,46.6167506 66.1211448,48.7282112" id="Fill-34" fill="#FFFFFF" mask="url(#mask-2)"></path>
                    <path d="M51.5804749,30.8858472 L11.1509557,30.8858472 C10.0343993,30.8858472 9.13045808,29.9813079 9.13045808,28.8656225 L9.13045808,2.84512809 C9.13045808,1.7294427 10.0343993,0.824903371 11.1509557,0.824903371 L51.5804749,0.824903371 C52.6970314,0.824903371 53.6022769,1.7294427 53.6022769,2.84512809 L53.6022769,28.8656225 C53.6022769,29.9813079 52.6970314,30.8858472 51.5804749,30.8858472" id="Fill-35" fill="#E5E6ED" mask="url(#mask-2)"></path>
                    <polygon id="Fill-36" fill="#424444" mask="url(#mask-2)" points="11.1512166 28.490382 51.5807358 28.490382 51.5807358 3.21802247 11.1512166 3.21802247"></polygon>
                    <polygon id="Fill-37" fill="#FF5D12" mask="url(#mask-2)" points="25.9245894 10.0089753 25.9245894 22.388391 37.9849648 16.1986831"></polygon>
                </g>
            </g>
        </g>
    </g>
</svg>