<?xml version="1.0" encoding="UTF-8"?>
<svg width="170px" height="123px" viewBox="0 0 170 123" version="1.1" xmlns="http://www.w3.org/2000/svg" xmlns:xlink="http://www.w3.org/1999/xlink">
    <title>3B1E441B-827B-4ED0-9BF8-79D285E4B19D</title>
    <defs>
        <polygon id="path-1" points="0 1.11336538 40.5135867 1.11336538 40.5135867 67.784556 0 67.784556"></polygon>
        <polygon id="path-3" points="0 122.91063 169.460367 122.91063 169.460367 -0.00062278481 0 -0.00062278481"></polygon>
    </defs>
    <g id="Page-1" stroke="none" stroke-width="1" fill="none" fill-rule="evenodd">
        <g id="HOME" transform="translate(-887.000000, -1385.000000)">
            <g id="Group-87" transform="translate(887.000000, 1385.000000)">
                <path d="M137.86267,104.365811 C134.266156,100.314596 123.643495,94.8060646 126.435239,88.4879127 C128.809,83.1148367 140.202119,83.7765456 138.831202,77.2964696 C138.020193,73.4647861 136.96744,70.1951658 139.445697,65.8372291 C142.145422,61.0900519 150.213404,63.6746089 153.011385,59.2668494 C155.41322,55.4818747 152.289275,49.6308114 157.253587,47.1023051 C161.66111,44.8571658 166.985697,49.2431278 167.78111,53.130862 C168.774596,57.9916975 163.952211,60.2757608 163.334596,64.5060266 C162.940009,67.1995709 165.396431,68.136862 166.80478,70.0239 C168.152303,71.8299759 169.364138,74.4269886 169.453037,76.6627861 C169.721294,83.3841911 162.34267,84.2545329 158.845972,88.5268367 C155.605055,92.4846342 161.580009,95.034938 160.68478,99.338381 C159.717807,103.982799 153.097165,106.51909 148.435422,106.449027 C145.202303,106.402318 140.091385,106.875634 137.86267,104.365811" id="Fill-1" fill="#00D8DF"></path>
                <path d="M142.560596,106.581057 C142.530963,106.574829 142.50133,106.567044 142.474817,106.553032 C142.323532,106.482968 142.273624,106.31793 142.362523,106.187146 C142.426468,106.092171 149.014358,96.2023481 149.394908,83.7762342 C149.647569,75.4900823 153.095917,70.1886266 155.925092,65.8400316 C157.63445,63.2134367 159.123899,60.9231456 159.351606,58.6266266 C159.371881,58.4397911 159.54344,58.2934367 159.738394,58.3009248 C159.939587,58.3090063 160.073716,58.4709304 160.055,58.6577658 C159.807018,61.1162089 158.272339,63.4687785 156.513073,66.1654367 C153.726009,70.4392975 150.32445,75.6535633 150.063991,83.7684494 C149.658486,96.3471456 142.975459,106.347513 142.909954,106.444044 C142.836651,106.551475 142.693165,106.604411 142.560596,106.581057" id="Fill-3" fill="#FFFFFF"></path>
                <path d="M149.958092,83.8073734 C149.800569,83.7746772 149.692954,83.6438924 149.71167,83.4913101 C149.730385,83.3247152 149.895706,83.1970443 150.079743,83.2095 C152.869927,83.3760949 156.59745,81.7490696 157.725064,79.0337278 C157.860752,78.7083228 157.99644,78.3455506 158.138367,77.9656519 C158.819927,76.1424494 159.676165,73.8537152 161.469743,73.0316392 C162.346257,72.6283861 163.361578,72.6283861 164.473596,73.0098418 C164.645156,73.0705633 164.723138,73.2527278 164.646716,73.4146519 C164.570294,73.5796899 164.381578,73.6544241 164.199101,73.6046013 C163.244606,73.2776392 162.444514,73.2714114 161.738,73.5952595 C160.218917,74.2943354 159.415706,76.4336013 158.774697,78.1369177 C158.629651,78.5230443 158.490844,78.8920443 158.352037,79.2236772 C157.070018,82.3017911 153.032128,83.9942089 150.008,83.8136013 C149.990844,83.8120443 149.973688,83.8104873 149.958092,83.8073734" id="Fill-5" fill="#FFFFFF"></path>
                <path d="M147.978917,83.4942684 C146.682862,83.2031165 145.700294,82.6363823 145.048367,81.7987367 C144.012771,80.4706481 143.849009,78.466838 144.591394,75.9943823 C144.664697,75.7483823 144.758275,75.4665722 144.859651,75.1551797 C145.441394,73.3880278 146.330385,70.6882557 145.455431,69.1904582 C145.165339,68.6937873 144.702128,68.3714962 144.042404,68.2064582 C143.856807,68.1581924 143.749193,67.9791418 143.80378,67.806319 C143.856807,67.6319392 144.047083,67.5276228 144.232679,67.5712177 C144.232679,67.5712177 144.235798,67.5727747 144.235798,67.5727747 C145.073321,67.7845215 145.690936,68.2189139 146.068367,68.8681671 C147.07745,70.6041797 146.133872,73.4565342 145.514697,75.3233316 C145.414881,75.6284962 145.322862,75.9056354 145.24956,76.1469646 C144.561761,78.4325848 144.688092,80.2573443 145.603596,81.4375215 C146.386532,82.4402051 147.75589,82.9991544 149.66644,83.1019139 C149.858275,83.1112557 149.984606,83.2560532 149.96745,83.4210911 C149.947174,83.589243 149.784972,83.7169139 149.600936,83.7075722 C149.014514,83.6764329 148.473321,83.6048127 147.978917,83.4942684" id="Fill-7" fill="#FFFFFF"></path>
                <path d="M146.390275,102.664363 C146.003486,102.5943 145.640092,102.468186 145.317248,102.273566 C145.175321,102.187933 145.144128,102.016667 145.250183,101.890553 C145.354679,101.764439 145.551193,101.727072 145.699358,101.815819 C147.368165,102.823173 150.765046,101.515325 152.210826,100.497072 C152.812844,100.073578 153.354037,99.3355785 153.927982,98.5524266 C154.95578,97.1527177 156.024128,95.6938443 157.711651,95.6471354 C157.897248,95.6331228 158.031376,95.7639076 158.023578,95.9211608 C158.018899,96.0784139 157.869174,96.2091987 157.692936,96.2123127 C156.362569,96.2512367 155.394037,97.5699835 154.462936,98.8342367 C153.857798,99.6578696 153.286972,100.434794 152.596055,100.920566 C151.3,101.832946 148.469266,103.042705 146.390275,102.664363" id="Fill-9" fill="#FFFFFF"></path>
                <path d="M143.656394,102.056214 C143.261807,101.983037 142.876578,101.847581 142.500706,101.64829 C140.396761,100.531948 139.149055,97.6733658 138.823092,96.0058595 C138.649972,95.1121633 138.918229,93.9288722 139.203642,92.6724038 C139.659055,90.6623658 140.136303,88.563581 138.824651,87.6076063 C138.684284,87.5048468 138.665569,87.3164544 138.784101,87.1872266 C138.902633,87.0579987 139.114743,87.0408722 139.25667,87.1436316 C140.867771,88.3222519 140.325018,90.6981759 139.85089,92.7736063 C139.574835,93.9786949 139.317495,95.1074924 139.470339,95.8984291 C139.761991,97.4071253 140.937954,100.153606 142.851624,101.173416 C143.594009,101.568885 144.383183,101.662303 145.195752,101.452113 C145.365752,101.410075 145.540431,101.491037 145.58722,101.637391 C145.63089,101.785303 145.527954,101.939442 145.356394,101.983037 C144.774651,102.130948 144.205385,102.154303 143.656394,102.056214" id="Fill-11" fill="#FFFFFF"></path>
                <g id="Group-15" transform="translate(0.000000, 40.391643)">
                    <mask id="mask-2" fill="white">
                        <use xlink:href="#path-1"></use>
                    </mask>
                    <g id="Clip-14"></g>
                    <path d="M30.838156,63.8236101 C25.4636606,67.4513316 21.1232018,70.1308633 15.3307248,64.7048506 C12.4079725,61.9677114 11.3567798,58.9020532 11.9385229,54.6375342 C12.4079725,51.1982051 12.864945,49.6365722 10.7641193,46.7966734 C7.46393578,42.3328633 2.33430275,40.5906228 0.434669725,34.923281 C-1.64744037,28.7156734 4.50999083,24.5476861 2.84118349,18.6390152 C1.36577064,13.4231924 -1.82211927,8.56858481 1.9443945,3.52091392 C5.14788073,-0.770073418 11.0760459,1.13097722 12.9600826,5.6414962 C14.0346697,8.21048354 13.9644862,11.1515848 15.414945,13.5602051 C16.8139358,15.8816354 19.0208165,16.4016608 21.3805413,17.1661291 C26.6926514,18.891243 31.3294404,21.9989392 30.7227431,28.7187873 C30.357789,32.7544329 30.2564128,36.0287241 34.2022844,37.7880911 C38.4351284,39.6751291 40.7901743,40.8926734 40.4876055,46.8231418 C40.2614587,51.2807241 38.0873303,53.6395215 35.7182477,56.898243 C33.511367,59.9374329 31.3060459,64.6425722 27.6876972,66.0189266 L30.838156,63.8236101 Z" id="Fill-13" fill="#C2C3D4" mask="url(#mask-2)"></path>
                </g>
                <path d="M31.5151927,102.063687 C30.5591376,101.974941 29.6997798,101.713371 28.9480367,101.282092 C25.7383119,99.4386494 24.8633578,94.7506367 24.0773028,90.5406114 C23.6842752,88.4324848 23.3099633,86.4286747 22.6985872,85.1005861 C21.0469358,81.5133456 19.0147339,79.0875987 15.2357431,76.1885354 C10.8531743,72.8317253 9.97510092,70.3110038 9.68812844,64.7978013 C9.44326606,60.1845228 8.95198165,55.4451304 7.08042202,52.6675101 C6.93537615,52.4542063 7.0086789,52.1365861 7.24262385,51.9544215 C7.47500917,51.7738139 7.78381651,51.8002823 7.92886239,52.0135861 C9.92519266,54.9733709 10.4289541,59.8793582 10.6706972,64.6389911 C10.9373945,69.976257 11.7281284,72.2587633 15.9063853,75.4567633 C19.1301468,77.9245481 21.6910642,80.4530544 23.6437248,84.7066747 C24.2987706,86.1266241 24.6777615,88.1849278 25.0785872,90.3459911 C25.827211,94.4065481 26.6631743,98.9341937 29.5438165,100.583016 C30.6667523,101.226042 32.0376697,101.405092 33.740789,101.123282 C34.0246422,101.081244 34.2944587,101.222928 34.3396881,101.454915 C34.3833578,101.686903 34.1899633,101.911105 33.9045505,101.957814 C33.0498716,102.096793 32.2528991,102.130637 31.5151927,102.063687" id="Fill-16" fill="#FFFFFF"></path>
                <path d="M19.3739174,79.586728 C19.2663028,79.5834911 19.163367,79.5507949 19.0807064,79.4838456 C18.8841927,79.3219215 18.8810734,79.0338835 19.0760275,78.8392633 C20.7853853,77.1234911 20.2551101,74.2913772 19.6889633,71.2584152 C19.1898807,68.5913392 18.6689633,65.8043772 19.7170367,63.4860608 C19.8355688,63.2213772 20.1506147,63.0687949 20.4110734,63.146643 C20.6746514,63.2229342 20.7931835,63.4985165 20.6730917,63.761643 C19.7466697,65.7965924 20.2379541,68.4496557 20.7074037,70.9906177 C21.2875872,74.1310101 21.883367,77.3383519 19.7934587,79.4215671 C19.6780459,79.5336684 19.5220826,79.589719 19.3739174,79.586728" id="Fill-18" fill="#FFFFFF"></path>
                <path d="M23.5357982,85.8706595 C23.4749725,85.8675456 23.4125872,85.8535329 23.3548807,85.8317354 C22.6826789,85.5499253 22.1742385,85.2291911 21.6829541,84.9177987 C20.8922202,84.416457 20.2091009,83.9851785 19.0191009,83.8637354 C18.3921284,83.7999 17.7901101,83.8170266 17.2099266,83.8310392 C15.9918532,83.8590646 14.7488257,83.8964316 13.374789,83.1693304 C11.4268073,82.1355076 9.46478899,80.2998494 7.53240367,77.7028367 C7.26414679,77.3431785 6.93818349,76.7780013 6.59194495,76.1801278 C6.09286239,75.3206848 5.16488073,73.7170139 4.77029358,73.6126975 C4.53322936,73.550419 4.38818349,73.3137608 4.46148624,73.0755456 C4.53166972,72.8404443 4.77029358,72.6785203 5.0073578,72.7267861 C5.72322936,72.851343 6.39855046,73.9365456 7.42011009,75.7052544 C7.75543119,76.2844443 8.07359633,76.830938 8.31222018,77.1547861 C9.59579817,78.8799 11.6030459,81.1842038 13.8972661,82.3970772 C15.0529541,83.0089633 16.065156,82.979381 17.2520367,82.9420139 C17.8634128,82.9233304 18.5028624,82.9093177 19.2031376,82.9762671 C20.6395596,83.1163937 21.488,83.6535456 22.3099266,84.1735709 C22.7700183,84.4647228 23.2472661,84.7652165 23.8492844,85.0143304 C24.0941468,85.1155329 24.1846055,85.3833304 24.0473578,85.6090899 C23.944422,85.7803557 23.7369908,85.8800013 23.5357982,85.8706595" id="Fill-20" fill="#FFFFFF"></path>
                <path d="M60.371367,15.2266215 C60.9390734,16.0922924 61.4958624,17.7691405 62.4378807,18.3187481 C63.6387982,19.0224949 65.4932018,18.9664443 66.8095321,18.9306342 C66.0156789,17.2070772 65.811367,13.2586215 67.541,11.7359127 C66.4024679,11.0415076 66.351,13.2928747 65.4947615,12.3649253 C65.1812752,12.0255076 62.7825596,8.31838101 62.5532936,7.89800127 C61.8904495,8.68426709 62.1602661,11.3840392 61.5161376,13.5731278 C61.1823761,14.7128241 60.371367,15.2266215 60.3448532,15.1876975 C60.354211,15.2001532 60.3635688,15.2141658 60.371367,15.2266215" id="Fill-22" fill="#E45940"></path>
                <path d="M65.9724771,2.39990127 C65.9724771,2.39990127 72.0410092,3.07873671 72.3498165,4.74312911 C72.6586239,6.40907848 71.6136697,8.45181266 71.5809174,9.53078734 C71.5466055,10.609762 72.4730275,12.1511544 72.4589908,12.5824329 C72.4465138,13.0137114 71.106789,13.2861797 70.8400917,13.5166101 C70.5733945,13.7454835 68.7423853,16.5666987 67.5227523,16.843838 C66.3015596,17.1240911 61.8098165,13.1569519 61.5633945,10.2656734 C61.5166055,9.71139494 60.7586239,8.62930633 60.8989908,7.97693924 C61.4869725,5.22423038 64.536055,2.54002785 65.9724771,2.39990127" id="Fill-24" fill="#F88667"></path>
                <path d="M64.7366239,0.399049367 C62.224055,0.00669493671 63.7571743,1.38149241 60.9669908,2.50717595 C58.9425872,3.32458101 59.3652477,5.47007468 59.9797431,6.43539114 C60.2261651,6.82463165 60.107633,7.20920127 59.7348807,7.87246709 C59.5227706,9.25349241 61.8996514,12.3191506 62.6389174,11.3834165 C62.8167156,11.157657 62.1445138,9.73303671 62.1897431,9.11803671 C62.0400183,8.11068228 62.9352477,7.08620127 63.7992844,7.98768228 C64.0862569,8.28506203 64.3701101,8.68987215 64.357633,9.09935316 C64.3233211,10.2904291 64.7038716,10.6049354 65.2216697,10.2110241 C65.998367,9.62093544 65.1093761,7.23099873 65.705156,6.72187215 C67.0526789,5.56816329 67.4472661,4.1777962 67.4472661,4.1777962 C68.5436881,2.96803671 67.247633,0.791403797 64.7366239,0.399049367" id="Fill-26" fill="#424444"></path>
                <mask id="mask-4" fill="white">
                    <use xlink:href="#path-3"></use>
                </mask>
                <g id="Clip-29"></g>
                <polygon id="Fill-28" fill="#E5E6ED" mask="url(#mask-4)" points="28.1794495 115.829567 140.08156 115.829567 140.08156 44.4179468 28.1794495 44.4179468"></polygon>
                <polygon id="Fill-30" fill="#424444" mask="url(#mask-4)" points="34.586422 102.526884 39.9250459 102.526884 39.9250459 57.7221873 34.586422 57.7221873"></polygon>
                <polygon id="Fill-31" fill="#424444" mask="url(#mask-4)" points="41.9276147 102.526884 44.5431193 102.526884 44.5431193 57.7221873 41.9276147 57.7221873"></polygon>
                <polygon id="Fill-32" fill="#424444" mask="url(#mask-4)" points="49.5620183 102.526884 54.9817431 102.526884 54.9817431 57.7221873 49.5620183 57.7221873"></polygon>
                <polygon id="Fill-33" fill="#424444" mask="url(#mask-4)" points="57.97 102.526884 59.9990826 102.526884 59.9990826 57.7221873 57.97 57.7221873"></polygon>
                <polygon id="Fill-34" fill="#424444" mask="url(#mask-4)" points="66.7226606 102.526884 68.4647706 102.526884 68.4647706 57.7221873 66.7226606 57.7221873"></polygon>
                <polygon id="Fill-35" fill="#424444" mask="url(#mask-4)" points="46.1916514 102.526884 47.9337615 102.526884 47.9337615 57.7221873 46.1916514 57.7221873"></polygon>
                <polygon id="Fill-36" fill="#424444" mask="url(#mask-4)" points="62.2418349 102.526884 64.8713761 102.526884 64.8713761 57.7221873 62.2418349 57.7221873"></polygon>
                <polygon id="Fill-37" fill="#424444" mask="url(#mask-4)" points="71.7446789 102.526884 75.9088991 102.526884 75.9088991 57.7221873 71.7446789 57.7221873"></polygon>
                <polygon id="Fill-38" fill="#424444" mask="url(#mask-4)" points="77.8319266 102.526884 80.4474312 102.526884 80.4474312 57.7221873 77.8319266 57.7221873"></polygon>
                <polygon id="Fill-39" fill="#424444" mask="url(#mask-4)" points="82.8243119 102.526884 84.1312844 102.526884 84.1312844 57.7221873 82.8243119 57.7221873"></polygon>
                <polygon id="Fill-40" fill="#424444" mask="url(#mask-4)" points="93.2333028 102.526884 94.1410092 102.526884 94.1410092 57.7221873 93.2333028 57.7221873"></polygon>
                <polygon id="Fill-41" fill="#424444" mask="url(#mask-4)" points="86.4800917 102.526884 88.6947706 102.526884 88.6947706 57.7221873 86.4800917 57.7221873"></polygon>
                <polygon id="Fill-42" fill="#424444" mask="url(#mask-4)" points="99.3345872 102.526884 100.441927 102.526884 100.441927 57.7221873 99.3345872 57.7221873"></polygon>
                <polygon id="Fill-43" fill="#424444" mask="url(#mask-4)" points="112.267064 102.526884 113.801743 102.526884 113.801743 57.7221873 112.267064 57.7221873"></polygon>
                <polygon id="Fill-44" fill="#424444" mask="url(#mask-4)" points="127.108532 102.526884 128.643211 102.526884 128.643211 57.7221873 127.108532 57.7221873"></polygon>
                <polygon id="Fill-45" fill="#424444" mask="url(#mask-4)" points="101.454128 102.526884 102.308807 102.526884 102.308807 57.7221873 101.454128 57.7221873"></polygon>
                <polygon id="Fill-46" fill="#424444" mask="url(#mask-4)" points="110.237982 102.526884 110.905505 102.526884 110.905505 57.7221873 110.237982 57.7221873"></polygon>
                <polygon id="Fill-47" fill="#424444" mask="url(#mask-4)" points="124.670826 102.526884 125.67367 102.526884 125.67367 57.7221873 124.670826 57.7221873"></polygon>
                <polygon id="Fill-48" fill="#424444" mask="url(#mask-4)" points="89.6040367 102.526884 91.8187156 102.526884 91.8187156 57.7221873 89.6040367 57.7221873"></polygon>
                <polygon id="Fill-49" fill="#424444" mask="url(#mask-4)" points="95.8222936 102.526884 98.2256881 102.526884 98.2256881 57.7221873 95.8222936 57.7221873"></polygon>
                <polygon id="Fill-50" fill="#424444" mask="url(#mask-4)" points="107.834587 102.526884 109.713945 102.526884 109.713945 57.7221873 107.834587 57.7221873"></polygon>
                <polygon id="Fill-51" fill="#424444" mask="url(#mask-4)" points="103.777982 102.526884 106.714771 102.526884 106.714771 57.7221873 103.777982 57.7221873"></polygon>
                <polygon id="Fill-52" fill="#424444" mask="url(#mask-4)" points="115.041651 102.526884 119.152844 102.526884 119.152844 57.7221873 115.041651 57.7221873"></polygon>
                <polygon id="Fill-53" fill="#424444" mask="url(#mask-4)" points="121.074312 102.526884 123.530734 102.526884 123.530734 57.7221873 121.074312 57.7221873"></polygon>
                <polygon id="Fill-54" fill="#424444" mask="url(#mask-4)" points="130.68633 102.526884 133.942844 102.526884 133.942844 57.7221873 130.68633 57.7221873"></polygon>
                <path d="M72.2620092,22.0915785 C72.2620092,22.0915785 72.7080642,22.4870468 73.1541193,24.3896544 C74.663844,30.8214646 76.1376972,39.6572241 76.7958624,41.5240215 C77.5912752,43.7831734 83.210633,55.4105658 83.210633,55.4105658 L78.6315505,58.6194646 C78.6315505,58.6194646 71.9656789,45.849262 71.1141193,43.6835278 C70.2625596,41.5209076 66.0156789,30.6034899 66.0156789,30.6034899 L72.2620092,22.0915785 Z" id="Fill-55" fill="#00D8DF" mask="url(#mask-4)"></path>
                <path d="M74.1705321,43.7809937 C71.9542936,39.7531329 70.2043853,32.8012975 69.4183303,28.1335253 L66.015211,30.6028671 C66.015211,30.6028671 70.2620917,41.5202848 71.1136514,43.684462 C71.965211,45.8486392 78.6326422,58.6188418 78.6326422,58.6188418 L79.7805321,57.8201203 C77.8840183,52.7241835 76.7938349,48.5499684 74.1705321,43.7809937" id="Fill-56" fill="#00A7CC" mask="url(#mask-4)"></path>
                <path d="M50.7980275,29.0370304 C49.2415138,32.7192456 46.6696789,42.8052456 45.7791284,44.4416127 L67.8198624,44.4416127 C69.0550917,39.8532456 70.5351835,34.2450684 71.0748165,31.6589544 C72.3162844,25.7113595 72.241422,22.0416 72.241422,22.0416 C72.241422,22.0416 68.9537156,19.1892456 66.4115138,17.4688025 C66.4115138,17.4688025 63.6556422,20.0689291 60.481789,15.0570684 C60.481789,15.0570684 53.2061009,17.0297392 51.6261927,17.5949165 C50.9898624,17.8237899 52.5323394,24.9359924 50.7980275,29.0370304" id="Fill-57" fill="#00D8DF" mask="url(#mask-4)"></path>
                <path d="M53.8000092,23.2957329 C52.6911101,25.2715177 51.3311101,27.4450367 50.3984495,29.2324291 C48.8949633,33.0298595 46.8752385,42.8387203 46.001844,44.4408342 L55.5124862,44.4408342 C55.4610183,43.6888215 55.135055,42.4525937 55.135055,41.6133911 C55.135055,39.2374671 55.2847798,36.9534038 56.2439541,34.731619 C57.1111101,32.723138 56.0084495,26.0297582 55.6185413,25.5704544 C54.9790917,24.8168848 54.3801927,24.0602013 53.8000092,23.2957329" id="Fill-58" fill="#00A7CC" mask="url(#mask-4)"></path>
                <path d="M133.94144,42.1464949 C118.979881,49.2758241 122.526486,48.1081025 120.098138,48.7542418 C117.669789,49.3988241 103.350798,50.3003051 103.350798,50.3003051 L101.76933,56.4347354 C101.76933,56.4347354 119.210706,55.4818747 121.589147,54.935381 C123.966028,54.3888873 133.972633,50.5992418 133.972633,50.5992418 L133.94144,42.1464949 Z" id="Fill-59" fill="#FF5D12" mask="url(#mask-4)"></path>
                <path d="M109.850101,50.6854975 C110.288358,51.4375101 111.074413,51.9871177 112.195789,51.9528646 C114.605422,51.8796873 116.966706,51.8174089 119.267165,51.4748772 C120.602211,51.3658899 121.946615,51.115219 123.280101,50.7135228 C125.610193,50.0051051 127.962119,49.2157253 130.162761,48.1710038 C131.335606,47.6136114 132.704963,47.3722823 133.958908,46.9472316 L133.972945,50.5983076 C133.972945,50.5983076 123.966339,54.3895101 121.587899,54.9344468 C119.209459,55.4824975 101.769642,56.4338013 101.769642,56.4338013 L103.333954,50.3632063 C105.461294,50.5671684 107.654138,50.6745987 109.850101,50.6854975" id="Fill-60" fill="#D64C1D" mask="url(#mask-4)"></path>
                <path d="M135.990798,114.428146 C135.990798,114.428146 136.625569,116.276259 136.631807,117.703994 C136.638046,119.131728 136.53511,120.651323 136.095294,121.010981 C135.21722,121.727184 124.117312,121.820601 123.214284,120.797677 C122.311257,119.774753 122.913275,118.116589 125.263642,117.543627 C127.784009,116.930184 128.136486,117.191753 129.722633,116.590766 C131.310339,115.989778 130.92511,114.208614 130.92511,114.208614 L135.990798,114.428146 Z" id="Fill-61" fill="#424444" mask="url(#mask-4)"></path>
                <path d="M160.341037,112.346643 C160.341037,112.346643 161.593422,113.847554 162.109661,115.178757 C162.624339,116.513073 163.070394,117.967276 162.788101,118.459276 C162.225073,119.443276 151.886266,123.477365 150.675991,122.842124 C149.467275,122.208441 149.437642,120.445959 151.430853,119.074276 C153.56755,117.604504 153.988651,117.72439 155.256633,116.597149 C156.524615,115.471466 155.531128,113.944086 155.531128,113.944086 L160.341037,112.346643 Z" id="Fill-62" fill="#424444" mask="url(#mask-4)"></path>
                <path d="M136.063165,67.3300443 L151.020046,68.9882089 C151.020046,68.9882089 137.644633,90.3357152 136.632431,93.7657025 C135.620229,97.1941329 137.005183,115.829411 137.005183,115.829411 L130.231697,115.829411 C130.231697,115.829411 128.778119,93.8201962 129.110321,92.1604747 C129.442523,90.5023101 136.063165,67.3300443 136.063165,67.3300443" id="Fill-63" fill="#424444" mask="url(#mask-4)"></path>
                <path d="M136.631963,68.4354873 L153.706826,68.4354873 C153.706826,68.4354873 155.701596,73.6606519 154.787651,77.6433608 C153.873706,81.6260696 153.26389,90.0866013 153.34655,91.5797278 C153.430771,93.0728544 161.768569,112.981728 161.768569,112.981728 L155.550312,115.290703 C155.550312,115.290703 146.977009,96.3082215 146.145725,94.1518291 C145.31444,91.9954367 136.631963,68.4354873 136.631963,68.4354873" id="Fill-64" fill="#424444" mask="url(#mask-4)"></path>
                <path d="M137.354697,33.1696747 C138.749009,33.2646494 140.183872,33.1214089 141.478367,32.8442696 C141.950936,32.7430671 142.428183,32.5733582 142.878917,32.3538266 C143.023963,34.0664848 143.50589,38.0632063 144.926716,39.5656747 C144.926716,39.5656747 144.731761,41.5850544 141.188275,42.0832823 C137.64167,42.5815101 136.908642,39.9533582 136.908642,39.9533582 C136.908642,39.9533582 137.593321,35.6935101 137.354697,33.1696747" id="Fill-65" fill="#F88667" mask="url(#mask-4)"></path>
                <path d="M144.915954,39.6316899 C144.909716,39.665943 144.897239,39.7173228 144.878523,39.7780443 L144.872284,39.7951709 C144.852009,39.8590063 144.823936,39.9337405 144.786505,40.0162595 C144.786505,40.0209304 144.784945,40.0240443 144.783385,40.0271582 C144.744394,40.1112342 144.694486,40.2046519 144.633661,40.3027405 C144.625862,40.3136392 144.616505,40.3276519 144.607147,40.3416646 C144.477697,40.5409557 144.292101,40.7620443 144.033202,40.978462 C144.017606,40.9909177 144.005128,41.0033734 143.989532,41.0158291 C143.860083,41.1217025 143.710358,41.226019 143.540358,41.3272215 C143.518523,41.3396772 143.495128,41.3521329 143.471734,41.3645886 C143.293936,41.4673481 143.098982,41.5638797 142.874394,41.6541835 C142.652927,40.7682722 142.200633,39.9321835 141.515954,39.2658038 C140.304119,38.0856266 138.822468,37.4986519 137.228523,37.4426013 C137.365771,36.0740316 137.473385,34.4111962 137.354853,33.1702975 C138.749165,33.2637152 140.184028,33.1204747 141.476963,32.8448924 C141.951092,32.7421329 142.428339,32.573981 142.879073,32.3528924 C143.024119,34.0671076 143.506046,38.0622722 144.926872,39.5662975 C144.926872,39.5662975 144.923752,39.5896519 144.919073,39.6098924 C144.917514,39.6161203 144.917514,39.6239051 144.915954,39.6316899" id="Fill-66" fill="#E45940" mask="url(#mask-4)"></path>
                <path d="M143.111147,22.9810709 C143.111147,22.9810709 137.170505,21.5221975 136.303349,22.9810709 C135.434633,24.4399443 135.709128,26.7208937 135.366009,27.7484886 C135.02289,28.7745266 133.61922,29.9033241 133.481972,30.314362 C133.344725,30.7254 134.509771,31.4431595 134.68133,31.751438 C134.85289,32.0581595 135.595275,35.3417924 136.644908,36.0268557 C137.696101,36.710362 143.064358,34.5212734 144.298028,31.8884506 C145.531697,29.2525139 144.722248,23.756438 143.111147,22.9810709" id="Fill-67" fill="#F88667" mask="url(#mask-4)"></path>
                <path d="M136.90911,39.3579759 C136.90911,39.3579759 141.079569,41.4240646 144.463972,38.9391532 C144.463972,38.9391532 150.909936,40.0648367 151.69911,40.3855709 C152.355716,40.6518114 150.632321,49.8129759 151.380945,54.4153557 C152.128009,59.0208494 155.119385,70.1780392 155.119385,70.1780392 C155.119385,70.1780392 147.226083,76.2330646 133.68067,72.4169506 C133.68067,72.4169506 133.239294,56.7725962 133.384339,52.4255582 C133.59489,46.0653684 133.63856,42.3053051 133.63856,42.3053051 C133.63856,42.3053051 135.187275,40.7172038 136.90911,39.3579759" id="Fill-68" fill="#FF5D12" mask="url(#mask-4)"></path>
                <path d="M146.771917,64.6754241 C147.361459,62.2559051 147.776321,59.8971076 147.350541,57.3950696 C146.89045,54.6859557 148.835312,51.1158418 149.200266,48.360019 C149.590174,45.4126899 149.892743,43.4104367 151.832927,41.7787405 C151.701917,44.5594747 150.80045,50.8480443 151.380633,54.4150443 C152.129257,59.020538 155.120633,70.1777278 155.120633,70.1777278 C155.120633,70.1777278 150.106413,73.9969557 141.238339,73.6419684 C144.733477,71.5307278 145.794028,68.6861582 146.771917,64.6754241" id="Fill-69" fill="#D64C1D" mask="url(#mask-4)"></path>
                <path d="M140.556936,23.8188722 C140.556936,23.8188722 140.444642,25.2621759 141.311798,26.8129101 C141.695468,27.4964165 140.031339,29.4363911 140.556936,30.261581 C140.907853,30.8080747 141.374183,30.6445937 141.754734,29.5126823 C141.884183,29.1249987 142.291248,28.8431886 142.664,28.6610241 C144.070789,27.9759608 144.504367,30.1432519 143.248862,30.8501127 C142.369229,31.3452266 143.008679,33.5950367 143.008679,33.5950367 C144.008404,34.2956696 147.163541,33.254062 146.706569,30.9388595 C146.414917,29.4675304 146.290147,28.908581 146.795468,28.5224544 C147.706294,27.8249354 148.847945,25.9550241 147.229046,24.4868089 C144.995651,22.4643152 146.91244,21.7029608 144.415468,21.2031759 C141.916936,20.7033911 139.944,22.3023911 140.556936,23.8188722" id="Fill-70" fill="#424444" mask="url(#mask-4)"></path>
                <path d="M144.871037,22.3727658 C144.708835,21.8402848 143.701312,21.1910316 143.203789,20.8547278 C142.43489,20.3347025 141.556817,20.0248671 140.622596,19.8318038 C139.699294,19.6402975 138.718284,19.6465253 137.80122,19.866057 C137.007367,20.0560063 136.352321,20.4421329 135.536633,20.5729177 C134.78333,20.6928038 134.026908,20.6928038 133.474798,20.2693101 C133.331312,20.7799937 133.38122,21.7826772 133.460761,22.1252089 C133.626083,22.8491962 134.139202,23.4797658 134.605532,24.1118924 C135.876633,25.8292215 139.154982,26.6606392 141.393055,25.6205886 C142.473881,25.1192468 143.443972,24.6817405 143.941495,23.7024114 C144.226908,23.1356772 144.451495,22.858538 144.871037,22.3727658" id="Fill-71" fill="#424444" mask="url(#mask-4)"></path>
                <path d="M50.4667615,78.2622532 C49.980156,78.1610506 49.4904312,78.0037975 48.9960275,77.7655823 C48.7932752,77.6674937 48.5936422,77.5771899 48.3955688,77.488443 C47.5564862,77.1085443 46.7641927,76.7488861 46.0904312,75.9999873 C44.8286881,74.5971646 44.5729083,73.1647595 45.203,71.051962 C45.759789,69.1867215 47.1385046,67.6562278 49.0818073,66.7438481 C49.9692385,66.3265823 50.7287798,66.2300506 51.6068532,66.1195063 L51.8766697,66.0868101 C53.0354771,65.9357848 53.9759358,65.1448481 54.8852018,64.3819367 L55.0364862,64.2542658 C55.4154771,63.9366456 55.7539174,63.6127975 56.1141927,63.2687089 C56.359055,63.0320506 56.6085963,62.7938354 56.869055,62.5602911 C60.3641927,59.4167848 65.3659358,59.9959747 68.9468532,61.0360253 L68.7441009,61.7335443 C65.3425413,60.7495443 60.6043761,60.1828101 57.3556606,63.100557 C57.0998807,63.3294304 56.8581376,63.5614177 56.6163945,63.7934051 C56.2654771,64.1297089 55.9020826,64.4769114 55.5028165,64.8116582 L55.3530917,64.9377722 C54.4095138,65.7302658 53.3427248,66.6286329 51.9702477,66.8076835 L51.6988716,66.8403797 C50.8473119,66.9478101 50.1751101,67.0318861 49.3937339,67.3993291 C47.6391468,68.224519 46.3992385,69.5962025 45.900156,71.2605949 C45.3386881,73.142962 45.5367615,74.2951139 46.6331835,75.5142152 C47.2040092,76.1510127 47.8964862,76.463962 48.696578,76.8267342 C48.8993303,76.9185949 49.1052018,77.0104557 49.3141927,77.1116582 C50.7085046,77.7858228 52.0778624,77.7282152 53.5283211,77.6659367 C54.3736422,77.6316835 55.2470367,77.5927595 56.1516239,77.7048608 C58.0980459,77.9430759 59.8541927,77.3996962 61.675844,75.9937595 L61.8068532,75.8941139 C64.1603394,74.0771392 66.019422,72.6462911 68.9764862,71.8024177 L69.4085046,71.6778608 C71.582633,71.0644177 73.019055,70.6580506 74.2683211,68.7336456 C75.4770367,66.871519 75.8295138,64.5438608 75.1245596,63.0756456 C74.6488716,62.0854177 73.733367,61.5155696 72.4170367,61.378557 L72.4918991,60.6561266 C74.4710734,60.8616456 75.3741009,61.9125949 75.7796055,62.7611392 C76.7231835,64.7291392 75.9745596,67.4413671 74.8796972,69.1291139 C73.4822661,71.2823924 71.7713486,71.7650506 69.6050183,72.3784937 L69.1776789,72.4999367 C66.3531835,73.3048861 64.5440092,74.701481 62.2529083,76.4686329 L62.1218991,76.5698354 C60.1380459,78.1003291 58.2118991,78.6888608 56.0611651,78.4241772 C55.2189633,78.3214177 54.3752018,78.3587848 53.5595138,78.393038 C52.5504312,78.4350759 51.5179541,78.4802278 50.4667615,78.2622532" id="Fill-72" fill="#FFFFFF" mask="url(#mask-4)"></path>
                <path d="M79.2895596,65.5876481 C74.0725872,67.5681038 70.2000183,61.6781165 74.0928624,57.6876228 C74.3657982,57.4089266 74.7026789,57.187838 75.0660734,57.0508253 C80.2830459,55.0703696 84.1571743,60.9588 80.2627706,64.9508506 C79.9898349,65.2295468 79.6529541,65.4490785 79.2895596,65.5876481 M137.237725,57.9460785 L83.7204771,46.8682937 C82.1546055,46.5428886 80.5263486,46.7110405 79.0602936,47.347838 L69.4124037,51.5391797 C67.1057064,52.5403063 65.4291009,54.5970532 64.9191009,57.0570532 L64.2328624,60.3640405 C63.7213028,62.8224835 64.4387339,65.3759013 66.1558899,67.2100025 L73.3395596,74.8858253 C74.4313028,76.0535468 75.858367,76.8522684 77.4257982,77.1761165 L130.943046,88.2554582 C135.129101,89.1211291 139.227817,86.4369266 140.094972,82.2564835 L143.246991,67.0823316 C144.115706,62.9018886 141.425339,58.8117494 137.237725,57.9460785" id="Fill-73" fill="#00D8DF" mask="url(#mask-4)"></path>
                <path d="M92.3689541,63.2005139 L93.0021651,63.3312987 C93.6494128,63.4651975 94.1344587,63.4184886 94.460422,63.1911722 C94.7863853,62.9669696 95.0484037,62.5388051 95.2480367,61.9129063 C95.280789,61.8070329 95.3057431,61.7073873 95.3260183,61.6108557 C95.4164771,61.1733494 95.3634495,60.8386025 95.1684954,60.6097291 C94.9298716,60.3248051 94.4744587,60.1161722 93.8022569,59.9776025 L93.427945,59.8997544 L92.3689541,63.2005139 Z M90.5706972,68.8273747 L91.2974862,68.9784 C91.9525321,69.1138557 92.4547339,69.0578051 92.8040917,68.8102481 C93.1518899,68.5611342 93.4341835,68.0987165 93.6494128,67.4229949 C93.7055596,67.2501722 93.750789,67.0835772 93.7835413,66.9263241 C93.8833578,66.4436658 93.8677615,66.0622101 93.7351927,65.7804 C93.563633,65.4114 93.1425321,65.1576152 92.4765688,65.0190456 L91.8277615,64.8851468 L90.5706972,68.8273747 Z M87.4857431,70.0418051 L91.4362936,57.6826405 L94.6273028,58.3427924 C95.0967523,58.4393241 95.5053761,58.5560962 95.8578532,58.6853241 C96.2103303,58.8176658 96.530055,58.9889316 96.8217064,59.2037924 C97.1117982,59.4155392 97.3301468,59.6646532 97.4751927,59.9464633 C97.6202385,60.2282734 97.6966606,60.5708051 97.7028991,60.9740582 C97.7060183,61.2138304 97.6795046,61.4691722 97.6233578,61.7369696 C97.5828073,61.9315899 97.5297798,62.1277671 97.461156,62.3301722 C96.9651927,63.8170709 96.0777615,64.5301595 94.7973028,64.4647671 C96.0481284,64.9520962 96.5222569,65.9329823 96.2165688,67.4058684 C96.1791376,67.583362 96.1292294,67.7670835 96.0699633,67.9570329 C95.6909725,69.1652354 95.0905138,70.0059949 94.2670275,70.4793114 C93.4451009,70.9526278 92.4360183,71.0662861 91.2397798,70.8187291 L87.4857431,70.0418051 Z" id="Fill-74" fill="#FFFFFF" mask="url(#mask-4)"></path>
                <path d="M101.196009,65.3139342 L101.821422,65.443162 C102.453073,65.5739468 102.945917,65.525681 103.301514,65.2952506 C103.65711,65.0679342 103.937844,64.6335418 104.145275,63.9936304 C104.193624,63.8394911 104.231055,63.6931367 104.259128,63.5561241 C104.349587,63.1450861 104.341789,62.8165671 104.232615,62.5721241 C104.089128,62.246719 103.716376,62.0194025 103.117477,61.8901747 L102.345459,61.7298076 L101.196009,65.3139342 Z M96.4001376,71.8858709 L100.352248,59.5282633 L103.504266,60.1806304 C104.03922,60.2911747 104.500872,60.4188456 104.88922,60.566757 C105.277569,60.7131114 105.620688,60.8999468 105.918578,61.1272633 C106.216468,61.3514658 106.439495,61.6099215 106.586101,61.8995165 C106.737385,62.1968962 106.812248,62.5456557 106.815423,62.9473519 C106.816927,63.1933519 106.785734,63.4549215 106.721789,63.7320608 C106.684358,63.9188962 106.63289,64.1135165 106.570505,64.3128076 C106.325642,65.0866177 105.99344,65.7000608 105.577018,66.1484658 C105.159037,66.5968709 104.627202,66.8880228 103.978394,67.0188076 L103.917569,73.4428329 L101.408119,72.9228076 L101.631147,67.0094658 L100.715642,66.8195165 L98.9267431,72.4090101 L96.4001376,71.8858709 Z" id="Fill-75" fill="#FFFFFF" mask="url(#mask-4)"></path>
                <path d="M109.143431,69.9392013 L110.685908,70.2583785 L111.498477,65.1499861 L109.143431,69.9392013 Z M104.657927,73.5965051 L111.10545,61.7542519 L113.853523,62.322543 L112.381229,75.1939481 L110.038661,74.7081759 L110.441046,71.8527076 L108.402606,71.4307709 L107.047284,74.090062 L104.657927,73.5965051 Z" id="Fill-76" fill="#FFFFFF" mask="url(#mask-4)"></path>
                <polygon id="Fill-77" fill="#FFFFFF" mask="url(#mask-4)" points="113.632679 75.4539608 117.584789 63.0963532 119.348734 63.4606823 120.13011 70.5759987 122.216899 64.0554418 124.317725 64.4898342 120.364055 76.8474418 118.68433 76.4986823 118.00433 68.9769987 115.784972 75.8992519"></polygon>
                <path d="M125.325404,76.0378215 L125.875954,76.1514797 C126.083385,76.1966316 126.272101,76.2168722 126.438982,76.2168722 C126.605862,76.2168722 126.750908,76.2044165 126.87256,76.1795051 C126.994211,76.1545937 127.108064,76.0969861 127.214119,76.0066823 C127.320174,75.9179354 127.409073,75.8323025 127.479257,75.7482266 C127.54944,75.6657076 127.622743,75.5380367 127.697606,75.3652139 C127.774028,75.1923911 127.836413,75.0398089 127.884761,74.9074671 C127.93311,74.7735684 127.997055,74.582062 128.075037,74.3345051 L129.637789,69.459657 C129.725128,69.1887456 129.792193,68.9443025 129.835862,68.7325557 C129.860817,68.5877582 129.879532,68.4585304 129.893569,68.3464291 C129.921642,68.0552772 129.84522,67.8248468 129.665862,67.655138 C129.486505,67.4854291 129.163661,67.3530873 128.702009,67.2565557 L128.167055,67.1460114 L125.325404,76.0378215 Z M122.242009,77.2366823 L126.194119,64.8775177 L129.247881,65.5096443 C130.041734,65.6746823 130.679624,65.8848722 131.16155,66.1417709 C131.645037,66.3971127 131.992835,66.7209608 132.206505,67.1117582 C132.418615,67.5041127 132.518431,67.9462899 132.499716,68.4398468 C132.488798,68.6967456 132.451367,68.9816696 132.385862,69.2915051 C132.326596,69.5811 132.242376,69.8971633 132.134761,70.2396949 L130.707697,74.6972772 C130.402009,75.650138 130.037055,76.388138 129.609716,76.9097203 C129.183936,77.4313025 128.625587,77.7753911 127.93467,77.9451 C127.242193,78.1148089 126.387514,78.0930114 125.362835,77.8828215 L122.242009,77.2366823 Z" id="Fill-78" fill="#FFFFFF" mask="url(#mask-4)"></path>
                <path d="M76.1436239,64.0534177 C75.9283945,64.1810886 75.7006881,64.2854051 75.4605046,64.3585823 C75.5883945,65.7131392 75.1657339,67.3510633 74.268945,68.7336456 C73.7761009,69.4918861 72.8106881,70.2952785 71.8499541,70.8153038 C71.2136239,71.1578354 70.5663761,71.3104177 70.1140826,71.4863544 C70.2638073,71.6825316 70.4104128,71.8864937 70.5601376,72.0857848 C70.9703211,71.9160759 71.5536239,71.7821772 72.1384862,71.464557 C73.1943578,70.8931519 74.3172936,69.9932278 74.8787615,69.1291139 C75.7505963,67.7854557 76.3869266,65.8003291 76.1436239,64.0534177" id="Fill-79" fill="#FFFFFF" mask="url(#mask-4)"></path>
                <path d="M99.024844,49.5604367 C99.8826422,48.4472089 101.690257,48.5001456 102.805394,48.9703481 C103.705303,49.3502468 103.75833,50.328019 103.88622,51.7573101 C103.972,52.7226266 104.01411,53.6334494 103.75833,53.9292722 C102.605761,54.7731456 102.573009,51.5455633 102.381174,50.7297152 C102.381174,50.7297152 102.82567,54.1379051 102.223651,54.4306139 C101.097596,54.9459684 101.139706,51.7962342 101.011817,51.0099684 C101.220807,51.7557532 101.244202,53.1383354 101.092917,53.3438544 C101.085119,53.9526266 100.620349,53.8327405 100.508055,53.7657911 C99.9325505,53.4185886 99.9341101,50.8402595 99.9341101,50.8402595 C99.9341101,51.2964494 100.289706,52.9810823 99.5488807,52.6401076 C99.0669541,52.4159051 99.0388807,51.6841329 98.9453028,51.2948924 C98.7643853,50.5444367 98.8314495,49.8111076 99.024844,49.5604367" id="Fill-80" fill="#F88667" mask="url(#mask-4)"></path>
                <path d="M148.179174,64.5415253 C147.00633,64.4932595 145.580826,64.7159051 144.37211,64.7159051 C143.82156,64.7159051 143.250734,64.6365 142.704862,64.6038038 C142.360183,64.5835633 141.656789,64.4667911 141.454037,64.8513608 C141.232569,65.2748544 141.926606,65.4243228 142.199541,65.4834873 C142.594128,65.5706772 143.411376,65.5161835 143.486239,66.0439937 C143.593853,66.810019 142.157431,67.015538 141.597523,67.259981 C141.076606,67.4872975 139.69945,67.9715127 140.604037,68.4790823 C141.210734,68.8216139 142.492752,68.0415759 143.008991,67.8313861 C142.328991,68.0197785 141.73633,68.2673354 141.126514,68.6160949 C140.772477,68.8185 140.08,69.0971962 140.08,69.4942215 C140.08,70.0749684 141.365138,69.7262089 141.683303,69.5876392 C142.439725,69.2591203 142.591009,69.1750443 143.115046,68.7967025 C142.575413,69.0831835 140.59156,69.9223861 141.240367,70.6074494 C141.638073,71.0278291 143.186789,69.8492089 143.804404,69.598538 C143.464404,69.9114873 142.447523,70.0765253 142.530183,70.7366772 C142.572294,71.0683101 143.147798,70.8036266 143.423853,70.6541582 C143.812202,70.4424114 144.16,70.1356899 144.551468,69.9504114 C144.857156,69.804057 145.061468,69.6250063 145.39211,69.3883481 C146.093945,68.8916772 146.728716,68.7733481 147.336972,68.1240949 C147.904679,67.5168797 148.434954,66.9034367 149.022936,66.4020949 C147.895321,65.9863861 149.044771,65.1471835 148.179174,64.5415253" id="Fill-81" fill="#F88667" mask="url(#mask-4)"></path>
                <path d="M146.463422,64.2329354 L148.125991,68.0677329 C148.125991,68.0677329 165.286633,62.5093785 164.481862,58.0113152 C163.776908,54.0628595 153.790578,40.8317962 151.61489,40.3569228 C148.692138,39.7201253 147.520853,46.6750747 149.199018,48.3612646 C152.740945,51.9158089 157.792596,56.9167709 157.377734,57.7217203 C156.961312,58.5266696 146.463422,64.2329354 146.463422,64.2329354" id="Fill-82" fill="#FF5D12" mask="url(#mask-4)"></path>
                <path d="M55.4129817,63.4057215 C55.5580275,63.8665823 56.4906881,64.6466203 56.0695872,65.2024557 C55.8605963,65.4827089 55.0215138,64.7540506 54.8483945,64.4753544 C54.6050917,64.081443 52.9799541,60.8476329 52.7662844,59.943038 C52.6009633,59.2346203 52.4465596,58.546443 52.245367,57.890962 C52.9986697,57.5468734 53.7067431,57.0751139 54.3633486,56.5410759 C55.3116055,57.1046962 56.3019725,57.8551519 57.2361927,58.3891899 C57.7368349,58.6756709 58.2967431,58.8983165 58.8098624,59.1536582 C59.1342661,59.3140253 59.8329817,59.574038 59.8158257,60.0286709 C59.7971101,60.5268987 59.0874771,60.3042532 58.8098624,60.2170633 C58.4059174,60.0893924 57.6916055,59.614519 57.3484862,60.0566962 C56.8509633,60.6966076 58.0487615,61.6276709 58.4308716,62.1414684 C58.7833486,62.6178987 60.1074771,64.1110253 59.0219725,64.1032405 C58.7942661,64.1016835 57.4124312,62.6319114 57.1925229,62.4326203 C57.2330734,62.5011266 58.1095872,63.548962 58.1516972,63.6190253 C58.3669266,63.9864684 59.0219725,64.7727342 58.7661927,65.0981392 C58.2187615,65.7956582 56.8213303,63.6501646 56.6045413,63.3621266 C56.6029817,63.3590127 57.1348165,64.207557 57.1316972,64.204443 C57.5902294,64.8505823 57.8631651,65.3846203 57.404633,65.5216329 C56.8260092,65.6975696 55.8434404,63.9553291 55.4129817,63.4057215" id="Fill-83" fill="#F88667" mask="url(#mask-4)"></path>
                <path d="M55.7054128,56.6838494 L51.743945,59.1298367 C51.743945,59.1298367 43.0131193,43.9992797 42.8587156,39.6397861 C42.733945,36.1272797 43.4591743,31.7677861 46.8825688,24.0374696 C49.066055,19.1081278 51.4382569,17.1261152 52.423945,17.5169127 C53.1226606,17.7940519 57.0934862,19.5627608 55.1377064,25.6162291 C54.4561468,27.7274696 50.0018349,36.7360519 49.9316514,37.5986089 C49.8599083,38.4611658 55.7054128,56.6838494 55.7054128,56.6838494" id="Fill-84" fill="#00D8DF" mask="url(#mask-4)"></path>
                <path d="M76.7665413,58.5494013 C77.6227798,59.6626291 79.4303945,59.6112494 80.5455321,59.1410468 C81.447,58.7611481 81.5000275,57.7849329 81.6294771,56.3556418 C81.7152569,55.3887684 81.757367,54.4795025 81.5015872,54.1836797 C80.350578,53.3382494 80.3147064,56.5658316 80.1244312,57.3816797 C80.1244312,57.3816797 80.5689266,53.9750468 79.9684679,53.680781 C78.8424128,53.1654266 78.8829633,56.3151608 78.7550734,57.1014266 C78.9640642,56.3556418 78.9874587,54.9715025 78.8361743,54.7659835 C78.8299358,54.1587684 78.3636055,54.2770975 78.2513119,54.3456038 C77.6758073,54.6912494 77.677367,57.2711354 77.677367,57.2711354 C77.677367,56.8133886 78.0329633,55.1287557 77.2921376,55.4712873 C76.810211,55.6939329 76.7821376,56.4257051 76.6885596,56.8149456 C76.5076422,57.5654013 76.5731468,58.2987304 76.7665413,58.5494013" id="Fill-85" fill="#F88667" mask="url(#mask-4)"></path>
                <path d="M74.9136972,2.0744962 C74.9136972,2.0744962 76.6183761,4.52359747 72.6553486,6.16152152 C68.6907615,7.80100253 62.9871835,3.4851038 62.9871835,3.4851038 C62.9871835,3.4851038 63.133789,1.3364962 66.2967248,0.417888608 C68.6595688,-0.270288608 70.8742477,-0.1722 72.079844,1.1932557 C74.1307615,3.51624304 74.9136972,2.0744962 74.9136972,2.0744962" id="Fill-86" fill="#424444" mask="url(#mask-4)"></path>
            </g>
        </g>
    </g>
</svg>