<?xml version="1.0" encoding="UTF-8"?>
<svg width="346px" height="203px" viewBox="0 0 346 203" version="1.1" xmlns="http://www.w3.org/2000/svg" xmlns:xlink="http://www.w3.org/1999/xlink">
    <title>4C7F01C3-4688-4BA9-875A-40E358B7BD41</title>
    <defs>
        <polygon id="path-1" points="0.370406624 0.0855461438 203.596727 0.0855461438 203.596727 96 0.370406624 96"></polygon>
        <polygon id="path-3" points="0 202 345.244 202 345.244 0.095 0 0.095"></polygon>
        <polygon id="path-5" points="0.762 0.682 9.593 33.638 17.437 33.638 8.605 0.682"></polygon>
        <linearGradient x1="0.00243118441%" y1="50.0007055%" x2="99.9957349%" y2="50.0007055%" id="linearGradient-7">
            <stop stop-color="#F97959" offset="0%"></stop>
            <stop stop-color="#FFEFE8" offset="100%"></stop>
        </linearGradient>
        <polygon id="path-8" points="0.266 0.318 9.998 36.638 17.841 36.638 8.108 0.318"></polygon>
        <linearGradient x1="-0.0017428165%" y1="49.9995922%" x2="100.00142%" y2="49.9995922%" id="linearGradient-10">
            <stop stop-color="#F97959" offset="0%"></stop>
            <stop stop-color="#FFEFE8" offset="100%"></stop>
        </linearGradient>
        <polygon id="path-11" points="-0.002 0.523 11.283 42.638 19.126 42.638 7.841 0.523"></polygon>
        <linearGradient x1="-0.00063258051%" y1="49.9998134%" x2="100.000844%" y2="49.9998134%" id="linearGradient-13">
            <stop stop-color="#F97959" offset="0%"></stop>
            <stop stop-color="#FFEFE8" offset="100%"></stop>
        </linearGradient>
        <polygon id="path-14" points="0.734 0.254 12.019 42.37 19.861 42.37 8.576 0.254"></polygon>
        <linearGradient x1="-0.00290583991%" y1="50.0001546%" x2="100.00371%" y2="50.0001546%" id="linearGradient-16">
            <stop stop-color="#F97959" offset="0%"></stop>
            <stop stop-color="#FFEFE8" offset="100%"></stop>
        </linearGradient>
        <path d="M18.941,1.029 L20.061,2.037 L12.468,9.294 L11.886,7.123 C11.785,6.746 11.486,6.4 11.108,6.219 L11.108,6.219 C10.732,6.039 10.332,6.053 10.07,6.253 L10.07,6.253 L0.351,13.723 C-0.047,14.028 -0.018,14.665 0.416,15.146 L0.416,15.146 C0.695,15.455 1.074,15.622 1.414,15.622 L1.414,15.622 C1.603,15.622 1.782,15.571 1.923,15.462 L1.923,15.462 L10.328,9.001 L10.964,11.372 C11.069,11.764 11.387,12.122 11.783,12.295 L11.783,12.295 C12.181,12.471 12.59,12.43 12.838,12.192 L12.838,12.192 L21.816,3.613 L23.073,4.741 C23.224,4.877 23.429,4.816 23.41,4.639 L23.41,4.639 L23.006,1.045 C22.991,0.922 22.869,0.809 22.743,0.805 L22.743,0.805 L19.014,0.686 C19.012,0.686 19.009,0.686 19.007,0.686 L19.007,0.686 C18.831,0.686 18.789,0.893 18.941,1.029" id="path-17"></path>
        <linearGradient x1="0.000124022881%" y1="50.0015787%" x2="99.9986406%" y2="50.0015787%" id="linearGradient-19">
            <stop stop-color="#F97959" offset="0%"></stop>
            <stop stop-color="#EB3667" offset="100%"></stop>
        </linearGradient>
    </defs>
    <g id="Page-1" stroke="none" stroke-width="1" fill="none" fill-rule="evenodd">
        <g id="HOME" transform="translate(-100.000000, -947.000000)">
            <g id="Group-139" transform="translate(100.000000, 947.000000)">
                <g id="Group-102" transform="translate(0.000000, 0.905000)">
                    <path d="M142.9143,94.7913 C140.1933,97.5203 137.1953,99.8893 133.9593,101.8863 C126.1183,96.1563 117.7433,91.2503 109.0163,87.2793 C110.2163,85.0813 111.3983,82.7583 112.5543,80.3333 C120.5433,81.3933 128.2243,82.0283 135.2353,82.1923 C137.0653,82.2453 138.8433,82.2453 140.5663,82.2323 C145.0363,82.1793 149.0153,81.9143 152.4233,81.4363 C150.0363,86.3833 146.8403,90.8653 142.9143,94.7913 M127.2773,105.3353 C121.2043,107.9083 114.7713,109.2073 108.1273,109.2073 C103.0093,109.2073 98.0083,108.4363 93.2043,106.9053 C96.8453,104.9973 100.5033,100.6143 103.3193,96.5773 C104.7723,94.4943 106.2253,92.1893 107.6573,89.7023 C115.9213,93.4443 123.8663,98.0423 131.3303,103.3983 C130.0143,104.1023 128.6633,104.7493 127.2773,105.3353 M62.7693,79.1423 C62.6593,78.8783 62.5513,78.6153 62.4443,78.3503 C66.2313,78.5023 73.2523,79.0763 82.2203,81.1173 C82.8613,81.2633 83.5033,81.4163 84.1433,81.5723 C83.6833,84.2653 83.3423,86.8373 83.1323,89.2553 C82.7333,93.8353 82.7053,99.1153 83.9813,102.8873 C80.0943,100.6973 76.5263,97.9913 73.3263,94.7913 C68.8043,90.2693 65.2503,85.0043 62.7693,79.1423 M61.0323,68.0153 C62.3063,68.4923 63.6053,68.9693 64.9443,69.4343 C71.1023,71.5673 78.0053,73.5503 85.3883,75.3103 C85.1203,76.5063 84.8723,77.6853 84.6453,78.8463 C84.0423,78.6993 83.4383,78.5563 82.8343,78.4183 C72.6273,76.0953 64.9673,75.6233 61.4163,75.5423 C60.5363,72.8933 59.8903,70.1843 59.4803,67.4173 C59.9983,67.6173 60.5153,67.8153 61.0323,68.0153 M53.8973,62.3783 C44.4943,57.7893 40.1973,53.3593 42.1203,50.2163 C43.6723,47.6703 49.3213,45.9463 57.9693,45.3093 C56.9073,48.8903 56.2583,52.5903 56.0063,56.3443 C55.9263,57.4583 55.8873,58.5723 55.8733,59.6993 L55.8733,59.9913 C55.8733,61.1183 55.9133,62.2463 55.9793,63.3593 C55.2633,63.0413 54.5733,62.7093 53.8973,62.3783 M62.7693,40.8403 C63.2073,39.8323 63.6583,38.8373 64.1483,37.8693 C64.1493,37.8683 64.1493,37.8683 64.1503,37.8673 C70.2283,45.4643 79.1873,53.2313 89.6553,59.9673 C88.1723,64.4843 86.9053,68.9243 85.8833,73.1793 C78.2683,71.3363 71.2093,69.2513 65.0243,67.0203 C63.7253,66.5563 62.4653,66.0783 61.2583,65.6013 C60.5423,65.3223 59.8393,65.0303 59.1493,64.7393 C59.0433,63.6783 58.9633,62.6043 58.9363,61.5293 C58.9243,61.0123 58.9103,60.5083 58.9103,59.9913 C58.9103,59.3943 58.9243,58.7843 58.9363,58.1873 C59.1093,53.7183 59.8653,49.3543 61.1913,45.1373 C61.4173,44.4213 61.6553,43.7183 61.9213,43.0153 C62.1863,42.2863 62.4653,41.5563 62.7693,40.8403 M60.0523,16.9333 C61.6513,14.3933 65.2263,13.0823 70.2463,13.0823 C72.6473,13.0823 75.3813,13.3823 78.3853,13.9923 C79.5243,14.2233 80.6893,14.4943 81.8743,14.8073 C81.8753,14.8073 81.8773,14.8083 81.8783,14.8083 C77.9793,17.0623 74.3993,19.8203 71.1783,23.0553 C70.5023,23.7183 69.8513,24.4083 69.2153,25.1243 C68.4193,26.0003 67.6633,26.9153 66.9343,27.8433 C65.7673,29.3283 64.6923,30.8803 63.6983,32.4713 C63.6973,32.4733 63.6963,32.4743 63.6953,32.4753 C59.2603,25.8893 57.9263,20.3053 60.0523,16.9333 M108.1273,10.7743 C111.5363,10.7743 114.8893,11.1173 118.1663,11.7983 C114.3013,13.4803 110.3533,18.1643 107.3573,22.4583 C104.2913,26.8543 101.2293,32.2333 98.3383,38.2543 C96.3873,37.1943 94.5423,36.0493 92.8083,34.8193 C84.5843,28.9843 80.9593,22.6933 79.6423,19.8513 C81.6593,18.4173 83.7803,17.1353 85.9983,16.0173 C85.9993,16.0173 85.9993,16.0173 86.0003,16.0173 C86.9033,15.5613 87.8243,15.1353 88.7593,14.7343 C88.8273,14.7063 88.8943,14.6753 88.9633,14.6463 C88.9783,14.6403 88.9953,14.6343 89.0113,14.6263 C89.2103,14.5423 89.4103,14.4603 89.6103,14.3793 C89.6643,14.3583 89.7193,14.3363 89.7713,14.3153 C95.5943,11.9683 101.7743,10.7743 108.1273,10.7743 M142.9143,25.1903 C147.4363,29.7133 150.9913,34.9783 153.4713,40.8403 C154.3553,42.9343 155.0893,45.0743 155.6713,47.2533 C144.3283,48.0833 133.9353,47.8223 124.6433,46.4773 C126.1173,40.4533 127.1103,34.7863 127.5463,29.7803 C128.0263,24.2533 127.9683,17.7063 125.7273,14.0213 C126.2463,14.2213 126.7643,14.4293 127.2773,14.6463 C133.1403,17.1273 138.4053,20.6683 142.9143,25.1903 M115.8933,47.6563 C117.6223,48.0583 119.3973,48.4143 121.2143,48.7303 C119.9373,53.5313 118.3663,58.5303 116.5353,63.5793 C115.8303,65.5243 115.0993,67.4403 114.3473,69.3173 C107.4703,66.7923 100.1693,63.1803 92.9923,58.7193 C93.3633,57.6353 93.7463,56.5473 94.1423,55.4573 C95.8433,50.7673 97.6883,46.2523 99.6253,42.0253 C104.5033,44.3893 109.9423,46.2743 115.8933,47.6563 M121.8253,14.0623 C123.3343,14.6093 124.1003,16.7753 124.4773,18.4953 C125.0723,21.2143 125.1813,25.0343 124.7883,29.5413 C124.3593,34.4743 123.3713,40.0763 121.9013,46.0423 C120.1263,45.7363 118.3923,45.3913 116.7033,45.0023 C110.8683,43.6613 105.5493,41.8263 100.7993,39.5203 C103.6343,33.6093 106.6313,28.3373 109.6273,24.0423 C112.2163,20.3323 114.7463,17.4703 116.9473,15.7643 C118.0953,14.8753 119.6403,13.9223 120.9933,13.9223 C121.2813,13.9223 121.5603,13.9653 121.8253,14.0623 M77.3823,21.5593 C77.8353,22.4873 78.4613,23.6383 79.3053,24.9433 C82.9013,30.5013 87.6523,34.5313 91.0043,36.9323 C92.9293,38.3113 94.9823,39.5893 97.1593,40.7653 C95.1733,45.0943 93.2803,49.7153 91.5403,54.5133 C91.2163,55.4083 90.8993,56.3013 90.5923,57.1923 C80.1983,50.4263 71.3983,42.6633 65.6253,35.1503 C65.6253,35.1493 65.6243,35.1483 65.6233,35.1463 C67.0683,32.6813 68.7263,30.3483 70.5813,28.1613 C71.3513,27.2593 72.1463,26.3843 72.9813,25.5353 C73.1013,25.4163 73.2073,25.3103 73.3263,25.1903 C74.6173,23.8993 75.9723,22.6893 77.3823,21.5593 M94.7593,75.1633 C92.6653,74.7323 90.6023,74.2823 88.5753,73.8153 C89.5293,69.8443 90.7023,65.7043 92.0703,61.4853 C99.1853,65.8593 106.4213,69.4173 113.2713,71.9413 C112.4123,73.9933 111.5293,75.9943 110.6283,77.9303 C105.4243,77.1843 100.1013,76.2583 94.7593,75.1633 M106.4763,86.1563 C100.2333,83.4663 93.8143,81.2423 87.3313,79.5263 C87.5603,78.3503 87.8103,77.1523 88.0833,75.9373 C89.8863,76.3473 91.7143,76.7443 93.5643,77.1263 C98.9823,78.2343 104.3873,79.1743 109.6773,79.9363 C108.6293,82.1033 107.5603,84.1823 106.4763,86.1563 M88.8523,104.9743 C87.3433,104.4273 86.5773,102.2613 86.2003,100.5403 C85.6043,97.8203 85.4973,94.0013 85.8893,89.4943 C86.0873,87.2163 86.4053,84.7923 86.8343,82.2583 C93.0193,83.9063 99.1453,86.0263 105.1103,88.5813 C103.7673,90.8973 102.4083,93.0463 101.0503,94.9933 C98.4623,98.7033 95.9313,101.5653 93.7303,103.2703 C92.3383,104.3503 90.3613,105.5203 88.8523,104.9743 M153.4973,79.0753 C149.9563,79.7123 145.5403,80.0833 140.3813,80.1363 C132.3763,80.2343 123.1823,79.6023 113.4923,78.3253 C114.3083,76.5503 115.1073,74.7263 115.8873,72.8613 C118.8933,73.8673 121.8113,74.6643 124.5943,75.2293 C127.7823,75.8753 130.6913,76.1953 133.2883,76.1953 C139.3753,76.1953 143.7363,74.4373 145.8903,71.0193 C146.2443,70.4563 146.5333,69.8583 146.7563,69.2283 L143.6533,69.2283 C143.6013,69.3223 143.5473,69.4163 143.4903,69.5063 C141.8903,72.0463 138.3143,73.3583 133.2953,73.3573 C130.8943,73.3573 128.1613,73.0573 125.1573,72.4473 C122.5393,71.9163 119.7933,71.1703 116.9623,70.2303 C117.7093,68.3613 118.4353,66.4563 119.1373,64.5223 C121.0283,59.3073 122.6473,54.1373 123.9583,49.1733 C129.9273,50.0533 136.3343,50.4953 143.1433,50.4953 C147.3813,50.4953 151.7763,50.3243 156.3153,49.9813 C156.9903,53.2503 157.3303,56.5943 157.3303,59.9913 C157.3303,66.6093 156.0443,73.0283 153.4973,79.0753 M165.9773,70.5213 L161.9333,70.4283 C163.2323,72.1133 163.5233,73.6653 162.7153,74.9773 C161.9063,76.3173 159.9703,77.4173 157.0783,78.2533 C159.2673,72.4313 160.3673,66.2913 160.3673,59.9913 C160.3673,52.9353 158.9883,46.0923 156.2563,39.6603 C153.6303,33.4393 149.8633,27.8433 145.0623,23.0553 C140.2623,18.2543 134.6783,14.4883 128.4583,11.8483 C122.0133,9.1293 115.1693,7.7503 108.1273,7.7503 C101.0713,7.7503 94.2273,9.1293 87.7823,11.8483 C87.0133,12.1803 86.2443,12.5253 85.5013,12.8833 C85.4993,12.8843 85.4973,12.8853 85.4943,12.8863 C83.2483,12.2013 81.0603,11.6393 78.9473,11.2103 C68.2893,9.0483 60.7253,10.5423 57.6523,15.4203 C54.7273,20.0593 56.3193,27.0423 62.1223,35.1863 C62.1213,35.1873 62.1203,35.1893 62.1203,35.1903 C61.3373,36.6363 60.6353,38.1213 59.9843,39.6603 C59.4943,40.8133 59.0563,41.9673 58.6583,43.1473 C47.7573,43.7973 41.9213,45.7163 39.7993,49.1913 C37.3323,53.2363 40.7013,58.6653 51.4833,63.9433 C52.9693,64.6723 54.5603,65.3893 56.2313,66.1043 C56.7883,70.9993 58.0483,75.7603 59.9843,80.3223 C62.6103,86.5423 66.3773,92.1393 71.1783,96.9393 C75.9783,101.7283 81.5623,105.4943 87.7823,108.1333 C94.2273,110.8523 101.0713,112.2313 108.1273,112.2313 C115.1693,112.2313 122.0133,110.8523 128.4583,108.1333 C134.6783,105.4943 140.2623,101.7283 145.0623,96.9393 C149.7313,92.2713 153.4323,86.8343 156.0443,80.8133 C161.3623,79.7123 164.8633,77.9883 166.2563,75.7073 C167.2243,74.1283 167.1043,72.3783 165.9773,70.5213" id="Fill-1" fill="#00D8DF"></path>
                    <g id="Group-5" transform="translate(68.000000, 106.000000)">
                        <mask id="mask-2" fill="white">
                            <use xlink:href="#path-1"></use>
                        </mask>
                        <g id="Clip-4"></g>
                        <path d="M203.4904,81.9476 C202.3764,77.6256 194.8434,80.9726 188.6384,84.5996 C188.3494,84.1426 188.0494,83.6896 187.7414,83.2416 C192.1824,80.4866 198.4204,75.9046 196.0464,73.1156 C193.7004,70.3606 189.1174,76.5976 186.2504,81.1986 C178.5704,71.2306 167.1814,64.1356 167.1814,64.1356 C167.1814,64.1356 214.7094,24.6456 179.1934,3.8126 C143.6784,-17.0214 116.6964,56.2846 116.6964,56.2846 C116.6964,56.2846 92.4274,33.8106 69.2564,42.1106 C45.4594,50.6346 60.3304,66.4306 39.6644,70.7026 C37.2314,61.3856 32.7334,48.2486 26.5834,47.4776 C18.4614,46.4606 21.8794,56.6266 34.2204,71.4766 C31.8284,71.6906 29.1034,71.8016 25.9894,71.7916 C-7.1556,71.6926 1.3484,95.5576 1.3484,95.5576 L192.9874,96.0006 C192.7274,93.6516 192.0444,91.3426 191.0604,89.1066 C197.6254,88.0756 204.5404,86.0176 203.4904,81.9476" id="Fill-3" fill="#00A7CC" mask="url(#mask-2)"></path>
                    </g>
                    <path d="M172.3391,96.2396 L163.9821,195.6086 C163.9821,195.6086 163.1061,201.6326 167.5861,201.6426 C174.9531,201.6606 204.2541,201.6426 204.2541,201.6426 C204.2541,201.6426 198.7091,200.3886 198.7761,197.5676 C198.8561,194.2426 208.5441,95.2996 208.5441,95.2996 L172.3391,96.2396 Z" id="Fill-6" fill="#707070"></path>
                    <path d="M206.6311,199.8402 C205.1821,199.8442 177.1961,199.9322 170.0231,199.8402 C166.8961,199.8012 166.3481,197.0602 166.3211,195.2852 C166.3091,194.4362 166.4171,193.8072 166.4171,193.8072 L166.6341,191.2242 L167.1881,184.6412 L167.6771,178.8252 L168.3061,171.3522 L168.8351,165.0442 L174.7741,94.4362 L210.9801,93.4962 C210.9801,93.4962 206.8991,134.9032 204.0121,165.0442 C203.6901,168.4032 203.3841,171.6222 203.1001,174.6282 C203.0081,175.5882 202.9201,176.5272 202.8341,177.4402 C202.5671,180.2912 202.3211,182.9102 202.1091,185.2232 C201.9961,186.4412 201.8931,187.5732 201.7991,188.6112 C201.4311,192.6762 201.2151,195.2722 201.2121,195.7652 C201.2111,196.0532 201.2351,196.3202 201.2821,196.5692 C201.8771,199.7362 206.0871,199.8402 206.6311,199.8402" id="Fill-8" fill="#939393"></path>
                    <polygon id="Fill-10" fill="#848484" points="84.4123 42.1668 104.7683 123.9348 107.5563 135.1328 117.0363 173.2188 293.1813 173.2188 258.2343 42.1668"></polygon>
                    <polygon id="Fill-12" fill="#939393" points="84.4113 42.1668 81.5903 43.1068 113.2863 176.0638 117.0373 173.2188"></polygon>
                    <polygon id="Fill-14" fill="#707070" points="113.2863 176.0638 288.3463 176.0638 293.1803 173.2188 117.0373 173.2188"></polygon>
                    <mask id="mask-4" fill="white">
                        <use xlink:href="#path-3"></use>
                    </mask>
                    <g id="Clip-17"></g>
                    <polygon id="Fill-16" fill="#424444" mask="url(#mask-4)" points="174.762 201.681 212.665 201.681 212.665 199.879 174.762 199.879"></polygon>
                    <polygon id="Fill-18" fill="#707070" mask="url(#mask-4)" points="203.0295 176.0628 202.8345 177.4398 167.1875 184.6408 167.6765 178.8258 167.9105 176.0628"></polygon>
                    <path d="M206.6311,199.8402 C205.1821,199.8442 177.1961,199.9322 170.0231,199.8402 C166.8961,199.8012 166.3481,197.0602 166.3211,195.2852 L201.7991,188.6112 C201.4311,192.6762 201.2151,195.2722 201.2121,195.7652 C201.2111,196.0532 201.2351,196.3202 201.2821,196.5692 C201.8771,199.7362 206.0871,199.8402 206.6311,199.8402" id="Fill-19" fill="#848484" mask="url(#mask-4)"></path>
                    <polygon id="Fill-20" fill="#939393" mask="url(#mask-4)" points="194.4143 146.6888 117.0373 173.2188 107.5563 135.1328"></polygon>
                    <polygon id="Fill-21" fill="#B1C9F6" mask="url(#mask-4)" points="84.4113 42.1668 258.2343 42.1668 286.4373 147.4918 110.6323 147.4918"></polygon>
                    <path d="M209.7785,160.806 C209.2765,158.223 206.7755,156.129 204.1925,156.129 C201.6095,156.129 199.9225,158.223 200.4245,160.806 C200.9255,163.389 203.4265,165.483 206.0095,165.483 C208.5935,165.483 210.2805,163.389 209.7785,160.806" id="Fill-22" fill="#D64C1D" mask="url(#mask-4)"></path>
                    <polygon id="Fill-23" fill="#FFFFFF" mask="url(#mask-4)" points="278.2395 142.9271 115.4885 142.9271 97.0565 69.5031 95.6445 63.8731 94.4385 59.0701 91.6125 47.8081 252.0165 47.8081 255.1215 59.0701 256.4455 63.8731 257.9975 69.5031"></polygon>
                    <polygon id="Fill-24" fill="#00A7CC" mask="url(#mask-4)" points="255.1213 59.0701 94.4383 59.0701 91.6123 47.8081 252.0173 47.8081"></polygon>
                    <path d="M99.3049,51.4901 C98.5279,51.4901 98.0539,52.1201 98.2479,52.8981 C98.4419,53.6761 99.2289,54.3051 100.0069,54.3051 C100.7839,54.3051 101.2569,53.6761 101.0639,52.8981 C100.8689,52.1201 100.0819,51.4901 99.3049,51.4901" id="Fill-25" fill="#CBA4E3" mask="url(#mask-4)"></path>
                    <path d="M103.9826,51.4901 C103.2046,51.4901 102.7316,52.1201 102.9246,52.8981 C103.1196,53.6761 103.9066,54.3051 104.6836,54.3051 C105.4616,54.3051 105.9346,53.6761 105.7406,52.8981 C105.5466,52.1201 104.7596,51.4901 103.9826,51.4901" id="Fill-26" fill="#CBA4E3" mask="url(#mask-4)"></path>
                    <path d="M110.7776,52.8978 C110.5846,52.1208 109.7966,51.4898 109.0186,51.4898 C108.2416,51.4898 107.7676,52.1208 107.9626,52.8978 C108.1556,53.6758 108.9436,54.3058 109.7206,54.3058 C110.4986,54.3058 110.9716,53.6758 110.7776,52.8978" id="Fill-27" fill="#CBA4E3" mask="url(#mask-4)"></path>
                    <path d="M29.8899,69.8797 C29.8899,69.8797 30.3879,68.3127 29.6069,66.9017 C28.8249,65.4907 30.0879,64.5127 29.7689,64.0877 C29.4509,63.6617 27.3709,63.7047 26.6619,65.7527 C25.9519,67.7997 27.1519,70.1097 27.1519,70.1097 L29.8899,69.8797 Z" id="Fill-28" fill="#FF938F" mask="url(#mask-4)"></path>
                    <path d="M21.1672,81.1478 C22.6422,81.5878 24.1612,80.6078 24.3672,79.1148 L26.4382,70.1098 C26.4382,70.1098 26.8692,69.4128 28.3612,69.4738 C29.9862,69.5398 30.4262,70.3448 30.4262,70.3448 C30.4262,70.3448 31.4312,86.1978 26.7372,88.4348 C22.0442,90.6718 16.7302,79.8248 21.1672,81.1478" id="Fill-29" fill="#BEBFC6" mask="url(#mask-4)"></path>
                    <path d="M30.8967,201.5433 L17.6777,201.5433 C16.7377,200.6913 16.4277,195.6873 16.4277,195.6873 C16.4277,195.6873 20.5267,191.9943 21.8657,194.9163 C23.1387,197.6933 26.6567,199.1703 28.7567,199.5363 C30.5677,199.8523 30.8527,201.1793 30.8967,201.5433" id="Fill-30" fill="#424444" mask="url(#mask-4)"></path>
                    <path d="M14.884,201.5433 L1.666,201.5433 C0.726,200.6913 0.414,195.6873 0.414,195.6873 C0.414,195.6873 4.513,191.9943 5.852,194.9163 C7.125,197.6933 10.643,199.1703 12.744,199.5363 C14.554,199.8523 14.841,201.1793 14.884,201.5433" id="Fill-31" fill="#424444" mask="url(#mask-4)"></path>
                    <path d="M24.3899,132.3431 C24.3899,132.3431 22.5089,144.3691 15.4949,165.7161 C8.4809,187.0641 7.5249,196.3081 7.5249,196.3081 L-0.000192879819,196.0971 C-0.000192879819,196.0971 -0.0641,172.7671 3.1679,162.0321 C6.4009,151.2971 3.8669,123.3311 3.8669,123.3311 L24.3899,132.3431 Z" id="Fill-32" fill="#00A7CC" mask="url(#mask-4)"></path>
                    <path d="M28.051,123.9905 C28.051,123.9905 28.318,142.1125 25.182,164.3625 C22.046,186.6135 23.11,196.0585 23.11,196.0585 L15.6,196.3075 C15.6,196.3075 11.112,174.0495 12.399,162.9125 C13.686,151.7755 6.253,124.6965 6.253,124.6965 L28.051,123.9905 Z" id="Fill-33" fill="#00D8DF" mask="url(#mask-4)"></path>
                    <path d="M13.5139,81.5828 L17.0559,84.2068 L22.1739,83.1278 C22.1039,82.6618 21.7659,80.7268 21.4579,78.9748 C21.4399,78.8708 21.4209,78.7678 21.4039,78.6668 C21.1399,77.1758 20.9119,75.8948 20.9119,75.8948 L16.1309,73.5118 L14.3489,72.6238 C14.3539,72.6548 14.4869,74.2778 14.5049,74.5148 C14.8399,78.7238 13.5139,81.5828 13.5139,81.5828" id="Fill-34" fill="#FFA39F" mask="url(#mask-4)"></path>
                    <path d="M21.8166,80.2591 C21.7046,80.2121 14.8526,78.1901 14.1086,78.4361 C13.3646,78.6811 12.9236,80.1211 12.9236,80.1211 L24.1296,82.6551 C24.1296,82.6551 23.2486,80.8621 21.8166,80.2591" id="Fill-35" fill="#BEBFC6" mask="url(#mask-4)"></path>
                    <path d="M3.3674,126.2278 C4.5294,131.5258 23.8554,132.1538 28.8384,127.3448 C29.4044,126.7958 29.4324,124.2468 29.2194,120.8078 C28.8014,114.0898 27.4584,103.9848 27.4064,98.8218 C27.3804,96.3288 27.0384,93.7788 26.5814,91.4618 C25.6104,86.5278 24.1304,82.6548 24.1304,82.6548 C24.1304,82.6548 14.6894,79.6028 12.9244,80.1218 C4.4144,82.6218 2.2064,120.9298 3.3674,126.2278" id="Fill-36" fill="#D0D1DE" mask="url(#mask-4)"></path>
                    <path d="M29.219,120.8079 C28.801,114.0899 27.458,103.9849 27.407,98.8219 C27.38,96.3289 27.038,93.7789 26.581,91.4619 L20.903,90.4599 C20.903,90.4599 15.351,113.1379 29.219,120.8079" id="Fill-37" fill="#BEBFC6" mask="url(#mask-4)"></path>
                    <path d="M14.8645,74.5897 C15.9145,76.5987 19.8265,78.3357 21.4585,78.9747 C21.4395,78.8707 21.4215,78.7677 21.4035,78.6667 C21.1395,77.1757 20.9125,75.8947 20.9125,75.8947 L16.1315,73.5117 C15.0745,73.4957 14.4305,73.7627 14.8645,74.5897" id="Fill-38" fill="#FF938F" mask="url(#mask-4)"></path>
                    <path d="M23.2356,75.6151 C23.2356,75.6151 14.6106,78.3051 13.0166,72.9081 C11.4236,67.5111 9.2386,64.2231 14.6776,62.2771 C20.1176,60.3311 21.7996,62.0741 22.7706,63.7451 C23.7406,65.4181 25.4376,74.7761 23.2356,75.6151" id="Fill-39" fill="#FFA39F" mask="url(#mask-4)"></path>
                    <path d="M22.0012,63.7835 C22.0012,63.7835 21.4512,70.0645 20.1522,69.7915 C18.8542,69.5185 17.6752,69.3165 17.8652,71.2105 C18.0562,73.1035 19.8562,75.2895 15.8542,75.6245 C11.8512,75.9595 6.0972,65.6365 7.1962,63.6815 C10.3692,58.0415 26.5872,56.9035 22.0012,63.7835" id="Fill-40" fill="#424444" mask="url(#mask-4)"></path>
                    <path d="M34.132,62.4354 L25.775,64.6674 L26.033,68.1134 L34.554,68.0534 C35.229,68.0034 35.681,66.7044 35.565,65.1524 C35.448,63.6014 34.807,62.3844 34.132,62.4354" id="Fill-41" fill="#FF5D12" mask="url(#mask-4)"></path>
                    <path d="M26.6535,66.3343 C26.5825,65.3833 26.1885,64.6373 25.7745,64.6673 C25.3615,64.6993 25.0845,65.4953 25.1555,66.4473 C25.2265,67.3983 25.6205,68.1443 26.0335,68.1133 C26.4475,68.0823 26.7245,67.2863 26.6535,66.3343" id="Fill-42" fill="#D64C1D" mask="url(#mask-4)"></path>
                    <path d="M29.7512,66.2215 L27.1672,66.2685 C27.0862,66.8125 27.2262,67.0465 27.2262,67.0465 L29.8022,67.2185 L29.7512,66.2215 Z" id="Fill-43" fill="#D64C1D" mask="url(#mask-4)"></path>
                    <path d="M38.9992,62.3138 L29.4042,64.8768 L29.7012,68.8328 L39.4832,68.7648 C40.2582,68.7058 40.7772,67.2148 40.6442,65.4338 C40.5102,63.6528 39.7732,62.2558 38.9992,62.3138" id="Fill-44" fill="#FF5D12" mask="url(#mask-4)"></path>
                    <path d="M30.4133,66.7904 C30.3313,65.6984 29.8793,64.8414 29.4043,64.8774 C28.9303,64.9134 28.6103,65.8274 28.6923,66.9194 C28.7753,68.0114 29.2263,68.8684 29.7013,68.8324 C30.1763,68.7964 30.4953,67.8824 30.4133,66.7904" id="Fill-45" fill="#D64C1D" mask="url(#mask-4)"></path>
                    <path d="M31.9026,69.866 C31.9026,69.866 30.9976,68.493 31.3666,66.923 C31.7346,65.353 30.2546,64.755 30.4446,64.259 C30.6356,63.762 32.6486,63.239 33.8876,65.016 C35.1276,66.794 34.6006,69.343 34.6006,69.343 L31.9026,69.866 Z" id="Fill-46" fill="#FFA39F" mask="url(#mask-4)"></path>
                    <path d="M20.1028,83.0296 C20.1028,83.0296 25.1138,82.1166 29.7428,82.1846 C31.2818,82.2076 32.4768,80.8516 32.2698,79.3586 L31.4608,70.3026 C31.4608,70.3026 32.0408,69.3416 33.4938,68.9946 C35.0758,68.6166 35.5828,69.4696 35.5828,69.4696 C35.5828,69.4696 40.9928,84.2556 37.0828,87.6836 C33.1748,91.1126 18.3748,93.2626 18.3748,93.2626 L20.1028,83.0296 Z" id="Fill-47" fill="#D0D1DE" mask="url(#mask-4)"></path>
                    <path d="M338.5403,21.596 C338.0243,33.503 335.2553,48.078 326.4493,59.804 C326.1253,60.235 325.8003,60.661 325.4733,61.083 C324.4853,62.36 323.4793,63.6 322.4603,64.804 C321.3213,66.145 319.3323,66.361 317.9253,65.304 L278.8373,35.949 C278.3903,35.613 278.0603,35.177 277.8573,34.694 C277.7203,34.368 277.6413,34.021 277.6223,33.67 C277.5903,33.044 277.7513,32.404 278.1193,31.844 C279.0373,30.451 279.9973,29.065 281.0013,27.687 C281.3153,27.254 281.6353,26.823 281.9583,26.393 C290.7643,14.667 303.9903,7.943 315.2813,4.128 C321.2443,2.113 326.6673,0.909 330.6143,0.207 C331.2693,0.091 331.9083,0.067 332.5183,0.127 C333.4403,0.218 334.2973,0.5 335.0493,0.945 C336.6713,1.904 337.7993,3.616 338.0313,5.778 C338.4583,9.764 338.8133,15.307 338.5403,21.596" id="Fill-48" fill="#FF5D12" mask="url(#mask-4)"></path>
                    <path d="M280.9748,27.7225 C279.8328,29.2885 278.7488,30.8655 277.7208,32.4475 C277.0518,33.4775 277.2988,34.8505 278.2818,35.5885 L318.3598,65.6865 C319.5068,66.5485 321.1238,66.3685 322.0578,65.2795 C323.2068,63.9385 324.3378,62.5515 325.4458,61.1195 L280.9748,27.7225 Z" id="Fill-49" fill="#A0A0A0" mask="url(#mask-4)"></path>
                    <path d="M315.7561,18.638 C315.3251,18.638 314.8911,18.669 314.4561,18.731 C312.0501,19.073 309.9201,20.332 308.4611,22.276 C307.0011,24.219 306.3861,26.615 306.7281,29.021 C307.0701,31.428 308.3291,33.557 310.2731,35.017 C312.2161,36.476 314.6111,37.092 317.0191,36.75 C319.4251,36.408 321.5541,35.149 323.0141,33.205 C324.4741,31.261 325.0891,28.866 324.7471,26.459 C324.4041,24.053 323.1461,21.923 321.2021,20.464 C319.6101,19.267 317.7131,18.638 315.7561,18.638 M315.7121,39.597 C313.1631,39.597 310.6941,38.778 308.6181,37.22 C306.0861,35.318 304.4461,32.544 304.0001,29.409 C303.5551,26.274 304.3571,23.153 306.2581,20.621 C308.1591,18.089 310.9331,16.449 314.0691,16.003 C317.2031,15.557 320.3241,16.359 322.8571,18.261 C325.3891,20.162 327.0281,22.936 327.4741,26.071 C327.9201,29.206 327.1181,32.327 325.2171,34.859 C323.3161,37.391 320.5411,39.031 317.4061,39.477 C316.8401,39.557 316.2751,39.597 315.7121,39.597" id="Fill-50" fill="#DFDCF7" mask="url(#mask-4)"></path>
                    <path d="M335.9445,3.6908 C335.8355,2.6638 335.5215,1.7368 335.0485,0.9448 C334.2975,0.5008 333.4405,0.2178 332.5175,0.1278 C332.5235,0.1798 332.5305,0.2318 332.5365,0.2828 C332.9645,4.2688 333.3185,9.8138 333.0465,16.1008 C332.5295,28.0078 329.7595,42.5828 320.9535,54.3088 C320.6315,54.7398 320.3045,55.1658 319.9775,55.5888 C319.7595,55.8708 319.5415,56.1488 319.3215,56.4268 L323.1455,59.3048 C323.2255,59.2018 323.3065,59.1008 323.3855,58.9978 C323.7145,58.5748 324.0385,58.1478 324.3625,57.7178 C333.1685,45.9918 335.9375,31.4158 336.4545,19.5088 C336.7265,13.2208 336.3715,7.6768 335.9445,3.6908" id="Fill-51" fill="#EFECEA" mask="url(#mask-4)"></path>
                    <path d="M338.0315,5.7782 C337.6215,1.9522 334.4015,-0.4658 330.6135,0.2072 C326.6675,0.9082 321.2435,2.1122 315.2805,4.1282 L338.5415,21.5962 C338.8135,15.3082 338.4585,9.7642 338.0315,5.7782" id="Fill-52" fill="#A0A0A0" mask="url(#mask-4)"></path>
                    <path d="M284.2287,43.7762 C280.4167,41.2452 274.4177,43.5732 270.8297,48.9772 C267.2397,54.3802 271.2317,63.3442 271.2317,63.3442 C271.2317,63.3442 281.0417,63.5472 284.6307,58.1442 C288.2197,52.7402 288.0397,46.3082 284.2287,43.7762" id="Fill-53" fill="#D64C1D" mask="url(#mask-4)"></path>
                    <path d="M305.6535,59.514 C301.8425,56.982 295.8425,59.311 292.2545,64.715 C288.6655,70.118 292.6565,79.082 292.6565,79.082 C292.6565,79.082 302.4665,79.285 306.0555,73.882 C309.6445,68.478 309.4655,62.045 305.6535,59.514" id="Fill-54" fill="#D64C1D" mask="url(#mask-4)"></path>
                    <path d="M280.177,49.8348 C277.547,48.0878 273.406,49.6948 270.929,53.4248 C268.451,57.1538 271.206,63.3408 271.206,63.3408 C271.206,63.3408 277.978,63.4808 280.455,59.7518 C282.932,56.0218 282.808,51.5828 280.177,49.8348" id="Fill-55" fill="#FF5D12" mask="url(#mask-4)"></path>
                    <path d="M301.6477,65.555 C299.0167,63.807 294.8767,65.415 292.3987,69.144 C289.9217,72.874 292.6767,79.061 292.6767,79.061 C292.6767,79.061 299.4487,79.201 301.9247,75.471 C304.4027,71.742 304.2787,67.302 301.6477,65.555" id="Fill-56" fill="#FF5D12" mask="url(#mask-4)"></path>
                    <path d="M310.4201,33.6385 L322.7111,31.4665 C321.3471,33.9385 318.7141,35.6135 315.6901,35.6135 C313.6721,35.6135 311.8291,34.8675 310.4201,33.6385" id="Fill-57" fill="#D64C1D" mask="url(#mask-4)"></path>
                    <path d="M323.7004,27.3304 L308.1344,30.2794 C307.8364,29.4404 307.6744,28.5384 307.6744,27.5974 C307.6744,23.1704 311.2624,19.5824 315.6894,19.5824 C320.0274,19.5824 323.5594,23.0274 323.7004,27.3304" id="Fill-58" fill="#D64C1D" mask="url(#mask-4)"></path>
                    <path d="M75.7502,139.4329 C75.7502,139.4329 78.3562,140.1019 80.0132,139.6029 C81.6702,139.1039 84.5212,139.9229 84.9802,140.5279 C85.4392,141.1319 85.2712,141.3719 84.4522,141.5799 C83.6322,141.7889 80.7292,143.0279 78.8212,142.3109 C76.9132,141.5939 74.4252,141.5679 74.4252,141.5679 L75.7502,139.4329 Z" id="Fill-59" fill="#FFA39F" mask="url(#mask-4)"></path>
                    <path d="M53.2238,116.7913 C53.2238,116.7913 56.1518,137.6023 60.9998,139.4653 C63.3918,140.3853 73.9648,142.4703 77.0918,142.6803 C77.0918,142.6803 77.8588,142.0583 77.6718,139.5273 C77.6718,139.5273 66.5948,135.4613 65.0208,133.2493 C62.6788,129.9583 66.4748,119.8033 63.5368,116.7123 C60.5978,113.6203 55.6478,112.2923 53.2238,116.7913" id="Fill-60" fill="#D64C1D" mask="url(#mask-4)"></path>
                    <path d="M57.6467,196.887 L57.6467,192.35 L64.7907,192.35 C64.9827,192.35 65.1407,192.192 65.1407,191.999 L65.1407,191.273 C65.1407,191.079 64.9827,190.922 64.7907,190.922 L57.6467,190.922 L57.6467,165.093 C57.6467,164.368 57.0537,163.776 56.3297,163.776 L54.9157,163.776 C54.1907,163.776 53.5977,164.368 53.5977,165.093 L53.5977,190.922 L46.4547,190.922 C46.2607,190.922 46.1037,191.079 46.1037,191.273 L46.1037,191.999 C46.1037,192.192 46.2607,192.35 46.4547,192.35 L53.5977,192.35 L53.5977,196.887 C48.4287,197.278 44.2887,199.138 43.1257,201.542 L68.1177,201.542 C66.9567,199.138 62.8147,197.278 57.6467,196.887" id="Fill-61" fill="#FF5D12" mask="url(#mask-4)"></path>
                    <path d="M54.2102,160.6341 C55.0642,162.0831 56.0522,163.4411 57.0702,164.7271 C60.2172,168.6991 63.6432,171.9751 64.2392,175.0721 C64.3582,175.6891 64.5472,176.3531 64.7932,177.0531 C65.0422,177.7631 65.3512,178.5081 65.7062,179.2801 C67.0412,182.1801 69.0382,185.4301 71.0322,188.3851 C74.4792,193.4921 77.7202,197.7541 77.7202,197.7541 L83.6642,197.5011 C83.4262,196.9051 80.8342,189.8531 77.3652,181.2351 C75.9572,177.7361 74.4602,174.0151 73.0152,170.4261 C72.8222,169.9471 72.6302,169.4701 72.4392,168.9961 C71.9982,167.8981 71.5632,166.8171 71.1392,165.7641 C67.8822,157.6721 65.2882,151.2281 65.2882,151.2281 C65.2882,151.2281 52.2732,146.2981 50.9212,149.4921 C49.8072,152.1271 50.7152,154.7071 54.2102,160.6341" id="Fill-62" fill="#BEBFC6" mask="url(#mask-4)"></path>
                    <path d="M77.9065,196.5579 C77.9065,196.5579 78.2105,201.4629 79.1595,201.5329 C79.2855,201.5419 83.9715,201.5419 83.9715,201.5419 L89.9555,201.5419 C89.9555,201.5419 89.9165,200.0659 88.1675,199.7609 C86.4185,199.4559 83.4915,198.2279 82.4315,195.9159 C81.3175,193.4849 77.9065,196.5579 77.9065,196.5579" id="Fill-63" fill="#BEBFC6" mask="url(#mask-4)"></path>
                    <path d="M64.1418,182.6605 C64.1418,182.6605 60.0078,185.3175 60.4098,186.1805 C60.4618,186.2955 62.7468,190.3875 62.7468,190.3875 L65.6948,195.5945 C65.6948,195.5945 66.9338,194.8575 66.3468,193.1815 C65.7608,191.5065 65.4068,188.3505 66.9088,186.2995 C68.4888,184.1405 64.1418,182.6605 64.1418,182.6605" id="Fill-64" fill="#BEBFC6" mask="url(#mask-4)"></path>
                    <path d="M69.717,148.8763 C69.717,148.8763 86.072,159.0643 87.897,165.9023 C89.72,172.7413 66.164,187.3303 66.164,187.3303 C66.164,187.3303 63.581,185.0513 63.125,183.3793 C63.125,183.3793 73.773,170.6233 76.082,167.7643 C77.501,166.0073 55.11,161.6843 52.373,157.4293 C49.638,153.1743 50.617,149.5943 50.617,149.5943 L69.717,148.8763 Z" id="Fill-65" fill="#D0D1DE" mask="url(#mask-4)"></path>
                    <path d="M72.3401,161.9554 L38.9041,161.9554 C38.2361,161.9554 37.6891,162.5024 37.6891,163.1714 L37.6891,169.8574 C37.6891,170.5264 38.2361,171.0734 38.9041,171.0734 L72.3401,171.0734 C73.0081,171.0734 73.5561,170.5264 73.5561,169.8574 L73.5561,163.1714 C73.5561,162.5024 73.0081,161.9554 72.3401,161.9554" id="Fill-66" fill="#D64C1D" mask="url(#mask-4)"></path>
                    <path d="M64.6701,115.4788 C60.7571,116.4918 54.2681,112.8658 54.2681,112.8658 C54.2681,112.8658 56.7871,111.1728 57.7211,107.4538 C57.7691,107.2658 57.8121,107.0728 57.8491,106.8758 C58.2591,106.7888 59.0321,106.6248 59.8581,106.4508 L62.8491,109.1278 C62.8491,109.1278 62.7811,110.2408 62.4061,112.1508 C62.3411,112.4858 62.2671,112.8418 62.1821,113.2238 C63.7861,114.2168 64.6701,115.4788 64.6701,115.4788" id="Fill-67" fill="#FFA39F" mask="url(#mask-4)"></path>
                    <path d="M70.2297,148.3431 C70.2217,148.3831 70.2087,148.4241 70.1947,148.4661 C69.8177,149.5241 66.3037,150.9491 63.0817,151.9471 C61.9247,152.3051 60.8057,152.6081 59.8817,152.8201 C57.3857,153.3911 51.1317,154.4101 50.5837,152.6961 C49.9487,150.7111 50.6847,139.2421 50.1247,131.7021 C49.4617,122.4861 52.0137,114.0961 55.5627,111.3581 C55.8317,111.1611 56.3617,111.6841 57.8987,112.4131 C59.3187,113.0861 60.8867,113.2791 62.2147,112.9881 L63.4057,114.0081 C65.0487,115.4881 66.8567,117.5071 67.6767,120.6031 C68.1777,122.5021 68.5567,125.5051 68.8367,128.8821 C68.9467,130.1911 69.0407,131.5571 69.1207,132.9361 C69.2487,135.1311 69.3597,137.3461 69.4137,139.4511 C69.4147,139.4921 69.4157,139.5311 69.4157,139.5721 L69.4177,139.6501 C69.4397,139.8611 69.4437,140.0931 69.4467,140.3061 C69.5017,142.1941 69.4927,143.9501 69.5557,145.4421 C69.5567,145.4841 69.5597,145.5251 69.5617,145.5641 C69.6427,146.8141 70.1007,147.3781 70.2227,147.9001 C70.2557,148.0461 70.2637,148.1911 70.2297,148.3431" id="Fill-68" fill="#FF5D12" mask="url(#mask-4)"></path>
                    <path d="M70.2297,148.3431 C70.2217,148.3831 70.2087,148.4241 70.1947,148.4661 C69.8177,149.5241 66.3037,150.9491 63.0817,151.9471 C56.5337,143.7431 57.2357,133.9291 57.2357,133.9291 L69.4137,139.4511 C69.4147,139.4921 69.4157,139.5311 69.4157,139.5721 L69.4177,139.6501 C69.4397,139.8611 69.4437,140.0931 69.4467,140.3061 C69.5017,142.1941 69.4927,143.9501 69.5557,145.4421 C69.5567,145.4841 69.5597,145.5251 69.5617,145.5641 C69.6427,146.8141 70.1007,147.3781 70.2227,147.9001 C70.2557,148.0461 70.2637,148.1911 70.2297,148.3431" id="Fill-69" fill="#D64C1D" mask="url(#mask-4)"></path>
                    <path d="M62.8488,109.1282 C62.8488,109.1282 62.7818,110.2402 62.4068,112.1502 C59.4878,111.2082 58.1628,108.5712 57.7208,107.4532 C57.7688,107.2662 57.8118,107.0722 57.8488,106.8762 C58.2588,106.7882 59.0328,106.6252 59.8588,106.4502 L62.8488,109.1282 Z" id="Fill-70" fill="#FF7D78" mask="url(#mask-4)"></path>
                    <path d="M64.0305,109.0989 C64.0305,109.0989 57.6175,109.8229 57.2275,105.8219 C56.8395,101.8209 55.7495,99.2189 59.8275,98.5879 C63.9065,97.9569 64.8515,99.4069 65.3055,100.7099 C65.7605,102.0139 65.6885,108.8079 64.0305,109.0989" id="Fill-71" fill="#FFA39F" mask="url(#mask-4)"></path>
                    <path d="M57.2551,106.098 C57.2551,106.098 57.6621,100.786 63.5001,100.237 C67.4991,99.86 65.2701,96.418 64.8441,95.869 C64.8441,95.869 61.7791,96.289 58.6401,96.808 C52.0481,97.897 56.6091,105.271 57.2551,106.098" id="Fill-72" fill="#424444" mask="url(#mask-4)"></path>
                    <polygon id="Fill-73" fill="#00A7CC" mask="url(#mask-4)" points="93.0774 129.9476 88.5584 143.8526 72.6664 143.5136 72.6454 144.4836 88.8614 144.8306 93.6394 130.1306"></polygon>
                    <path d="M74.4084,142.6322 C74.4084,142.6322 76.9254,143.5852 78.6274,143.2722 C80.3294,142.9582 83.0724,144.0872 83.4624,144.7382 C83.8524,145.3892 83.6584,145.6102 82.8204,145.7262 C81.9834,145.8432 78.9614,146.7542 77.1434,145.8312 C75.3264,144.9082 72.8554,144.6082 72.8554,144.6082 L74.4084,142.6322 Z" id="Fill-74" fill="#FFA39F" mask="url(#mask-4)"></path>
                    <path d="M54.5158,117.6448 C54.5158,117.6448 55.1318,138.6518 59.7448,141.0388 C62.0208,142.2158 72.2998,145.4548 75.3848,146.0068 C75.3848,146.0068 76.2148,145.4738 76.3078,142.9388 C76.3078,142.9388 65.7468,137.6758 64.4268,135.3038 C62.4618,131.7748 67.3548,122.0998 64.7748,118.7038 C62.1948,115.3068 57.4208,113.4408 54.5158,117.6448" id="Fill-75" fill="#FF5D12" mask="url(#mask-4)"></path>
                    <path d="M341.3537,133.8206 L342.1257,135.0726 C342.5277,135.5336 342.6347,135.7916 342.9527,135.9476 C343.7197,136.3256 345.1377,137.2946 345.2447,139.3306 C345.2447,139.3306 345.2197,140.4816 344.4477,140.1086 C343.6747,139.7356 344.0127,139.7696 342.9157,139.2666 C341.8177,138.7636 341.4097,137.1646 341.3137,136.6186 L340.4177,135.4426 L341.3537,133.8206 Z" id="Fill-76" fill="#FFA39F" mask="url(#mask-4)"></path>
                    <path d="M318.6428,200.5755 C318.6008,201.0265 318.3498,201.3165 317.9538,201.4905 C317.9528,201.4925 317.9498,201.4925 317.9478,201.4925 C317.2138,201.8135 315.9838,201.7415 314.6538,201.5615 C314.4838,201.5395 314.3308,201.5205 314.1938,201.5095 C314.1578,201.5055 314.1218,201.5025 314.0858,201.5005 C314.0588,201.4975 314.0308,201.4965 314.0038,201.4935 C312.6798,201.4065 312.7838,201.8145 310.2528,201.8025 C307.3698,201.7865 306.3948,200.8155 306.2618,200.4015 C306.1508,200.0505 307.4138,199.7775 308.8258,199.4645 C308.8938,199.4485 308.9618,199.4325 309.0318,199.4185 C309.2188,199.3765 309.4088,199.3325 309.5958,199.2905 C311.2788,198.8945 312.9458,198.3965 313.4968,196.7795 C314.0808,195.0645 313.9428,189.9755 313.9428,189.9755 L319.0498,189.9755 C319.0498,189.9755 317.7088,195.5975 317.8498,197.2185 C317.9258,198.0835 318.3398,198.3295 318.4988,199.0785 C318.5108,199.1315 318.5218,199.1835 318.5308,199.2365 C318.6088,199.6745 318.6848,200.1235 318.6428,200.5755" id="Fill-77" fill="#FFA39F" mask="url(#mask-4)"></path>
                    <path d="M324.5852,145.5765 C324.1542,147.9965 323.5392,150.4965 323.0052,153.0975 C322.1472,157.2795 321.5002,161.7215 322.1622,166.5055 C322.2472,167.1205 322.2932,167.8005 322.3042,168.5305 C322.4322,176.9845 318.6542,192.3065 318.6542,192.3065 C318.6542,192.3065 317.6282,192.7495 315.9092,192.6645 C315.0232,192.6205 313.6652,192.0495 313.6652,192.0495 C313.6652,192.0495 313.3082,182.5505 313.2862,169.7745 C313.2712,160.5145 311.4522,148.3215 311.0852,141.1565 C310.8622,136.8205 311.3452,131.0445 311.3452,131.0445 C311.3452,131.0445 318.8752,124.9885 321.5802,128.0875 C324.2522,131.1485 326.1982,136.5245 324.5852,145.5765" id="Fill-78" fill="#FF5D12" mask="url(#mask-4)"></path>
                    <path d="M322.1623,166.5052 C322.2473,167.1202 322.2933,167.8002 322.3043,168.5302 C316.6643,160.3592 315.4173,142.5422 315.4173,142.5422 L321.6113,145.5492 C321.6113,145.5492 322.2903,148.8902 323.0053,153.0972 C322.1473,157.2792 321.5003,161.7212 322.1623,166.5052" id="Fill-79" fill="#D64C1D" mask="url(#mask-4)"></path>
                    <path d="M334.9348,200.5755 C334.8928,201.0265 334.6428,201.3165 334.2458,201.4905 C334.2448,201.4925 334.2418,201.4925 334.2398,201.4925 C333.5058,201.8135 332.2758,201.7415 330.9468,201.5615 C330.7758,201.5395 330.6228,201.5205 330.4858,201.5095 C330.4498,201.5055 330.4138,201.5025 330.3778,201.5005 C330.3508,201.4975 330.3228,201.4965 330.2958,201.4935 C328.9718,201.4065 329.0758,201.8145 326.5458,201.8025 C323.6618,201.7865 322.6868,200.8155 322.5538,200.4015 C322.4428,200.0505 323.7058,199.7775 325.1178,199.4645 C325.1858,199.4485 325.2538,199.4325 325.3238,199.4185 C325.5108,199.3765 325.7008,199.3325 325.8878,199.2905 C327.5718,198.8945 329.2378,198.3965 329.7888,196.7795 C330.3728,195.0645 329.5388,190.0545 329.5388,190.0545 L334.2698,189.6595 C334.2698,189.6595 333.9758,195.3685 334.1168,196.9885 C334.1928,197.8535 334.6318,198.3295 334.7908,199.0785 C334.8028,199.1315 334.8138,199.1835 334.8228,199.2365 C334.9008,199.6745 334.9768,200.1235 334.9348,200.5755" id="Fill-80" fill="#FFA39F" mask="url(#mask-4)"></path>
                    <path d="M334.2678,192.7386 C334.2678,192.7386 333.0508,193.3146 332.1758,193.4896 C331.2998,193.6646 329.4808,193.3226 329.4808,193.3226 C329.1528,189.6436 328.3898,183.8906 326.9088,177.3996 C325.2218,170.0096 322.7108,161.2756 319.2108,153.0056 C318.4638,151.2396 315.3808,142.8786 314.8578,140.7686 C313.2758,134.3936 314.8648,135.0806 314.8648,135.0806 L328.6908,133.4586 C328.6908,133.4586 330.3938,134.3336 331.1788,143.3356 C331.4138,146.0316 331.4428,157.6716 331.7958,159.8786 C332.1308,161.9676 332.5238,163.7056 332.9838,164.8346 C335.5518,171.1386 334.2678,192.7386 334.2678,192.7386" id="Fill-81" fill="#FF5D12" mask="url(#mask-4)"></path>
                    <path d="M334.9348,200.5755 C334.8928,201.0265 334.6428,201.3165 334.2458,201.4905 C334.2448,201.4925 334.2418,201.4925 334.2398,201.4925 C333.4638,201.7695 332.2528,201.7105 330.9498,201.5545 C330.7788,201.5345 330.6248,201.5185 330.4858,201.5095 C330.4498,201.5055 330.4138,201.5025 330.3778,201.5005 C330.3508,201.4975 330.3228,201.4965 330.2958,201.4935 C328.9718,201.4065 329.0758,201.8145 326.5458,201.8025 C323.6618,201.7865 322.6868,200.8155 322.5538,200.4015 C322.4428,200.0505 323.7058,199.7775 325.1178,199.4645 C325.4888,199.6475 327.2658,200.4515 329.4738,200.2365 C331.4158,200.0505 333.3988,199.2715 334.7908,199.0785 C334.8028,199.1315 334.8138,199.1835 334.8228,199.2365 C334.9008,199.6745 334.9768,200.1235 334.9348,200.5755" id="Fill-82" fill="#A0A0A0" mask="url(#mask-4)"></path>
                    <path d="M318.6428,200.5755 C318.6008,201.0265 318.3498,201.3165 317.9538,201.4905 C317.9528,201.4925 317.9498,201.4925 317.9478,201.4925 C317.1718,201.7695 315.9598,201.7105 314.6578,201.5545 C314.4868,201.5345 314.3328,201.5185 314.1938,201.5095 C314.1578,201.5055 314.1218,201.5025 314.0858,201.5005 C314.0588,201.4975 314.0308,201.4965 314.0038,201.4935 C312.6798,201.4065 312.7838,201.8145 310.2528,201.8025 C307.3698,201.7865 306.3948,200.8155 306.2618,200.4015 C306.1508,200.0505 307.4138,199.7775 308.8258,199.4645 C309.1968,199.6475 310.9738,200.4515 313.1818,200.2365 C315.1238,200.0505 317.1068,199.2715 318.4988,199.0785 C318.5108,199.1315 318.5218,199.1835 318.5308,199.2365 C318.6088,199.6745 318.6848,200.1235 318.6428,200.5755" id="Fill-83" fill="#A0A0A0" mask="url(#mask-4)"></path>
                    <path d="M313.1115,92.0569 C312.6445,88.2439 313.8355,82.1399 321.4475,83.1159 C329.0605,84.0899 331.4595,91.5719 329.9235,94.8989 C328.3885,98.2249 332.1335,99.0269 333.3095,102.6039 C334.3195,105.6769 334.6725,109.4929 336.3065,111.2049 C341.5765,116.7259 331.2475,125.2159 325.0205,123.4249 C313.6775,120.1639 312.2165,119.6779 312.6205,110.7659 C312.8265,106.2009 316.3795,104.4309 314.1235,103.1099 C308.6745,99.9179 314.1685,100.6879 313.1115,92.0569" id="Fill-84" fill="#384179" mask="url(#mask-4)"></path>
                    <path d="M324.301,102.0403 L322.203,107.4593 L317.677,107.6813 L315.419,104.3093 C316.844,103.2253 317.447,101.5993 317.667,100.1443 C317.848,98.9793 317.798,97.9263 317.747,97.3533 C317.717,97.0623 317.688,96.8923 317.688,96.8923 L323.327,95.1763 L323.347,95.1663 C323.417,96.6613 323.498,97.8353 323.588,98.7483 C323.909,101.9703 324.301,102.0403 324.301,102.0403" id="Fill-85" fill="#FFA39F" mask="url(#mask-4)"></path>
                    <path d="M315.3996,101.8499 C315.6906,101.8499 320.6336,100.8439 328.9836,102.9799 C328.9836,102.9799 324.4106,123.9279 325.9636,127.8759 C327.5176,131.8249 328.1076,135.3289 328.1076,135.3289 L311.2576,135.5379 C311.2576,135.5379 311.4936,121.9859 310.7156,117.1889 C309.9396,112.3929 315.3996,101.8499 315.3996,101.8499" id="Fill-86" fill="#FFA39F" mask="url(#mask-4)"></path>
                    <path d="M336.9026,123.7708 C336.0586,117.9478 332.9306,105.9898 330.8296,104.0348 C328.9706,102.3048 324.9626,102.1468 324.9626,102.1468 C324.1296,103.4508 321.2796,106.6908 317.7436,106.1068 C315.8346,105.7918 315.4476,102.3608 315.4046,101.9018 L315.4176,101.8498 C315.4176,101.8498 315.4106,101.8508 315.3996,101.8518 L315.3996,101.8498 C315.3856,101.8528 315.3736,101.8558 315.3596,101.8578 C314.8016,101.9408 310.3676,102.6628 309.0516,104.9268 C307.1096,108.2698 304.9946,118.3028 302.9156,118.1548 C301.9616,118.0858 292.3596,114.4768 292.3596,114.4768 C292.3596,114.4768 290.7596,115.9758 291.0666,117.8148 C291.0666,117.8148 295.8066,120.9888 299.8166,123.0148 C300.3726,123.2948 300.9136,123.5538 301.4256,123.7788 C302.8716,124.4128 304.0896,124.7808 304.7546,124.6238 C304.9446,124.5788 305.1476,124.4928 305.3576,124.3698 C306.2266,123.8678 307.2426,122.7638 308.2156,121.5068 C308.8626,120.6698 309.4906,119.7658 310.0456,118.9248 C310.0566,118.9068 310.0686,118.8888 310.0806,118.8718 C310.3176,122.0608 310.5556,125.5318 310.3086,128.2508 C310.1216,130.3208 309.9846,134.8018 310.3396,135.9598 C311.0796,138.3738 316.5196,139.0118 321.5956,138.7598 C323.9896,138.6408 325.6796,138.5038 326.9106,138.2198 C328.6956,137.8108 329.5116,137.0918 330.0986,135.6748 C330.6596,134.3258 328.0686,127.9888 327.8226,125.2158 C327.5976,122.7028 327.9826,120.6568 328.6176,118.6458 C330.4106,122.7848 332.2326,125.7458 332.4716,126.3868 C332.9746,127.7378 340.6266,136.2788 340.6266,136.2788 C340.6266,136.2788 341.2456,136.1518 341.7356,135.8308 C342.2416,135.4998 342.4946,135.0618 342.4946,135.0618 C341.1446,131.8548 336.9026,123.7708 336.9026,123.7708" id="Fill-87" fill="#00D8DF" mask="url(#mask-4)"></path>
                    <path d="M330.0988,135.6751 C329.5118,137.0921 328.6958,137.8111 326.9108,138.2201 C324.5248,137.7611 322.9508,133.3701 322.1398,131.2091 C321.2058,128.7191 326.0718,115.9141 327.4138,116.0301 C328.4118,116.1171 328.5838,117.8121 328.6178,118.6461 C327.9718,120.6761 327.5958,122.6761 327.8228,125.2161 C328.0688,127.9881 330.6598,134.3251 330.0988,135.6751" id="Fill-88" fill="#00A7CC" mask="url(#mask-4)"></path>
                    <path d="M292.4279,115.4837 C292.4279,115.4837 291.6089,113.4767 290.7069,113.3947 C289.8059,113.3127 286.9389,112.8627 286.7339,113.2717 C286.5289,113.6817 286.7339,115.1567 287.3479,115.6887 C287.9619,116.2207 291.7729,117.0817 291.7729,117.0817 L292.4279,115.4837 Z" id="Fill-89" fill="#FFA39F" mask="url(#mask-4)"></path>
                    <path d="M310.0451,118.9251 C309.4901,119.7661 308.8621,120.6701 308.2161,121.5071 C307.2881,122.6491 306.2641,123.7531 305.3581,124.3691 C305.1481,124.4921 304.9441,124.5781 304.7541,124.6231 C304.0891,124.7801 302.8711,124.4121 301.4261,123.7791 C302.2861,123.8421 303.1311,123.8111 303.9611,123.7401 C305.4161,123.6171 305.8391,122.0421 308.1381,119.6811 C309.5131,118.2691 309.9311,118.4871 310.0451,118.9251" id="Fill-90" fill="#00A7CC" mask="url(#mask-4)"></path>
                    <path d="M323.3274,95.1761 C322.4734,96.5721 320.4174,99.4421 317.6674,100.1441 C317.8484,98.9801 317.7984,97.9261 317.7474,97.3541 C317.7174,97.0631 317.6874,96.8921 317.6874,96.8921 L323.3274,95.1761 Z" id="Fill-91" fill="#FF7D78" mask="url(#mask-4)"></path>
                    <path d="M316.2063,97.2757 C316.2063,97.2757 322.9873,98.6367 323.7693,94.4017 C324.5533,90.1667 325.9553,87.4897 321.6593,86.4407 C317.3633,85.3917 316.2213,86.8527 315.6153,88.2027 C315.0113,89.5527 314.4633,96.8117 316.2063,97.2757" id="Fill-92" fill="#FFA39F" mask="url(#mask-4)"></path>
                    <path d="M319.5197,85.3831 C319.5197,85.3831 319.4017,86.8201 321.6307,89.2581 C323.8617,91.6951 323.4267,96.6251 323.4267,96.6251 C323.4267,96.6251 327.0877,88.9771 325.0827,86.7221 C323.0777,84.4661 319.5197,85.3831 319.5197,85.3831" id="Fill-93" fill="#384179" mask="url(#mask-4)"></path>
                    <path d="M322.2463,83.514 C322.2463,83.514 318.8753,82.386 315.5303,85.682 C314.0903,87.103 314.3073,89.894 315.0793,91.514 C315.0793,91.514 316.2653,88.042 318.4223,87.285 C320.5793,86.529 322.2463,83.514 322.2463,83.514" id="Fill-94" fill="#384179" mask="url(#mask-4)"></path>
                    <path d="M318.3195,95.1917 C318.3195,95.1917 318.1375,95.6947 316.8615,95.4657 C316.8615,95.4657 315.7895,95.2747 315.8875,94.7107 C315.8875,94.7107 316.9815,94.4267 318.3195,95.1917" id="Fill-95" fill="#EFECEA" mask="url(#mask-4)"></path>
                    <path d="M213.5256,96.8128 C215.3646,107.2408 209.2766,115.6948 199.9286,115.6948 C199.3206,115.6948 198.6976,115.2738 198.0926,115.2028 C206.4166,114.2008 211.6426,106.5618 209.9226,96.8128 C208.2046,87.0638 200.1666,79.0408 191.4886,78.0388 C192.0686,77.9668 192.6626,77.9318 193.2706,77.9318 C202.6186,77.9318 211.6876,86.3848 213.5256,96.8128" id="Fill-96" fill="#D64C1D" mask="url(#mask-4)"></path>
                    <path d="M199.8117,115.2952 C190.4377,115.2952 181.3647,106.9302 179.5437,96.6092 C177.7247,86.2882 183.8477,77.9212 193.2217,77.9212 C202.5967,77.9212 211.6697,86.2882 213.4907,96.6092 C215.3097,106.9302 209.1867,115.2952 199.8117,115.2952 M220.9997,102.2622 C223.6617,102.2622 225.3857,99.8022 224.8507,96.7682 C224.3157,93.7332 221.7237,91.2732 219.0627,91.2732 C218.9287,91.2732 218.7997,91.2842 218.6707,91.2962 C218.2697,90.1752 217.8097,89.0812 217.3007,88.0172 C218.6437,87.0872 219.3457,85.2702 218.9767,83.1802 C218.4577,80.2352 216.0027,77.8322 213.4267,77.6922 L210.2927,77.7312 C210.1347,77.7312 209.9817,77.7402 209.8317,77.7572 C209.5147,77.4592 209.1947,77.1672 208.8687,76.8832 C209.2997,75.9692 209.4567,74.8442 209.2417,73.6222 C208.7067,70.5872 206.1137,68.1282 203.4537,68.1282 C203.4317,68.1282 203.4117,68.1282 203.3907,68.1292 L203.3907,68.1282 L200.7787,68.1782 C200.7047,68.1742 200.6297,68.1712 200.5557,68.1712 C200.4237,68.1712 200.2947,68.1782 200.1667,68.1902 L200.1657,68.1912 C199.4287,68.2592 198.7777,68.5242 198.2387,68.9382 C197.6997,69.3522 197.2757,69.9182 196.9967,70.5872 C196.9327,70.5732 196.8717,70.5562 196.8077,70.5422 C196.7917,70.3582 196.7667,70.1712 196.7337,69.9822 C196.1987,66.9482 193.6077,64.4872 190.9467,64.4872 L188.0877,64.5342 C188.0747,64.5342 188.0627,64.5332 188.0497,64.5332 C188.0047,64.5332 187.9587,64.5362 187.9157,64.5372 L187.8617,64.5382 L187.8607,64.5382 C187.6517,64.5472 187.4507,64.5722 187.2547,64.6122 C187.2547,64.6122 187.2537,64.6122 187.2527,64.6132 C187.1267,64.6572 182.9237,66.1832 184.3607,71.4782 L184.0667,71.6072 C184.0667,71.6072 183.2327,69.9202 181.7377,69.0042 C179.8887,67.8722 178.6827,68.1392 178.5217,68.1602 L176.0287,68.1712 L176.0297,68.1752 C173.4307,68.2412 171.7607,70.6732 172.2887,73.6662 C172.5387,75.0822 173.2377,76.3672 174.1797,77.3412 C174.0927,77.4582 174.0067,77.5752 173.9217,77.6952 L173.0547,77.7042 C172.9267,77.6922 172.7977,77.6862 172.6687,77.6862 C172.5067,77.6862 172.3477,77.6952 172.1937,77.7132 L169.9887,77.7362 C169.9757,77.7362 169.9617,77.7352 169.9507,77.7332 C169.8907,77.7322 169.8317,77.7312 169.7727,77.7312 C169.6667,77.7312 169.5657,77.7352 169.4647,77.7432 L169.4577,77.7432 C169.3727,77.7492 169.2877,77.7572 169.2037,77.7692 C166.8707,78.0932 165.4257,80.4122 165.9217,83.2262 C166.3367,85.5792 167.9937,87.5832 169.9567,88.3652 C169.8457,89.3212 169.7877,90.3052 169.7817,91.3072 L168.8167,91.3212 C168.7757,91.3202 168.7337,91.3182 168.6917,91.3182 C168.5907,91.3182 168.4937,91.3232 168.3957,91.3302 L168.2117,91.3322 C168.2117,91.3322 168.2137,91.3372 168.2157,91.3452 C165.8287,91.6202 164.3387,93.9622 164.8407,96.8132 C165.3757,99.8472 167.9667,102.3082 170.6287,102.3082 L171.7107,102.2902 C171.9657,102.9982 172.2427,103.6962 172.5407,104.3842 C170.6777,105.0652 169.6007,107.1602 170.0387,109.6462 C170.5527,112.5632 172.9687,114.9482 175.5197,115.1272 L175.5197,115.1282 L175.5267,115.1282 C175.6257,115.1352 175.7257,115.1402 175.8257,115.1402 C175.9577,115.1402 176.0867,115.1322 176.2147,115.1202 L178.6617,115.0952 L178.6597,115.0922 C178.6807,115.0932 178.7017,115.0952 178.7237,115.0952 C179.0607,115.0952 179.3817,115.0552 179.6857,114.9802 C180.0827,115.3802 180.4857,115.7722 180.8987,116.1492 C180.3687,117.1032 180.1637,118.3282 180.3997,119.6662 C180.9347,122.7022 183.5267,125.1612 186.1877,125.1612 L189.0227,125.1172 L189.0207,125.1142 C189.0417,125.1152 189.0627,125.1172 189.0847,125.1172 C190.7077,125.1172 191.9777,124.1992 192.6027,122.7972 C192.9237,122.8842 193.2477,122.9652 193.5717,123.0392 C193.5877,123.2222 193.6117,123.4082 193.6457,123.5982 C194.1797,126.6322 196.7727,129.0922 199.4337,129.0922 L202.3277,129.0472 L202.3307,129.0472 L202.3387,129.0472 L202.5247,129.0442 C202.5247,129.0442 202.5237,129.0432 202.5237,129.0422 C205.0737,128.9252 206.7017,126.5132 206.1797,123.5522 C206.1467,123.3642 206.1057,123.1782 206.0567,122.9932 C206.1497,122.9712 206.2407,122.9442 206.3327,122.9202 C207.4497,124.2762 209.0127,125.1612 210.6047,125.1612 L213.3927,125.1112 C213.4297,125.1132 213.4647,125.1172 213.5017,125.1172 C216.1627,125.1172 217.8867,122.6562 217.3517,119.6222 C217.1507,118.4782 216.6547,117.4152 215.9737,116.5342 C216.3347,116.0732 216.6737,115.5922 216.9957,115.0952 L220.2657,115.0952 L220.2657,115.0932 C220.2867,115.0932 220.3077,115.0952 220.3287,115.0952 C222.9897,115.0952 224.7137,112.6342 224.1787,109.6002 C223.7887,107.3832 222.2977,105.4782 220.4867,104.6092 C220.5577,103.8332 220.5957,103.0442 220.6007,102.2402 C220.7337,102.2522 220.8667,102.2622 220.9997,102.2622" id="Fill-97" fill="#D64C1D" mask="url(#mask-4)"></path>
                    <path d="M199.8127,115.2962 C190.4387,115.2962 181.3647,106.9292 179.5437,96.6092 C177.7247,86.2882 183.8487,77.9222 193.2217,77.9222 C202.5957,77.9222 211.6697,86.2882 213.4907,96.6092 C215.3097,106.9292 209.1857,115.2962 199.8127,115.2962 M220.9387,102.2632 C223.5997,102.2632 225.3227,99.8032 224.7887,96.7682 C224.2527,93.7342 221.6617,91.2742 218.9997,91.2742 C218.8677,91.2742 218.7377,91.2832 218.6087,91.2962 C218.2077,90.1752 217.7487,89.0812 217.2387,88.0172 C218.5817,87.0872 219.2847,85.2712 218.9157,83.1802 C218.3797,80.1462 215.7897,77.6862 213.1277,77.6862 C212.1447,77.6862 211.2917,78.0232 210.6297,78.6002 C210.0407,78.0022 209.4317,77.4292 208.8057,76.8832 C209.2377,75.9702 209.3937,74.8442 209.1777,73.6222 C208.6427,70.5872 206.0517,68.1272 203.3907,68.1272 C201.4347,68.1272 199.9897,69.4592 199.5707,71.3682 C198.6407,71.0352 197.6977,70.7582 196.7457,70.5422 C196.7297,70.3582 196.7057,70.1722 196.6717,69.9832 C196.1367,66.9482 193.5447,64.4882 190.8837,64.4882 C188.2227,64.4882 186.4997,66.9482 187.0347,69.9832 C187.0687,70.1722 187.1097,70.3582 187.1587,70.5422 C186.0807,70.8082 185.0477,71.1652 184.0667,71.6072 C183.0017,69.5702 181.0097,68.1272 178.9727,68.1272 C176.3117,68.1272 174.5877,70.5872 175.1237,73.6222 C175.3737,75.0362 176.0727,76.3222 177.0147,77.2962 C176.6187,77.8232 176.2477,78.3742 175.9007,78.9472 C174.9277,78.1592 173.7737,77.6862 172.6067,77.6862 C169.9457,77.6862 168.2217,80.1462 168.7567,83.1802 C169.1717,85.5352 170.8277,87.5382 172.7917,88.3202 C172.6757,89.3252 172.6147,90.3582 172.6137,91.4112 C172.2547,91.3232 171.8917,91.2742 171.5257,91.2742 C168.8647,91.2742 167.1417,93.7342 167.6757,96.7682 C168.2107,99.8032 170.8027,102.2632 173.4637,102.2632 C173.8297,102.2632 174.1747,102.2122 174.5017,102.1242 C174.7677,102.8742 175.0607,103.6132 175.3757,104.3392 C173.5117,105.0202 172.4357,107.1162 172.8737,109.6002 C173.4087,112.6352 175.9997,115.0952 178.6617,115.0952 C179.8207,115.0952 180.8007,114.6272 181.4957,113.8492 C182.2097,114.6412 182.9577,115.3942 183.7327,116.1052 C183.2037,117.0582 182.9987,118.2832 183.2347,119.6222 C183.7697,122.6562 186.3607,125.1162 189.0217,125.1162 C190.9737,125.1162 192.4167,123.7912 192.8387,121.8882 C194.0087,122.3492 195.2007,122.7202 196.4067,122.9932 C196.4227,123.1782 196.4477,123.3642 196.4807,123.5532 C197.0157,126.5872 199.6067,129.0472 202.2677,129.0472 C204.9287,129.0472 206.6527,126.5872 206.1177,123.5532 C206.0837,123.3642 206.0427,123.1782 205.9947,122.9932 C206.9057,122.7692 207.7847,122.4792 208.6267,122.1272 C209.7397,123.9002 211.5707,125.1162 213.4397,125.1162 C216.1007,125.1162 217.8247,122.6562 217.2897,119.6222 C217.0867,118.4772 216.5917,117.4142 215.9117,116.5342 C216.4837,115.8042 217.0077,115.0252 217.4817,114.2022 C218.3367,114.7652 219.2957,115.0952 220.2667,115.0952 C222.9277,115.0952 224.6507,112.6352 224.1167,109.6002 C223.7247,107.3832 222.2357,105.4782 220.4237,104.6082 C220.4957,103.8332 220.5347,103.0432 220.5387,102.2392 C220.6707,102.2522 220.8047,102.2632 220.9387,102.2632" id="Fill-98" fill="#FF5D12" mask="url(#mask-4)"></path>
                    <path d="M245.0363,97.5618 C246.4423,105.5348 241.7883,111.9978 234.6413,111.9978 C234.1773,111.9978 233.7003,111.6748 233.2373,111.6218 C239.6013,110.8548 243.5973,105.0148 242.2823,97.5618 C240.9683,90.1088 234.8233,83.9748 228.1893,83.2088 C228.6333,83.1548 229.0863,83.1268 229.5523,83.1268 C236.6983,83.1268 243.6313,89.5898 245.0363,97.5618" id="Fill-99" fill="#A0A0A0" mask="url(#mask-4)"></path>
                    <path d="M234.5529,111.6917 C227.3859,111.6917 220.4489,105.2957 219.0579,97.4067 C217.6669,89.5167 222.3479,83.1197 229.5149,83.1197 C236.6809,83.1197 243.6179,89.5167 245.0089,97.4067 C246.4009,105.2957 241.7189,111.6917 234.5529,111.6917 M250.7509,101.7277 C252.7849,101.7277 254.1039,99.8467 253.6949,97.5277 C253.2849,95.2077 251.3039,93.3267 249.2699,93.3267 C249.1669,93.3267 249.0689,93.3357 248.9709,93.3437 C248.6629,92.4877 248.3119,91.6507 247.9229,90.8377 C248.9489,90.1277 249.4859,88.7377 249.2039,87.1397 C248.8069,84.8887 246.9309,83.0517 244.9609,82.9447 L242.5659,82.9737 C242.4449,82.9737 242.3269,82.9817 242.2119,82.9937 C241.9699,82.7657 241.7259,82.5437 241.4759,82.3257 C241.8059,81.6277 241.9259,80.7677 241.7609,79.8327 C241.3519,77.5127 239.3699,75.6317 237.3359,75.6317 C237.3209,75.6317 237.3039,75.6317 237.2879,75.6327 L237.2879,75.6317 L235.2909,75.6707 C235.2349,75.6677 235.1779,75.6657 235.1209,75.6657 C235.0199,75.6657 234.9219,75.6707 234.8239,75.6797 L234.8229,75.6807 C234.2599,75.7337 233.7619,75.9357 233.3499,76.2517 C232.9379,76.5687 232.6139,77.0007 232.3999,77.5127 C232.3509,77.5027 232.3039,77.4887 232.2559,77.4787 C232.2429,77.3377 232.2249,77.1947 232.1989,77.0497 C231.7899,74.7307 229.8099,72.8497 227.7749,72.8497 L225.5889,72.8847 C225.5789,72.8847 225.5709,72.8837 225.5609,72.8837 C225.5259,72.8837 225.4909,72.8857 225.4579,72.8867 L225.4159,72.8877 L225.4149,72.8877 C225.2559,72.8957 225.1019,72.9137 224.9519,72.9447 C224.9519,72.9447 224.9509,72.9447 224.9499,72.9457 C224.8549,72.9797 221.6419,74.1457 222.7399,78.1937 L222.5149,78.2927 C222.5149,78.2927 221.8769,77.0027 220.7349,76.3027 C219.3219,75.4367 218.3999,75.6407 218.2769,75.6567 L216.3699,75.6657 L216.3699,75.6687 C214.3839,75.7197 213.1079,77.5787 213.5109,79.8667 C213.7009,80.9487 214.2369,81.9317 214.9559,82.6757 C214.8899,82.7647 214.8239,82.8557 214.7589,82.9467 L214.0969,82.9537 C213.9989,82.9447 213.8999,82.9397 213.8019,82.9397 C213.6779,82.9397 213.5569,82.9467 213.4379,82.9607 L211.7519,82.9787 C211.7419,82.9787 211.7329,82.9777 211.7239,82.9767 C211.6779,82.9757 211.6319,82.9737 211.5869,82.9737 C211.5069,82.9737 211.4289,82.9777 211.3519,82.9837 L211.3469,82.9837 C211.2819,82.9877 211.2159,82.9937 211.1529,83.0027 C209.3679,83.2507 208.2639,85.0237 208.6439,87.1747 C208.9609,88.9737 210.2269,90.5057 211.7279,91.1037 C211.6439,91.8357 211.5989,92.5867 211.5939,93.3527 L210.8569,93.3647 C210.8239,93.3637 210.7929,93.3617 210.7609,93.3617 C210.6839,93.3617 210.6099,93.3657 210.5339,93.3707 L210.3949,93.3727 C210.3949,93.3727 210.3959,93.3767 210.3969,93.3817 C208.5729,93.5917 207.4329,95.3827 207.8179,97.5617 C208.2269,99.8817 210.2069,101.7627 212.2419,101.7627 L213.0699,101.7497 C213.2639,102.2917 213.4749,102.8257 213.7029,103.3497 C212.2799,103.8707 211.4559,105.4727 211.7909,107.3727 C212.1839,109.6027 214.0309,111.4257 215.9809,111.5637 L215.9819,111.5647 L215.9869,111.5647 C216.0629,111.5697 216.1389,111.5737 216.2149,111.5737 C216.3159,111.5737 216.4149,111.5677 216.5129,111.5577 L218.3829,111.5387 L218.3809,111.5367 C218.3979,111.5377 218.4129,111.5387 218.4299,111.5387 C218.6879,111.5387 218.9339,111.5077 219.1659,111.4507 C219.4689,111.7557 219.7779,112.0557 220.0929,112.3447 C219.6879,113.0737 219.5319,114.0107 219.7119,115.0337 C220.1209,117.3547 222.1029,119.2347 224.1369,119.2347 L226.3039,119.2007 L226.3029,119.1987 C226.3189,119.1997 226.3339,119.2007 226.3519,119.2007 C227.5919,119.2007 228.5639,118.4997 229.0409,117.4267 C229.2869,117.4937 229.5329,117.5557 229.7819,117.6117 C229.7939,117.7527 229.8129,117.8947 229.8379,118.0397 C230.2469,120.3587 232.2289,122.2397 234.2629,122.2397 L236.4759,122.2057 L236.4779,122.2057 L236.4849,122.2057 L236.6259,122.2037 C236.6259,122.2037 236.6259,122.2027 236.6249,122.2017 C238.5749,122.1117 239.8199,120.2677 239.4199,118.0037 C239.3949,117.8607 239.3649,117.7177 239.3259,117.5777 C239.3979,117.5597 239.4669,117.5397 239.5379,117.5207 C240.3909,118.5587 241.5859,119.2347 242.8029,119.2347 L244.9359,119.1967 C244.9629,119.1977 244.9909,119.2007 245.0179,119.2007 C247.0529,119.2007 248.3709,117.3197 247.9619,115.0007 C247.8079,114.1257 247.4289,113.3127 246.9079,112.6387 C247.1839,112.2867 247.4439,111.9197 247.6899,111.5387 L250.1899,111.5387 L250.1899,111.5377 C250.2049,111.5377 250.2209,111.5387 250.2379,111.5387 C252.2719,111.5387 253.5899,109.6577 253.1809,107.3377 C252.8819,105.6427 251.7429,104.1867 250.3579,103.5227 C250.4119,102.9287 250.4419,102.3257 250.4459,101.7117 C250.5469,101.7197 250.6489,101.7277 250.7509,101.7277" id="Fill-100" fill="#BEBFC6" mask="url(#mask-4)"></path>
                    <path d="M234.5529,111.6927 C227.3869,111.6927 220.4489,105.2967 219.0579,97.4067 C217.6669,89.5157 222.3479,83.1197 229.5149,83.1197 C236.6809,83.1197 243.6179,89.5157 245.0089,97.4067 C246.4009,105.2967 241.7189,111.6927 234.5529,111.6927 M250.7029,101.7287 C252.7379,101.7287 254.0559,99.8477 253.6469,97.5277 C253.2379,95.2077 251.2569,93.3277 249.2219,93.3277 C249.1199,93.3277 249.0209,93.3357 248.9229,93.3437 C248.6159,92.4877 248.2649,91.6507 247.8749,90.8377 C248.9019,90.1277 249.4389,88.7377 249.1569,87.1397 C248.7479,84.8207 246.7669,82.9397 244.7329,82.9397 C243.9809,82.9397 243.3279,83.1977 242.8239,83.6387 C242.3719,83.1807 241.9069,82.7427 241.4279,82.3257 C241.7579,81.6277 241.8769,80.7677 241.7129,79.8327 C241.3039,77.5127 239.3229,75.6317 237.2879,75.6317 C235.7929,75.6317 234.6879,76.6497 234.3679,78.1097 C233.6569,77.8547 232.9359,77.6437 232.2079,77.4777 C232.1959,77.3377 232.1769,77.1947 232.1519,77.0507 C231.7419,74.7307 229.7619,72.8497 227.7279,72.8497 C225.6929,72.8497 224.3749,74.7307 224.7839,77.0507 C224.8099,77.1947 224.8409,77.3377 224.8789,77.4777 C224.0549,77.6817 223.2659,77.9547 222.5149,78.2927 C221.7009,76.7347 220.1779,75.6317 218.6209,75.6317 C216.5869,75.6317 215.2689,77.5127 215.6779,79.8327 C215.8689,80.9147 216.4039,81.8977 217.1239,82.6417 C216.8219,83.0447 216.5369,83.4657 216.2719,83.9037 C215.5289,83.3017 214.6469,82.9397 213.7539,82.9397 C211.7199,82.9397 210.4019,84.8207 210.8109,87.1397 C211.1279,88.9407 212.3939,90.4717 213.8949,91.0697 C213.8069,91.8387 213.7599,92.6277 213.7589,93.4327 C213.4859,93.3657 213.2069,93.3277 212.9279,93.3277 C210.8939,93.3277 209.5749,95.2077 209.9849,97.5277 C210.3939,99.8477 212.3749,101.7287 214.4089,101.7287 C214.6889,101.7287 214.9529,101.6897 215.2029,101.6227 C215.4069,102.1967 215.6299,102.7607 215.8709,103.3157 C214.4469,103.8367 213.6229,105.4387 213.9579,107.3387 C214.3669,109.6577 216.3479,111.5387 218.3819,111.5387 C219.2689,111.5387 220.0189,111.1807 220.5489,110.5867 C221.0959,111.1917 221.6669,111.7667 222.2599,112.3107 C221.8549,113.0397 221.6989,113.9767 221.8789,115.0007 C222.2879,117.3197 224.2689,119.2007 226.3039,119.2007 C227.7959,119.2007 228.8989,118.1867 229.2219,116.7327 C230.1159,117.0847 231.0269,117.3687 231.9489,117.5777 C231.9609,117.7177 231.9809,117.8607 232.0059,118.0047 C232.4139,120.3247 234.3959,122.2057 236.4299,122.2057 C238.4639,122.2057 239.7819,120.3247 239.3729,118.0047 C239.3479,117.8607 239.3159,117.7177 239.2789,117.5777 C239.9759,117.4057 240.6479,117.1837 241.2919,116.9157 C242.1419,118.2707 243.5419,119.2007 244.9709,119.2007 C247.0049,119.2007 248.3229,117.3197 247.9129,115.0007 C247.7589,114.1247 247.3809,113.3117 246.8609,112.6387 C247.2979,112.0807 247.6989,111.4847 248.0609,110.8557 C248.7149,111.2867 249.4489,111.5387 250.1899,111.5387 C252.2249,111.5387 253.5419,109.6577 253.1329,107.3387 C252.8339,105.6427 251.6959,104.1857 250.3109,103.5217 C250.3649,102.9287 250.3949,102.3257 250.3979,101.7117 C250.4989,101.7197 250.6019,101.7287 250.7029,101.7287" id="Fill-101" fill="#00D8DF" mask="url(#mask-4)"></path>
                </g>
                <g id="Group-105" transform="translate(112.000000, 103.905000)">
                    <mask id="mask-6" fill="white">
                        <use xlink:href="#path-5"></use>
                    </mask>
                    <g id="Clip-104"></g>
                    <polygon id="Fill-103" fill="url(#linearGradient-7)" mask="url(#mask-6)" points="0.762 0.682 9.593 33.638 17.437 33.638 8.605 0.682"></polygon>
                </g>
                <g id="Group-108" transform="translate(123.000000, 100.905000)">
                    <mask id="mask-9" fill="white">
                        <use xlink:href="#path-8"></use>
                    </mask>
                    <g id="Clip-107"></g>
                    <polygon id="Fill-106" fill="url(#linearGradient-10)" mask="url(#mask-9)" points="0.266 0.318 9.998 36.638 17.841 36.638 8.108 0.318"></polygon>
                </g>
                <g id="Group-111" transform="translate(133.000000, 94.905000)">
                    <mask id="mask-12" fill="white">
                        <use xlink:href="#path-11"></use>
                    </mask>
                    <g id="Clip-110"></g>
                    <polygon id="Fill-109" fill="url(#linearGradient-13)" mask="url(#mask-12)" points="-0.002 0.523 11.283 42.638 19.126 42.638 7.841 0.523"></polygon>
                </g>
                <g id="Group-114" transform="translate(143.000000, 90.905000)">
                    <mask id="mask-15" fill="white">
                        <use xlink:href="#path-14"></use>
                    </mask>
                    <g id="Clip-113"></g>
                    <polygon id="Fill-112" fill="url(#linearGradient-16)" mask="url(#mask-15)" points="0.734 0.254 12.019 42.37 19.861 42.37 8.576 0.254"></polygon>
                </g>
                <g id="Group-117" transform="translate(112.000000, 85.905000)">
                    <mask id="mask-18" fill="white">
                        <use xlink:href="#path-17"></use>
                    </mask>
                    <g id="Clip-116"></g>
                    <path d="M18.941,1.029 L20.061,2.037 L12.468,9.294 L11.886,7.123 C11.785,6.746 11.486,6.4 11.108,6.219 L11.108,6.219 C10.732,6.039 10.332,6.053 10.07,6.253 L10.07,6.253 L0.351,13.723 C-0.047,14.028 -0.018,14.665 0.416,15.146 L0.416,15.146 C0.695,15.455 1.074,15.622 1.414,15.622 L1.414,15.622 C1.603,15.622 1.782,15.571 1.923,15.462 L1.923,15.462 L10.328,9.001 L10.964,11.372 C11.069,11.764 11.387,12.122 11.783,12.295 L11.783,12.295 C12.181,12.471 12.59,12.43 12.838,12.192 L12.838,12.192 L21.816,3.613 L23.073,4.741 C23.224,4.877 23.429,4.816 23.41,4.639 L23.41,4.639 L23.006,1.045 C22.991,0.922 22.869,0.809 22.743,0.805 L22.743,0.805 L19.014,0.686 C19.012,0.686 19.009,0.686 19.007,0.686 L19.007,0.686 C18.831,0.686 18.789,0.893 18.941,1.029" id="Fill-115" fill="url(#linearGradient-19)" mask="url(#mask-18)"></path>
                </g>
                <g id="Group-138" transform="translate(107.000000, 61.905000)">
                    <path d="M4.4875,66.6243 L4.8185,67.9073 C4.6325,67.5353 4.5285,67.1013 4.4875,66.6243" id="Fill-118" fill="#BEBFC6"></path>
                    <path d="M171.2483,81.9183 L8.4813,81.9183 L4.8183,67.9073 C8.1913,75.1513 35.6123,67.2253 41.7593,62.8163 C52.9963,54.7043 53.0793,46.7163 64.7103,41.2943 C80.4593,33.9473 96.2083,45.4533 108.8733,42.3083 C147.7183,32.6853 179.9193,1.2083 180.9133,0.2143 C170.0063,25.4623 143.4343,38.7483 163.8603,47.0263 C185.0523,55.6143 171.2483,81.9183 171.2483,81.9183" id="Fill-120" fill="#9BDDDD"></path>
                    <path d="M7.9592,10.6615 C7.4892,10.3745 6.5342,9.9825 5.0952,9.4835 C4.4182,9.2495 3.9392,9.0585 3.6602,8.9105 C3.3042,8.7195 3.0702,8.4435 2.9602,8.0815 C2.8272,7.6465 2.8762,7.3095 3.1052,7.0715 C3.3362,6.8325 3.6682,6.7125 4.1052,6.7125 C4.4022,6.7125 4.8112,6.8055 5.3302,6.9915 C5.8502,7.1775 6.2052,7.2705 6.3972,7.2705 C6.6622,7.2705 6.8592,7.1945 6.9882,7.0405 C7.1162,6.8885 7.1412,6.6795 7.0602,6.4155 C6.9632,6.0985 6.7182,5.8185 6.3242,5.5765 C5.6152,5.1325 4.7232,4.9105 3.6492,4.9105 C2.6072,4.9105 1.8142,5.1865 1.2712,5.7385 C0.6772,6.3325 0.5332,7.1345 0.8422,8.1425 C1.1732,9.2255 1.8852,10.0435 2.9792,10.5955 C3.9472,10.9455 4.9162,11.2955 5.8842,11.6455 C6.9262,12.0285 7.5512,12.5585 7.7582,13.2385 C7.9012,13.7055 7.8512,14.1055 7.6072,14.4405 C7.3642,14.7745 7.0092,14.9415 6.5412,14.9415 C6.1052,14.9415 5.6652,14.8785 5.2232,14.7505 C5.1972,14.7405 4.9012,14.6395 4.3322,14.4475 C3.9142,14.2985 3.6472,14.2245 3.5302,14.2245 C3.2542,14.2245 3.0502,14.3045 2.9182,14.4635 C2.7852,14.6225 2.7622,14.8415 2.8472,15.1175 C3.0192,15.6815 3.6142,16.1175 4.6342,16.4255 C5.3862,16.6595 6.1182,16.7765 6.8302,16.7765 C8.0112,16.7765 8.8862,16.4575 9.4572,15.8205 C10.0672,15.1415 10.1962,14.2235 9.8432,13.0665 C9.5282,12.0365 8.9002,11.2345 7.9592,10.6615" id="Fill-122" fill="#D64C1D"></path>
                    <path d="M13.0051,6.8719 L14.6401,6.8719 C15.4841,6.8719 15.8131,6.5639 15.6241,5.9469 C15.4331,5.3199 14.9061,5.0059 14.0451,5.0059 L8.8141,5.0059 C7.9521,5.0059 7.6181,5.3199 7.8101,5.9469 C7.9981,6.5639 8.5181,6.8719 9.3681,6.8719 L10.9791,6.8719 L13.6081,15.4679 C13.8741,16.3399 14.3391,16.7759 15.0041,16.7759 C15.6901,16.7759 15.9001,16.3399 15.6331,15.4679 L13.0051,6.8719 Z" id="Fill-124" fill="#D64C1D"></path>
                    <path d="M19.5901,12.2308 L19.7781,7.3188 C19.7851,7.2448 19.7941,7.1918 19.8051,7.1598 L23.0781,12.2308 L19.5901,12.2308 Z M27.1521,15.2768 L20.9861,6.0588 C20.4541,5.2608 19.8321,4.8628 19.1201,4.8628 C18.4291,4.8628 18.0561,5.2938 18.0001,6.1548 L17.3981,15.2928 C17.3861,15.4628 17.4121,15.6548 17.4771,15.8668 C17.5621,16.1438 17.7221,16.3638 17.9591,16.5288 C18.1961,16.6938 18.4531,16.7758 18.7311,16.7758 C19.1781,16.7758 19.4171,16.4948 19.4471,15.9328 L19.5241,14.0168 L24.2231,14.0168 L25.4351,15.8788 C25.8191,16.4768 26.2531,16.7758 26.7391,16.7758 C27.0151,16.7758 27.2251,16.6938 27.3691,16.5288 C27.5151,16.3638 27.5471,16.1488 27.4661,15.8828 C27.4131,15.7128 27.3101,15.5108 27.1521,15.2768 L27.1521,15.2768 Z" id="Fill-126" fill="#D64C1D"></path>
                    <path d="M30.2502,10.3646 C29.6312,10.3646 29.1782,10.3326 28.8912,10.2686 L27.8432,6.8406 L29.3332,6.8406 C30.5932,6.8406 31.3982,7.4116 31.7482,8.5546 C32.1162,9.7616 31.6172,10.3646 30.2502,10.3646 M35.5372,14.8456 L31.6542,11.6406 C33.7032,11.4916 34.4282,10.4336 33.8262,8.4676 C33.4792,7.3296 32.8232,6.4576 31.8622,5.8516 C30.9782,5.2876 29.9562,5.0066 28.7972,5.0066 L26.5172,5.0066 C25.6762,5.0066 25.3922,5.4486 25.6622,6.3336 L28.4642,15.4966 C28.7302,16.3706 29.1962,16.8076 29.8612,16.8076 C30.5472,16.8076 30.7582,16.3746 30.4922,15.5076 L29.3252,11.6886 L29.4292,11.7686 L34.4742,16.1856 C34.9522,16.6006 35.3622,16.8076 35.7042,16.8076 C35.9702,16.8076 36.1692,16.7256 36.3002,16.5606 C36.4312,16.3956 36.4552,16.1806 36.3742,15.9146 C36.2712,15.5746 35.9912,15.2186 35.5372,14.8456" id="Fill-128" fill="#D64C1D"></path>
                    <path d="M38.7131,6.8719 L40.3491,6.8719 C41.1931,6.8719 41.5221,6.5639 41.3331,5.9469 C41.1411,5.3199 40.6141,5.0059 39.7531,5.0059 L34.5231,5.0059 C33.6611,5.0059 33.3261,5.3199 33.5191,5.9469 C33.7071,6.5639 34.2261,6.8719 35.0771,6.8719 L36.6881,6.8719 L39.3161,15.4679 C39.5821,16.3399 40.0481,16.7759 40.7131,16.7759 C41.3991,16.7759 41.6081,16.3399 41.3411,15.4679 L38.7131,6.8719 Z" id="Fill-130" fill="#D64C1D"></path>
                    <path d="M51.052,15.3851 C50.96,15.0831 50.772,14.8231 50.487,14.6051 C50.201,14.3861 49.907,14.2771 49.606,14.2771 C49.304,14.2771 49.077,14.3861 48.926,14.6051 C48.775,14.8231 48.744,15.0831 48.837,15.3851 C48.929,15.6871 49.118,15.9471 49.404,16.1651 C49.689,16.3841 49.982,16.4931 50.283,16.4931 C50.585,16.4931 50.812,16.3841 50.963,16.1651 C51.114,15.9471 51.145,15.6871 51.052,15.3851" id="Fill-132" fill="#D64C1D"></path>
                    <path d="M49.8098,11.7811 L48.0318,5.9621 C47.7738,5.1191 47.3168,4.6981 46.6618,4.6981 C46.0168,4.6981 45.8238,5.1191 46.0808,5.9621 L47.8598,11.7811 C48.1268,12.6551 48.5878,13.0921 49.2438,13.0921 C49.8878,13.0921 50.0778,12.6551 49.8098,11.7811" id="Fill-134" fill="#D64C1D"></path>
                    <path d="M148.1115,81.9183 L69.0965,81.9183 C72.4705,79.1463 77.0855,74.3443 79.5275,67.4523 C83.6665,55.8213 97.8005,60.6233 110.2805,58.6153 C122.7805,56.6083 147.9935,31.1603 148.8565,34.0923 C149.3175,35.6613 143.6825,56.3393 151.9605,58.6783 C160.1345,60.9753 163.2595,73.8893 148.1115,81.9183" id="Fill-136" fill="#C8EDEC"></path>
                </g>
            </g>
        </g>
    </g>
</svg>