<?xml version="1.0" encoding="UTF-8"?>
<svg width="121px" height="92px" viewBox="0 0 121 92" version="1.1" xmlns="http://www.w3.org/2000/svg" xmlns:xlink="http://www.w3.org/1999/xlink">
    <title>8AF88075-6863-43D1-ADBD-6EEEAE75E3F7</title>
    <defs>
        <polygon id="path-1" points="0.0774809632 0.00336923077 52.9554914 0.00336923077 52.9554914 72.9166981 0.0774809632 72.9166981"></polygon>
        <polygon id="path-3" points="0 0.196510851 57.0950908 0.196510851 57.0950908 67.545051 0 67.545051"></polygon>
        <polygon id="path-5" points="0 92 120 92 120 0 0 0"></polygon>
    </defs>
    <g id="Page-1" stroke="none" stroke-width="1" fill="none" fill-rule="evenodd">
        <g id="SERVICES" transform="translate(-518.000000, -546.000000)">
            <g id="Group-53-Copy" transform="translate(518.000000, 546.000000)">
                <g id="Group-3" transform="translate(34.000000, 0.000000)">
                    <mask id="mask-2" fill="white">
                        <use xlink:href="#path-1"></use>
                    </mask>
                    <g id="Clip-2"></g>
                    <path d="M14.5337625,70.3746954 C10.1608875,65.44888 -2.7541125,58.7497262 0.6388875,51.0690031 C3.5256375,44.5349415 17.3777625,45.3390646 15.7105125,37.46068 C14.7250125,32.8010338 13.4447625,28.8242185 16.4586375,23.5266646 C19.7413875,17.7540492 29.5525125,20.8964185 32.9533875,15.5370954 C35.8761375,10.9336031 32.0770125,3.82003385 38.1126375,0.745049231 C43.4721375,-1.98402769 49.9465125,3.34834154 50.9117625,8.07537231 C52.1200125,13.9861262 46.2565125,16.7634954 45.5038875,21.9083108 C45.0257625,25.1832031 48.0137625,26.3242492 49.7248875,28.6164492 C51.3640125,30.8120646 52.8377625,33.9701569 52.9468875,36.6891262 C53.2720125,44.8617569 44.3001375,45.9196954 40.0476375,51.1161723 C36.1078875,55.9274338 43.3731375,59.0282492 42.2841375,64.2617877 C41.1085125,69.9074954 33.0568875,72.9914646 27.3891375,72.9072338 C23.4595125,72.8499569 17.2438875,73.4272185 14.5337625,70.3746954" id="Fill-1" fill="#00D8DF" mask="url(#mask-2)"></path>
                </g>
                <path d="M54.3001607,72.9933833 C54.2645907,72.9877403 54.2290206,72.9764543 54.1957454,72.9606539 C54.0064208,72.8748803 53.9433126,72.6728609 54.0557599,72.5137283 C54.134932,72.3952253 62.3045734,60.3124328 62.7773111,45.1271186 C63.0894098,35.0035759 67.3669973,28.52654 70.8746649,23.2119622 C72.9951,20.0033521 74.8413012,17.2032953 75.1247143,14.3987241 C75.1499576,14.1696183 75.3622306,13.9912995 75.6031891,14 C75.853327,14.0093571 76.0208506,14.2068621 75.9979021,14.4348393 C75.6892457,17.4391727 73.784526,20.3148458 71.6032776,23.610358 C68.1460965,28.8335192 63.9293223,35.2033381 63.6057495,45.1180898 C63.1043262,60.4884944 54.815353,72.7078475 54.7338861,72.8263505 C54.6443872,72.9583967 54.4653894,73.0215983 54.3001607,72.9933833" id="Fill-4" fill="#FFFFFF"></path>
                <path d="M63.2995835,44.9771387 C63.1093111,44.9392802 62.9802375,44.7846013 63.0024916,44.6072074 C63.0258583,44.4125067 63.2250323,44.2632362 63.4464604,44.2772979 C66.8012628,44.4719986 71.2854597,42.5660954 72.6407331,39.3870661 C72.8031878,39.0041548 72.9667553,38.58014 73.1381117,38.1355735 C73.9570618,36.0014379 74.9874257,33.3221403 77.1427332,32.3572904 C78.1986892,31.8856821 79.4193254,31.8846004 80.7556829,32.3324119 C80.9637585,32.4027205 81.0561129,32.6158096 80.9648712,32.8072652 C80.8736295,32.9987209 80.6455252,33.0884995 80.4263225,33.0300893 C79.278012,32.6450147 78.3166358,32.6396063 77.46653,33.018191 C75.6405829,33.8359338 74.6736431,36.3400007 73.9025393,38.3356825 C73.7278448,38.7889024 73.5609392,39.2204889 73.3951463,39.6088086 C71.851826,43.2150976 66.9948733,45.1956361 63.3596695,44.9847103 C63.3385281,44.9836287 63.3184995,44.9803837 63.2995835,44.9771387" id="Fill-6" fill="#FFFFFF"></path>
                <path d="M61.4237064,44.7361534 C59.7467176,44.3757549 58.473404,43.6732637 57.6289204,42.6355447 C56.2885272,40.9902966 56.0777057,38.5098392 57.0371829,35.4458793 C57.1330108,35.1426869 57.2539936,34.7902972 57.3869548,34.405872 C58.1392041,32.2171658 59.2891392,28.8740401 58.155974,27.0194176 C57.7810472,26.4027356 57.1821226,26.0034369 56.3268584,25.798639 C56.0884864,25.7402887 55.948338,25.518329 56.0178133,25.3020899 C56.0872885,25.0869948 56.3352433,24.957709 56.5736153,25.0126269 C56.5748131,25.0126269 56.5772088,25.013771 56.5784067,25.013771 C57.6624601,25.275775 58.4614255,25.8158008 58.9513458,26.6201189 C60.2570013,28.7676367 59.0351952,32.3018309 58.235032,34.6152464 C58.1044665,34.9916627 57.9858794,35.3360436 57.8924472,35.6346595 C57.0000496,38.4663625 57.1617592,40.7260043 58.3500255,42.1859045 C59.3610102,43.4318539 61.1350247,44.1229038 63.6085832,44.2499014 C63.8577358,44.2601985 64.0206433,44.4409698 63.9978842,44.6457678 C63.9727293,44.8528539 63.7619079,45.0118869 63.5235359,44.9993016 C62.7640996,44.9615456 62.0645557,44.8734481 61.4237064,44.7361534" id="Fill-8" fill="#FFFFFF"></path>
                <path d="M58.5006783,68.9095008 C58.0174951,68.8203922 57.5642946,68.6597621 57.1629873,68.4135409 C56.9853973,68.3045001 56.9461891,68.0864185 57.0788051,67.9269609 C57.2102678,67.7651584 57.4547423,67.7206041 57.6380983,67.8331623 C59.7195915,69.1088227 63.9540753,67.4509332 65.7541922,66.1588581 C66.5049136,65.6206889 67.179525,64.6838758 67.8944977,63.6896111 C69.1756828,61.9121284 70.5064546,60.0619518 72.6110115,60.0009828 C72.8428011,59.9857405 73.0088593,60.149888 72.9996338,60.3480374 C72.9915615,60.5485318 72.8070524,60.7150243 72.5867947,60.7197142 C70.927366,60.7689585 69.7211378,62.4409178 68.56219,64.0472181 C67.8068559,65.0942445 67.0953427,66.0791293 66.2339158,66.6958548 C64.6206144,67.854267 61.0907247,69.3902184 58.5006783,68.9095008" id="Fill-10" fill="#FFFFFF"></path>
                <path d="M55.7468372,66.9270313 C55.288196,66.8408029 54.8413699,66.6782955 54.4052848,66.4406145 C51.9638528,65.1040737 50.5148902,61.6814681 50.1368066,59.6871591 C49.9359497,58.6159366 50.247439,57.2020114 50.5782622,55.6963302 C51.1077941,53.2907779 51.6598821,50.7790983 50.1378807,49.6349133 C49.9746173,49.5110981 49.9531353,49.2855776 50.0906203,49.1308086 C50.2281052,48.9782506 50.4740744,48.9572462 50.6384119,49.0777449 C52.5105703,50.4894592 51.8789988,53.3349976 51.329059,55.8179344 C51.0089768,57.2583915 50.7103767,58.6115146 50.8886775,59.5578165 C51.2259452,61.3619807 52.5911279,64.6519272 54.8134433,65.8712857 C55.6759465,66.3433311 56.5921549,66.4560914 57.5330675,66.2051445 C57.7317762,66.1542919 57.9358555,66.2515752 57.9884864,66.4273486 C58.0389692,66.603122 57.9186699,66.7877392 57.7210352,66.8408029 C57.0454256,67.0187872 56.3859274,67.04753 55.7468372,66.9270313" id="Fill-12" fill="#FFFFFF"></path>
                <path d="M79.6644178,86.9898648 C72.1316004,85.1317502 66.1654373,83.4518881 66.0027854,75.4801587 C65.9180709,71.3566559 67.7614594,68.5102543 72.1169165,66.2211744 C75.6399121,64.3720851 77.4482853,63.7357909 78.2592859,60.0838678 C79.5548537,54.2410166 76.7310355,48.4793945 80.416683,42.8283341 C84.5281623,36.5251849 93.8049698,39.399791 98.0870077,33.6832961 C101.9274,28.5557118 104.033969,21.9073391 112.153011,22.0009782 C118.985521,22.0810791 121.772065,29.2089288 118.846589,34.1537477 C117.200868,36.9369711 114.319444,38.8977503 113.150383,41.8772772 C112.03554,44.7202942 113.259948,47.0443478 114.356719,49.6414213 C116.777296,55.3770952 117.368038,61.2910219 110.776117,65.0817112 C106.836326,67.3470994 103.799027,69.3360831 105.218843,73.584814 C106.710948,78.0501558 107.379629,80.5975893 101.95112,83.9584416 C97.8938585,86.4709014 94.1935272,86.2667006 89.5342271,86.4607478 C85.1663452,86.642385 79.3300777,87.837129 75.2073032,85.9474253 L79.6644178,86.9898648 Z" id="Fill-14" fill="#E5E6ED"></path>
                <path d="M82.4098019,83.2734619 C81.7844622,82.5580569 81.3646072,81.8100313 81.1557904,81.036134 C80.260544,77.7020767 83.3927958,74.3623952 86.2284834,71.3354222 C87.6602112,69.8112496 89.0241847,68.354568 89.6650746,67.111608 C91.4144705,63.7269325 91.9365125,60.7067085 91.5655295,55.9722122 C91.1223492,50.3592076 92.6118349,48.0611377 97.1358284,44.3491306 C100.948956,41.2152968 104.719876,37.764255 105.781732,34.3469588 C105.862815,34.0803692 106.198255,33.9375132 106.530362,34.0263764 C106.861359,34.1129899 107.064622,34.4009516 106.981318,34.6664164 C105.846154,38.3019336 101.941947,41.8598362 98.0055281,45.0746593 C93.6237077,48.64606 92.2675093,50.7191598 92.6784785,56.0599506 C92.990593,60.0947898 92.7617831,63.5885759 90.6802796,67.5896696 C89.9938499,68.9147436 88.5887795,70.402921 87.1203976,71.9597143 C84.3791219,74.8640786 81.3512785,78.0732775 82.1498916,81.058631 C82.4575632,82.2104781 83.3117127,83.2667128 84.7634337,84.2858275 C84.9989079,84.4590545 85.079991,84.7245192 84.9300428,84.884248 C84.7789838,85.0451017 84.4624265,85.0372277 84.2213986,84.8673753 C83.4960935,84.3544434 82.8918577,83.8235139 82.4098019,83.2734619" id="Fill-16" fill="#FFFFFF"></path>
                <path d="M92.1325617,60.7309683 C92.0556971,60.6435758 92.0059613,60.5412346 92.0003094,60.4354437 C91.9901362,60.1801656 92.2320334,60.000781 92.544013,60.0341281 C95.2704431,60.3365522 97.2858763,58.1724378 99.4561689,55.8404379 C101.378913,53.7763649 103.397737,51.607651 106.161469,51.0154518 C106.475709,50.9476076 106.836294,51.1097437 106.956112,51.3730711 C107.081582,51.6375484 106.928984,51.9054754 106.613613,51.9721697 C104.19012,52.4861756 102.266246,54.5387495 100.433931,56.4935818 C98.1822523,58.8957258 95.900054,61.3346666 92.5869667,60.9620985 C92.4049786,60.9402504 92.2410763,60.8505581 92.1325617,60.7309683" id="Fill-18" fill="#FFFFFF"></path>
                <path d="M90.0036616,67.7704512 C89.9598385,67.7237456 89.924088,67.6703678 89.89987,67.6136538 C89.6277053,66.9497668 89.5146878,66.3837392 89.40513,65.8332801 C89.2298375,64.9469854 89.0741501,64.1796788 88.2645756,63.2055331 C87.8344171,62.6895472 87.353516,62.2413957 86.8899135,61.8077007 C85.9165789,60.8880448 84.9074939,59.9505964 84.4542705,58.4426721 C83.8084561,56.2886535 83.8499727,53.6075287 84.5868931,50.4493393 C84.6895315,50.008972 84.9270989,49.3929027 85.177352,48.7368 C85.5394694,47.7904552 86.219881,46.0212019 85.9926927,45.6264282 C85.8566104,45.3906761 85.9511761,45.1204507 86.224494,45.0325997 C86.4931989,44.9436366 86.8287918,45.041496 86.978713,45.2683518 C87.4434687,45.9411351 87.0167699,47.178834 86.2660106,49.1193412 C86.0203705,49.7520911 85.7908757,50.3503678 85.69631,50.7451415 C85.2027233,52.8424462 84.7794842,55.8505104 85.5383162,58.3859582 C85.9142724,59.65257 86.7342261,60.4187646 87.6891088,61.3095074 C88.1803891,61.7687793 88.6878147,62.2469559 89.1698691,62.8207678 C90.1501231,63.9928564 90.3381012,64.9469854 90.5203131,65.8677533 C90.620645,66.3815151 90.7267431,66.9130695 90.9700768,67.503562 C91.0704086,67.7448743 90.9101083,67.96617 90.6137256,67.996195 C90.389997,68.0206599 90.1478166,67.9250246 90.0036616,67.7704512" id="Fill-20" fill="#FFFFFF"></path>
                <g id="Group-24" transform="translate(0.000000, 18.000000)">
                    <mask id="mask-4" fill="white">
                        <use xlink:href="#path-3"></use>
                    </mask>
                    <g id="Clip-23"></g>
                    <path d="M34.8905255,67.4272393 C26.4930353,65.9323541 18.6300549,66.5666492 15.2308,57.554977 C12.5423294,50.4250098 18.8120157,43.7052721 12.5013882,38.8048131 C8.70409412,35.8562885 2.71189804,34.0871738 1.38699608,29.045141 C0.00750588235,23.7935344 6.86174118,20.4659934 5.63009412,15.4273049 C4.61111373,11.2625836 -1.28441569,10.9861246 0.254290196,5.5628459 C1.61899608,0.752681967 5.93601569,-0.459055738 9.36825098,0.500747541 C13.9570745,1.78494426 14.3369176,5.90061639 17.381349,8.75773115 C19.4147608,10.6639607 22.2942902,8.74769836 25.2761725,8.39655082 C28.2466824,8.04540328 32.0496627,8.30514098 34.5652706,9.5893377 C42.7341725,13.7607475 36.1881333,22.5962885 37.6711137,29.7875672 C39.1063294,36.7402885 49.0925647,32.5376656 54.2522902,37.7602885 C60.2797412,43.8591082 55.7329961,54.4069115 49.794251,59.3854033 C45.8377412,62.7017967 40.5654275,68.4383213 34.8905255,67.4272393" id="Fill-22" fill="#D0D1DE" mask="url(#mask-4)"></path>
                </g>
                <path d="M42.7676946,83.9358713 C42.7286849,83.9581619 42.6841024,83.9771089 42.6361763,83.9860251 C42.3709106,84.0495533 42.0944993,83.8901756 42.0209382,83.6360628 C41.9652102,83.4499363 36.6108559,65.5517047 23.5704843,53.7644391 C16.2288666,47.1307586 14.4845776,40.2775158 13.1203541,34.9210863 C12.3267862,31.7970597 11.6469035,29.1366774 10.0854026,27.6978197 C9.96057174,27.580794 9.97394648,27.3467428 10.1166104,27.1717617 C10.2648471,26.9900933 10.4799575,26.9499703 10.6070175,27.0636523 C12.2900056,28.6050468 12.993294,31.3467897 13.8191842,34.5688949 C15.1756058,39.85288 16.9087492,46.6158459 24.1511709,53.1102102 C37.4523499,65.0401356 42.9270769,83.2225723 42.9805758,83.4109278 C43.0429913,83.6204594 42.9504827,83.83222 42.7676946,83.9358713" id="Fill-25" fill="#FFFFFF"></path>
                <path d="M23.5737375,52.9066133 C23.4170601,53.0365425 23.2088442,53.0319836 23.0872131,52.8860982 C22.9552743,52.7276758 22.974859,52.4586997 23.1335979,52.2866005 C25.573435,49.6264721 27.1597931,44.4999693 25.5703427,41.2711159 C25.3827422,40.8904462 25.1642186,40.4858423 24.9353872,40.061863 C23.8541074,38.0616379 22.5336886,35.6146388 23.2201827,33.2314646 C23.5572451,32.0655215 24.3550626,31.010132 25.5765274,30.0892307 C25.7692817,29.9456248 25.9950208,29.9786769 26.0805748,30.1644528 C26.1671597,30.349089 26.0846979,30.5998295 25.8919436,30.7593916 C24.8364331,31.549224 24.1973545,32.3800868 23.9241999,33.3237827 C23.3376907,35.3547805 24.5869863,37.6513353 25.6084813,39.5284696 C25.8424665,39.960427 26.066144,40.3741488 26.2588984,40.7616568 C28.0833647,44.4441225 26.2856985,49.9718101 23.6190914,52.8633036 C23.6046606,52.8792598 23.5891991,52.8940763 23.5737375,52.9066133" id="Fill-27" fill="#FFFFFF"></path>
                <path d="M21.242509,54.5689004 C19.8582983,55.6018239 18.5030412,56.0763158 17.2023509,55.9900446 C15.1867262,55.858306 13.3481647,54.3532223 11.87932,51.6753158 C11.7367785,51.4153362 11.5775331,51.1063918 11.4049243,50.7694675 C10.4327473,48.8796606 8.98951553,46.0711814 7.22222473,45.8123676 C6.64760466,45.728428 6.08189343,45.9242871 5.49613731,46.4069398 C5.3324374,46.54101 5.12753412,46.5118643 5.03955934,46.3416535 C4.95381177,46.1726084 5.01171922,45.9277846 5.17207831,45.7925486 C5.17319192,45.7913827 5.17430552,45.7902169 5.17541913,45.7890511 C5.91596631,45.1769915 6.67099036,44.9170119 7.42267359,45.0231022 C9.47282001,45.3133933 11.008481,48.281591 12.0430199,50.2833173 C12.2156286,50.6132466 12.3715333,50.9163619 12.5129611,51.172844 C13.8815814,53.6502281 15.5475341,55.0340657 17.337097,55.1436536 C18.9005982,55.2369198 20.5821414,54.3648806 22.3305009,52.5380284 C22.5064505,52.3514959 22.7570115,52.3479984 22.9028938,52.506551 C23.0476624,52.6697669 23.0287311,52.9449023 22.8583496,53.1232739 C22.316024,53.6887004 21.7770393,54.1701873 21.242509,54.5689004" id="Fill-29" fill="#FFFFFF"></path>
                <path d="M42.2754155,75.365188 C41.7500754,75.6742825 41.1831131,75.8924023 40.5745285,75.9932416 C40.3079212,76.0359887 40.0536881,75.8715768 40.0075661,75.6238628 C39.9614442,75.3750527 40.130183,75.1404917 40.4046648,75.0933602 C43.5837036,74.5551851 45.685064,69.5866561 45.9539212,66.9648336 C46.0630389,65.8753305 45.6794394,64.5271525 45.2744663,63.1088255 C44.5612637,60.6031874 43.8300622,58.0394571 45.6434418,56.180506 C45.8335542,55.9667705 46.1575326,55.945945 46.3600192,56.1015883 C46.5647556,56.2594238 46.573755,56.5465966 46.378018,56.7427949 C44.9369887,58.2159259 45.6085691,60.5494795 46.2621507,62.827133 C46.694122,64.3298582 47.1035948,65.7569539 46.9764782,67.0130611 C46.7379941,69.3773049 45.1361005,73.6827057 42.2754155,75.365188" id="Fill-31" fill="#FFFFFF"></path>
                <path d="M38.137361,77.1633655 C37.6099978,77.470816 37.0135477,77.6939118 36.3514651,77.8337629 C32.7301612,78.5918446 28.1266721,76.5950817 25.9607984,75.115546 C24.8266221,74.3385954 23.8283167,72.8745987 22.7851048,71.346226 C21.1581088,68.959878 19.5092352,66.5446718 17.4343259,66.8487924 C17.2132479,66.8809804 17.0198047,66.7255903 17.0013815,66.5013846 C16.9829583,66.2782888 17.1510697,66.0718419 17.3698449,66.0363242 C19.9295138,65.6522886 21.8052226,68.3849346 23.4978511,70.8511975 C24.5030652,72.3163042 25.4645243,73.717035 26.4731927,74.3996416 C28.437563,75.7315567 32.8430031,77.6450749 36.1361443,76.9424896 C37.4441893,76.6616775 38.435586,75.9857305 39.0642766,74.9357374 C39.1978446,74.7159714 39.499524,74.6316168 39.7424795,74.7525991 C39.9842836,74.8769112 40.0717936,75.1566133 39.9359227,75.3808191 C39.4799493,76.135571 38.877742,76.732713 38.137361,77.1633655" id="Fill-33" fill="#FFFFFF"></path>
                <path d="M98.1893604,92 L23.8106396,92 C22.8108861,92 22,91.1937549 22,90.1997232 L22,41.8002768 C22,40.8062451 22.8108861,40 23.8106396,40 L98.1893604,40 C99.1891139,40 100,40.8062451 100,41.8002768 L100,90.1997232 C100,91.1937549 99.1891139,92 98.1893604,92" id="Fill-35" fill="#424444"></path>
                <mask id="mask-6" fill="white">
                    <use xlink:href="#path-5"></use>
                </mask>
                <g id="Clip-38"></g>
                <polygon id="Fill-37" fill="#FFFFFF" mask="url(#mask-6)" points="25 88 92 88 92 44 25 44"></polygon>
                <path d="M97,66.5 C97,67.3275862 96.3275862,68 95.5,68 C94.6712109,68 94,67.3275862 94,66.5 C94,65.6724138 94.6712109,65 95.5,65 C96.3275862,65 97,65.6724138 97,66.5" id="Fill-39" fill="#FFFFFF" mask="url(#mask-6)"></path>
                <path d="M77.1354323,80 L39.8645677,80 C38.8355267,80 38,79.1877283 38,78.1859635 L38,54.8140365 C38,53.8122717 38.8355267,53 39.8645677,53 L77.1354323,53 C78.1644733,53 79,53.8122717 79,54.8140365 L79,78.1859635 C79,79.1877283 78.1644733,80 77.1354323,80" id="Fill-40" fill="#E5E6ED" mask="url(#mask-6)"></path>
                <polygon id="Fill-41" fill="#00D8DF" mask="url(#mask-6)" points="40 78 77 78 77 55 40 55"></polygon>
                <polygon id="Fill-42" fill="#FF5D12" mask="url(#mask-6)" points="52 59 52 74 67 66.4994432"></polygon>
                <path d="M59.4427431,39.784996 C59.4427431,39.784996 49.942102,39.7326395 46.6062605,37.5143195 C43.270419,35.2971375 42.6870463,26.4807663 47.5321221,22.8772766 C52.3783395,19.2737869 53.3818318,18.165196 53.5953166,15.7898065 C53.8076597,13.4144171 53.7585696,8.02284073 60.0329656,8 C66.1874904,7.97731338 65.6566327,13.0035327 66.1258425,16.2029672 C66.4512069,18.4303928 69.5244736,21.7174674 72.2152944,23.7684745 C75.6710071,26.4010935 79.5354231,42.0021779 59.4427431,39.784996" id="Fill-43" fill="#424444" mask="url(#mask-6)"></path>
                <path d="M58.3809138,15 L60.4129277,15.0650087 L62.4449415,15.1300175 C62.4449415,15.1300175 62.8560621,20.7709504 63.8962195,21.4735009 C63.8962195,21.4735009 64.9992807,28.1568545 60.0130399,27.9971839 C53.9787788,27.8055792 56.5398576,21.238557 56.5398576,21.238557 C57.6215764,20.6032963 58.3809138,15 58.3809138,15" id="Fill-44" fill="#E45940" mask="url(#mask-6)"></path>
                <path d="M51.4430333,40 L68.2855227,40 L69.7000242,34.8104036 C69.9226985,29.5484094 70,24.1778188 70,24.1778188 C67.5898095,22.3283875 63.7235825,21 63.7235825,21 C61.6941306,22.4611166 58.606687,22.5938456 56.6660741,21 C56.6660741,21 52.8390747,22.4940246 50.3250464,24.1778188 C50.3250464,24.1778188 49.8185487,26.4024017 50.0700669,29.9103978 C50.3135089,33.3021188 50.7807789,36.6729981 51.4430333,40" id="Fill-45" fill="#FF5D12" mask="url(#mask-6)"></path>
                <path d="M76,40 C74.7455036,33.7640654 73.5786871,29.8108689 72.5490108,27.4660155 C71.2034622,24.4023991 70.162545,24.0008679 70.162545,24.0008679 C68.9642536,23.8932753 68.0559802,33.8139795 66,40 L76,40 Z" id="Fill-46" fill="#FF5D12" mask="url(#mask-6)"></path>
                <path d="M67.7057775,30.9338543 C67.3827865,31.8146804 66.8045649,32.5313983 66.2421541,33.320681 C65.7328222,34.0373988 64.3335711,38.0061401 58.847242,37.6299191 C56.5795292,37.4747418 54.4812173,35.2587217 53.5449952,33.0125593 C53.1598906,32.0915434 52.9837137,31.1939715 52.7793034,30.2193692 C52.6336186,29.5216299 52.5861864,28.615127 52.2225392,28 C51.5381598,28.1708066 51.4613647,29.1855987 51.2196862,29.7705833 C51.0717427,30.1322914 50.0790537,31.4920458 50,30.4716718 C50.2473252,33.6745744 50.6809914,36.8562657 51.2817998,40 L69,40 C68.663457,36.323751 67.6764146,32.0558191 67.7057775,30.9338543" id="Fill-47" fill="#D64C1D" mask="url(#mask-6)"></path>
                <path d="M64.8638203,15.1819887 C64.2862258,14.5290258 63.6486504,15.5719041 63.6486504,15.5719041 C63.6486504,15.5719041 63.8930173,14.4079774 63.949666,13.0904124 C62.6178663,12.317565 61.2727376,11.4166858 60.0120265,11.0104753 L60.0120265,11 C60.0086943,11.0011639 60.0042512,11.0034918 59.9998082,11.0058196 C59.9964759,11.0034918 59.9920329,11.0011639 59.9875899,11 L59.9875899,11.0104753 C58.7279895,11.4166858 57.3828608,12.317565 56.0499504,13.0904124 C56.1077099,14.4079774 56.3520768,15.5719041 56.3520768,15.5719041 C56.3520768,15.5719041 55.7145013,14.5290258 55.1357961,15.1819887 C54.5593123,15.8349515 55.9844157,17.5761859 56.3132002,17.7915123 C56.3132002,17.7915123 57.4861614,20.7897875 58.9668026,21.7872727 C59.3511251,22.0456645 60.525197,22.1155001 61.0939055,21.7290764 C62.573436,20.7280994 63.6864162,17.7915123 63.6864162,17.7915123 C64.0152007,17.5761859 65.4414148,15.8349515 64.8638203,15.1819887" id="Fill-48" fill="#F88667" mask="url(#mask-6)"></path>
                <path d="M64,12.2169728 C64,12.2169728 61.8655246,15.658038 56.5814394,15.3294029 C56.5814394,15.3294029 56.8401992,15.7369957 56.5240673,16.4753576 C56.5240673,16.4753576 56.1447091,15.1202715 55.3262789,15.5428023 C54.8977446,15.7647377 54.8883778,16.3270451 55.3344749,16.9202954 C55.5358626,17.1881116 54.0371635,16.695159 54.0371635,16.695159 C54.0371635,16.695159 53.4189501,11.460472 57.2254117,10.2697034 C61.0307024,9.07893478 64,12.2169728 64,12.2169728" id="Fill-49" fill="#424444" mask="url(#mask-6)"></path>
                <path d="M62.8446551,11.0016884 C62.8025276,11.2482518 62.7698789,11.4948153 62.7730384,11.7371819 C62.7793576,12.2628342 62.0200105,12.6363516 62,13.1588562 C62.1053186,13.2721705 62.2085308,13.3959768 62.311743,13.52398 C62.9499737,14.3224259 63.2290679,14.7788306 63.4565561,15.773478 C63.5197472,16.0494192 63.3638757,16.2477192 63.7967351,17 C63.7967351,17 64.1284887,15.6612129 64.9499737,15.8605621 C65.1100579,15.8993827 65.4312796,16.1407002 65.1490258,16.8100937 C65.0458136,17.0514111 66,15.8133478 66,15.8133478 C66,15.8133478 65.9662981,10.8957186 62.8446551,11.0016884" id="Fill-50" fill="#424444" mask="url(#mask-6)"></path>
                <path d="M54.8396282,64.0035737 C55.0392242,64.4644736 56.0752777,65.1686913 55.7083902,65.7933628 C55.5249464,66.1068684 54.5869603,65.4447634 54.3815956,65.1733705 C54.0897008,64.7920167 52.0752805,61.6218673 51.7580035,60.7070862 C51.5099506,59.9911705 51.2768963,59.2939716 51,58.6365458 C51.7326214,58.1967022 52.4017873,57.6270111 53.0144203,57 C54.0435514,57.4796167 55.1372916,58.1475707 56.1502705,58.5979425 C56.6913719,58.8389206 57.2890064,59.0085412 57.8404914,59.2155952 C58.1889192,59.3477823 58.9319242,59.5384591 58.963075,60.0122269 C58.9988408,60.5316167 58.2512209,60.3783733 57.9570186,60.3187136 C57.5312906,60.2309789 56.7490586,59.8192104 56.4490877,60.3140344 C56.0106686,61.0322897 57.3363095,61.8663549 57.7816509,62.3576695 C58.1946879,62.8115507 59.7106949,64.2129673 58.6019561,64.3252678 C58.3689018,64.3486637 56.795208,62.9776618 56.5483088,62.7963433 C56.5990732,62.8606822 57.6085908,63.8515001 57.6582014,63.9193483 C57.9189453,64.2761363 58.6757951,65.0177875 58.4496632,65.3851037 C57.9662485,66.1688676 56.3060246,64.1006668 56.052203,63.8245948 C56.0498956,63.8210854 56.6856032,64.6422827 56.6832958,64.6387734 C57.220936,65.2575959 57.5589802,65.7816649 57.1055626,65.9758511 C56.5333103,66.2215085 55.3403489,64.5241333 54.8396282,64.0035737" id="Fill-51" fill="#F88667" mask="url(#mask-6)"></path>
                <path d="M55,58.7437502 L51.6092482,61 C51.6092482,61 40.9266182,47.1855771 42.0883173,41.9694181 C43.4625777,35.7976442 47.0454304,28.8983774 49.0232743,25.6887826 C49.7882679,24.4460293 50.4441391,24 50.4441391,24 C52.4822276,25.9554922 53.6473367,28.6872795 53.3847609,31.139873 C53.2676816,32.2362197 52.7357098,32.9489586 52.1469035,34.0645992 C50.3441102,37.4807521 48.1400647,43.4017055 48.2116763,44.0032208 C48.3287555,44.970185 55,58.7437502 55,58.7437502" id="Fill-52" fill="#FF5D12" mask="url(#mask-6)"></path>
            </g>
        </g>
    </g>
</svg>