<?xml version="1.0" encoding="UTF-8"?>
<svg width="91px" height="79px" viewBox="0 0 91 79" version="1.1" xmlns="http://www.w3.org/2000/svg" xmlns:xlink="http://www.w3.org/1999/xlink">
    <title>5682D6B3-AD88-43B7-A63F-FBE8EA1F1C07</title>
    <defs>
        <polygon id="path-1" points="0 78 90.9351383 78 90.9351383 0.427555556 0 0.427555556"></polygon>
    </defs>
    <g id="Page-1" stroke="none" stroke-width="1" fill="none" fill-rule="evenodd">
        <g id="SERVICES" transform="translate(-892.000000, -559.000000)">
            <g id="Group-53-Copy" transform="translate(892.000000, 559.000000)">
                <polygon id="Fill-1" fill="#424444" points="56 76 42 76 43.1507773 59 54.8492227 59"></polygon>
                <g id="Group-52">
                    <path d="M57.60755,73.4198593 C57.4361989,73.1666 57.1496457,73.0144519 56.8437309,73.0144519 L49.0496777,73.0144519 L48.4029968,73.0144519 L40.6089436,73.0144519 C40.3020606,73.0144519 40.0155074,73.1666 39.8441564,73.4198593 L37.7182415,76.5754889 C37.3087415,77.1831185 37.746316,77.9997111 38.4820606,77.9997111 L48.4029968,77.9997111 L49.0496777,77.9997111 L58.9696457,77.9997111 C59.7053904,77.9997111 60.1429649,77.1831185 59.7334649,76.5754889 L57.60755,73.4198593 Z" id="Fill-2" fill="#424444"></path>
                    <path d="M83.1852298,63.732837 L14.2682191,63.732837 C12.0803468,63.732837 10.3068149,61.9686889 10.3068149,59.7923926 L10.3068149,16.4369111 C10.3068149,14.2606148 12.0803468,12.4964667 14.2682191,12.4964667 L83.1852298,12.4964667 C85.3731021,12.4964667 87.145666,14.2606148 87.145666,16.4369111 L87.145666,59.7923926 C87.145666,61.9686889 85.3731021,63.732837 83.1852298,63.732837" id="Fill-4" fill="#424444"></path>
                    <mask id="mask-2" fill="white">
                        <use xlink:href="#path-1"></use>
                    </mask>
                    <g id="Clip-7"></g>
                    <polygon id="Fill-6" fill="#FEFEFE" mask="url(#mask-2)" points="13.8445851 59.8077037 83.6077021 59.8077037 83.6077021 15.8917778 13.8445851 15.8917778"></polygon>
                    <polygon id="Fill-8" fill="#E5E6ED" mask="url(#mask-2)" points="15.5871383 59.8077037 81.8651489 59.8077037 81.8651489 20.6738519 15.5871383 20.6738519"></polygon>
                    <polygon id="Fill-9" fill="#B3EEF6" mask="url(#mask-2)" points="15.5871383 23.9113333 81.8651489 23.9113333 81.8651489 20.6748148 15.5871383 20.6748148"></polygon>
                    <polygon id="Fill-10" fill="#FEFEFE" mask="url(#mask-2)" points="58.0647766 37.1732593 78.6482021 37.1732593 78.6482021 34.4702222 58.0647766 34.4702222"></polygon>
                    <polygon id="Fill-11" fill="#FEFEFE" mask="url(#mask-2)" points="58.0647766 41.9514815 78.6482021 41.9514815 78.6482021 39.2484444 58.0647766 39.2484444"></polygon>
                    <polygon id="Fill-12" fill="#FEFEFE" mask="url(#mask-2)" points="58.0647766 46.7297037 78.6482021 46.7297037 78.6482021 44.0266667 58.0647766 44.0266667"></polygon>
                    <polygon id="Fill-13" fill="#FEFEFE" mask="url(#mask-2)" points="21.6996277 29.8624444 42.2840213 29.8624444 42.2840213 27.1594074 21.6996277 27.1594074"></polygon>
                    <polygon id="Fill-14" fill="#FEFEFE" mask="url(#mask-2)" points="21.6996277 34.6406667 42.2840213 34.6406667 42.2840213 31.9376296 21.6996277 31.9376296"></polygon>
                    <path d="M41.3240681,32.7731926 L2.46319574,32.7731926 C1.10303617,32.7731926 -0.000580851064,33.8709704 -0.000580851064,35.2239333 L-0.000580851064,47.6885259 C-0.000580851064,49.0424519 1.10303617,50.1392667 2.46319574,50.1392667 L26.8095681,50.1392667 L36.0828553,57.9826 L31.6790362,50.1392667 L41.3240681,50.1392667 C42.6842277,50.1392667 43.7878447,49.0424519 43.7878447,47.6885259 L43.7878447,35.2239333 C43.7878447,33.8709704 42.6842277,32.7731926 41.3240681,32.7731926" id="Fill-15" fill="#FF5D12" mask="url(#mask-2)"></path>
                    <polygon id="Fill-16" fill="#FFFFFF" mask="url(#mask-2)" points="14.6432553 37.6345185 40.8318936 37.6345185 40.8318936 36.1342222 14.6432553 36.1342222"></polygon>
                    <polygon id="Fill-17" fill="#FFFFFF" mask="url(#mask-2)" points="14.6432553 40.6938519 40.8318936 40.6938519 40.8318936 39.1935556 14.6432553 39.1935556"></polygon>
                    <polygon id="Fill-18" fill="#FFFFFF" mask="url(#mask-2)" points="14.6432553 43.7541481 40.8318936 43.7541481 40.8318936 42.2538519 14.6432553 42.2538519"></polygon>
                    <polygon id="Fill-19" fill="#FFFFFF" mask="url(#mask-2)" points="14.6432553 46.8144444 32.0242553 46.8144444 32.0242553 45.3141481 14.6432553 45.3141481"></polygon>
                    <path d="M12.5699074,41.1888148 C12.5699074,43.9640741 10.3074926,46.2145185 7.51650319,46.2145185 C4.72648191,46.2145185 2.46503511,43.9640741 2.46503511,41.1888148 C2.46503511,38.4125926 4.72648191,36.1631111 7.51650319,36.1631111 C10.3074926,36.1631111 12.5699074,38.4125926 12.5699074,41.1888148" id="Fill-20" fill="#424444" mask="url(#mask-2)"></path>
                    <path d="M8.94336383,39.6944889 C8.94336383,40.5024148 8.30442766,41.1572296 7.51640638,41.1572296 C6.73032128,41.1572296 6.09138511,40.5024148 6.09138511,39.6944889 C6.09138511,38.886563 6.73032128,38.2317481 7.51640638,38.2317481 C8.30442766,38.2317481 8.94336383,38.886563 8.94336383,39.6944889" id="Fill-21" fill="#FFFFFF" mask="url(#mask-2)"></path>
                    <path d="M7.54322234,41.3778444 L7.49094574,41.3778444 C6.09399894,41.3778444 4.96037128,42.5045111 4.96037128,43.8950296 L4.96037128,45.5002889 C5.7125734,45.9432519 6.57997766,46.2138444 7.51708404,46.2138444 C8.45419043,46.2138444 9.32159468,45.9432519 10.0737968,45.5002889 L10.0737968,43.8950296 C10.0737968,42.5045111 8.94016915,41.3778444 7.54322234,41.3778444" id="Fill-22" fill="#FFFFFF" mask="url(#mask-2)"></path>
                    <path d="M88.4709745,0.427459259 L49.6101021,0.427459259 C48.2499426,0.427459259 47.1463255,1.52523704 47.1463255,2.8782 L47.1463255,15.3427926 C47.1463255,16.6967185 48.2499426,17.7935333 49.6101021,17.7935333 L60.8621553,17.7935333 L57.8475383,25.6368667 L65.7325915,17.7935333 L88.4709745,17.7935333 C89.831134,17.7935333 90.9347511,16.6967185 90.9347511,15.3427926 L90.9347511,2.8782 C90.9347511,1.52523704 89.831134,0.427459259 88.4709745,0.427459259" id="Fill-23" fill="#D0D1DE" mask="url(#mask-2)"></path>
                    <polygon id="Fill-24" fill="#FFFFFF" mask="url(#mask-2)" points="61.7899681 5.28859259 87.9786064 5.28859259 87.9786064 3.7882963 61.7899681 3.7882963"></polygon>
                    <polygon id="Fill-25" fill="#FFFFFF" mask="url(#mask-2)" points="61.7899681 8.34792593 87.9786064 8.34792593 87.9786064 6.84762963 61.7899681 6.84762963"></polygon>
                    <polygon id="Fill-26" fill="#FFFFFF" mask="url(#mask-2)" points="61.7899681 11.4082222 87.9786064 11.4082222 87.9786064 9.90792593 61.7899681 9.90792593"></polygon>
                    <polygon id="Fill-27" fill="#FFFFFF" mask="url(#mask-2)" points="61.7899681 14.4685185 79.1709681 14.4685185 79.1709681 12.9682222 61.7899681 12.9682222"></polygon>
                    <path d="M59.716717,8.84308148 C59.716717,11.6183407 57.4543021,13.8687852 54.6642809,13.8687852 C51.8732915,13.8687852 49.6118447,11.6183407 49.6118447,8.84308148 C49.6118447,6.06782222 51.8732915,3.81737778 54.6642809,3.81737778 C57.4543021,3.81737778 59.716717,6.06782222 59.716717,8.84308148" id="Fill-28" fill="#424444" mask="url(#mask-2)"></path>
                    <path d="M56.0901734,7.34875556 C56.0901734,8.15668148 55.4512372,8.8114963 54.664184,8.8114963 C53.8771309,8.8114963 53.2381947,8.15668148 53.2381947,7.34875556 C53.2381947,6.54082963 53.8771309,5.88601481 54.664184,5.88601481 C55.4512372,5.88601481 56.0901734,6.54082963 56.0901734,7.34875556" id="Fill-29" fill="#FFFFFF" mask="url(#mask-2)"></path>
                    <path d="M54.6901287,9.03201481 L54.6378521,9.03201481 C53.2409053,9.03201481 52.1072777,10.1586815 52.1072777,11.5492 L52.1072777,13.1544593 C52.8594798,13.5974222 53.726884,13.8680148 54.6649585,13.8680148 C55.6010968,13.8680148 56.4685011,13.5974222 57.2207032,13.1544593 L57.2207032,11.5492 C57.2207032,10.1586815 56.0870755,9.03201481 54.6901287,9.03201481" id="Fill-30" fill="#FFFFFF" mask="url(#mask-2)"></path>
                    <path d="M77.5743053,57.420037 L62.1614223,57.420037 C60.906784,57.420037 59.8902947,56.4089259 59.8902947,55.1618889 L59.8902947,53.3794444 C59.8902947,52.1324074 60.906784,51.1212963 62.1614223,51.1212963 L77.5743053,51.1212963 C78.8279755,51.1212963 79.8444649,52.1324074 79.8444649,53.3794444 L79.8444649,55.1618889 C79.8444649,56.4089259 78.8279755,57.420037 77.5743053,57.420037" id="Fill-31" fill="#FF5D12" mask="url(#mask-2)"></path>
                    <path d="M51.0777191,31.1322074 C50.0428362,31.3305778 48.9547085,31.3565778 47.959517,31.2699111 C47.5964851,31.2371704 47.2228043,31.1553185 46.8646128,31.0320593 C46.9159213,32.3233926 46.9256021,35.3509481 46.0020489,36.6047259 C46.0020489,36.6047259 46.3350702,38.0925037 49.0360277,38.135837 C51.7379532,38.1810963 52.0419319,36.1530963 52.0419319,36.1530963 C52.0419319,36.1530963 51.1338681,33.0379111 51.0777191,31.1322074" id="Fill-32" fill="#F88667" mask="url(#mask-2)"></path>
                    <path d="M46.0160862,36.6514296 C46.0247989,36.6764667 46.037384,36.7130593 46.0577138,36.7563926 C46.05965,36.7612074 46.0625543,36.7660222 46.0644904,36.7698741 C46.0848202,36.8160963 46.1128947,36.8690593 46.1477457,36.926837 C46.1496819,36.9297259 46.15065,36.9316519 46.1525862,36.9345407 C46.1884053,36.9923185 46.2358415,37.0578 46.2890862,37.1252074 C46.2968309,37.1338741 46.3045755,37.1435037 46.3132883,37.1531333 C46.4294585,37.2898741 46.5882245,37.4362444 46.8021713,37.5758741 C46.8137883,37.5835778 46.8254053,37.5912815 46.8379904,37.5989852 C46.9454479,37.6663926 47.0674266,37.7299481 47.2039266,37.7896519 C47.220384,37.7963926 47.2407138,37.8040963 47.2581394,37.8118 C47.401416,37.8715037 47.5563096,37.9263926 47.731533,37.9726148 C47.8157564,37.290837 48.0771394,36.6263926 48.528267,36.0649852 C49.3250011,35.0721704 50.3802138,34.4972815 51.5690223,34.3085407 C51.3386181,33.3003185 51.1053096,32.0706148 51.0782032,31.1326889 C50.0423521,31.3310593 48.9542245,31.3570593 47.9600011,31.2694296 C47.5969691,31.2376519 47.2223202,31.1558 46.8650968,31.0325407 C46.9164053,32.3238741 46.9251181,35.3504667 46.0015649,36.6042444 L46.0112457,36.6360222 C46.0122138,36.6398741 46.01415,36.6456519 46.0160862,36.6514296" id="Fill-33" fill="#E45940" mask="url(#mask-2)"></path>
                    <path d="M47.3358766,23.8846593 C47.3358766,23.8846593 51.7619617,22.5836963 52.4676957,23.6506593 C53.1714936,24.7166593 53.0437064,26.4394 53.3380043,27.1982148 C53.6323021,27.9570296 54.7301106,28.7572519 54.848217,29.0605852 C54.9653553,29.3639185 54.1115043,29.9436222 53.9933979,30.1814741 C53.8743234,30.418363 53.4290043,32.9105111 52.6603447,33.460363 C51.8916851,34.0111778 47.7695787,32.550363 46.749217,30.6138444 C45.7278872,28.6782889 46.1480362,24.5221407 47.3358766,23.8846593" id="Fill-34" fill="#F88667" mask="url(#mask-2)"></path>
                    <path d="M49.3514298,24.6576296 C49.3514298,24.6576296 49.4869617,25.7380741 48.8857809,26.9321481 C48.6205255,27.4588889 49.9419617,28.859037 49.5740894,29.4955556 C49.3301319,29.9192593 48.9709723,29.8123704 48.6456957,28.9745926 C48.534366,28.6885926 48.216834,28.4892593 47.9302809,28.366963 C46.8469936,27.9008889 46.5943234,29.5427407 47.5662809,30.030963 C48.2458766,30.3728148 47.841217,32.084963 47.841217,32.084963 C47.1122489,32.6434815 44.6978447,31.9703704 44.9631,30.2168148 C45.1315468,29.1007407 45.2060894,28.6760741 44.8130468,28.4045185 C44.1005362,27.9124444 43.1750468,26.546963 44.3454617,25.3885185 C45.9592596,23.7928889 44.4877702,23.2854074 46.3532702,22.8260741 C48.2187702,22.3648148 49.7609298,23.4982222 49.3514298,24.6576296" id="Fill-35" fill="#424444" mask="url(#mask-2)"></path>
                    <path d="M46.0491947,23.7191259 C46.1537479,23.3146815 46.8904606,22.7927556 47.2544606,22.522163 C47.81595,22.1052 48.4674713,21.8423111 49.1644926,21.6651259 C49.8547372,21.4908296 50.5933862,21.4609778 51.2913755,21.5938667 C51.8964287,21.7094222 52.4037053,21.976163 53.0232798,22.0474222 C53.5963862,22.1109778 54.1656202,22.0859407 54.5673755,21.7489037 C54.6932266,22.1263852 54.6903223,22.8823111 54.6428862,23.1413481 C54.5422053,23.6912 54.1772372,24.1823111 53.8471202,24.6734222 C52.9497053,26.006163 50.5062585,26.7447556 48.7840351,26.0398667 C47.95245,25.6999407 47.2050883,25.4052741 46.7965564,24.6859407 C46.5613117,24.2709037 46.383184,24.0706074 46.0491947,23.7191259" id="Fill-36" fill="#424444" mask="url(#mask-2)"></path>
                    <path d="M69.6755053,26.5901037 L73.9554096,36.0386963 C73.9554096,36.0386963 72.7027074,37.4398074 72.2844947,37.1278074 C71.8682181,36.8167704 65.4488457,29.1506222 64.8215266,28.7529185 C64.1961436,28.3552148 69.6755053,26.5901037 69.6755053,26.5901037" id="Fill-37" fill="#424444" mask="url(#mask-2)"></path>
                    <path d="M59.0644213,27.7665556 C59.0644213,27.7665556 59.0818468,30.4830741 60.7517936,31.1061111 C60.7517936,31.1061111 69.310634,27.5787778 71.0318894,27.2398148 C72.7550809,26.9018148 79.0166553,26.8498148 79.0166553,26.8498148 L72.7028043,15.6361111 C72.7028043,15.6361111 69.6756021,21.6584815 66.909783,23.6315926 C64.1439638,25.6037407 59.0644213,27.7665556 59.0644213,27.7665556" id="Fill-38" fill="#FF5D12" mask="url(#mask-2)"></path>
                    <path d="M64.6158085,29.5495778 C65.2925,29.2818741 65.9992021,29.0055037 66.6942872,28.7378 C65.6458511,27.5629852 65.1017872,25.9259481 64.8936489,24.8955778 C64.2440638,25.2663185 63.5722128,25.6226148 62.9206915,25.9538741 C63.211117,27.4243185 63.8355319,28.6472815 64.6158085,29.5495778" id="Fill-39" fill="#424444" mask="url(#mask-2)"></path>
                    <path d="M81.3483851,18.5206667 C83.1315979,22.7971852 82.5004064,27.1208889 79.9407894,28.1762963 C77.3811723,29.2317037 73.8612149,26.6201481 72.0780021,22.3436296 C70.2957574,18.0661481 70.9250128,13.7434074 73.4855979,12.687037 C76.0442468,11.6325926 79.5651723,14.2441481 81.3483851,18.5206667" id="Fill-40" fill="#00D8DF" mask="url(#mask-2)"></path>
                    <path d="M81.0022947,18.6626074 C82.518316,22.3006815 81.983933,25.9792 79.8057415,26.8766815 C77.6285181,27.7751259 74.6332628,25.5535704 73.1162734,21.9154963 C71.6002521,18.2774222 72.1365713,14.5989037 74.3137947,13.7014222 C76.4919862,12.8029778 79.4862734,15.0245333 81.0022947,18.6626074" id="Fill-41" fill="#424444" mask="url(#mask-2)"></path>
                    <path d="M69.114016,33.3929556 C68.90975,33.2706593 68.9678351,32.5099185 69.0094628,32.3125111 C69.0733564,32.0034 69.2892394,31.5989556 69.0723883,31.3033259 C68.6909628,30.7794741 68.1546436,32.1873259 68.0849415,32.392437 C67.9503777,32.7834 67.9019734,33.0501407 67.9861968,33.3313259 C68.0558989,33.5653259 68.4789521,34.2981407 68.8051968,34.5610296 C68.7655053,34.7006593 68.7219415,34.8470296 68.6677287,35.0020667 C69.0762606,35.1821407 69.3037606,35.2948074 69.6987394,35.5211037 C70.1121117,35.7579926 70.0917819,36.0516963 70.4780479,36.3155481 L70.8643138,35.4325111 C70.7026436,35.2312519 69.4538138,33.5980667 69.114016,33.3929556" id="Fill-42" fill="#F88667" mask="url(#mask-2)"></path>
                    <path d="M71.8546649,30.3009778 C71.4848564,29.9052 70.9088457,30.0573481 70.4625585,30.3818667 C70.1353457,30.6187556 69.1933989,31.3766074 69.4470372,31.9254963 C69.6571117,32.3819407 70.8681862,31.3717926 70.8681862,31.3717926 C70.422867,31.7540889 69.5912819,32.0583852 69.8003883,32.4416444 C70.0336968,32.8672741 71.0908457,32.2596444 71.3222181,32.090163 C71.0850372,32.1517926 69.9039734,32.8643852 70.377367,33.2370519 C70.7016755,33.4912741 71.5690798,32.9568296 71.8294947,32.7738667 C71.480984,32.8797926 71.0066223,33.1869778 71.0985904,33.6674963 C71.2505798,33.9313481 71.7772181,33.7560889 72.0705479,33.6376444 C72.5129628,33.4585333 72.9292394,33.390163 72.9640904,32.844163 C72.970867,32.7411259 72.9853883,32.6525333 72.9795798,32.5466074 C72.9611862,32.1508296 72.7801543,31.7030519 72.5913777,31.3563852 C72.3813032,30.9712 72.1373457,30.6033481 71.8546649,30.3009778" id="Fill-43" fill="#F88667" mask="url(#mask-2)"></path>
                    <path d="M26.8009521,33.4371556 C26.5899096,33.1164889 26.4330798,32.750563 26.3062606,32.3904148 C26.1958989,32.0764889 26.1184521,31.7558222 26.0100266,31.4428593 C25.9045053,31.1404889 25.7786543,30.8400444 25.7970479,30.514563 C25.8076968,30.3113778 25.8590053,30.1438222 25.9112819,29.9473778 C25.9742074,29.706637 26.0632713,29.472637 26.1126436,29.2290074 C26.1571755,29.0113778 26.1378138,28.8004889 26.1784734,28.5838222 C26.2559202,28.1822667 26.3498245,27.7527852 26.5569947,27.3936 C26.7176968,27.1143407 26.8929202,26.8803407 27.1058989,26.640563 C27.2191649,26.5153778 27.2985479,26.404637 27.4311755,26.2958222 C27.5550904,26.1947111 27.6761011,26.0849333 27.7303138,25.9298963 C27.8048564,25.7132296 27.6906223,25.5148593 27.4737713,25.4609333 C27.0933138,25.3636741 26.4931011,25.5379704 26.2607606,25.8557481 C25.9383883,26.2967852 25.7863989,26.8370074 25.4272394,27.262637 C24.3294309,28.562637 23.3003564,27.0324889 22.0195798,26.4807111 C21.6517074,26.3227852 21.0998989,25.9260444 20.7804309,25.6872296 C20.5519628,25.5158222 19.5683883,24.5875259 19.1037074,24.8292296 C18.7619734,25.0073778 19.4318883,25.7883407 19.7552287,25.9790074 C19.883016,26.0541185 20.9798564,26.9410074 21.123133,26.9833778 C20.7997926,26.9284889 19.9594947,26.3757481 19.2828032,25.8499704 C18.7968245,25.4715259 18.3263351,25.0998222 18.0620479,25.314563 C17.2469202,25.9790074 20.4445053,27.4995259 20.6942713,27.6391556 C20.4280479,27.6613037 17.9236117,25.8981185 17.6873989,26.5461926 C17.5567074,26.9024889 18.0765691,27.2558963 18.5015585,27.4850815 C19.0349734,27.7739704 19.9275479,27.9800444 20.1289096,28.1350815 C19.7532926,28.2631556 18.0949628,27.1413037 18.0939947,27.8259704 C18.0939947,28.2737481 19.1230691,28.6088593 19.5112713,28.7263407 C19.9101223,28.8467111 21.0834415,29.6411556 21.4542181,29.8164148 C22.6914309,30.4038222 23.2025798,30.3344889 23.6904947,31.0721185 C24.00125,31.5420444 24.5559628,34.024563 25.0051543,34.9692296 L26.8009521,33.4371556 Z" id="Fill-44" fill="#F88667" mask="url(#mask-2)"></path>
                    <path d="M68.4238681,34.6643556 C67.3202511,37.8594667 64.9610277,43.5130222 64.1817191,43.1162815 C62.7199106,42.3719111 59.5746021,39.8142815 57.2260277,38.2494667 C55.4050596,37.0370963 54.4921553,36.6827259 54.4921553,36.6827259 L56.1291872,44.3970222 C56.1291872,44.3970222 63.8825809,50.2547259 65.5060596,49.3582074 C66.7839319,48.6513926 69.9282723,39.7449481 71.0376979,36.0539111 C71.0376979,36.0539111 68.4422617,34.6788 68.4238681,34.6643556" id="Fill-45" fill="#00D8DF" mask="url(#mask-2)"></path>
                    <path d="M60.7453074,45.6688074 C59.8720947,44.5402148 56.5360734,41.2921407 55.6347862,40.5997704 L55.8952011,44.2590296 C55.8952011,44.2590296 63.7105521,50.1022889 65.4405202,49.3733259 C63.9516053,48.4209556 61.8072968,47.0400667 60.7453074,45.6688074" id="Fill-46" fill="#00A7CC" mask="url(#mask-2)"></path>
                    <path d="M41.3363628,37.0915037 C41.3363628,37.0915037 31.8007245,40.9202444 30.7629372,40.6506148 C29.7261181,40.3809852 26.2690862,30.6020963 26.2690862,30.6020963 L23.3812883,31.7692074 C23.3812883,31.7692074 26.4656074,45.8737259 28.4501819,46.5343185 C30.4357245,47.1929852 42.2705649,43.792763 42.2705649,43.792763 C42.2705649,43.792763 42.4641819,40.3675037 41.3363628,37.0915037" id="Fill-47" fill="#00D8DF" mask="url(#mask-2)"></path>
                    <path d="M33.2012532,45.6547481 C32.3609553,45.9542296 31.5061362,46.2498593 30.6474447,46.5011926 C34.6921043,45.969637 42.2702745,43.7923778 42.2702745,43.7923778 C42.2702745,43.7923778 42.3515936,42.2266 42.0631043,40.2072667 C39.7154979,42.7369704 36.3765723,44.5203778 33.2012532,45.6547481" id="Fill-48" fill="#00A7CC" mask="url(#mask-2)"></path>
                    <path d="M76.4833702,21.2675185 C76.0477319,19.929 74.7350085,19.1538148 73.5529766,19.5351481 C73.148317,19.6661111 72.8182,19.9212963 72.567466,20.2448519 C72.704934,20.7966296 72.8830617,21.3551481 73.1163702,21.9155926 C73.5181255,22.8766296 74.023466,23.7355926 74.5888277,24.4674444 C74.7698596,24.4607037 74.9528277,24.4385556 75.1319234,24.3798148 C76.3149234,23.9994444 76.9199766,22.6050741 76.4833702,21.2675185" id="Fill-49" fill="#D0D1DE" mask="url(#mask-2)"></path>
                    <path d="M41.352433,48.6292444 C41.0155394,51.9216148 40.7541564,58.8405037 40.556667,59.8073185 L56.2018904,59.8073185 C56.4777947,54.6381333 56.3848585,47.1530222 56.129284,44.3970222 C55.6810606,39.5976148 54.4922521,36.6827259 54.4922521,36.6827259 C54.4922521,36.6827259 53.3247415,36.315837 51.9394117,35.7852444 C51.9394117,35.7852444 49.0593585,37.5349481 46.3777628,35.8093185 C46.3777628,35.8093185 41.5373372,36.9485037 40.9526138,37.2268 C40.4666351,37.4569481 41.7125606,45.1144296 41.352433,48.6292444" id="Fill-50" fill="#00D8DF" mask="url(#mask-2)"></path>
                    <path d="M45.490416,53.1355259 C45.4691181,51.5947852 45.1825649,50.0713778 44.5949372,48.6452296 C44.4623096,48.3197481 44.353884,47.986563 44.307416,47.6379704 C44.1728521,46.6047111 43.9492245,45.9267852 43.6462138,45.3393778 C43.295767,44.8136 42.9414479,44.2907111 42.5968096,43.7630074 C42.4041606,43.5030074 42.2027989,43.2295259 41.9801394,42.9059704 C41.6897138,42.4832296 41.2531074,41.7099704 41.0246394,41.224637 C41.2076074,43.6416741 41.532884,46.8695259 41.3528202,48.6288593 C41.0159266,51.9212296 40.7535755,58.8401185 40.5560862,59.8078963 L47.8370543,59.8078963 C46.900916,58.6099704 46.3394266,57.1520444 45.7905223,55.3724889 C45.5668947,54.6502667 45.502033,53.8962667 45.490416,53.1355259" id="Fill-51" fill="#00A7CC" mask="url(#mask-2)"></path>
                </g>
            </g>
        </g>
    </g>
</svg>