<?xml version="1.0" encoding="UTF-8"?>
<svg width="103px" height="92px" viewBox="0 0 103 92" version="1.1" xmlns="http://www.w3.org/2000/svg" xmlns:xlink="http://www.w3.org/1999/xlink">
    <title>489974EC-1651-4170-B2BB-5AA7110EA086</title>
    <defs>
        <polygon id="path-1" points="0 91 102.566957 91 102.566957 0.13767297 0 0.13767297"></polygon>
    </defs>
    <g id="Page-1" stroke="none" stroke-width="1" fill="none" fill-rule="evenodd">
        <g id="SERVICES" transform="translate(-531.000000, -806.000000)">
            <g id="Group-64-Copy" transform="translate(531.000000, 806.000000)">
                <polygon id="Fill-1" fill="#424444" points="16 77 88 77 88 66 16 66"></polygon>
                <g id="Group-63" transform="translate(0.000000, 1.000000)">
                    <path d="M89.7763505,72.3346996 L12.7899419,72.3346996 C10.3467376,72.3346996 8.36647957,70.3367804 8.36647957,67.8731641 L8.36647957,18.7772874 C8.36647957,16.313671 10.3467376,14.3157518 12.7899419,14.3157518 L89.7763505,14.3157518 C92.2195548,14.3157518 94.2009204,16.313671 94.2009204,18.7772874 L94.2009204,67.8731641 C94.2009204,70.3367804 92.2195548,72.3346996 89.7763505,72.3346996" id="Fill-2" fill="#424444"></path>
                    <mask id="mask-2" fill="white">
                        <use xlink:href="#path-1"></use>
                    </mask>
                    <g id="Clip-5"></g>
                    <polygon id="Fill-4" fill="#FEFEFE" mask="url(#mask-2)" points="12.3190215 67.8904741 90.249043 67.8904741 90.249043 18.1602665 12.3190215 18.1602665"></polygon>
                    <path d="M-0.000332258064,87.8251065 L-0.000332258064,89.4109339 C-0.000332258064,90.2887229 0.946603226,91.0001117 2.11615161,91.0001117 L100.451248,91.0001117 C101.619689,91.0001117 102.566625,90.2887229 102.566625,89.4109339 L102.566625,87.8251065 L-0.000332258064,87.8251065 Z" id="Fill-6" fill="#424444" mask="url(#mask-2)"></path>
                    <path d="M51.2833677,75.5885495 L9.18516344,75.5885495 C9.04229247,75.7404315 2.42481935,81.7140871 0.403582796,86.1521703 C-0.461395699,88.0495793 0.103443011,89.0479805 1.71267957,89.0479805 L51.2833677,89.0479805 L100.854056,89.0479805 C102.463292,89.0479805 103.028131,88.0495793 102.163153,86.1521703 C100.141916,81.7140871 93.524443,75.7404315 93.381572,75.5885495 L51.2833677,75.5885495 Z" id="Fill-7" fill="#424444" mask="url(#mask-2)"></path>
                    <polygon id="Fill-8" fill="#9C9EB9" mask="url(#mask-2)" points="97.2403065 86.7781254 7.53948925 86.7781254 13.7549301 77.4988014 91.0237581 77.4988014"></polygon>
                    <path d="M82.5136323,84.8592742 L81.6253957,82.607846 L88.2982452,82.607846 L89.3946968,84.8592742 L82.5136323,84.8592742 Z M75.0588688,84.8592742 L74.3976753,82.607846 L81.0683097,82.607846 L81.9388258,84.8592742 L75.0588688,84.8592742 Z M67.6029978,84.8592742 L67.1699548,82.607846 L73.8405892,82.607846 L74.4840624,84.8592742 L67.6029978,84.8592742 Z M66.6782129,80.0671718 L73.1140516,80.0671718 L73.7575247,82.3186 L67.113471,82.3186 L66.6782129,80.0671718 Z M60.1493419,84.8592742 L59.9411269,82.607846 L66.6128688,82.607846 L67.0292989,84.8592742 L60.1493419,84.8592742 Z M59.7063312,80.0671718 L66.1421699,80.0671718 L66.5586,82.3186 L59.9145462,82.3186 L59.7063312,80.0671718 Z M80.0870409,80.0671718 L80.9564495,82.3186 L74.3123957,82.3186 L73.6512022,80.0671718 L80.0870409,80.0671718 Z M87.0589226,80.0671718 L88.1564817,82.3186 L81.5113204,82.3186 L80.6230839,80.0671718 L87.0589226,80.0671718 Z M53.0622774,84.8592742 L53.0622774,82.607846 L59.3840409,82.607846 L59.573428,84.8592742 L53.0622774,84.8592742 Z M53.0622774,80.0671718 L59.1691806,80.0671718 L59.3596753,82.3186 L53.0622774,82.3186 L53.0622774,80.0671718 Z M52.4930086,82.3186 L45.9741054,82.3186 L46.1646,80.0671718 L52.4930086,80.0671718 L52.4930086,82.3186 Z M52.4930086,84.8592742 L45.7592452,84.8592742 L45.9486323,82.607846 L52.4930086,82.607846 L52.4930086,84.8592742 Z M45.4192344,82.3186 L38.7751806,82.3186 L39.1916108,80.0671718 L45.6263419,80.0671718 L45.4192344,82.3186 Z M45.1855462,84.8592742 L38.3044817,84.8592742 L38.7209118,82.607846 L45.3915462,82.607846 L45.1855462,84.8592742 Z M38.2203097,82.3186 L31.5762559,82.3186 L32.219729,80.0671718 L38.6544602,80.0671718 L38.2203097,82.3186 Z M37.7296753,84.8592742 L30.8497183,84.8592742 L31.4931914,82.607846 L38.1638258,82.607846 L37.7296753,84.8592742 Z M30.2749118,84.8592742 L23.3938473,84.8592742 L24.2643634,82.607846 L30.9361054,82.607846 L30.2749118,84.8592742 Z M22.8201484,84.8592742 L15.9390839,84.8592742 L17.0355355,82.607846 L23.7072774,82.607846 L22.8201484,84.8592742 Z M18.2748581,80.0671718 L24.7095892,80.0671718 L23.8224602,82.3186 L17.1772989,82.3186 L18.2748581,80.0671718 Z M25.2467398,80.0671718 L31.6825785,80.0671718 L31.0213849,82.3186 L24.3762237,82.3186 L25.2467398,80.0671718 Z M96.1495032,85.149637 L95.9545785,84.8592742 L89.9683957,84.8592742 L88.8542237,82.607846 L94.4461269,82.607846 L94.2523097,82.3186 L88.7113527,82.3186 L87.5960731,80.0671718 L92.7438581,80.0671718 L92.5511484,79.776809 L87.4520946,79.776809 L86.3235247,77.4985781 L85.8074172,77.4985781 L86.9182667,79.776809 L80.5090086,79.776809 L79.6108043,77.4985781 L79.0935892,77.4985781 L79.9740731,79.776809 L73.5659226,79.776809 L72.8969763,77.4985781 L72.3797613,77.4985781 L73.0309871,79.776809 L66.6228366,79.776809 L66.1831484,77.4985781 L65.6659333,77.4985781 L66.0879011,79.776809 L59.6797505,79.776809 L59.4693204,77.4985781 L58.9532129,77.4985781 L59.1448151,79.776809 L53.0622774,79.776809 L53.0622774,77.4985781 L52.4930086,77.4985781 L52.4930086,79.776809 L46.1878581,79.776809 L46.3805677,77.4985781 L45.8633527,77.4985781 L45.6540301,79.776809 L39.2458796,79.776809 L39.6667398,77.4985781 L39.1506323,77.4985781 L38.7098366,79.776809 L32.301686,79.776809 L32.9540194,77.4985781 L32.4356968,77.4985781 L31.7678581,79.776809 L25.3597075,79.776809 L26.2390839,77.4985781 L25.7229763,77.4985781 L24.8236645,79.776809 L18.415514,79.776809 L19.5263634,77.4985781 L19.0091484,77.4985781 L17.881686,79.776809 L12.2288688,79.776809 L12.0339441,80.0671718 L17.7377075,80.0671718 L16.622428,82.3186 L10.5266,82.3186 L10.3316753,82.607846 L16.479557,82.607846 L15.3642774,84.8592742 L8.82433118,84.8592742 L8.62940645,85.149637 L15.2202989,85.149637 L14.4140194,86.777902 L15.0032237,86.777902 L15.7973204,85.149637 L22.7049656,85.149637 L22.0626,86.777902 L22.6518043,86.777902 L23.2819871,85.149637 L30.1896323,85.149637 L29.7111806,86.777902 L30.3003849,86.777902 L30.7655462,85.149637 L37.6742989,85.149637 L37.3586538,86.777902 L37.9489656,86.777902 L38.2502129,85.149637 L45.1578581,85.149637 L45.0083419,86.777902 L45.5975462,86.777902 L45.7348796,85.149637 L52.4930086,85.149637 L52.4930086,86.777902 L53.0622774,86.777902 L53.0622774,85.149637 L59.5989011,85.149637 L59.7362344,86.777902 L60.3254387,86.777902 L60.1748151,85.149637 L67.0824602,85.149637 L67.3848151,86.777902 L67.9740194,86.777902 L67.6594817,85.149637 L74.5671269,85.149637 L75.0322882,86.777902 L75.6214925,86.777902 L75.1441484,85.149637 L82.0517935,85.149637 L82.6808688,86.777902 L83.2711806,86.777902 L82.6288151,85.149637 L89.5364602,85.149637 L90.330557,86.777902 L90.9197613,86.777902 L90.1123742,85.149637 L96.1495032,85.149637 Z" id="Fill-9" fill="#D0D1DE" mask="url(#mask-2)"></path>
                    <path d="M51.2833677,89.0477571 L46.926357,89.0477571 C46.928572,89.0589249 46.9163892,89.4352797 47.1445398,89.6552854 C47.2298194,89.7379271 47.3505398,89.7792479 47.4745828,89.7792479 L51.2833677,89.7792479 L55.0921527,89.7792479 C55.2173032,89.7792479 55.3369161,89.7379271 55.4221957,89.6552854 C55.6503462,89.4352797 55.6381634,89.0589249 55.6403785,89.0477571 L51.2833677,89.0477571 Z" id="Fill-10" fill="#424444" mask="url(#mask-2)"></path>
                    <polygon id="Fill-11" fill="#FEFEFE" mask="url(#mask-2)" points="12.3190215 67.8904741 90.2423978 67.8904741 90.2423978 18.1647336 12.3190215 18.1647336"></polygon>
                    <polygon id="Fill-12" fill="#00D8DF" mask="url(#mask-2)" points="52.7272505 43.5301548 45.6955624 46.6828244 36.8021215 37.715082 12.3191323 56.5283557 12.3191323 67.8893574 90.2425086 67.8893574 90.2425086 9.45720099 57.6856484 49.1855281"></polygon>
                    <polygon id="Fill-13" fill="#FEFEFE" mask="url(#mask-2)" points="27.6848495 54.6130783 30.1723548 54.6130783 30.1723548 52.7123189 27.6848495 52.7123189"></polygon>
                    <polygon id="Fill-14" fill="#FEFEFE" mask="url(#mask-2)" points="31.1923871 54.6130783 33.6787849 54.6130783 33.6787849 52.7123189 31.1923871 52.7123189"></polygon>
                    <polygon id="Fill-15" fill="#FF5D12" mask="url(#mask-2)" points="34.6988172 54.6130783 37.1863226 54.6130783 37.1863226 52.7123189 34.6988172 52.7123189"></polygon>
                    <polygon id="Fill-16" fill="#FEFEFE" mask="url(#mask-2)" points="38.2063548 54.6130783 40.6927527 54.6130783 40.6927527 52.7123189 38.2063548 52.7123189"></polygon>
                    <polygon id="Fill-17" fill="#FEFEFE" mask="url(#mask-2)" points="41.7127849 54.6130783 44.2002903 54.6130783 44.2002903 52.7123189 41.7127849 52.7123189"></polygon>
                    <polygon id="Fill-18" fill="#FF5D12" mask="url(#mask-2)" points="45.2203226 54.6130783 47.707828 54.6130783 47.707828 52.7123189 45.2203226 52.7123189"></polygon>
                    <polygon id="Fill-19" fill="#FEFEFE" mask="url(#mask-2)" points="27.6848495 57.8595573 30.1723548 57.8595573 30.1723548 55.958798 27.6848495 55.958798"></polygon>
                    <polygon id="Fill-20" fill="#FEFEFE" mask="url(#mask-2)" points="31.1923871 57.8595573 33.6787849 57.8595573 33.6787849 55.958798 31.1923871 55.958798"></polygon>
                    <polygon id="Fill-21" fill="#FEFEFE" mask="url(#mask-2)" points="34.6988172 57.8595573 37.1863226 57.8595573 37.1863226 55.958798 34.6988172 55.958798"></polygon>
                    <polygon id="Fill-22" fill="#FEFEFE" mask="url(#mask-2)" points="38.2063548 57.8595573 40.6927527 57.8595573 40.6927527 55.958798 38.2063548 55.958798"></polygon>
                    <polygon id="Fill-23" fill="#FF5D12" mask="url(#mask-2)" points="41.7127849 57.8595573 44.2002903 57.8595573 44.2002903 55.958798 41.7127849 55.958798"></polygon>
                    <polygon id="Fill-24" fill="#FEFEFE" mask="url(#mask-2)" points="45.2203226 57.8595573 47.707828 57.8595573 47.707828 55.958798 45.2203226 55.958798"></polygon>
                    <polygon id="Fill-25" fill="#FEFEFE" mask="url(#mask-2)" points="27.6848495 61.1060364 30.1723548 61.1060364 30.1723548 59.2041603 27.6848495 59.2041603"></polygon>
                    <polygon id="Fill-26" fill="#FF5D12" mask="url(#mask-2)" points="31.1923871 61.1060364 33.6787849 61.1060364 33.6787849 59.2041603 31.1923871 59.2041603"></polygon>
                    <polygon id="Fill-27" fill="#FEFEFE" mask="url(#mask-2)" points="34.6988172 61.1060364 37.1863226 61.1060364 37.1863226 59.2041603 34.6988172 59.2041603"></polygon>
                    <polygon id="Fill-28" fill="#FEFEFE" mask="url(#mask-2)" points="38.2063548 61.1060364 40.6927527 61.1060364 40.6927527 59.2041603 38.2063548 59.2041603"></polygon>
                    <polygon id="Fill-29" fill="#FEFEFE" mask="url(#mask-2)" points="41.7127849 61.1060364 44.2002903 61.1060364 44.2002903 59.2041603 41.7127849 59.2041603"></polygon>
                    <polygon id="Fill-30" fill="#FEFEFE" mask="url(#mask-2)" points="45.2203226 61.1060364 47.707828 61.1060364 47.707828 59.2041603 45.2203226 59.2041603"></polygon>
                    <polygon id="Fill-31" fill="#FEFEFE" mask="url(#mask-2)" points="27.6848495 64.3525155 30.1723548 64.3525155 30.1723548 62.4506394 27.6848495 62.4506394"></polygon>
                    <polygon id="Fill-32" fill="#FEFEFE" mask="url(#mask-2)" points="31.1923871 64.3525155 33.6787849 64.3525155 33.6787849 62.4506394 31.1923871 62.4506394"></polygon>
                    <polygon id="Fill-33" fill="#FF5D12" mask="url(#mask-2)" points="34.6988172 64.3525155 37.1863226 64.3525155 37.1863226 62.4506394 34.6988172 62.4506394"></polygon>
                    <polygon id="Fill-34" fill="#FEFEFE" mask="url(#mask-2)" points="38.2063548 64.3525155 40.6927527 64.3525155 40.6927527 62.4506394 38.2063548 62.4506394"></polygon>
                    <polygon id="Fill-35" fill="#FFFFFF" mask="url(#mask-2)" points="53.5687495 47.3331253 53.3195559 47.0840834 53.0028032 47.2169802 52.8034484 46.7255971 53.4236634 46.462037 53.9165129 46.9534202"></polygon>
                    <path d="M51.3071796,47.9361865 L51.1067172,47.4436865 L51.9561903,47.0840834 L52.1566527,47.5765833 L51.3071796,47.9361865 Z M49.6082333,48.6576263 L49.407771,48.1640095 L50.2583516,47.8032896 L50.4577065,48.2969064 L49.6082333,48.6576263 Z M47.9026419,49.3801828 L47.7021796,48.8865661 L48.5560828,48.5247294 L48.7554376,49.0194629 L47.9026419,49.3801828 Z" id="Fill-36" fill="#FFFFFF" mask="url(#mask-2)"></path>
                    <polygon id="Fill-37" fill="#FFFFFF" mask="url(#mask-2)" points="46.4314032 50.0051328 45.9152957 49.5506034 46.2442312 49.1452123 46.5188978 49.3875536 46.8489409 49.2479561 47.0494032 49.7426896"></polygon>
                    <path d="M39.1253806,43.5732625 L38.3700473,42.9087785 L38.7023054,42.5067378 L39.4576387,43.1712218 L39.1253806,43.5732625 Z M40.6338323,44.9011138 L39.880714,44.2377466 L40.210757,43.834589 L40.9660903,44.499073 L40.6338323,44.9011138 Z M42.1433914,46.2300818 L41.3891656,45.5655978 L41.7203161,45.1624403 L42.4734344,45.8269243 L42.1433914,46.2300818 Z M43.6529505,47.5579331 L42.8987247,46.8945659 L43.2287677,46.4902916 L43.9829935,47.1547756 L43.6529505,47.5579331 Z M45.1614022,48.8857844 L44.4082839,48.2224171 L44.7361118,47.8181428 L45.4903376,48.4826268 L45.1614022,48.8857844 Z" id="Fill-38" fill="#FFFFFF" mask="url(#mask-2)"></path>
                    <polygon id="Fill-39" fill="#FFFFFF" mask="url(#mask-2)" points="37.6156 42.2438478 37.3730516 42.029426 37.1116753 42.2148115 36.8137505 41.7736835 37.4018473 41.3593581 37.9489656 41.841807"></polygon>
                    <path d="M35.3778419,43.4423759 L35.0788097,43.0012479 L35.9471108,42.3881357 L36.246143,42.8270302 L35.3778419,43.4423759 Z M33.6368097,44.6753009 L33.3388849,44.2330561 L34.2105086,43.6177104 L34.5084333,44.0588384 L33.6368097,44.6753009 Z M31.8913473,45.912693 L31.5912075,45.4704482 L32.4650462,44.8517521 L32.765186,45.2928802 L31.8913473,45.912693 Z M30.1381323,47.1534354 L29.8379925,46.7111906 L30.7151538,46.090261 L31.0152935,46.5325058 L30.1381323,47.1534354 Z M28.378272,48.3997618 L28.0781323,47.9564002 L28.9586161,47.333237 L29.2587559,47.7765986 L28.378272,48.3997618 Z M26.6128742,49.6505552 L26.3116269,49.2060768 L27.1954333,48.5806801 L27.4966806,49.0251585 L26.6128742,49.6505552 Z M24.8397237,50.9058158 L24.5395839,50.4602206 L25.4267129,49.8325904 L25.7268527,50.2781855 L24.8397237,50.9058158 Z M23.062143,52.1655435 L22.7608957,51.7188316 L23.6513473,51.0889677 L23.9525946,51.5356797 L23.062143,52.1655435 Z M21.2779172,53.4297383 L20.9755624,52.9819096 L21.8704441,52.3498122 L22.1705839,52.7965241 L21.2779172,53.4297383 Z M19.4859387,54.6984002 L19.1846914,54.2494547 L20.0806806,53.6151238 L20.3830355,54.0629525 L19.4859387,54.6984002 Z M17.6884226,55.9715293 L17.3860677,55.521467 L18.2853796,54.8849025 L18.5888419,55.333848 L17.6884226,55.9715293 Z M15.8842613,57.2491255 L15.5819065,56.7990632 L16.4845409,56.1602651 L16.7868957,56.6103274 L15.8842613,57.2491255 Z M14.0745624,58.5323055 L13.7711,58.0800097 L14.677057,57.438978 L14.9805194,57.8901571 L14.0745624,58.5323055 Z" id="Fill-40" fill="#FFFFFF" mask="url(#mask-2)"></path>
                    <path d="M89.0160333,16.2143893 L88.6483344,15.8681875 L89.269657,15.1389303 L89.6384634,15.485132 L89.0160333,16.2143893 Z M87.8564527,17.6003131 L87.4876462,17.2541113 L88.1100763,16.5248541 L88.4777753,16.8710558 L87.8564527,17.6003131 Z M86.696872,18.9862369 L86.3280656,18.6400351 L86.9504957,17.9118947 L87.3181946,18.2569797 L86.696872,18.9862369 Z M85.4509043,20.4503353 L85.0820978,20.1030168 L85.7056355,19.371526 L86.0744419,19.7177277 L85.4509043,20.4503353 Z M84.201614,21.9177841 L83.8317,21.5704655 L84.4574527,20.8367412 L84.8273667,21.1840597 L84.201614,21.9177841 Z M82.9478935,23.3908167 L82.5779796,23.0434982 L83.2048398,22.3064235 L83.5758613,22.6548588 L82.9478935,23.3908167 Z M81.689743,24.8694333 L81.3187215,24.5209979 L81.9477968,23.7816897 L82.3188183,24.130125 L81.689743,24.8694333 Z M80.4271624,26.3525169 L80.0550333,26.0040816 L80.6874312,25.2625398 L81.0584527,25.6109751 L80.4271624,26.3525169 Z M79.1612591,27.8411845 L78.7880226,27.4916324 L79.4226355,26.747857 L79.7947645,27.0962923 L79.1612591,27.8411845 Z M77.8887108,29.335436 L77.5154742,28.9847671 L78.1523022,28.2376414 L78.5244312,28.5883102 L77.8887108,29.335436 Z M76.6128398,30.8330378 L76.2384957,30.4834857 L76.8775387,29.7330096 L77.2507753,30.0825617 L76.6128398,30.8330378 Z M75.3325387,32.3373403 L74.9581946,31.9866714 L75.5994527,31.2339617 L75.9737968,31.5835138 L75.3325387,32.3373403 Z M74.0478075,33.8461099 L73.6723559,33.495441 L74.3169366,32.739381 L74.6901731,33.0900499 L74.0478075,33.8461099 Z M72.7586462,35.3604634 L72.3831946,35.0086777 L73.0277753,34.2503842 L73.4032269,34.6021698 L72.7586462,35.3604634 Z M71.4650548,36.879284 L71.0884957,36.5274983 L71.7363989,35.7669712 L72.1129581,36.1187569 L71.4650548,36.879284 Z M70.1670333,38.4048053 L69.7904742,38.0519029 L70.4405925,37.2891422 L70.8171516,37.6420446 L70.1670333,38.4048053 Z M68.8656892,39.9347937 L68.4880226,39.5807745 L69.1403559,38.8157803 L69.5180226,39.1686827 L68.8656892,39.9347937 Z M67.5577,41.470366 L67.1800333,41.11523 L67.8345817,40.3468855 L68.2122484,40.7020215 L67.5577,41.470366 Z M66.2463882,43.0115223 L65.867614,42.6552695 L66.5243774,41.8846914 L66.9031516,42.2409441 L66.2463882,43.0115223 Z M64.9306462,44.5571456 L64.5507645,44.2020096 L65.209743,43.4280812 L65.5896247,43.7843339 L64.9306462,44.5571456 Z M63.6104742,46.1094696 L63.2294849,45.7521001 L63.889571,44.9759381 L64.2705602,45.3333076 L63.6104742,46.1094696 Z M62.283657,47.6662608 L61.9037753,47.3088912 L62.5671839,46.5304956 L62.9470656,46.8878652 L62.283657,47.6662608 Z M60.9546247,49.2286358 L60.572528,48.8712662 L61.2381516,48.0895203 L61.6202484,48.4468899 L60.9546247,49.2286358 Z M59.6189473,50.7977115 L59.2368505,50.4392252 L59.9057968,49.6541289 L60.2878935,50.0126153 L59.6189473,50.7977115 Z" id="Fill-41" fill="#FFFFFF" mask="url(#mask-2)"></path>
                    <polygon id="Fill-42" fill="#FFFFFF" mask="url(#mask-2)" points="58.4433075 52.1781631 57.8784688 51.6175396 58.2251247 51.2356009 58.4056516 51.4142857 58.566243 51.2244331 58.9494473 51.5829194"></polygon>
                    <path d="M55.2927258,49.046489 L54.4310699,48.1899188 L54.7788333,47.8102137 L55.6393817,48.6656671 L55.2927258,49.046489 Z M57.0171452,50.7596293 L56.1543817,49.9030592 L56.5021452,49.5222372 L57.3626935,50.3788074 L57.0171452,50.7596293 Z" id="Fill-43" fill="#FFFFFF" mask="url(#mask-2)"></path>
                    <path d="M88.1724301,3.653296 L57.7951828,42.4803818 L52.881086,36.4989088 L45.6865914,39.9397075 L36.5472796,30.1064608 L12.3190215,49.9695076 L12.3190215,52.3571829 L36.4575699,32.5689604 L45.4617634,42.255909 L52.614172,38.8340955 L57.8151183,45.1651206 L89.3386559,4.87058606 C88.9277634,4.48418023 88.5246237,4.08548981 88.1724301,3.653296" id="Fill-44" fill="#FF5D12" mask="url(#mask-2)"></path>
                    <polygon id="Fill-45" fill="#FF5D12" mask="url(#mask-2)" points="92.8783118 0.137784648 85.7103978 2.58464934 90.4517204 7.36558397"></polygon>
                    <path d="M21.6949011,24.4947536 C23.3152129,24.6175994 24.7926538,25.31447 24.8026215,26.9472022 L22.102471,26.9628371 C22.0858581,26.3463746 21.4567828,26.2168282 21.0636108,26.2190617 C20.8144172,26.2212953 20.0125677,26.2257624 20.0147828,26.7260798 C20.021428,27.8439765 24.9897935,26.6523723 25.0086837,29.8150929 C25.0196968,31.7113851 23.5511161,32.427241 21.7425247,32.5690721 L21.8709978,34.5848597 L20.2229978,34.5949108 L20.3127075,32.5634882 C18.6336968,32.397088 17.0676538,31.6131085 17.057686,29.9055521 L19.756729,29.8899172 L19.7578366,29.9479897 C19.7766645,30.6984658 20.6095247,30.8414136 21.0314925,30.8380633 C21.4412774,30.8358297 22.2431269,30.8023263 22.2386968,30.2573378 C22.2320516,29.0958867 17.2647935,30.1847471 17.2459656,27.1247702 C17.2371054,25.3591412 18.5882882,24.6745552 20.2661914,24.518206 L20.1521161,22.489017 L21.8001161,22.4778492 L21.6949011,24.4947536 Z" id="Fill-46" fill="#FF5D12" mask="url(#mask-2)"></path>
                    <path d="M62.8636688,79.2071396 C62.8636688,79.2071396 62.9766366,81.4194805 62.6565613,81.7478138 C62.3375935,82.0772639 57.9938731,82.5552457 57.5863032,82.1822412 C57.1809484,81.8092367 57.3481849,81.1134828 58.2618946,80.7773321 C59.2420559,80.4166122 59.7548409,80.6533695 60.3617656,80.3395544 C60.9697978,80.0257392 60.7250344,79.0418562 60.7250344,79.0418562 L62.8636688,79.2071396 Z" id="Fill-47" fill="#424444" mask="url(#mask-2)"></path>
                    <path d="M77.1080151,79.2071396 C77.1080151,79.2071396 76.9950473,81.4194805 77.3151226,81.7478138 C77.6340903,82.0772639 81.9778108,82.5552457 82.3853806,82.1822412 C82.7907355,81.8092367 82.6234989,81.1134828 81.7086817,80.7773321 C80.729628,80.4166122 80.216843,80.6533695 79.6088108,80.3395544 C79.001886,80.0257392 79.2466495,79.0418562 79.2466495,79.0418562 L77.1080151,79.2071396 Z" id="Fill-48" fill="#424444" mask="url(#mask-2)"></path>
                    <path d="M77.3459118,66.4110758 C76.8707828,64.0010649 74.325686,57.4232315 73.3831806,55.1416502 C73.0032989,55.0121037 72.5879763,54.8859076 72.1671161,54.761945 C72.2778688,54.2482263 72.3509656,53.8070982 72.4329226,53.4206924 C71.6942022,53.6172457 70.9089656,53.7121719 70.1159763,53.9667978 C70.0074387,54.0014179 69.8878258,54.0371549 69.7615677,54.0751254 C69.6353097,54.0371549 69.5156968,54.0014179 69.4082667,53.9667978 C68.6130624,53.7121719 67.8289333,53.6172457 67.0902129,53.4206924 C67.1710624,53.8070982 67.2463742,54.2482263 67.3560194,54.761945 C66.9362667,54.8859076 66.5209441,55.0121037 66.1410624,55.1416502 C65.1974495,57.4232315 62.6512452,64.0010649 62.1783312,66.4110758 C61.5215677,69.7457805 60.4251161,79.6303992 60.4251161,79.6303992 L63.220514,80.0011701 C63.220514,80.0011701 66.0280946,66.7215407 66.4301269,65.9855827 C67.1489118,64.6666657 67.9042452,63.4985139 68.576514,62.4643758 C69.1380301,61.6022217 70.3862129,61.6022217 70.947729,62.4643758 C71.6199978,63.4985139 72.3753312,64.6666657 73.0941161,65.9855827 C73.4950409,66.7215407 76.303729,80.0011701 76.303729,80.0011701 L79.0980194,79.6303992 C79.0980194,79.6303992 78.0015677,69.7457805 77.3459118,66.4110758" id="Fill-49" fill="#FF5D12" mask="url(#mask-2)"></path>
                    <path d="M78.1159753,25.3160335 C77.9509538,24.1713342 77.7815022,23.9948829 77.4005129,23.7704102 C77.219986,23.6643161 77.0438892,23.5727402 76.9209538,23.40634 C76.7946957,23.2354726 76.5853731,23.0847074 76.4103839,22.9384092 C76.2464699,22.8010453 76.0293946,22.6558639 75.9551903,22.426924 C75.8676957,22.1521962 76.2243194,22.2270204 76.4546849,22.3118957 C76.7060935,22.4034716 77.1756849,23.1003423 77.4437065,23.0042992 C77.7095129,22.9082561 77.0837602,22.0963572 76.9563946,21.9366576 C76.6573624,21.5591861 76.3018462,21.6105579 75.9031366,21.4363403 C75.6705559,21.3347133 75.5952441,21.2174514 75.8466527,21.0655694 C76.0338247,20.9527746 76.2730505,21.0454673 76.4624376,21.1102405 C76.8467495,21.2409038 77.2576419,21.4720772 77.5367387,21.782542 C77.3473516,21.5145149 76.8921581,21.2006997 76.599771,21.0510512 C76.3982011,20.9471907 75.4623409,20.6590615 75.5974591,20.3251443 C75.8654806,19.6550764 77.6829323,20.9181544 77.8811796,21.2710568 C77.6474914,20.9382564 77.3141258,20.7104334 76.9851903,20.4747928 C76.7935882,20.3363121 76.3239968,20.0280809 76.7171688,19.8683813 C77.2986204,19.6327408 78.0007925,20.7204844 78.4017172,21.1504446 C78.2355882,20.7841408 77.9963624,20.5619016 77.7250183,20.2291012 C77.4038355,19.8371115 77.8025452,19.7354845 78.1990398,20.0816863 C78.3673839,20.2257509 78.6498032,20.5708359 78.7107172,20.6467769 C79.3442226,21.4542087 79.3685882,21.9936134 79.4804484,22.9774965 C79.5214269,23.3303989 79.5302871,23.9066573 79.6454699,24.9352116 C79.710814,25.5259882 78.6066097,25.2211072 78.1159753,25.3160335" id="Fill-50" fill="#F88667" mask="url(#mask-2)"></path>
                    <path d="M50.9123462,41.3092147 C49.8380452,40.9027068 49.7051419,40.4682795 49.5700237,40.0439031 C49.5057871,39.8451163 49.4548409,39.6519134 49.3208301,39.4944474 C49.1823892,39.3325143 49.0804968,39.095757 48.9752817,38.8913863 C48.8767118,38.7004169 48.7836796,38.4558421 48.5776796,38.3329963 C48.3295935,38.187815 48.326271,38.5563523 48.3583892,38.8009271 C48.3949376,39.0678375 48.9686366,39.6809497 48.8180129,39.9221741 C48.6684968,40.1645153 48.0161634,39.374952 47.8887978,39.2152524 C47.586443,38.8400144 47.7115935,38.5005133 47.628529,38.0716699 C47.5797978,37.8203944 47.4823355,37.721001 47.2829806,37.9354227 C47.132357,38.096239 47.172228,38.3508648 47.193271,38.5507684 C47.237572,38.9595099 47.3749054,39.4118057 47.6152387,39.7524236 C47.3959484,39.5100823 47.1910559,38.9930133 47.1068839,38.674731 C47.0504,38.4536086 46.968443,37.4708423 46.617357,37.5311484 C45.9107548,37.6528774 46.7458301,39.7133363 47.0470774,39.983597 C46.7735183,39.6820664 46.6240022,39.3057116 46.4656258,38.9315904 C46.3725935,38.7115847 46.1754538,38.1844646 45.936228,38.5384838 C45.5829269,39.06002 46.4866688,39.9847138 46.8178194,40.470513 C46.4988516,40.2292886 46.3338301,39.9445097 46.0702387,39.6072422 C45.7579161,39.207435 45.5762817,39.5782059 45.8243677,40.0427863 C45.9295828,40.2382228 46.2031419,40.592242 46.2640559,40.6670663 C46.9097441,41.4644471 47.4280667,41.6040446 48.3561742,41.9245604 C48.6906473,42.0395887 49.0439484,42.0675082 50.1448301,42.6057961 C50.6753355,42.8648891 50.7140989,41.7726783 50.9123462,41.3092147" id="Fill-51" fill="#F88667" mask="url(#mask-2)"></path>
                    <path d="M71.1398849,39.1655557 C70.5307452,39.286168 69.8917022,39.3051532 69.309143,39.2548981 C69.0953903,39.2370297 68.8772075,39.1890081 68.6678849,39.1164174 C68.6944656,39.884762 68.6944656,41.6671427 68.1584226,42.3986335 C68.1584226,42.3986335 68.3478097,43.258554 69.9049925,43.2808896 C71.4632828,43.3032252 71.6537774,42.3986335 71.6537774,42.3986335 C71.6537774,42.3986335 71.0822935,41.1154534 71.1398849,39.1655557" id="Fill-52" fill="#F88667" mask="url(#mask-2)"></path>
                    <path d="M77.1285043,43.5078192 C76.7043215,42.9617139 74.6919452,41.7600587 73.327472,41.5422867 C71.1179559,41.1882674 68.8530634,41.1882674 66.6424398,41.5422867 C65.2801817,41.7600587 63.9245688,42.1073773 63.500386,42.6534826 C62.9687731,43.3380687 64.5580742,47.1753243 64.8238806,50.6965313 C65.043171,53.6146771 65.4374505,55.8716892 65.4374505,55.8716892 C66.3101817,57.4887864 73.1380849,57.5334576 74.0119237,55.9152436 C74.0119237,55.9152436 74.1758376,53.4203574 74.6498591,50.6965313 C75.2656441,47.1485216 77.6656548,44.2002228 77.1285043,43.5078192" id="Fill-53" fill="#E5E6ED" mask="url(#mask-2)"></path>
                    <path d="M66.1614409,49.8846323 C66.2046344,48.937603 66.5158495,47.2400976 66.1691935,46.3712428 C65.6752366,45.1293836 64.5566344,44.6648032 63.5222043,44.097479 C63.8312043,45.68554 64.6408065,48.2563672 64.8235484,50.6965313 C65.0428387,53.6146771 65.4382258,55.8716892 65.4382258,55.8716892 C65.5988172,56.1698694 65.9775914,56.4088603 66.4715484,56.5987129 C65.5002473,54.7247563 66.0750538,51.7317862 66.1614409,49.8846323" id="Fill-54" fill="#ABADC4" mask="url(#mask-2)"></path>
                    <path d="M73.2359903,34.8909691 C73.2359903,34.8909691 70.010872,32.9768084 69.5213452,33.4480895 C69.0318183,33.9182538 68.2676247,35.5185994 67.8966032,35.7631742 C67.5244742,36.0066322 66.9452376,36.2389224 66.9972914,36.5259348 C67.0482376,36.814064 67.2365172,36.8330493 67.2210118,37.1234121 C67.206614,37.4137748 66.5531731,38.7996987 66.9097968,39.2106736 C67.2664204,39.6205319 69.6110548,40.5217732 71.0187215,39.5780942 C72.4274957,38.6344152 74.8252914,35.7475393 73.2359903,34.8909691" id="Fill-55" fill="#F88667" mask="url(#mask-2)"></path>
                    <path d="M73.9475763,35.5944288 L71.2308129,35.6379832 C71.2308129,35.6379832 70.718028,36.9926371 69.5595548,37.8626087 C69.5595548,37.8626087 69.6248989,38.266883 69.9139634,38.1842413 C70.205243,38.1015996 70.3846624,38.0669794 70.5795871,37.7598649 C70.7745118,37.4527505 71.3603935,36.6542528 71.7591032,37.3555906 C72.1578129,38.0569284 71.3050172,38.297036 70.947286,38.2914521 C70.947286,38.2914521 69.711286,39.8035721 70.6726194,40.0861174 C70.6726194,40.0861174 71.7469204,39.9253011 73.3805226,38.1764238 C75.0152323,36.4275465 74.6796516,35.4570648 73.9475763,35.5944288" id="Fill-56" fill="#424444" mask="url(#mask-2)"></path>
                    <path d="M68.8079871,32.3912807 C68.8079871,32.3912807 67.4878151,33.1998294 69.0162022,34.8202769 C70.5445892,36.4396078 74.1451591,35.5863879 74.1451591,35.5863879 C74.1451591,35.5863879 74.5283634,34.531031 73.2270194,33.4231853 C72.2546108,32.5956514 71.1880624,32.1735087 70.3319441,32.5699655 C68.8755462,33.2445005 68.8079871,32.3912807 68.8079871,32.3912807" id="Fill-57" fill="#424444" mask="url(#mask-2)"></path>
                    <path d="M50.5576054,40.7900237 L49.4024548,42.6449951 C49.4024548,42.6449951 52.3761645,45.5218201 55.7917774,47.8056349 C57.7797882,49.1357197 64.592186,47.0082541 65.6443366,46.6899718 C67.1472505,46.2354424 68.2780355,43.0269338 65.7694871,41.8353297 C64.2997989,41.1362255 58.4055409,45.6524833 56.9613258,44.8874891 C55.1516269,43.929292 50.5576054,40.7900237 50.5576054,40.7900237" id="Fill-58" fill="#E5E6ED" mask="url(#mask-2)"></path>
                    <path d="M77.6162591,24.8350364 L79.9088398,24.4486306 C79.9088398,24.4486306 81.4239366,31.1247407 81.3320118,33.5302845 C81.2423022,35.9347116 77.4512376,44.6735141 76.5862591,45.3558666 C75.5462914,46.1778165 72.6633989,43.8046593 74.7533022,41.2483502 C76.8443129,38.6909243 78.1966032,33.4219569 78.2519796,33.2075351 C78.3084634,32.9931134 77.6162591,24.8350364 77.6162591,24.8350364" id="Fill-59" fill="#E5E6ED" mask="url(#mask-2)"></path>
                    <polygon id="Fill-60" fill="#D0D1DE" mask="url(#mask-2)" points="30.2011505 22.703327 48.6968495 22.703327 48.6968495 21.0259237 30.2011505 21.0259237"></polygon>
                    <polygon id="Fill-61" fill="#D0D1DE" mask="url(#mask-2)" points="30.2011505 25.3545624 48.6968495 25.3545624 48.6968495 23.6771591 30.2011505 23.6771591"></polygon>
                    <polygon id="Fill-62" fill="#D0D1DE" mask="url(#mask-2)" points="30.2011505 28.0046811 44.2002903 28.0046811 44.2002903 26.3272777 30.2011505 26.3272777"></polygon>
                </g>
            </g>
        </g>
    </g>
</svg>