<?xml version="1.0" encoding="UTF-8"?>
<svg width="121px" height="86px" viewBox="0 0 121 86" version="1.1" xmlns="http://www.w3.org/2000/svg" xmlns:xlink="http://www.w3.org/1999/xlink">
    <title>2A3742E1-92FA-4F87-BA63-5FF3DF228403</title>
    <defs>
        <polygon id="path-1" points="0 0.780096364 28.9736307 0.780096364 28.9736307 47.4942787 0 47.4942787"></polygon>
        <polygon id="path-3" points="0 86 121 86 121 0 0 0"></polygon>
    </defs>
    <g id="Page-1" stroke="none" stroke-width="1" fill="none" fill-rule="evenodd">
        <g id="SERVICES" transform="translate(-873.000000, -809.000000)">
            <g id="Group-87-Copy" transform="translate(873.000000, 809.000000)">
                <path d="M98.4755071,72.5354326 C95.9117069,69.6979292 88.3392682,65.8397097 90.329382,61.4144256 C92.0215347,57.6510803 100.1432,58.1145465 99.1659321,53.5758496 C98.5877985,50.8921078 97.8373365,48.6020397 99.6039795,45.5497061 C101.528497,42.2247452 107.279815,44.0349896 109.274376,40.9477596 C110.986541,38.2967331 108.759615,34.1986017 112.29846,32.4276157 C115.440393,30.8551022 119.236063,33.9270651 119.803079,36.6500651 C120.511292,40.0546331 117.073621,41.6544092 116.63335,44.6173212 C116.352066,46.5039011 118.103144,47.1603873 119.107095,48.4820838 C120.067686,49.7470738 120.931551,51.5660422 120.994923,53.1320126 C121.186152,57.8397383 115.926248,58.4493327 113.433603,61.4416883 C111.123292,64.2137613 115.38258,66.0000144 114.74441,69.0141803 C114.055096,72.2671675 109.335525,74.0436061 106.012368,73.9945332 C103.707616,73.9618179 100.064263,74.2933326 98.4755071,72.5354326" id="Fill-1" fill="#00D8DF"></path>
                <path d="M101.177424,74.9961675 C101.155706,74.9917822 101.133989,74.9863005 101.114558,74.9764336 C101.003684,74.927099 100.967107,74.8108884 101.03226,74.7187971 C101.079124,74.6519212 105.907258,67.6880614 106.186156,58.9382873 C106.371326,53.1036429 108.898552,49.3706544 110.971998,46.3086172 C112.224752,44.459116 113.31634,42.8464211 113.483222,41.229341 C113.498081,41.0977819 113.623814,40.9947273 113.766692,41 C113.914142,41.0056906 114.012442,41.1197084 113.998726,41.2512675 C113.816985,42.9823655 112.692249,44.6389134 111.402918,46.5377492 C109.360334,49.5471628 106.867398,53.218757 106.676513,58.9328057 C106.379327,67.7900197 101.481468,74.8317186 101.433461,74.8996908 C101.379739,74.9753373 101.274581,75.0126123 101.177424,74.9961675" id="Fill-3" fill="#FFFFFF"></path>
                <path d="M106.182666,58.9860585 C106.066891,58.9624943 105.987797,58.8682375 106.001552,58.7582713 C106.015307,58.6382061 106.136814,58.5461935 106.272076,58.5551704 C108.322788,58.6752355 111.062419,57.5026364 111.891186,55.5456862 C111.990913,55.3111663 112.09064,55.049716 112.194952,54.7759225 C112.695881,53.4619381 113.325194,51.8124446 114.643426,51.2199734 C115.287641,50.9293483 116.033875,50.9293483 116.851179,51.2042639 C116.977271,51.248026 117.034585,51.3793122 116.978417,51.4960111 C116.922249,51.6149542 116.783548,51.6688152 116.649432,51.6329078 C115.947903,51.3972659 115.359857,51.3927775 114.840588,51.6261752 C113.724102,52.1300001 113.133763,53.6717717 112.662638,54.899354 C112.556034,55.1776359 112.454014,55.4435746 112.351994,55.6825829 C111.409744,57.9009835 108.442002,59.120711 106.219347,58.9905469 C106.206738,58.9894248 106.194129,58.9883027 106.182666,58.9860585" id="Fill-5" fill="#FFFFFF"></path>
                <path d="M105.711799,57.8543582 C104.872852,57.6560104 104.236827,57.2699215 103.814829,56.6992736 C103.144479,55.7945104 103.038474,54.4294104 103.519027,52.7450446 C103.566476,52.5774566 103.62705,52.3854728 103.692672,52.1733361 C104.069239,50.96946 104.64469,49.1302344 104.078325,48.1098566 C103.890546,47.7714985 103.590706,47.551937 103.16366,47.4395045 C103.043522,47.4066233 102.973862,47.2846447 103.009197,47.1669088 C103.043522,47.0481122 103.166689,46.9770464 103.286827,47.0067455 C103.286827,47.0067455 103.288846,47.0078062 103.288846,47.0078062 C103.830982,47.1520592 104.230769,47.44799 104.475084,47.8902951 C105.128271,49.0729575 104.517485,51.0161301 104.116689,52.2878899 C104.052076,52.4957839 103.992512,52.6845856 103.945063,52.8489916 C103.499845,54.4060754 103.58162,55.6491967 104.174234,56.453195 C104.681035,57.1362753 105.567432,57.5170608 106.804147,57.5870659 C106.928324,57.59343 107.010098,57.6920736 106.998993,57.8045061 C106.985869,57.9190599 106.880874,58.006036 106.761746,57.9996719 C106.38215,57.9784582 106.031831,57.9296668 105.711799,57.8543582" id="Fill-7" fill="#FFFFFF"></path>
                <path d="M103.843559,71.9497965 C103.572377,71.9003826 103.317598,71.8114377 103.091249,71.6741771 C102.991743,71.6137824 102.969874,71.4929931 103.04423,71.4040482 C103.117493,71.3151033 103.25527,71.2887492 103.35915,71.3513401 C104.529166,72.0618011 106.91075,71.1394097 107.9244,70.421262 C108.34648,70.1225829 108.725915,69.6020906 109.128313,69.0497538 C109.848912,68.0625753 110.597941,67.0336696 111.781079,67.000727 C111.911202,66.9908443 112.005241,67.0830834 111.999773,67.19399 C111.996493,67.3048966 111.89152,67.3971358 111.767957,67.3993319 C110.835225,67.4267841 110.156178,68.3568621 109.503375,69.2485072 C109.079107,69.8293942 108.678896,70.3773386 108.194487,70.7199412 C107.285811,71.363419 105.301158,72.2166311 103.843559,71.9497965" id="Fill-9" fill="#FFFFFF"></path>
                <path d="M102.591793,71.9566864 C102.305496,71.9031604 102.025989,71.8040804 101.753272,71.6583076 C100.226734,70.8417519 99.3214484,68.7508226 99.0849426,67.5311139 C98.9593342,66.8774138 99.1539706,66.0118875 99.3610547,65.0928353 C99.6914839,63.6225795 100.037756,62.0874092 99.0860742,61.3881551 C98.9842295,61.3129909 98.9706502,61.17519 99.0566524,61.0806655 C99.1426545,60.9861409 99.2965531,60.9736135 99.3995293,61.0487777 C100.568479,61.9108874 100.17468,63.648773 99.8306716,65.1668606 C99.6303772,66.0483307 99.443662,66.8739972 99.5545595,67.4525332 C99.76617,68.5560792 100.619402,70.5650113 102.007884,71.3109582 C102.546529,71.6002262 103.119122,71.6685573 103.708689,71.5148125 C103.832034,71.4840635 103.958774,71.5432837 103.992722,71.6503356 C104.024407,71.7585264 103.949721,71.8712726 103.825245,71.9031604 C103.403155,72.0113512 102.990119,72.028434 102.591793,71.9566864" id="Fill-11" fill="#FFFFFF"></path>
                <g id="Group-15" transform="translate(0.000000, 28.000000)">
                    <mask id="mask-2" fill="white">
                        <use xlink:href="#path-1"></use>
                    </mask>
                    <g id="Clip-14"></g>
                    <path d="M22.0541654,44.7189818 C18.21055,47.2608 15.1064346,49.1382545 10.9638962,45.3364364 C8.87366538,43.4186182 8.12189615,41.2706182 8.53793462,38.2826182 C8.87366538,35.8728 9.20047308,34.7786182 7.69805,32.7888 C5.33789615,29.6611636 1.66939615,28.4404364 0.310857692,24.4695273 C-1.17818077,20.1200727 3.22535769,17.1997091 2.03189615,13.0597091 C0.976742308,9.40516364 -1.30310385,6.00370909 1.39055,2.46698182 C3.68155,-0.539563636 7.92112692,0.792436364 9.26851154,3.9528 C10.0370115,5.7528 9.98681923,7.81352727 11.0241269,9.50116364 C12.0246269,11.1277091 13.6028962,11.4920727 15.2904731,12.0277091 C19.0894731,13.2364364 22.4055115,15.4138909 21.9716269,20.1222545 C21.7106269,22.9498909 21.6381269,25.2440727 24.46005,26.4768 C27.4872038,27.7989818 29.1714346,28.6520727 28.95505,32.8073455 C28.7933192,35.9306182 27.2384731,37.5833455 25.5442038,39.8666182 C23.9659346,41.9960727 22.3887808,45.2928 19.8010885,46.2571636 L22.0541654,44.7189818 Z" id="Fill-13" fill="#C2C3D4" mask="url(#mask-2)"></path>
                </g>
                <path d="M22.0328312,70.9769472 C21.3684171,70.9151485 20.7712032,70.7330051 20.2487765,70.4326853 C18.0181663,69.149008 17.4101136,65.8845213 16.8638417,62.9528799 C16.5907058,61.4848908 16.3305763,60.0895422 15.9056981,59.1647308 C14.7578768,56.6667642 13.3455905,54.977601 10.7193667,52.9588449 C7.67368409,50.621338 7.0634637,48.8660394 6.8640311,45.0269335 C6.69386307,41.8144877 6.35244313,38.5142228 5.05179575,36.5800333 C4.95099558,36.4314997 5.0019376,36.2103256 5.16451852,36.0834757 C5.32601557,35.95771 5.54062239,35.9761412 5.64142256,36.1246748 C7.02877977,38.1857141 7.37887069,41.6019871 7.54687097,44.9163465 C7.73221323,48.6329392 8.28173674,50.2223572 11.185432,52.4492771 C13.4257971,54.1677133 15.2055163,55.9284329 16.5625251,58.8904315 C17.0177516,59.87921 17.2811327,61.3125051 17.559688,62.8173565 C18.079947,65.644916 18.6609028,68.7977315 20.6628159,69.9458854 C21.4432044,70.3936546 22.3959286,70.5183361 23.5795177,70.3220983 C23.7767825,70.2928252 23.9642925,70.3914862 23.9957248,70.5530301 C24.0260733,70.7145739 23.891673,70.8706969 23.6933243,70.9032225 C23.099362,71 22.545503,71.0235672 22.0328312,70.9769472" id="Fill-16" fill="#FFFFFF"></path>
                <path d="M13.3807271,56 C13.2881073,55.9976402 13.1995144,55.973804 13.1283716,55.9249965 C12.9592397,55.8069504 12.956555,55.5969645 13.1243446,55.4550822 C14.5955238,54.2042475 14.1391361,52.1395757 13.6518751,49.9284813 C13.2223338,47.9841257 12.7739999,45.9523706 13.6760368,44.2622682 C13.7780529,44.0693082 14.0492009,43.9580725 14.2733678,44.0148254 C14.5002193,44.0704433 14.6022354,44.2713487 14.498877,44.4631736 C13.7015408,45.9466953 14.1243706,47.8808354 14.528408,49.7332512 C15.0277498,52.0226646 15.5405149,54.3608856 13.7418104,55.8795941 C13.6424789,55.9613184 13.5082472,56.0021805 13.3807271,56" id="Fill-18" fill="#FFFFFF"></path>
                <path d="M16.5901812,59.999587 C16.5468871,59.9974563 16.5024829,59.9878681 16.4614091,59.9729531 C15.9829538,59.7801234 15.6210595,59.5606597 15.2713765,59.3475882 C14.7085532,59.0045431 14.2223272,58.709439 13.375317,58.6263411 C12.9290548,58.5826615 12.5005543,58.5943804 12.0875952,58.6039686 C11.2206031,58.623145 10.3358494,58.6487136 9.35784688,58.1511916 C7.97132568,57.4437942 6.57481353,56.1877376 5.19939338,54.4107212 C5.00845532,54.1646236 4.77644336,53.7778988 4.53000004,53.3688015 C4.17476643,52.7807241 3.51425393,51.6834058 3.23339735,51.6120268 C3.06466138,51.5694125 2.96142161,51.4074781 3.01359655,51.2444784 C3.06355128,51.0836094 3.23339735,50.9728123 3.40213332,51.0058383 C3.91167153,51.0910669 4.39234702,51.8336212 5.11946582,53.0438674 C5.35813841,53.4401804 5.58459984,53.8141209 5.75444591,54.0357153 C6.66806236,55.2161315 8.09676755,56.7928607 9.72973207,57.6227743 C10.5523199,58.0414598 11.2727781,58.021218 12.117568,57.9956494 C12.5527292,57.9828651 13.0078723,57.9732769 13.5063094,58.0190873 C14.5287162,58.1149695 15.1326133,58.4825178 15.7176387,58.8383473 C16.0451197,59.0375691 16.3848118,59.2431832 16.8133124,59.4136404 C16.9875989,59.4828886 17.0519849,59.6661301 16.9542957,59.820607 C16.8810288,59.9377963 16.7333848,60.0059792 16.5901812,59.999587" id="Fill-20" fill="#FFFFFF"></path>
                <path d="M43.0184222,10.3052449 C43.4128739,10.9319107 43.7997399,12.145794 44.4542696,12.5436592 C45.2886866,13.053107 46.5771565,13.0125315 47.4917642,12.9866083 C46.9401821,11.7389121 46.7982228,8.88059446 48,7.77829374 C47.2089293,7.27560854 47.1731686,8.90539059 46.5782401,8.23364087 C46.3604248,7.98793375 44.6937581,5.30431615 44.5344603,5 C44.0739055,5.56918391 44.2613784,7.52356985 43.8138275,9.10826802 C43.5819246,9.93330292 43.0184222,10.3052449 43,10.2770675 C43.006502,10.2860842 43.0130039,10.2962281 43.0184222,10.3052449" id="Fill-22" fill="#E45940"></path>
                <path d="M46.5177272,2 C46.5177272,2 50.7110667,2.46952228 50.9244517,3.62071336 C51.1378368,4.77298134 50.4157763,6.18585571 50.3931445,6.93213768 C50.3694351,7.67841965 51.0095902,8.74453674 50.9998909,9.04283415 C50.9912693,9.34113156 50.065523,9.52958661 49.8812359,9.68896573 C49.6969488,9.84726796 48.4317264,11.7985853 47.5889632,11.990271 C46.7451224,12.1841105 43.6413399,9.44020507 43.4710629,7.44042785 C43.4387318,7.05705645 42.9149685,6.30862071 43.0119617,5.8574055 C43.4182555,3.95347112 45.5251634,2.09691974 46.5177272,2" id="Fill-24" fill="#F88667"></path>
                <path d="M45.774967,0.0487341944 C43.9733157,-0.230836614 45.0726474,0.748770623 43.0719309,1.55087259 C41.6203211,2.13331177 41.9233922,3.66207595 42.3640195,4.34990889 C42.5407178,4.62726089 42.4557237,4.90128465 42.1884396,5.37389245 C42.0363449,6.35793732 43.7407003,8.54236161 44.2707951,7.87560742 C44.3982862,7.71474326 43.9162802,6.69963497 43.9487122,6.26141882 C43.8413512,5.54363187 44.4832804,4.81364142 45.1028426,5.45598864 C45.3086178,5.66788556 45.5121563,5.95633163 45.5032096,6.24810593 C45.478606,7.09680303 45.7514818,7.32090344 46.1227719,7.04022322 C46.6797069,6.6197576 46.0422511,4.91681637 46.4694583,4.55403996 C47.4357071,3.73196865 47.718648,2.74126734 47.718648,2.74126734 C48.5048434,1.87925734 47.5755,0.328305003 45.774967,0.0487341944" id="Fill-26" fill="#424444"></path>
                <mask id="mask-4" fill="white">
                    <use xlink:href="#path-3"></use>
                </mask>
                <g id="Clip-29"></g>
                <polygon id="Fill-28" fill="#E5E6ED" mask="url(#mask-4)" points="20 81 100 81 100 31 20 31"></polygon>
                <polygon id="Fill-30" fill="#424444" mask="url(#mask-4)" points="25 72 29 72 29 41 25 41"></polygon>
                <polygon id="Fill-31" fill="#424444" mask="url(#mask-4)" points="30 72 32 72 32 41 30 41"></polygon>
                <polygon id="Fill-32" fill="#424444" mask="url(#mask-4)" points="35 72 39 72 39 41 35 41"></polygon>
                <polygon id="Fill-33" fill="#424444" mask="url(#mask-4)" points="41 72 42 72 42 41 41 41"></polygon>
                <polygon id="Fill-34" fill="#424444" mask="url(#mask-4)" points="48 72 49 72 49 41 48 41"></polygon>
                <polygon id="Fill-35" fill="#424444" mask="url(#mask-4)" points="33 72 34 72 34 41 33 41"></polygon>
                <polygon id="Fill-36" fill="#424444" mask="url(#mask-4)" points="44 72 46 72 46 41 44 41"></polygon>
                <polygon id="Fill-37" fill="#424444" mask="url(#mask-4)" points="51 72 54 72 54 41 51 41"></polygon>
                <polygon id="Fill-38" fill="#424444" mask="url(#mask-4)" points="55 72 57 72 57 41 55 41"></polygon>
                <polygon id="Fill-39" fill="#424444" mask="url(#mask-4)" points="59.081 72 59.919 72 59.919 41 59.081 41"></polygon>
                <polygon id="Fill-40" fill="#424444" mask="url(#mask-4)" points="66.209 72 66.791 72 66.791 41 66.209 41"></polygon>
                <polygon id="Fill-41" fill="#424444" mask="url(#mask-4)" points="61 72 63 72 63 41 61 41"></polygon>
                <polygon id="Fill-42" fill="#424444" mask="url(#mask-4)" points="71.145 72 71.855 72 71.855 41 71.145 41"></polygon>
                <polygon id="Fill-43" fill="#424444" mask="url(#mask-4)" points="80.008 72 80.992 72 80.992 41 80.008 41"></polygon>
                <polygon id="Fill-44" fill="#424444" mask="url(#mask-4)" points="91.008 72 91.992 72 91.992 41 91.008 41"></polygon>
                <polygon id="Fill-45" fill="#424444" mask="url(#mask-4)" points="72.226 72 72.774 72 72.774 41 72.226 41"></polygon>
                <polygon id="Fill-46" fill="#424444" mask="url(#mask-4)" points="78.286 72 78.714 72 78.714 41 78.286 41"></polygon>
                <polygon id="Fill-47" fill="#424444" mask="url(#mask-4)" points="89.1785 72 89.8215 72 89.8215 41 89.1785 41"></polygon>
                <polygon id="Fill-48" fill="#424444" mask="url(#mask-4)" points="64 72 66 72 66 41 64 41"></polygon>
                <polygon id="Fill-49" fill="#424444" mask="url(#mask-4)" points="68 72 70 72 70 41 68 41"></polygon>
                <polygon id="Fill-50" fill="#424444" mask="url(#mask-4)" points="77 72 78 72 78 41 77 41"></polygon>
                <polygon id="Fill-51" fill="#424444" mask="url(#mask-4)" points="74 72 76 72 76 41 74 41"></polygon>
                <polygon id="Fill-52" fill="#424444" mask="url(#mask-4)" points="82 72 85 72 85 41 82 41"></polygon>
                <polygon id="Fill-53" fill="#424444" mask="url(#mask-4)" points="86 72 88 72 88 41 86 41"></polygon>
                <polygon id="Fill-54" fill="#424444" mask="url(#mask-4)" points="93 72 95 72 95 41 93 41"></polygon>
                <path d="M51.3591837,15 C51.3591837,15 51.6704762,15.2814884 51.9817687,16.6357359 C53.0353741,21.2138016 54.0639456,27.5029624 54.5232653,28.8317207 C55.0783673,30.4397511 59,38.7159541 59,38.7159541 L55.8043537,41 C55.8043537,41 51.152381,31.9103619 50.5580952,30.3688249 C49.9638095,28.8295043 47,21.0586505 47,21.0586505 L51.3591837,15 Z" id="Fill-55" fill="#00D8DF" mask="url(#mask-4)"></path>
                <path d="M52.9245411,30.778856 C51.3145253,28.004239 50.0432812,23.2154239 49.4722411,20 L47,21.7010215 C47,21.7010215 50.0852028,29.2215526 50.7038296,30.7123596 C51.3224564,32.2031665 56.1661002,41 56.1661002,41 L57,40.4497957 C55.6222524,36.939428 54.8302742,34.0639939 52.9245411,30.778856" id="Fill-56" fill="#00A7CC" mask="url(#mask-4)"></path>
                <path d="M36.6034653,19.9909394 C35.4859208,22.6224766 33.6393967,29.8305516 33,31 L48.8247894,31 C49.7116584,27.7208711 50.7743336,23.7129232 51.1617789,21.8647274 C52.0531271,17.6142108 51.9993774,14.9915753 51.9993774,14.9915753 C51.9993774,14.9915753 49.6388725,12.9531076 47.8136243,11.7235734 C47.8136243,11.7235734 45.8349658,13.5817835 43.556205,10 C43.556205,10 38.3324121,11.4097918 37.1980707,11.8137021 C36.7411988,11.9772691 37.8486653,17.0600858 36.6034653,19.9909394" id="Fill-57" fill="#00D8DF" mask="url(#mask-4)"></path>
                <path d="M38.9040616,16 C38.0645041,17.4015905 37.0348357,18.9434504 36.3287099,20.2113983 C35.1904069,22.9052353 33.6612549,29.8634858 33,31 L40.2005936,31 C40.1616268,30.4665341 39.914837,29.5895737 39.914837,28.9942567 C39.914837,27.3088138 40.028195,25.6885355 40.7543945,24.1124365 C41.4109262,22.6876519 40.5760919,17.9394743 40.2808888,17.6136514 C39.7967557,17.0790811 39.3433238,16.5423017 38.9040616,16" id="Fill-58" fill="#00A7CC" mask="url(#mask-4)"></path>
                <path d="M94.9777218,29 C84.2919895,33.989648 86.8250194,33.1723875 85.0906625,33.624605 C83.3563057,34.0757328 73.1295041,34.7066579 73.1295041,34.7066579 L72,39 C72,39 84.4568481,38.3331154 86.1555599,37.9506375 C87.8531577,37.5681595 95,34.9158766 95,34.9158766 L94.9777218,29 Z" id="Fill-59" fill="#FF5D12" mask="url(#mask-4)"></path>
                <path d="M77.7711643,35.7584113 C78.0841728,36.3133104 78.6455831,36.7188577 79.4464839,36.6935828 C81.1674738,36.6395864 82.8539326,36.593632 84.4969489,36.340883 C85.4504552,36.2604628 86.4106451,36.0754965 87.3630376,35.7790908 C89.0272181,35.2563598 90.7069934,34.6738881 92.2787195,33.9030034 C93.1163793,33.4917118 94.0943917,33.3136386 94.9899748,33 L95,35.6940752 C95,35.6940752 87.8531577,38.4915477 86.154446,38.8936484 C84.4557342,39.2980469 72,40 72,40 L73.1172511,35.5205974 C74.6366234,35.671098 76.2027799,35.7503693 77.7711643,35.7584113" id="Fill-60" fill="#D64C1D" mask="url(#mask-4)"></path>
                <path d="M96.5359094,80.1493684 C96.5359094,80.1493684 96.9952953,81.4068171 96.9998102,82.3782413 C97.004325,83.3496655 96.92983,84.3835914 96.6115331,84.6283013 C95.976068,85.1156024 87.9430214,85.1791634 87.2894969,84.4831703 C86.6359724,83.7871772 87.0716554,82.6589691 88.7726251,82.2691282 C90.5966244,81.8517442 90.8517134,82.0297151 91.999614,81.6208059 C93.1486433,81.2118967 92.8698513,80 92.8698513,80 L96.5359094,80.1493684 Z" id="Fill-61" fill="#424444" mask="url(#mask-4)"></path>
                <path d="M114.250404,79 C114.250404,79 115.114873,79.9946437 115.471212,80.8768225 C115.826473,81.7610648 116.134367,82.7247549 115.939511,83.0507999 C115.550876,83.7028899 108.414425,86.3762528 107.579022,85.9552833 C106.744695,85.5353455 106.724241,84.3673614 108.100072,83.4583562 C109.574946,82.4843482 109.865615,82.5637959 110.74085,81.8167814 C111.616085,81.0707986 110.930323,80.0586145 110.930323,80.0586145 L114.250404,79 Z" id="Fill-62" fill="#424444" mask="url(#mask-4)"></path>
                <path d="M97.1019981,47 L108,48.1624398 C108,48.1624398 98.2542999,63.1278973 97.5167813,65.5324559 C96.7792627,67.935923 97.7883791,81 97.7883791,81 L92.8530274,81 C92.8530274,81 91.7939099,65.5706581 92.0359614,64.4071268 C92.278013,63.244687 97.1019981,47 97.1019981,47" id="Fill-63" fill="#424444" mask="url(#mask-4)"></path>
                <path d="M97,48 L109.227089,48 C109.227089,48 110.655519,51.6800691 110.001055,54.4850801 C109.346591,57.290091 108.909909,63.2488204 108.969101,64.3004253 C109.02941,65.3520303 115,79.3737954 115,79.3737954 L110.547186,81 C110.547186,81 104.407954,67.6306905 103.812682,66.1119492 C103.21741,64.5932079 97,48 97,48" id="Fill-64" fill="#424444" mask="url(#mask-4)"></path>
                <path d="M97.3337872,23.5832073 C98.377164,23.6510997 99.450885,23.5487046 100.419568,23.3505922 C100.773196,23.2782477 101.130325,23.1569317 101.467613,23 C101.576152,24.2242901 101.936783,27.081338 103,28.1553743 C103,28.1553743 102.854114,29.5989236 100.20249,29.9550807 C97.5485314,30.3112378 97,28.432509 97,28.432509 C97,28.432509 97.5123517,25.3873657 97.3337872,23.5832073" id="Fill-65" fill="#F88667" mask="url(#mask-4)"></path>
                <path d="M102.992909,27.4779043 C102.988857,27.5036826 102.980754,27.5423502 102.968598,27.5880482 L102.964546,27.6009374 C102.951378,27.6489789 102.933144,27.7052226 102.908833,27.7673251 C102.908833,27.7708403 102.90782,27.7731838 102.906807,27.7755273 C102.881483,27.8388015 102.849068,27.9091061 102.809562,27.982926 C102.804498,27.9911282 102.79842,28.0016739 102.792342,28.0122196 C102.708266,28.1622029 102.587723,28.3285906 102.419571,28.491463 C102.409441,28.500837 102.401337,28.5102109 102.391207,28.5195849 C102.307131,28.5992635 102.209887,28.6777703 102.099473,28.7539337 C102.085292,28.7633077 102.070097,28.7726816 102.054903,28.7820556 C101.939425,28.8593907 101.812804,28.9320388 101.666937,29 C101.523096,28.3332775 101.229335,27.7040509 100.784643,27.2025444 C99.9975689,26.3143622 99.0352512,25.8726147 98,25.8304319 C98.089141,24.8004687 98.1590357,23.5490459 98.0820502,22.6151657 C98.9876418,22.6854704 99.9195705,22.5776699 100.759319,22.3702712 C101.067261,22.2929361 101.377229,22.1663877 101.669976,22 C101.764182,23.2900904 102.077188,26.2967861 103,27.428691 C103,27.428691 102.997974,27.4462672 102.994935,27.4614998 C102.993922,27.4661868 102.993922,27.4720455 102.992909,27.4779043" id="Fill-66" fill="#E45940" mask="url(#mask-4)"></path>
                <path d="M101.749837,15.4691468 C101.749837,15.4691468 97.5904211,14.4135665 96.983271,15.4691468 C96.3750288,16.5247271 96.5672202,18.1751275 96.3269809,18.9186525 C96.0867416,19.6610511 95.1039446,20.4778021 95.0078489,20.7752121 C94.9117532,21.0726222 95.7274747,21.5919632 95.8475944,21.8150207 C95.967714,22.0369517 96.4875044,24.4128523 97.2224182,24.9085357 C97.958424,25.4030925 101.717077,23.8191588 102.580846,21.9141574 C103.444616,20.0069029 102.877869,16.0301703 101.749837,15.4691468" id="Fill-67" fill="#F88667" mask="url(#mask-4)"></path>
                <path d="M97.4494443,27.2893436 C97.4494443,27.2893436 100.323732,28.7167001 102.65627,27 C102.65627,27 107.09884,27.777678 107.64274,27.9992571 C108.095274,28.1831893 106.907507,34.5121763 107.42346,37.6917286 C107.938338,40.8734321 110,48.5813724 110,48.5813724 C110,48.5813724 104.559921,52.7644843 95.2243972,50.1281235 C95.2243972,50.1281235 94.9201999,39.3202272 95.0201658,36.3170777 C95.1652775,31.923143 95.1953748,29.3255047 95.1953748,29.3255047 C95.1953748,29.3255047 96.2627525,28.2283656 97.4494443,27.2893436" id="Fill-68" fill="#FF5D12" mask="url(#mask-4)"></path>
                <path d="M103.986069,44.7974892 C104.41074,43.1281503 104.709583,41.500706 104.402876,39.7744334 C104.071453,37.9052894 105.472419,35.4421014 105.735311,33.5407308 C106.016178,31.5072311 106.234131,30.1257833 107.631727,29 C107.537355,30.9185581 106.88799,35.2573354 107.305921,37.718375 C107.845186,40.8959197 110,48.5937851 110,48.5937851 C110,48.5937851 106.388046,51.2288484 100,50.9839261 C102.517695,49.5272829 103.281654,47.5646817 103.986069,44.7974892" id="Fill-69" fill="#D64C1D" mask="url(#mask-4)"></path>
                <path d="M100.074124,16.9197117 C100.074124,16.9197117 100.000243,17.9424864 100.57077,19.04139 C100.823197,19.525746 99.7283192,20.9004788 100.074124,21.4852367 C100.305003,21.8725009 100.611815,21.7566526 100.86219,20.9545413 C100.947358,20.6798154 101.215178,20.4801151 101.460422,20.351027 C102.385989,19.8655676 102.671252,21.4013846 101.84522,21.9022904 C101.266484,22.2531452 101.687196,23.847438 101.687196,23.847438 C102.344944,24.3439306 104.420799,23.6058116 104.120144,21.9651795 C103.928258,20.9225451 103.846168,20.5264544 104.178633,20.2528318 C104.777891,19.7585459 105.529016,18.4334624 104.463896,17.3930346 C102.994482,15.9598261 104.255592,15.4203042 102.612763,15.0661395 C100.968907,14.7119748 99.670856,15.8450811 100.074124,16.9197117" id="Fill-70" fill="#424444" mask="url(#mask-4)"></path>
                <path d="M103,15.6782824 C102.88704,15.344624 102.185388,14.9377949 101.838906,14.7270633 C101.303434,14.4012098 100.691931,14.2070635 100.041327,14.086088 C99.3983266,13.966088 98.7151383,13.9699905 98.0764821,14.1075514 C97.5236318,14.2265757 97.0674488,14.4685268 96.4993923,14.550478 C95.9747819,14.6255999 95.4479991,14.6255999 95.0635021,14.3602342 C94.9635763,14.6802341 94.9983331,15.3085265 95.0537267,15.5231605 C95.1688586,15.9768189 95.5262019,16.3719407 95.8509608,16.768038 C96.736173,17.8441352 99.0192603,18.3651105 100.577886,17.7134035 C101.330587,17.3992573 102.006173,17.1251111 102.352655,16.5114528 C102.55142,16.156331 102.707826,15.9826725 103,15.6782824" id="Fill-71" fill="#424444" mask="url(#mask-4)"></path>
                <path d="M35.9276359,54.8412557 C35.5860234,54.7692718 35.242221,54.6574198 34.8951338,54.4879807 C34.7527953,54.4182116 34.6126465,54.3539798 34.4735927,54.2908554 C33.88453,54.0206387 33.3283147,53.7648188 32.8553127,53.2321376 C31.9695288,52.2343293 31.7899633,51.2154795 32.2323077,49.7126761 C32.6231913,48.3859565 33.5910936,47.2973377 34.955354,46.6483747 C35.578359,46.3515793 36.1115811,46.2829177 36.7280166,46.2042891 L36.9174364,46.1810327 C37.7309561,46.0736105 38.391188,45.5110283 39.0295218,44.96838 L39.1357282,44.8775695 C39.4017919,44.6516507 39.6393878,44.421302 39.8923125,44.1765566 C40.0642137,44.0082249 40.2393996,43.8387857 40.4222499,43.6726689 C42.8759478,41.4367367 46.3873308,41.8487064 48.9012488,42.5884799 L48.7589103,43.0846154 C46.3709071,42.3847099 43.0445643,41.9815998 40.7638625,44.0569525 C40.5842969,44.2197469 40.4145855,44.3847563 40.2448741,44.5497657 C39.9985189,44.7889739 39.7434044,45.0359342 39.4631069,45.274035 L39.3579954,45.363738 C38.6955736,45.9274277 37.9466537,46.5664237 36.9831311,46.69378 L36.7926164,46.7170363 C36.1947945,46.79345 35.7228874,46.8532521 35.1743364,47.1146092 C33.9425604,47.7015553 33.0721053,48.6772147 32.7217334,49.8610738 C32.3275651,51.1999753 32.4666189,52.0194849 33.2363421,52.8866146 C33.6370799,53.3395598 34.1232208,53.5621563 34.6849107,53.8201911 C34.8272493,53.8855304 34.9717777,53.9508696 35.1184959,54.0228536 C36.0973473,54.5023774 37.0586801,54.461402 38.0769483,54.4171042 C38.6703906,54.3927404 39.2835414,54.3650542 39.9185903,54.4447903 C41.2850406,54.6142294 42.5179116,54.227731 43.7967688,53.2277078 L43.8887415,53.1568313 C45.5409637,51.8644425 46.8460989,50.8467002 48.9220522,50.2464648 L49.2253428,50.1578692 C50.7516502,49.7215357 51.7600642,49.4324924 52.6370888,48.0636899 C53.4856456,46.7391852 53.7330957,45.0835544 53.2381955,44.0392333 C52.9042473,43.3348981 52.2615339,42.9295731 51.3374282,42.8321179 L51.3899839,42.3182632 C52.7794273,42.464446 53.4133814,43.2119716 53.6980585,43.8155294 C54.3604803,45.2153404 53.8349226,47.1445102 53.0662943,48.344981 C52.0852531,49.876578 50.8841346,50.2198861 49.3633017,50.6562196 L49.0632958,50.7426003 C47.0804101,51.3151496 45.8103121,52.3085281 44.2018863,53.5654786 L44.1099137,53.6374626 C42.7171856,54.7260814 41.3649692,55.1446958 39.8550855,54.9564301 C39.2638329,54.8833387 38.6714855,54.9099174 38.0988465,54.9342812 C37.3904384,54.9641822 36.6656066,54.9962981 35.9276359,54.8412557" id="Fill-72" fill="#FFFFFF" mask="url(#mask-4)"></path>
                <path d="M56.741729,46.1272487 C53.0594209,47.504173 50.3260364,43.4091221 53.0737318,40.6347062 C53.2663787,40.4409409 53.5041601,40.2872277 53.7606557,40.1919687 C57.4429638,38.8150444 60.1774491,42.9090128 57.4286529,45.6845112 C57.236006,45.8782765 56.9982246,46.0309073 56.741729,46.1272487 M97.6434206,40.8143992 L59.869214,33.1124993 C58.7639712,32.8862594 57.6146947,33.0031681 56.5799056,33.4459055 L49.7701125,36.3599624 C48.1419709,37.0560019 46.9585684,38.4859682 46.5985939,40.1962987 L46.1142245,42.4955025 C45.7531491,44.2047506 46.2595353,45.9800303 47.4715596,47.2552008 L52.5420263,52.5918651 C53.312614,53.4037308 54.3198821,53.959047 55.4262258,54.1842044 L93.2004324,61.8871867 C96.1550856,62.4890499 99.0480918,60.6228411 99.6601586,57.7163617 L101.884955,47.1664368 C102.498123,44.2599574 100.599175,41.4162623 97.6434206,40.8143992" id="Fill-73" fill="#00D8DF" mask="url(#mask-4)"></path>
                <path d="M65.3455155,43.7442035 L65.7793319,43.8329488 C66.222765,43.923807 66.5550726,43.8921123 66.7783919,43.7378646 C67.0017112,43.5857299 67.1812215,43.2951949 67.3179912,42.8704856 C67.34043,42.7986442 67.3575262,42.7310288 67.3714169,42.6655264 C67.4333906,42.3686525 67.3970612,42.1415069 67.263497,41.9862028 C67.1000145,41.792865 66.7880085,41.6512952 66.3274793,41.5572675 L66.0710361,41.504443 L65.3455155,43.7442035 Z M64.1135195,47.5623614 L64.6114468,47.664841 C65.0602224,47.7567558 65.4042837,47.7187221 65.6436307,47.55074 C65.8819092,47.3817015 66.0753101,47.0679237 66.222765,46.6094067 C66.2612314,46.4921362 66.2922183,46.3790917 66.3146571,46.2723861 C66.383042,45.944874 66.3723568,45.6860337 66.2815332,45.4948089 C66.1639967,45.2444205 65.8754981,45.0722125 65.4192429,44.9781848 L64.9747413,44.8873266 L64.1135195,47.5623614 Z M62,48.3864243 L64.7065444,40 L66.8927229,40.4479521 C67.2143454,40.5134545 67.4942959,40.5926914 67.7357799,40.6803801 C67.977264,40.7701818 68.1963092,40.8863958 68.3961212,41.0321916 C68.5948647,41.1758743 68.7444566,41.3449128 68.8438283,41.5361377 C68.9432001,41.7273625 68.9955572,41.9597905 68.9998313,42.2334216 C69.0019683,42.3961212 68.9838036,42.5693857 68.9453371,42.7511021 C68.9175558,42.8831635 68.8812263,43.0162814 68.8342117,43.1536252 C68.4944244,44.1625739 67.8864403,44.6464467 67.0091908,44.6020741 C67.8661386,44.9327557 68.1909666,45.598345 67.981538,46.5977853 C67.9558937,46.7182253 67.9217013,46.8428912 67.8810978,46.9717831 C67.621449,47.79162 67.2100713,48.362125 66.6458963,48.6832982 C66.0827897,49.0044714 65.3914615,49.0815953 64.5719118,48.9136132 L62,48.3864243 Z" id="Fill-74" fill="#FFFFFF" mask="url(#mask-4)"></path>
                <path d="M72.2232532,45.1579949 L72.6435864,45.2508672 C73.0681124,45.3448585 73.3993475,45.3101712 73.63834,45.1445675 C73.8773324,44.9812017 74.0660106,44.6690164 74.2054229,44.2091306 C74.2379175,44.0983552 74.2630746,43.9931744 74.2819424,43.8947074 C74.3427387,43.5993063 74.3374977,43.3632091 74.2641228,43.187535 C74.1676872,42.9536757 73.9171645,42.7903099 73.5146509,42.6974376 L72.9957858,42.5821864 L72.2232532,45.1579949 Z M69,49.8810563 L71.6561703,41 L73.7746076,41.4688374 C74.1341445,41.5482824 74.4444153,41.6400358 74.7054202,41.7463355 C74.9664251,41.8515162 75.1970318,41.9857894 75.3972404,42.1491552 C75.597449,42.3102831 75.7473434,42.4960277 75.8458753,42.7041513 C75.9475519,42.9178695 75.9978661,43.1685129 76,43.4572004 C76.0010108,43.6339935 75.9800465,43.8219761 75.9370698,44.021148 C75.9119127,44.1554213 75.8773217,44.2952892 75.8353932,44.438514 C75.6708239,44.9946291 75.4475546,45.4354929 75.1676819,45.7577487 C74.886761,46.0800045 74.5293205,46.289247 74.0932642,46.3832382 L74.0523839,51 L72.3658101,50.6262728 L72.5157045,46.3765246 L71.9004038,46.2400134 L70.6981041,50.2570214 L69,49.8810563 Z" id="Fill-75" fill="#FFFFFF" mask="url(#mask-4)"></path>
                <path d="M77.4145183,48.4811168 L78.5887042,48.6948563 L79.2072592,45.2739805 L77.4145183,48.4811168 Z M74,50.9302595 L78.9080733,43 L81,43.3805607 L79.8792402,52 L78.0959973,51.6746988 L78.4023066,49.7625116 L76.8505767,49.4799583 L75.8188602,51.2607739 L74,50.9302595 Z" id="Fill-76" fill="#FFFFFF" mask="url(#mask-4)"></path>
                <polygon id="Fill-77" fill="#FFFFFF" mask="url(#mask-4)" points="81 52.9866395 83.9589841 44 85.2796672 44.2649457 85.8646913 49.4393116 87.4270909 44.6974638 89 45.0133605 86.0398482 54 84.7822216 53.7463768 84.2730988 48.2764946 82.6114436 53.310462"></polygon>
                <path d="M89.1036957,52.6204696 L89.4793176,52.6980776 C89.6208409,52.7289082 89.7495951,52.7427288 89.8634522,52.7427288 C89.9773093,52.7427288 90.0762692,52.7342238 90.1592678,52.7172138 C90.2422664,52.7002038 90.3199446,52.6608683 90.3923024,52.5992071 C90.4646601,52.5386091 90.525313,52.4801373 90.5731968,52.4227286 C90.6210806,52.366383 90.6710926,52.2792069 90.7221687,52.1612002 C90.7743088,52.0431935 90.8168722,51.9390074 90.8498588,51.8486419 C90.8828455,51.7572133 90.9264729,51.6264491 90.9796772,51.4574124 L92.0458902,48.1287726 C92.1054789,47.9437891 92.1512346,47.7768787 92.1810289,47.6322939 C92.1980543,47.5334234 92.2108233,47.4451842 92.2204001,47.3686393 C92.2395536,47.1698352 92.1874134,47.0124929 92.0650437,46.8966124 C91.9426739,46.7807319 91.7224084,46.6903664 91.4074393,46.6244528 L91.0424582,46.548971 L89.1036957,52.6204696 Z M87,53.4390747 L89.6963909,45 L91.779869,45.4316282 C92.3214881,45.5443193 92.7566988,45.6878409 93.085501,45.8632563 C93.4153673,46.0376086 93.6526582,46.2587383 93.7984378,46.5255823 C93.9431534,46.7934894 94.0112548,47.0954165 93.9984858,47.4324267 C93.9910372,47.6078421 93.9654991,47.8023937 93.9208076,48.0139553 C93.8803724,48.2116962 93.8229118,48.4275103 93.7494899,48.6613975 L92.7758523,51.7051202 C92.5672917,52.3557518 92.3182959,52.8596724 92.0267366,53.2158188 C91.7362415,53.5719651 91.3552991,53.8069154 90.8839095,53.9227959 C90.4114559,54.0386764 89.8283374,54.0237927 89.1292337,53.880271 L87,53.4390747 Z" id="Fill-78" fill="#FFFFFF" mask="url(#mask-4)"></path>
                <path d="M53.9655892,45 C53.8240343,45.0953673 53.6742733,45.1732894 53.5163062,45.2279512 C53.6004185,46.2397752 53.3224375,47.4632681 52.7326253,48.4960264 C52.4084851,49.0624152 51.7735395,49.6625315 51.1416712,50.0509789 C50.723161,50.3068424 50.2974705,50.420818 50,50.5522388 C50.098473,50.6987788 50.1948944,50.8511339 50.2933674,51 C50.5631424,50.8732312 50.9467767,50.7732119 51.3314368,50.5359566 C52.0258765,50.1091297 52.7644239,49.4369064 53.1336976,48.7914324 C53.7070976,47.7877496 54.1256078,46.3049041 53.9655892,45" id="Fill-79" fill="#FFFFFF" mask="url(#mask-4)"></path>
                <path d="M70.1450508,34.6215431 C70.8161211,33.858173 72.2302492,33.8944731 73.1026406,34.2169035 C73.8066544,34.4774103 73.8481387,35.1478948 73.9481892,36.1279979 C74.0152962,36.7899412 74.0482397,37.4145167 73.8481387,37.6173703 C72.9464643,38.1960369 72.9208416,35.9827974 72.7707659,35.4233486 C72.7707659,35.4233486 73.1185023,37.7604355 72.6475329,37.9611538 C71.7666007,38.3145461 71.7995441,36.1546892 71.6994936,35.6155257 C71.8629908,36.1269302 71.8812927,37.0750039 71.7629403,37.2159337 C71.7568396,37.6333851 71.3932415,37.551176 71.3053923,37.505267 C70.8551652,37.267181 70.8563853,35.4991518 70.8563853,35.4991518 C70.8563853,35.8119734 71.1345744,36.9671712 70.5550137,36.7333557 C70.1779942,36.579614 70.1560319,36.0778183 70.0828243,35.8109057 C69.9412894,35.2962982 69.9937549,34.7934348 70.1450508,34.6215431" id="Fill-80" fill="#F88667" mask="url(#mask-4)"></path>
                <path d="M105.433903,45.0043066 C104.647018,44.9739583 103.690617,45.1139522 102.879665,45.1139522 C102.51029,45.1139522 102.127311,45.0640243 101.761074,45.0434657 C101.529822,45.030739 101.0579,44.9573157 100.92187,45.1991233 C100.773282,45.4654053 101.238926,45.5593872 101.422044,45.5965884 C101.686781,45.6514112 102.235089,45.6171469 102.285316,45.9490205 C102.357517,46.4306778 101.393791,46.5599029 101.018137,46.7136024 C100.668643,46.8565332 99.7446809,47.1609954 100.351587,47.4801423 C100.758633,47.6955175 101.618765,47.2050495 101.96512,47.0728874 C101.508894,47.1913438 101.111266,47.3470013 100.702128,47.5662924 C100.464597,47.6935596 100,47.8687966 100,48.1184361 C100,48.4835949 100.862225,48.2643038 101.075689,48.1771748 C101.583188,47.9706104 101.684688,47.9177455 102.036275,47.6798539 C101.674224,47.8599858 100.343216,48.3876551 100.778514,48.8184054 C101.045344,49.0827295 102.084409,48.3416431 102.498779,48.1840276 C102.270666,48.3808022 101.58842,48.4845739 101.643879,48.8996606 C101.672131,49.108183 102.058249,48.9417567 102.24346,48.8477748 C102.504011,48.7146337 102.737356,48.5217751 103,48.4052767 C103.205092,48.3132527 103.34217,48.2006702 103.564004,48.0518656 C104.03488,47.7395715 104.46076,47.6651692 104.868852,47.2569353 C105.249738,46.8751338 105.605511,46.4894164 106,46.1741855 C105.24346,45.9127983 106.014649,45.3851291 105.433903,45.0043066" id="Fill-81" fill="#F88667" mask="url(#mask-4)"></path>
                <path d="M104,44.3745502 L105.197691,47 C105.197691,47 117.559974,43.1945369 116.980228,40.1149899 C116.472389,37.4117253 109.278379,28.3532308 107.711044,28.0281142 C105.605535,27.5921381 104.761758,32.3537638 105.970685,33.5081942 C108.522238,35.9417719 112.161376,39.3656227 111.862515,39.916722 C111.562531,40.4678213 104,44.3745502 104,44.3745502" id="Fill-82" fill="#FF5D12" mask="url(#mask-4)"></path>
                <path d="M39.0920033,44.5800039 C39.1877966,44.8874843 39.8037582,45.4079156 39.5256484,45.7787619 C39.3876236,45.9657433 38.8334642,45.4795918 38.7191302,45.2936493 C38.5584446,45.0308366 37.485147,42.8732798 37.344032,42.2697456 C37.2348482,41.7970984 37.1328747,41.3379553 37,40.9006267 C37.4975074,40.6710552 37.9651438,40.3563033 38.398789,40 C39.0250509,40.3760402 39.6791238,40.8767347 40.2961154,41.233038 C40.626757,41.4241745 40.99654,41.5727208 41.3354218,41.7430815 C41.5496693,41.8500764 42.0111255,42.0235535 41.9997951,42.3268788 C41.9874347,42.6592901 41.5187682,42.5107438 41.3354218,42.4525718 C41.0686425,42.3673914 40.596886,42.0505619 40.370278,42.3455769 C40.0416965,42.7725176 40.8327642,43.3937112 41.0851231,43.7365103 C41.3179112,44.0543786 42.1924118,45.0505735 41.4755067,45.0453796 C41.3251215,45.0443408 40.4125095,44.0637276 40.2672744,43.9307631 C40.2940554,43.9764697 40.8729356,44.6755721 40.9007466,44.7223174 C41.0428916,44.9674707 41.4755067,45.4920572 41.3065808,45.7091633 C40.9450382,46.1745391 40.0221258,44.7430931 39.8789508,44.5509179 C39.8779208,44.5488403 40.2291631,45.1149782 40.227103,45.1129006 C40.5299336,45.5439965 40.7101899,45.9002998 40.4073593,45.9917129 C40.0252159,46.1090956 39.3762932,44.946695 39.0920033,44.5800039" id="Fill-83" fill="#F88667" mask="url(#mask-4)"></path>
                <path d="M40,39.2973564 L37.2275408,41 C37.2275408,41 31.1172154,30.4676698 31.009155,27.4330408 C30.9218334,24.9879969 31.4293899,21.9533679 33.8252749,16.5723204 C35.353402,13.141022 37.013603,11.7613496 37.7034432,12.0333824 C38.1924439,12.2262981 40.9714522,13.4574905 39.6026869,17.6712896 C39.125693,19.1409171 36.0083137,25.4117611 35.9591953,26.0121841 C35.9089854,26.6126072 40,39.2973564 40,39.2973564" id="Fill-84" fill="#00D8DF" mask="url(#mask-4)"></path>
                <path d="M54.1442548,41.3777213 C54.8140313,42.1411664 56.2280039,42.1059305 57.1002993,41.7834683 C57.8054556,41.522936 57.8469354,40.8534534 57.9481949,39.8732539 C58.0152946,39.2101778 58.0482344,38.5866086 57.8481554,38.3837351 C56.9478001,37.8039439 56.9197403,40.0174009 56.7709011,40.5769047 C56.7709011,40.5769047 57.1185992,38.2406558 56.6489017,38.0388501 C55.7680663,37.685423 55.7997861,39.8454922 55.6997466,40.3847087 C55.8632258,39.8732539 55.8815257,38.9240193 55.7631863,38.7830756 C55.7583063,38.366651 55.3935282,38.4478004 55.3056887,38.4947816 C54.8555111,38.7318233 54.856731,40.5010941 54.856731,40.5010941 C54.856731,40.187174 55.1348896,39.0318626 54.5553926,39.2667688 C54.1784146,39.4194578 54.1564547,39.9213029 54.0832551,40.1882417 C53.9417358,40.7028998 53.9929756,41.2058126 54.1442548,41.3777213" id="Fill-85" fill="#F88667" mask="url(#mask-4)"></path>
                <path d="M53.7330535,1.58764783 C53.7330535,1.58764783 54.9812851,3.46201499 52.0794035,4.71556505 C49.1763798,5.9703067 45,2.66722612 45,2.66722612 C45,2.66722612 45.1073502,1.02283535 47.4233738,0.319798713 C49.1535394,-0.206882968 50.7752127,-0.131812955 51.6579968,0.913209295 C53.1597577,2.69105787 53.7330535,1.58764783 53.7330535,1.58764783" id="Fill-86" fill="#424444" mask="url(#mask-4)"></path>
            </g>
        </g>
    </g>
</svg>