<?xml version="1.0" encoding="UTF-8"?>
<svg width="92px" height="77px" viewBox="0 0 92 77" version="1.1" xmlns="http://www.w3.org/2000/svg" xmlns:xlink="http://www.w3.org/1999/xlink">
    <title>38357CBE-CA69-4964-A7F3-12880DD13032</title>
    <defs>
        <polygon id="path-1" points="0 76.3442167 91.8726977 76.3442167 91.8726977 -0.000213888889 0 -0.000213888889"></polygon>
    </defs>
    <g id="Page-1" stroke="none" stroke-width="1" fill="none" fill-rule="evenodd">
        <g id="SERVICES" transform="translate(-170.000000, -1076.000000)">
            <g id="Group-28" transform="translate(170.000000, 1076.000000)">
                <path d="M59.0514837,34.4984597 C59.0514837,50.8000014 45.8334372,64.0161958 29.5259023,64.0161958 C13.2194372,64.0161958 0.000320930233,50.8000014 0.000320930233,34.4984597 C0.000320930233,18.1969181 13.2194372,4.98072361 29.5259023,4.98072361 C45.8334372,4.98072361 59.0514837,18.1969181 59.0514837,34.4984597" id="Fill-1" fill="#00D8DF"></path>
                <path d="M54.7129349,34.4984597 C54.7129349,48.4044458 43.4365163,59.6774597 29.5263302,59.6774597 C15.6161442,59.6774597 4.33972558,48.4044458 4.33972558,34.4984597 C4.33972558,20.5924736 15.6161442,9.31945972 29.5263302,9.31945972 C43.4365163,9.31945972 54.7129349,20.5924736 54.7129349,34.4984597" id="Fill-3" fill="#424444"></path>
                <path d="M29.5545721,35.1313569 L29.5449442,35.1313569 C29.2732233,35.1313569 29.0539209,34.9110514 29.0539209,34.6404819 L29.0539209,14.4333292 C29.0539209,14.1627597 29.2732233,13.9435236 29.5449442,13.9435236 L29.5545721,13.9435236 C29.8252233,13.9435236 30.0445256,14.1627597 30.0445256,14.4333292 L30.0445256,34.6404819 C30.0445256,34.9110514 29.8252233,35.1313569 29.5545721,35.1313569" id="Fill-5" fill="#FEFEFE"></path>
                <path d="M29.9860093,34.9078431 L29.9817302,34.9163986 C29.8522884,35.1538153 29.5559628,35.2436486 29.3174047,35.1142458 L17.3349395,28.6719125 C17.0963814,28.5425097 17.0075907,28.2462736 17.1359628,28.0077875 L17.1413116,27.9981625 C17.2696837,27.7596764 17.5681488,27.6709125 17.8056372,27.8003153 L29.7870326,34.2437181 C30.0255907,34.3720514 30.1143814,34.6693569 29.9860093,34.9078431" id="Fill-7" fill="#FEFEFE"></path>
                <mask id="mask-2" fill="white">
                    <use xlink:href="#path-1"></use>
                </mask>
                <g id="Clip-10"></g>
                <polygon id="Fill-9" fill="#D0D1DE" mask="url(#mask-2)" points="38.1168837 68.8035639 91.8726977 68.8035639 91.8726977 35.5395639 38.1168837 35.5395639"></polygon>
                <polygon id="Fill-11" fill="#424444" mask="url(#mask-2)" points="64.9947907 53.6461139 91.8726977 37.0141139 91.8726977 35.53935 38.1168837 35.53935 38.1168837 37.0141139"></polygon>
                <polygon id="Fill-12" fill="#D0D1DE" mask="url(#mask-2)" points="64.9947907 52.1714569 38.1168837 35.5394569 91.8726977 35.5394569"></polygon>
                <polygon id="Fill-13" fill="#B1B3C8" mask="url(#mask-2)" points="38.1168837 68.8031361 85.1802326 68.8031361 85.1802326 42.2295806 85.1802326 40.7558861 38.1168837 40.7558861"></polygon>
                <polygon id="Fill-14" fill="#D0D1DE" mask="url(#mask-2)" points="28.8270233 76.3442167 82.5828372 76.3442167 82.5828372 43.0802167 28.8270233 43.0802167"></polygon>
                <polygon id="Fill-15" fill="#424444" mask="url(#mask-2)" points="55.7053581 61.1865528 82.5832651 44.5545528 82.5832651 43.0808583 28.8274512 43.0808583 28.8274512 44.5545528"></polygon>
                <polygon id="Fill-16" fill="#D0D1DE" mask="url(#mask-2)" points="55.7053581 59.7128583 28.8274512 43.0808583 82.5832651 43.0808583"></polygon>
                <path d="M67.5449023,6.33260833 L69.4715535,6.19785833 L71.3982047,6.06203889 C71.3982047,6.06203889 72.3224837,11.2691639 73.3708558,11.8231361 C73.3708558,11.8231361 75.0482512,17.9339417 70.3220186,18.2665389 C64.6019721,18.66865 66.3991814,12.3140111 66.3991814,12.3140111 C67.3598326,11.6188722 67.5449023,6.33260833 67.5449023,6.33260833" id="Fill-17" fill="#E45940" mask="url(#mask-2)"></path>
                <path d="M78.8318047,35.5563542 L80.9221302,24.2287986 C80.6322233,19.1168542 79.9336651,14.0754931 79.9336651,14.0754931 C77.2549674,12.5408403 73.3717116,11.8232431 73.3717116,11.8232431 L73.3374791,11.8499792 C71.3819442,13.4766042 68.6058977,13.6744514 66.4406884,12.3397847 L66.3989674,12.3141181 C66.3989674,12.3141181 62.2964093,13.5846181 59.8594791,15.4786042 C59.8594791,15.4786042 59.5620837,18.3874931 60.1750605,21.9327014 C60.6832,24.8758125 61.3764093,27.7836319 62.3231535,30.6165903 L63.977014,35.5563542 L78.8318047,35.5563542 Z" id="Fill-18" fill="#FF5D12" mask="url(#mask-2)"></path>
                <path d="M78.8318047,35.5563542 L80.9221302,24.2287986 C80.8611535,23.1636319 80.8483163,22.1209236 80.8622233,21.1327569 C77.9085953,25.5784375 74.4318512,29.9257292 68.8252,28.5065764 C65.3687814,27.6317708 63.0313395,23.4021181 60.5120372,21.2183125 C60.3269674,21.0578958 60.145107,20.9071042 59.9643163,20.7531042 C60.0509674,21.2001319 60.1365488,21.6685486 60.2178512,22.1530069 C60.6981767,25.0308819 61.4042233,27.8702569 62.3306419,30.6379792 L63.977014,35.5563542 L78.8318047,35.5563542 Z" id="Fill-19" fill="#D64C1D" mask="url(#mask-2)"></path>
                <path d="M64.5340419,7.57744167 C65.0250651,6.92615 65.7311116,7.81485833 65.7311116,7.81485833 C65.7311116,7.81485833 64.6057163,4.40653889 65.3802279,2.82376111 C66.1536698,1.23991389 69.0666465,1.83987222 69.0666465,1.83987222 C69.0666465,1.83987222 71.8662279,0.837802778 72.854693,2.29759444 C73.8431581,3.75738611 73.2055767,7.28762222 73.2055767,7.28762222 C73.2055767,7.28762222 73.7821814,6.30908056 74.358786,6.88551111 C74.9364605,7.46194167 73.6302744,9.10995556 73.3232512,9.31849722 C73.3232512,9.31849722 71.5378093,13.3064556 69.8828791,13.423025 C68.2268791,13.5395944 65.9001349,9.84038611 65.9001349,9.84038611 C65.5674372,9.67676111 64.0430186,8.22766389 64.5340419,7.57744167" id="Fill-20" fill="#F88667" mask="url(#mask-2)"></path>
                <path d="M69.8819163,3.16395139 C69.8819163,3.16395139 72.0717302,3.39174306 72.3937302,4.53604861 C72.5499163,5.09215972 72.4643349,5.7124375 72.4001488,6.27496528 C72.3648465,6.57334028 72.2685674,8.16895139 72.3498698,8.20103472 C72.4290326,8.23204861 72.5723814,8.18285417 72.6269395,8.13259028 C72.9029395,7.88127083 73.1083349,7.51765972 73.2944744,7.19789583 C73.6635442,6.5690625 74.2615442,6.6268125 74.4583814,6.99577083 C74.4583814,6.99577083 74.5375442,1.26782639 72.1401953,1.23467361 C69.7439163,1.20259028 69.8819163,3.16395139 69.8819163,3.16395139" id="Fill-21" fill="#424444" mask="url(#mask-2)"></path>
                <path d="M68.4746372,3.26308889 C68.4746372,3.26308889 66.3393814,3.79567222 66.179986,4.9742 C66.1029628,5.54635278 66.2741256,6.14738056 66.4174744,6.69600556 C66.4934279,6.98689444 66.8122186,8.55149167 66.7373349,8.59533889 C66.6635209,8.63811667 66.5148233,8.60924167 66.4527767,8.56753333 C66.143614,8.35685278 65.8911488,8.02639444 65.6611488,7.736575 C65.2064977,7.16335278 64.6234744,7.30558889 64.4811953,7.698075 C64.4811953,7.698075 63.5986372,2.03750556 65.9671023,1.66961667 C68.3366372,1.30172778 68.4746372,3.26308889 68.4746372,3.26308889" id="Fill-22" fill="#424444" mask="url(#mask-2)"></path>
                <path d="M74.8535535,45.3516097 C74.6791814,45.6756514 73.8704372,46.1258875 74.1047163,46.6028597 C74.2223907,46.8434847 74.9541116,46.4167764 75.1231349,46.2317625 C75.361693,45.9718875 77.0401581,43.7848736 77.3289953,43.1378597 C77.5547163,42.6309431 77.7697395,42.1357903 78.0136465,41.6748597 C77.4990884,41.3101792 77.0380186,40.8535264 76.6229488,40.3594431 C75.8334605,40.6471236 74.9862047,41.0663458 74.2095535,41.3337069 C73.7955535,41.4770125 73.3441116,41.5636375 72.923693,41.6802069 C72.6583907,41.7550681 72.0989023,41.8502486 72.0464837,42.1924708 C71.9887163,42.5689153 72.5503442,42.5026097 72.771786,42.4769431 C73.0916465,42.4395125 73.6939256,42.1871236 73.8875535,42.5657069 C74.1667628,43.1154014 73.1376465,43.6426375 72.7792744,43.9730958 C72.4465767,44.2789569 71.2430884,45.2072347 72.0550419,45.3569569 C72.2262047,45.3879708 73.4703442,44.4842903 73.6639721,44.3677208 C73.6222512,44.4126375 72.8167163,45.0724847 72.7760651,45.1184708 C72.5621116,45.3633736 71.9587628,45.8574569 72.1042512,46.1376514 C72.4144837,46.7397486 73.7645302,45.3323597 73.9688558,45.1473458 C73.9720651,45.1452069 73.4510884,45.7045264 73.4532279,45.7023875 C73.0189023,46.1216097 72.7375535,46.4820125 73.0606233,46.6509847 C73.4692744,46.8648736 74.4534605,45.7002486 74.8535535,45.3516097" id="Fill-23" fill="#F88667" mask="url(#mask-2)"></path>
                <path d="M75.0615163,40.6853028 L77.7594698,42.7364972 C77.7594698,42.7364972 87.1509581,32.6837194 86.4652372,28.7160806 C85.3387721,22.1988861 82.0128651,14.7683861 80.0391442,14.1342056 C79.2207721,13.8711222 78.2836558,17.1970944 79.3726791,21.9005111 C79.3726791,21.9005111 81.3068186,28.8273028 81.1848651,29.5502472 C81.0618419,30.2742611 75.0615163,40.6853028 75.0615163,40.6853028" id="Fill-24" fill="#FF5D12" mask="url(#mask-2)"></path>
                <path d="M64.8788279,50.8680181 C65.0264558,51.2048931 65.7945488,51.7203653 65.5228279,52.1780875 C65.3869674,52.4058792 64.6916186,51.9214208 64.5386419,51.7246431 C64.3214791,51.4455181 62.8291535,49.1269625 62.5938047,48.4585597 C62.4098047,47.9356014 62.2375721,47.4244069 62.031107,46.9452958 C62.5745488,46.6233931 63.0709209,46.2073792 63.5245023,45.7485875 C64.2883163,46.0993653 65.0992,46.5870319 65.8501767,46.9174903 C66.2524093,47.0939486 66.6942233,47.2169347 67.1028744,47.3687958 C67.3617581,47.4639764 67.9126884,47.6040736 67.9362233,47.9495042 C67.9629674,48.3302264 67.4077581,48.2179347 67.1895256,48.1740875 C66.8739442,48.1109903 66.2941302,47.8094069 66.0716186,48.1719486 C65.7474791,48.6970458 66.7295256,49.3066292 67.0600837,49.6648931 C67.3660372,49.9974903 68.489293,51.0220181 67.6677116,51.1032958 C67.4954791,51.1204069 66.3283628,50.1183375 66.1465023,49.9857264 C66.1839442,50.0338514 66.9327814,50.7567958 66.9691535,50.8059903 C67.1617116,51.0680042 67.7222698,51.6102125 67.555386,51.8775736 C67.197014,52.4507958 65.9657116,50.9386014 65.7774326,50.7375458 C65.775293,50.7343375 66.2470605,51.3353653 66.2449209,51.3332264 C66.6439442,51.7856014 66.8953395,52.1684625 66.5583628,52.3106986 C66.1347349,52.4903653 65.2489674,51.2487403 64.8788279,50.8680181" id="Fill-25" fill="#F88667" mask="url(#mask-2)"></path>
                <path d="M64.712693,46.2351847 L62.1602279,47.9345319 C62.1602279,47.9345319 53.3474837,37.0764625 54.2214837,33.1451847 C55.6560419,26.6953653 58.0961814,16.8265319 60.0688326,15.3164764 C60.752414,14.7935181 62.9443674,18.9301292 62.7817628,21.5149764 C62.7817628,21.5149764 59.5168326,34.4007125 59.6045535,35.1279347 C59.6912047,35.8572958 64.712693,46.2351847 64.712693,46.2351847" id="Fill-26" fill="#FF5D12" mask="url(#mask-2)"></path>
                <path d="M72.9772884,1.91901111 C72.9772884,1.91901111 73.0254279,1.04420556 72.0284047,0.501997222 C71.0335209,-0.0402111111 69.0512419,-0.284044444 67.4808233,0.501997222 C65.9114744,1.2859 65.4343581,1.46342778 64.9764977,1.20248333 C64.5186372,0.940469444 64.8074744,0.679525 64.8074744,0.679525 C64.8074744,0.679525 63.7794279,0.6699 63.829707,2.26444167 C63.879986,3.85898333 65.8408698,5.83959444 68.4029628,5.83959444 C72.3161721,5.83959444 73.581707,3.105025 72.9772884,1.91901111" id="Fill-27" fill="#424444" mask="url(#mask-2)"></path>
            </g>
        </g>
    </g>
</svg>