<?xml version="1.0" encoding="UTF-8"?>
<svg width="168px" height="49px" viewBox="0 0 168 49" version="1.1" xmlns="http://www.w3.org/2000/svg" xmlns:xlink="http://www.w3.org/1999/xlink">
    <title>D2DA6853-BA81-4C42-AD63-4A5EB483890A</title>
    <defs>
        <polygon id="path-1" points="0.0411428571 0.412014085 71.8359202 0.412014085 71.8359202 48.9585915 0.0411428571 48.9585915"></polygon>
    </defs>
    <g id="Page-1" stroke="none" stroke-width="1" fill="none" fill-rule="evenodd">
        <g id="HOME" transform="translate(-793.000000, -1623.000000)">
            <g id="Group-6" transform="translate(585.000000, 1559.000000)">
                <g id="Angel-Longevity_logo_2020" transform="translate(208.000000, 64.000000)">
                    <path d="M78.7765917,4.48195919 C78.9095389,4.02204074 79.1698938,3.4103558 78.8389107,3.05469433 C78.757896,2.97221254 78.6020985,2.99926656 78.492694,3.03093957 C76.1827367,5.45986326 73.6331974,7.09432237 70,9.01515825 C70.4763941,9.68029139 70.8932389,10.3421253 71.2470723,11 C71.2574588,10.995381 71.2699226,10.990762 71.2810015,10.9861431 C73.6747434,9.66643445 76.1121085,7.97654758 77.7365569,6.35066657 C78.1997948,5.80892619 78.5847877,5.16490839 78.7765917,4.48195919" id="Fill-1" fill="#00A6CB"></path>
                    <path d="M78.6601287,7.02281424 C77.1810569,8.41545875 75.5284441,10.033719 72.1715538,11.6431604 C72.1165771,11.6703519 72.0523272,11.7107717 72,11.7658895 C72.3179375,12.5162273 72.5736123,13.2614207 72.7650372,14 C72.7961685,13.9897113 72.8299494,13.9742783 72.8670421,13.9514963 C76.106693,11.8775951 78.7700821,10.3923525 78.9999244,7.14407352 C79.0052234,7.04118686 78.7303399,6.95814262 78.6601287,7.02281424" id="Fill-2" fill="#00A6CB"></path>
                    <path d="M77.8654654,12.0274706 C77.7920293,11.8471662 76.845734,12.5899908 75.827935,13.2165861 C74.9389714,13.7634601 73.5668754,14.435504 73,14.6240042 C73.164265,15.4241984 73.2621799,16.2161971 73.2905236,17 C74.7212397,16.5261419 76.2324779,15.4122775 77.185215,14.3334308 C77.6593289,13.7954976 78.0728903,12.9744417 77.9891473,12.2085202 C77.9801289,12.1325241 77.8847907,12.0773896 77.8654654,12.0274706" id="Fill-3" fill="#00A6CB"></path>
                    <path d="M47.4875342,3.03030133 C47.3796972,2.99885493 47.2312549,2.97264959 47.1560353,3.0551964 C46.8365183,3.40831334 47.0861409,4.01562207 47.2139477,4.47159497 C47.3963387,5.14834784 47.7691086,5.78906838 48.2131041,6.32758809 C49.7760748,7.94249209 52.1191996,9.62094404 54.4203878,10.9305559 C54.4776346,10.950865 54.5435349,10.9757601 54.6140949,11 C54.9828708,10.3946567 55.4375169,9.77817608 56,9.16038522 C52.3195634,7.17074487 49.7794031,5.52308419 47.4875342,3.03030133" id="Fill-4" fill="#00A6CB"></path>
                    <path d="M47.3383758,7.02266427 C47.2659811,6.95804571 46.9941721,7.04175612 47.0000953,7.14602698 C47.225835,10.3923752 49.8748211,11.8763992 53.0944087,13.946396 C53.140478,13.9772366 53.1825986,13.9919227 53.219454,14 C53.3932012,13.301679 53.6446081,12.5703144 54,11.8198579 C53.9420843,11.7339446 53.8591595,11.6759348 53.787423,11.6406883 C50.4506877,10.0333017 48.8046966,8.41490049 47.3383758,7.02266427" id="Fill-5" fill="#00A6CB"></path>
                    <path d="M48.1328048,12.0276609 C48.1142448,12.0771774 48.0176049,12.1311281 48.0112049,12.2065114 C47.926085,12.9677345 48.3388846,13.7784741 48.8099241,14.3135475 C49.7827232,15.4162124 51.3462416,16.556569 52.8028802,17 C52.7881602,16.2912495 52.8368002,15.4856833 53,14.6143415 C52.4592005,14.4414034 51.0569619,13.7577807 50.1571228,13.2086653 C49.1459238,12.5841668 48.2057647,11.8473323 48.1328048,12.0276609" id="Fill-6" fill="#00A6CB"></path>
                    <path d="M67.0435841,10.0365499 C67.8598566,11.2646728 71.5361013,15.8501744 68.5574108,21.7498856 C67.0449255,24.7420903 65.7557917,25.3995422 61.5510156,29.190131 C57.9519043,32.4308761 61.7441845,36 61.7441845,36 C61.7441845,36 62.0983274,35.7007795 62.6342368,35.1009501 C60.7159628,33.3320087 61.3665662,31.2992534 62.7844792,30.0523858 C67.2454723,26.1201706 75.2063094,20.6731085 68.2790598,10.3996411 C68.0496718,10.1038918 66.9624263,9.91713938 67.0435841,10.0365499" id="Fill-7" fill="#00A6CB"></path>
                    <path d="M65.6011826,29 L64.3084825,30.1083305 C68.5853945,33.0195084 61.5059435,35.9865511 60.3681358,38.3459776 C59.1022162,40.7316124 61.5073911,43 61.5073911,43 C61.5073911,43 62.2637581,42.3406572 62.6929693,41.8978767 C58.8365829,38.1880388 65.0286598,36.4782994 66.4335483,33.7098872 C68.0845275,30.9304399 65.6011826,29 65.6011826,29" id="Fill-8" fill="#00A6CB"></path>
                    <g id="Group-14">
                        <mask id="mask-2" fill="white">
                            <use xlink:href="#path-1"></use>
                        </mask>
                        <g id="Clip-10"></g>
                        <path d="M62.5385143,26.5510986 C62.16,26.2419155 57.3250286,23.2646479 56.1757714,19.4302254 C54.5670857,14.0595493 57.8112,11.2030563 59.0660571,10.2161549 C59.1675429,10.138169 58.1163429,10.0933099 57.9024,10.294831 C52.1238857,15.7821408 54.1021714,22.3157042 61.1074286,27.6829296 L62.5385143,26.5510986" id="Fill-9" fill="#00A6CB" mask="url(#mask-2)"></path>
                        <path d="M64.6896,43.0406338 C67.9124571,39.2110423 64.5051429,37.1751268 64.5051429,37.1751268 L63.5609143,38.1144085 C66.8475429,40.616169 62.7051429,43.3097887 61.4009143,44.8902113 C59.6345143,47.0248169 61.6854857,49.3906197 63.5307429,48.9454789 C66.0740571,48.3271127 65.7312,45.3180986 64.6450286,44.3477606 C64.6450286,44.3477606 64.0772571,44.9564648 63.6493714,45.5437746 C63.8969143,45.7701408 64.0306286,45.996507 64.0882286,46.2056197 C64.1341714,46.3388169 64.1636571,46.4802958 64.1636571,46.6321268 C64.1636571,47.2649859 63.6953143,47.779831 63.1165714,47.779831 C62.5385143,47.779831 62.0681143,47.2649859 62.0681143,46.6321268 C62.0681143,46.4223239 62.1209143,46.2297746 62.208,46.0613803 C62.5556571,45.0523944 63.9606857,43.8177324 64.6896,43.0406338" id="Fill-11" fill="#00A6CB" mask="url(#mask-2)"></path>
                        <path d="M58.9734857,1.61561972 C60.1803429,1.3906338 61.4708571,1.26226761 62.8093714,1.23880282 C66.7028571,1.16495775 70.9220571,2.14495775 70.7547429,3.67016901 C70.6566857,4.58253521 68.7778286,5.5335493 66.0822857,6.03942254 C64.8726857,6.26302817 63.5842286,6.39070423 62.2450286,6.4155493 C59.9773714,6.45971831 57.8873143,6.20091549 56.3574857,5.68676056 C54.9805714,5.2243662 54.2297143,4.60392958 54.2989714,3.9841831 C54.3977143,3.07112676 56.2758857,2.11942254 58.9734857,1.61561972 Z M55.8390857,6.44453521 C57.4971429,7.00078873 59.7401143,7.28305634 62.1552,7.2368169 C63.5705143,7.20990141 64.944,7.0746338 66.2297143,6.83515493 C69.5355429,6.21609859 71.6804571,4.998 71.8278857,3.65084507 C72.0377143,1.73915493 68.1133714,0.31815493 62.8998857,0.41684507 C61.4818286,0.443760563 60.1104,0.579028169 58.8260571,0.819887324 C55.5188571,1.43756338 53.3725714,2.65773239 53.2272,4.0028169 C53.1209143,4.97660563 54.0486857,5.84342254 55.8390857,6.44453521 L55.8390857,6.44453521 Z" id="Fill-12" fill="#00A6CB" mask="url(#mask-2)"></path>
                        <path d="M3.37234286,27.5304085 L5.7792,22.8050141 L8.17028571,27.5304085 L3.37234286,27.5304085 Z M6.49851429,21.6062394 C6.432,21.4454366 6.25988571,21.3336338 6.08022857,21.3336338 L5.47405714,21.3336338 C5.31222857,21.3336338 5.1504,21.4281831 5.05234286,21.5896761 L0.0336,31.4897465 C-0.0157714286,31.590507 -0.0102857143,31.707831 0.0486857143,31.8037606 C0.108342857,31.9010704 0.212571429,31.9597324 0.327085714,31.9597324 L0.846857143,31.9597324 C1.02651429,31.9597324 1.18834286,31.859662 1.26788571,31.7002394 L2.77645714,28.7222817 L8.7792,28.7222817 L10.2857143,31.6967887 C10.3645714,31.8582817 10.5277714,31.9597324 10.7101714,31.9597324 L11.2306286,31.9597324 C11.3403429,31.9597324 11.4404571,31.9045211 11.4966857,31.8120423 C11.5556571,31.7161127 11.5604571,31.5932676 11.5083429,31.4883662 L6.49851429,21.6062394 L6.49851429,21.6062394 Z" id="Fill-13" fill="#008EBF" mask="url(#mask-2)"></path>
                    </g>
                    <path d="M22.6124141,21 L22.1646,21 C21.9499043,21 21.775597,21.1757485 21.775597,21.3922193 L21.775597,29.9967526 L14.2619571,21.2107553 C14.1563806,21.0771579 14.000496,21 13.8339829,21 L13.3875859,21 C13.1735988,21 13,21.1757485 13,21.3922193 L13,31.6077807 C13,31.8306813 13.1672217,32 13.3875859,32 L13.8339829,32 C14.04797,32 14.2222773,31.8242515 14.2222773,31.6077807 L14.2222773,22.9882445 L21.7437115,31.8085341 C21.8670021,31.9314152 22.0165096,32 22.1646,32 L22.6124141,32 C22.8256926,32 23,31.8242515 23,31.6077807 L23,21.3922193 C23,21.1828928 22.818607,21 22.6124141,21" id="Fill-15" fill="#008EBF"></path>
                    <path d="M34.6173913,25.910151 L30.4184703,25.910151 C30.2076166,25.910151 30.0365598,26.0818836 30.0365598,26.2942713 L30.0365598,26.7365704 C30.0365598,26.9552667 30.2006347,27.1199898 30.4184703,27.1199898 L33.7956204,27.1199898 L33.7956204,28.7665201 C33.0478578,30.0527624 31.5851476,30.7887593 29.7719454,30.7887593 C26.9128531,30.7887593 25.2064741,29.1863888 25.2064741,26.5017524 C25.2064741,23.8150131 26.9128531,22.2112407 29.7719454,22.2112407 C31.1571565,22.2112407 32.3161536,22.6037724 33.1155824,23.3383674 C33.2545224,23.4757535 33.4758489,23.4918754 33.6545858,23.3495826 L33.9918121,23.0565857 C34.1475087,22.900274 34.1537924,22.6626521 34.0008886,22.5105461 C32.9556966,21.5222074 31.4936845,21 29.7719454,21 C26.26563,21 24,23.1596253 24,26.5017524 C24,29.8417766 26.26563,32 29.7719454,32 C32.1046017,32 33.972961,31.0256802 34.9029514,29.3174664 C34.9483339,29.2249411 35,29.0973683 35,28.9326451 L35,26.2942713 C35,26.0895941 34.8212631,25.910151 34.6173913,25.910151" id="Fill-16" fill="#008EBF"></path>
                    <path d="M46.6123866,21 L37.3876134,21 C37.1736111,21 37,21.1757485 37,21.3922193 L37,31.6077807 C37,31.8306813 37.1665249,32 37.3876134,32 L46.6123866,32 C46.8263889,32 47,31.8242515 47,31.6077807 L47,31.1576931 C47,30.949081 46.8185941,30.7661882 46.6123866,30.7661882 L38.2216553,30.7661882 L38.2216553,27.115477 L44.9280045,27.115477 C45.1427154,27.115477 45.3163265,26.9404429 45.3163265,26.7246866 L45.3163265,26.2738845 C45.3163265,26.0652725 45.1349206,25.8823797 44.9280045,25.8823797 L38.2216553,25.8823797 L38.2216553,22.2338118 L46.6123866,22.2338118 C46.8263889,22.2338118 47,22.0580633 47,21.8423069 L47,21.3922193 C47,21.1828928 46.8185941,21 46.6123866,21" id="Fill-17" fill="#008EBF"></path>
                    <path d="M54.6453488,30.7661882 L49.1156331,30.7661882 L49.1156331,21.3922193 C49.1156331,21.1828928 48.9502584,21 48.7609819,21 L48.3540052,21 C48.1589147,21 48,21.1757485 48,21.3922193 L48,31.6077807 C48,31.8306813 48.1524548,32 48.3540052,32 L54.6453488,32 C54.8404393,32 55,31.8242515 55,31.6077807 L55,31.1576931 C55,30.949081 54.8339793,30.7661882 54.6453488,30.7661882" id="Fill-18" fill="#008EBF"></path>
                    <path d="M80.6457987,30.7661882 L75.1143121,30.7661882 L75.1143121,21.3922193 C75.1143121,21.1828928 74.9494922,21 74.7607572,21 L74.3522622,21 C74.1577101,21 74,21.1757485 74,21.3922193 L74,31.6077807 C74,31.8306813 74.1512465,32 74.3522622,32 L80.6457987,32 C80.8409972,32 81,31.8242515 81,31.6077807 L81,31.1576931 C81,30.949081 80.8345337,30.7661882 80.6457987,30.7661882" id="Fill-19" fill="#008EBF"></path>
                    <path d="M86.4936877,22.2135656 C89.1813953,22.2135656 90.8511628,23.8601965 90.8511628,26.5091246 C90.8511628,29.6641143 88.6006645,30.7885401 86.4936877,30.7885401 C83.7734219,30.7885401 82.1488372,29.1882338 82.1488372,26.5091246 C82.1488372,23.819487 83.7734219,22.2135656 86.4936877,22.2135656 Z M86.4936877,21 C83.1568106,21 81,23.1625191 81,26.5091246 C81,29.8452016 83.1568106,32 86.4936877,32 C89.8385382,32 92,29.8452016 92,26.5091246 C92,23.1625191 89.8385382,21 86.4936877,21 L86.4936877,21 Z" id="Fill-20" fill="#008EBF"></path>
                    <path d="M103.611761,21 L103.16401,21 C102.950053,21 102.776479,21.1757485 102.776479,21.3922193 L102.776479,29.9967526 L95.2610698,21.2121842 C95.1590507,21.0800156 94.9996458,21 94.8352816,21 L94.3889479,21 C94.1742827,21 94,21.1757485 94,21.3922193 L94,31.6077807 C94,31.8306813 94.167198,32 94.3889479,32 L94.8352816,32 C95.0499469,32 95.2242295,31.8242515 95.2242295,31.6077807 L95.2242295,22.9882445 L102.741056,31.8063909 C102.862912,31.9314152 103.013107,32 103.16401,32 L103.611761,32 C103.825717,32 104,31.8242515 104,31.6077807 L104,21.3922193 C104,21.1828928 103.817924,21 103.611761,21" id="Fill-21" fill="#008EBF"></path>
                    <path d="M116.616019,25.910151 L112.418761,25.910151 C112.207223,25.910151 112.035479,26.0818836 112.035479,26.2942713 L112.035479,26.7365704 C112.035479,26.9552667 112.200241,27.1199898 112.418761,27.1199898 L115.794301,27.1199898 L115.794301,28.7665201 C115.047982,30.0527624 113.585364,30.7887593 111.772277,30.7887593 C108.914763,30.7887593 107.208492,29.1863888 107.208492,26.5017524 C107.208492,23.815714 108.914763,22.2119416 111.772277,22.2119416 C113.155306,22.2119416 114.314229,22.6037724 115.117796,23.3404703 C115.257426,23.4771554 115.477342,23.4918754 115.656068,23.3495826 L115.991876,23.0565857 C116.145468,22.9023769 116.153148,22.664755 116.000952,22.5105461 C114.955826,21.5222074 113.493209,21 111.772277,21 C108.265486,21 106,23.1596253 106,26.5017524 C106,29.8417766 108.265486,32 111.772277,32 C114.104785,32 115.973026,31.0256802 116.902259,29.3202702 C116.968583,29.1863888 117,29.0637227 117,28.9326451 L117,26.2942713 C117,26.0895941 116.820576,25.910151 116.616019,25.910151" id="Fill-22" fill="#008EBF"></path>
                    <path d="M127.611025,21 L118.388975,21 C118.174295,21 118,21.1757485 118,21.3922193 L118,31.6077807 C118,31.8306813 118.16721,32 118.388975,32 L127.611025,32 C127.825705,32 128,31.8242515 128,31.6077807 L128,31.1576931 C128,30.949081 127.817911,30.7661882 127.611025,30.7661882 L119.224316,30.7661882 L119.224316,27.115477 L125.92759,27.115477 C126.14227,27.115477 126.316565,26.9404429 126.316565,26.7246866 L126.316565,26.2738845 C126.316565,26.0652725 126.134476,25.8823797 125.92759,25.8823797 L119.224316,25.8823797 L119.224316,22.2338118 L127.611025,22.2338118 C127.825705,22.2338118 128,22.0580633 128,21.8423069 L128,21.3922193 C128,21.1828928 127.817911,21 127.611025,21" id="Fill-23" fill="#008EBF"></path>
                    <path d="M140.672134,21 L140.133262,21 C139.962904,21 139.789695,21.1021628 139.694181,21.2650516 L135.006136,30.4768461 L130.312389,21.2821978 C130.243248,21.1157368 130.065763,21 129.881149,21 L129.338713,21 C129.220389,21 129.112758,21.0592973 129.050745,21.1593168 C128.989444,21.2579074 128.983029,21.3779308 129.035063,21.4843801 L134.252713,31.7328051 C134.337536,31.8971228 134.505042,32 134.691081,32 L135.321904,32 C135.525763,32 135.701823,31.8778333 135.745303,31.7320907 L140.960103,21.4886666 C141.0157,21.3829317 141.012849,21.2564785 140.953687,21.1571735 C140.894525,21.0585828 140.789032,21 140.672134,21" id="Fill-24" fill="#008EBF"></path>
                    <path d="M146.595572,21 L142.405904,21 C142.182288,21 142,21.1757485 142,21.3922193 L142,21.8423069 C142,22.0652075 142.17417,22.2338118 142.405904,22.2338118 L143.863469,22.2338118 L143.863469,30.7811911 L142.405904,30.7811911 C142.182288,30.7811911 142,30.9569397 142,31.1719816 L142,31.6077807 C142,31.8306813 142.17417,32 142.405904,32 L146.595572,32 C146.81845,32 147,31.8242515 147,31.6077807 L147,31.1719816 C147,30.9647983 146.81107,30.7811911 146.595572,30.7811911 L145.137269,30.7811911 L145.137269,22.2338118 L146.595572,22.2338118 C146.81845,22.2338118 147,22.0580633 147,21.8423069 L147,21.3922193 C147,21.1828928 146.81107,21 146.595572,21" id="Fill-25" fill="#008EBF"></path>
                    <path d="M156.61242,21 L147.38758,21 C147.173987,21 147,21.1757485 147,21.3922193 L147,21.8423069 C147,22.0652075 147.166207,22.2338118 147.38758,22.2338118 L151.389278,22.2338118 L151.389278,31.6077807 C151.389278,31.8306813 151.555485,32 151.777566,32 L152.224556,32 C152.43815,32 152.612844,31.8242515 152.612844,31.6077807 L152.612844,22.2338118 L156.61242,22.2338118 C156.826013,22.2338118 157,22.0580633 157,21.8423069 L157,21.3922193 C157,21.1828928 156.818941,21 156.61242,21" id="Fill-26" fill="#008EBF"></path>
                    <path d="M167.617288,21 L167.178111,21 C166.967585,21 166.796096,21.1757485 166.796096,21.3922193 L166.796096,24.0948886 C166.796096,26.3474703 165.336354,27.7463142 162.985012,27.7463142 C160.652492,27.7463142 159.203207,26.3474703 159.203207,24.0948886 L159.203207,21.3922193 C159.203207,21.1828928 159.024747,21 158.821889,21 L158.381318,21 C158.170791,21 158,21.1757485 158,21.3922193 L158,24.0948886 C158,26.8039878 159.717672,28.6922128 162.397351,28.9601221 L162.397351,31.6077807 C162.397351,31.8306813 162.561868,32 162.780063,32 L163.220634,32 C163.431161,32 163.601952,31.8242515 163.601952,31.6077807 L163.601952,28.961551 C166.282328,28.704358 168,26.816133 168,24.0948886 L168,21.3922193 C168,21.1828928 167.820843,21 167.617288,21" id="Fill-27" fill="#008EBF"></path>
                    <path d="M20.8449918,37 L20.6013136,37 C20.5343186,37 20.4574713,37.0324032 20.408867,37.0823582 L17.9996716,39.6813681 L15.5825944,37.0749325 C15.5221675,37.0256526 15.4591133,37 15.3986864,37 L15.1550082,37 C15.0689655,37 15,37.0722322 15,37.159991 L15,42.8406841 C15,42.9324932 15.0650246,43 15.1550082,43 L15.3986864,43 C15.4840722,43 15.5536946,42.9284428 15.5536946,42.8406841 L15.5536946,37.8492349 L17.8899836,40.3463096 C17.9490969,40.4070657 18.0456486,40.4084158 18.1100164,40.3449595 L20.4449918,37.8492349 L20.4449918,42.8406841 C20.4449918,42.9324932 20.5106732,43 20.6013136,43 L20.8449918,43 C20.9303777,43 21,42.9284428 21,42.8406841 L21,37.159991 C21,37.0762826 20.9264368,37 20.8449918,37" id="Fill-28" fill="#8E9597"></path>
                    <path d="M28.8237246,37 L23.1748002,37 C23.0767056,37 23,37.070207 23,37.159991 L23,42.8406841 C23,42.9324932 23.0730178,43 23.1748002,43 L28.8237246,43 C28.9210817,43 29,42.9284428 29,42.8406841 L29,42.590234 C29,42.5065257 28.9159189,42.430243 28.8237246,42.430243 L23.6217578,42.430243 L23.6217578,40.2842034 L27.7911494,40.2842034 C27.889244,40.2842034 27.9681623,40.2126463 27.9681623,40.1248875 L27.9681623,39.8737624 C27.9681623,39.7914041 27.8840811,39.7157966 27.7911494,39.7157966 L23.6217578,39.7157966 L23.6217578,37.570432 L28.8237246,37.570432 C28.9210817,37.570432 29,37.4981998 29,37.4090909 L29,37.159991 C29,37.0762826 28.9159189,37 28.8237246,37" id="Fill-29" fill="#8E9597"></path>
                    <path d="M34.4021226,40.0162016 C34.4021226,41.7983798 32.8978774,42.430243 31.6087264,42.430243 L29.5964623,42.430243 L29.5964623,37.570432 L31.6087264,37.570432 C33.3061321,37.570432 34.4021226,38.530378 34.4021226,40.0162016 Z M31.6087264,37 L29.1669811,37 C29.0742925,37 29,37.0722322 29,37.159991 L29,42.8406841 C29,42.9324932 29.0700472,43 29.1669811,43 L31.6087264,43 C33.1738208,43 35,42.2189469 35,40.0162016 C35,38.1840684 33.6691038,37 31.6087264,37 L31.6087264,37 Z" id="Fill-30" fill="#8E9597"></path>
                    <path d="M38.8121069,37 L36.1871069,37 C36.0833333,37 36,37.0722322 36,37.159991 L36,37.4090909 C36,37.5022502 36.0786164,37.570432 36.1871069,37.570432 L37.1666667,37.570432 L37.1666667,42.4383438 L36.1871069,42.4383438 C36.0856918,42.4383438 36,42.5105761 36,42.5969847 L36,42.8406841 C36,42.9324932 36.0786164,43 36.1871069,43 L38.8121069,43 C38.9150943,43 39,42.9284428 39,42.8406841 L39,42.5969847 C39,42.5139514 38.9103774,42.4383438 38.8121069,42.4383438 L37.8301887,42.4383438 L37.8301887,37.570432 L38.8121069,37.570432 C38.9174528,37.570432 39,37.49955 39,37.4090909 L39,37.159991 C39,37.0762826 38.9103774,37 38.8121069,37" id="Fill-31" fill="#8E9597"></path>
                    <path d="M44.6629149,41.2255573 C44.5873829,41.1944383 44.4952868,41.2262194 44.4555331,41.2970647 C44.0215552,42.0247186 43.18739,42.4405209 42.1663824,42.4405209 C40.5576826,42.4405209 39.5585395,41.50629 39.5585395,40.0013242 C39.5585395,38.4718605 40.5338304,37.5594791 42.1663824,37.5594791 C43.2384072,37.5594791 44.056671,37.9686603 44.4714346,38.7115427 C44.5158262,38.7850364 44.6271366,38.8068859 44.6827918,38.7724564 L44.910713,38.6625469 C44.986245,38.6168616 45.0120849,38.5235047 44.969681,38.4467005 C44.4608336,37.527036 43.4391634,37 42.1663824,37 C40.2429658,37 39,38.1778857 39,40.0013242 C39,41.8227764 40.2429658,43 42.1663824,43 C43.4464516,43 44.4714346,42.4689914 44.9776317,41.5460163 C45.0008214,41.5076142 45.0061219,41.4619289 44.9928706,41.4208784 C44.9796194,41.38049 44.948479,41.3480468 44.9093879,41.3321563 L44.6629149,41.2255573" id="Fill-32" fill="#8E9597"></path>
                    <path d="M50.0810078,40.5670567 L46.919781,40.5670567 L48.50399,37.6615662 L50.0810078,40.5670567 Z M48.6902406,37 L48.3184585,37 C48.2364794,37 48.1537813,37.0459046 48.1120727,37.1167867 L45.0148471,42.8143564 C44.9932737,42.8528353 44.995431,42.90009 45.0198809,42.9372187 C45.045769,42.9770477 45.0910732,43 45.139973,43 L45.4599789,43 C45.5491491,43 45.6260943,42.9561206 45.6663647,42.8825383 L46.6120001,41.1381638 L50.3938225,41.1381638 L51.3408961,42.8832133 C51.3811665,42.9554455 51.45955,43 51.5458437,43 L51.868007,43 C51.9140303,43 51.9550198,42.9790729 51.9794697,42.9432943 C52.0046387,42.9061656 52.006796,42.8575608 51.9852226,42.8143564 L48.8901544,37.1242124 C48.8599516,37.0506301 48.7779725,37 48.6902406,37 L48.6902406,37 Z" id="Fill-33" fill="#8E9597"></path>
                    <path d="M56.8490079,42.430243 L53.5426682,42.430243 L53.5426682,37.159991 C53.5426682,37.0762826 53.4703985,37 53.3903855,37 L53.1509921,37 C53.0677529,37 53,37.0722322 53,37.159991 L53,42.8406841 C53,42.9324932 53.0638813,43 53.1509921,43 L56.8490079,43 C56.9322471,43 57,42.9284428 57,42.8406841 L57,42.590234 C57,42.5065257 56.9277303,42.430243 56.8490079,42.430243" id="Fill-34" fill="#8E9597"></path>
                    <path d="M74.6637109,41.2255573 C74.5927819,41.1957625 74.5006406,41.2248952 74.4555642,41.2977268 C74.0226987,42.0247186 73.1881233,42.4405209 72.1659508,42.4405209 C70.5571228,42.4405209 69.5574884,41.50629 69.5574884,40.0013242 C69.5574884,38.4718605 70.5332588,37.5594791 72.1659508,37.5594791 C73.2385027,37.5594791 74.0565059,37.9686603 74.4721364,38.713529 C74.5192014,38.7863606 74.6252634,38.8082101 74.6842604,38.7724564 L74.9103051,38.663209 C74.9500783,38.6400353 74.9772567,38.6042816 74.9872,38.5632311 C74.9978062,38.5235047 74.9911773,38.4817921 74.9699649,38.4467005 C74.4608673,37.527036 73.4386948,37 72.1659508,37 C70.2429141,37 69,38.1778857 69,40.0013242 C69,41.8227764 70.2429141,43 72.1659508,43 C73.4479752,43 74.4741251,42.4689914 74.9805711,41.5427058 C75.0017835,41.5049658 75.0057609,41.4599426 74.9918402,41.4188921 C74.9779196,41.3798279 74.9487525,41.3480468 74.9109679,41.3321563 L74.6637109,41.2255573" id="Fill-35" fill="#8E9597"></path>
                    <path d="M82.8258945,37 L77.1733678,37 C77.0781999,37 77,37.0722322 77,37.159991 L77,42.8406841 C77,42.9324932 77.0730358,43 77.1733678,43 L82.8258945,43 C82.9218001,43 83,42.9284428 83,42.8406841 L83,42.590234 C83,42.5065257 82.9166359,42.430243 82.8258945,42.430243 L77.621173,42.430243 L77.621173,40.2842034 L81.793803,40.2842034 C81.8897086,40.2842034 81.9686463,40.2126463 81.9686463,40.1248875 L81.9686463,39.8737624 C81.9686463,39.7914041 81.8852822,39.7157966 81.793803,39.7157966 L77.621173,39.7157966 L77.621173,37.570432 L82.8258945,37.570432 C82.9232755,37.570432 83,37.49955 83,37.4090909 L83,37.159991 C83,37.0762826 82.9166359,37 82.8258945,37" id="Fill-36" fill="#8E9597"></path>
                    <path d="M88.8251568,37 L88.5521948,37 C88.4555515,37 88.3766138,37.0722322 88.3766138,37.159991 L88.3766138,42.1014851 L83.6595352,37.0945095 C83.607156,37.0357786 83.5282184,37 83.4478052,37 L83.17263,37 C83.0774622,37 83,37.0722322 83,37.159991 L83,42.8406841 C83,42.9324932 83.0730358,43 83.17263,43 L83.4478052,43 C83.5444485,43 83.6233862,42.9284428 83.6233862,42.8406841 L83.6233862,37.8910891 L88.3389893,42.9122412 C88.40391,42.969622 88.4776835,43 88.5521948,43 L88.8251568,43 C88.9218001,43 89,42.9284428 89,42.8406841 L89,37.159991 C89,37.0762826 88.9166359,37 88.8251568,37" id="Fill-37" fill="#8E9597"></path>
                    <path d="M95.8261297,37 L90.1738703,37 C90.0780943,37 90,37.0722322 90,37.159991 L90,37.4090909 C90,37.5022502 90.0729371,37.570432 90.1738703,37.570432 L92.689833,37.570432 L92.689833,42.8406841 C92.689833,42.9324932 92.7627701,43 92.8629666,43 L93.1355599,43 C93.2335462,43 93.310167,42.929793 93.310167,42.8406841 L93.310167,37.570432 L95.8261297,37.570432 C95.9233792,37.570432 96,37.49955 96,37.4090909 L96,37.159991 C96,37.0762826 95.9174853,37 95.8261297,37" id="Fill-38" fill="#8E9597"></path>
                    <path d="M101.825873,37 L96.1741269,37 C96.0782095,37 96,37.0722322 96,37.159991 L96,42.8406841 C96,42.9324932 96.0737826,43 96.1741269,43 L101.825873,43 C101.922528,43 102,42.9284428 102,42.8406841 L102,42.590234 C102,42.5065257 101.917364,42.430243 101.825873,42.430243 L96.6212494,42.430243 L96.6212494,40.2842034 L100.79513,40.2842034 C100.891048,40.2842034 100.969257,40.2126463 100.969257,40.1248875 L100.969257,39.8737624 C100.969257,39.7914041 100.885883,39.7157966 100.79513,39.7157966 L96.6212494,39.7157966 L96.6212494,37.570432 L101.825873,37.570432 C101.922528,37.570432 102,37.4981998 102,37.4090909 L102,37.159991 C102,37.0762826 101.917364,37 101.825873,37" id="Fill-39" fill="#8E9597"></path>
                    <path d="M106.709024,40.2747525 L103.621731,40.2747525 L103.621731,37.570432 L106.709024,37.570432 C107.769797,37.570432 108.377532,38.0632313 108.377532,38.9232673 C108.377532,39.7819532 107.769797,40.2747525 106.709024,40.2747525 Z M108.807735,42.430243 L108.633149,42.430243 C107.979742,42.430243 107.662983,42.2871287 107.27919,41.819982 L106.516022,40.8445095 L106.709024,40.8445095 C108.143278,40.8445095 109,40.1269127 109,38.9232673 C109,37.7364986 108.121915,37 106.709024,37 L103.173112,37 C103.077348,37 103,37.0722322 103,37.159991 L103,42.8406841 C103,42.9324932 103.072928,43 103.173112,43 L103.446409,43 C103.54291,43 103.621731,42.9284428 103.621731,42.8406841 L103.621731,40.8445095 L105.727808,40.8445095 L106.579374,41.9570207 C107.196685,42.7677768 107.637201,42.9925743 108.633149,43 L108.807735,43 C108.904236,43 108.981584,42.9284428 108.981584,42.8406841 L108.981584,42.590234 C108.981584,42.5065257 108.898343,42.430243 108.807735,42.430243 L108.807735,42.430243 Z" id="Fill-40" fill="#8E9597"></path>
                </g>
            </g>
        </g>
    </g>
</svg>