<?xml version="1.0" encoding="UTF-8"?>
<svg width="107px" height="82px" viewBox="0 0 107 82" version="1.1" xmlns="http://www.w3.org/2000/svg" xmlns:xlink="http://www.w3.org/1999/xlink">
    <title>AE13022E-D594-4B49-A717-314937A61849</title>
    <defs>
        <polygon id="path-1" points="0 81 106.933515 81 106.933515 0.991730769 0 0.991730769"></polygon>
    </defs>
    <g id="Page-1" stroke="none" stroke-width="1" fill="none" fill-rule="evenodd">
        <g id="SERVICES" transform="translate(-163.000000, -553.000000)">
            <g id="Group-45-Copy" transform="translate(163.000000, 553.000000)">
                <polygon id="Fill-1" fill="#424444" points="20 77 23 77 23 60 20 60"></polygon>
                <polygon id="Fill-2" fill="#424444" points="77 77 80 77 80 60 77 60"></polygon>
                <polygon id="Fill-3" fill="#D0D1DE" points="0 62 99 62 99 1 0 1"></polygon>
                <polygon id="Fill-4" fill="#FFFFFF" points="5 58 95 58 95 5 5 5"></polygon>
                <g id="Group-44">
                    <path d="M67.3008184,52.96185 L10.6541874,52.96185 C10.6541874,52.96185 10.9346728,31.6245808 17.888634,28.5590423 C24.8415563,25.4924654 29.4934592,40.9260808 32.7657893,41.1306577 C36.0370806,41.3352346 35.7493233,28.4946577 40.5113427,26.5901192 C52.7810223,21.6854654 51.5281874,41.0288885 53.777265,40.8243115 C56.0273816,40.6197346 58.0458379,22.9617346 61.1394883,22.9617346 C68.732333,22.9617346 67.3008184,52.96185 67.3008184,52.96185" id="Fill-5" fill="#E4E5EC"></path>
                    <path d="M67.3008184,52.96185 L10.6541874,52.96185 C10.6541874,52.96185 12.0857019,34.7680038 19.0386243,31.7014269 C25.9915466,28.63485 29.0581874,43.3540038 32.3315563,43.5585808 C35.6028476,43.7631577 38.6705272,33.3380423 43.782634,32.9288885 C48.8957796,32.5186962 52.3727602,44.9895808 54.6218379,44.7850038 C56.8709155,44.5814654 58.0707699,24.9555808 61.1654592,24.9555808 C67.3008184,24.9555808 67.3008184,52.96185 67.3008184,52.96185" id="Fill-7" fill="#00D8DF"></path>
                    <path d="M67.3008184,52.96185 L10.6541874,52.96185 C10.6541874,52.96185 12.4939641,43.9677346 19.4479252,40.9011577 C26.4008476,37.8345808 30.0814398,46.3188115 33.3537699,46.5233885 C36.6261,46.7269269 37.9547699,34.4107731 43.0679155,34.0016192 C48.1800223,33.5935038 45.3419252,48.8734269 53.4458767,48.8734269 C59.3246437,48.8734269 58.429168,36.3018115 61.5228184,36.3018115 C67.6592165,36.3018115 67.3008184,52.96185 67.3008184,52.96185" id="Fill-9" fill="#FF5D12"></path>
                    <mask id="mask-2" fill="white">
                        <use xlink:href="#path-1"></use>
                    </mask>
                    <g id="Clip-12"></g>
                    <polygon id="Fill-11" fill="#E4E5EC" mask="url(#mask-2)" points="73.8944078 24.9563077 90.6892524 24.9563077 90.6892524 22.0143462 73.8944078 22.0143462"></polygon>
                    <polygon id="Fill-13" fill="#E4E5EC" mask="url(#mask-2)" points="73.8944078 31.5027692 90.6892524 31.5027692 90.6892524 28.5597692 73.8944078 28.5597692"></polygon>
                    <polygon id="Fill-14" fill="#00D8DF" mask="url(#mask-2)" points="73.8944078 38.0492308 90.6892524 38.0492308 90.6892524 35.1072692 73.8944078 35.1072692"></polygon>
                    <polygon id="Fill-15" fill="#E4E5EC" mask="url(#mask-2)" points="73.8944078 44.5967308 90.6892524 44.5967308 90.6892524 41.6547692 73.8944078 41.6547692"></polygon>
                    <polygon id="Fill-16" fill="#FF5D12" mask="url(#mask-2)" points="73.8944078 51.1431923 90.6892524 51.1431923 90.6892524 48.2012308 73.8944078 48.2012308"></polygon>
                    <polygon id="Fill-17" fill="#00D8DF" mask="url(#mask-2)" points="9.12720388 11.3202692 12.1938447 11.3202692 12.1938447 8.25473077 9.12720388 8.25473077"></polygon>
                    <polygon id="Fill-18" fill="#E4E5EC" mask="url(#mask-2)" points="15.1503689 11.3202692 29.0603689 11.3202692 29.0603689 8.25473077 15.1503689 8.25473077"></polygon>
                    <polygon id="Fill-19" fill="#00D8DF" mask="url(#mask-2)" points="9.12720388 16.4668846 12.1938447 16.4668846 12.1938447 13.4013462 9.12720388 13.4013462"></polygon>
                    <polygon id="Fill-20" fill="#E4E5EC" mask="url(#mask-2)" points="15.1503689 16.4668846 29.0603689 16.4668846 29.0603689 13.4013462 15.1503689 13.4013462"></polygon>
                    <polygon id="Fill-21" fill="#00D8DF" mask="url(#mask-2)" points="9.12720388 21.6124615 12.1938447 21.6124615 12.1938447 18.5469231 9.12720388 18.5469231"></polygon>
                    <polygon id="Fill-22" fill="#E4E5EC" mask="url(#mask-2)" points="15.1503689 21.6124615 29.0603689 21.6124615 29.0603689 18.5469231 15.1503689 18.5469231"></polygon>
                    <polygon id="Fill-23" fill="#E4E5EC" mask="url(#mask-2)" points="47.0207864 12.5248846 90.6892524 12.5248846 90.6892524 8.25473077 47.0207864 8.25473077"></polygon>
                    <polygon id="Fill-24" fill="#E4E5EC" mask="url(#mask-2)" points="35.1074272 20.9551154 57.0133398 20.9551154 57.0133398 17.3423077 35.1074272 17.3423077"></polygon>
                    <polygon id="Fill-25" fill="#D0D1DE" mask="url(#mask-2)" points="17.0150777 78.2719615 25.0598155 78.2719615 25.0598155 75.2739231 17.0150777 75.2739231"></polygon>
                    <polygon id="Fill-26" fill="#D0D1DE" mask="url(#mask-2)" points="74.245534 78.2719615 82.2902718 78.2719615 82.2902718 75.2739231 74.245534 75.2739231"></polygon>
                    <path d="M38.3656291,9.06961154 C39.4616,9.15165 40.4609592,9.61895769 40.4671922,10.7145346 L38.6419592,10.7249192 C38.6294932,10.3105731 38.2046097,10.2243808 37.9376291,10.2264577 C37.7693379,10.2274962 37.227066,10.2306115 37.2281049,10.5649962 C37.233299,11.3158038 40.5949689,10.5172269 40.6064358,12.6377654 C40.613668,13.9098808 39.6205417,14.38965 38.3967942,14.4851885 L38.4840563,15.8372654 L37.3683476,15.8434962 L37.4296388,14.4810346 C36.2941922,14.3699192 35.2345806,13.8434192 35.2273087,12.6979962 L37.0535806,12.6876115 L37.0535806,12.7270731 C37.0670854,13.2307269 37.630134,13.3262654 37.9158136,13.3241885 C38.1931825,13.32315 38.7354544,13.2992654 38.7333767,12.9347654 C38.7292214,12.1559192 35.3675515,12.8859577 35.3550854,10.8329192 C35.3488524,9.65011154 36.264066,9.18903462 37.397435,9.08518846 L37.3205612,7.72376538 L38.4352311,7.71649615 L38.3656291,9.06961154 Z" id="Fill-27" fill="#00D8DF" mask="url(#mask-2)"></path>
                    <polygon id="Fill-28" fill="#FF5D12" mask="url(#mask-2)" points="45.4902709 10.8493269 43.7720379 7.50651923 42.0538049 10.8493269 43.2328825 10.8493269 43.2328825 15.8443269 44.3257369 15.8443269 44.3257369 10.8493269"></polygon>
                    <path d="M93.1001806,28.8206308 C93.1001806,28.8206308 91.4879087,29.8009385 90.1374233,32.4957462 C88.7879767,35.1905538 87.9434039,36.6350538 87.7823845,36.5062846 C87.0635107,35.9320154 85.1655592,34.3078615 82.3877146,29.9546308 C82.0500932,29.4250154 82.4001806,29.0823231 82.4116078,28.6690154 C82.423035,28.2557077 82.9777728,27.2972077 82.8583068,27.0251308 C82.7378019,26.7530538 82.4001806,26.8184769 82.0739864,27.4716692 C81.7467534,28.1248615 81.8568699,28.5277846 81.5950835,28.3419 C81.3332971,28.1570538 80.6912971,27.3512077 80.4835301,27.0147462 C80.2768019,26.6772462 79.6233748,26.0126308 79.4488505,26.1216692 C79.2836757,26.2244769 79.2442,26.4030923 80.2290155,27.8133231 C79.8726951,27.3107077 78.9917631,26.1465923 78.6873845,26.4259385 C78.4598796,26.6357077 79.326268,27.6793615 79.7179087,28.1445923 C79.382365,27.7551692 78.6177825,26.9337462 78.3445689,27.2047846 C78.0131806,27.5350154 79.6431126,28.7718231 79.6431126,28.7718231 C79.6431126,28.7718231 78.4255981,27.8081308 78.262501,28.0916308 C78.0994039,28.3751308 78.8068505,29.0013231 79.5039087,29.3928231 C80.200967,29.7853615 80.3256272,29.9255538 80.6081903,30.0678231 C80.7879087,30.1581692 81.0777437,30.6119769 81.246035,30.8913231 C81.2564233,30.9152077 86.3508699,41.8169769 88.1781806,40.8117462 C90.0075689,39.8054769 92.4374039,36.2352462 92.4374039,36.2352462 C92.4374039,36.2352462 93.1136854,35.1157846 93.3796272,33.3836308 C93.613365,31.8529385 93.4679282,29.7531692 93.1001806,28.8206308" id="Fill-29" fill="#F88667" mask="url(#mask-2)"></path>
                    <path d="M89.1335971,33.4937077 C89.5023835,32.6317846 91.6351117,28.3149 93.1580437,27.6669 L95.1993544,28.4634 C96.1000243,29.5849385 94.950034,32.2454769 94.5781311,32.5466308 C94.2633641,32.8000154 92.7518592,35.9102077 92.4381311,36.2352462 C90.456034,34.8395538 89.1335971,33.4937077 89.1335971,33.4937077" id="Fill-30" fill="#FF5D12" mask="url(#mask-2)"></path>
                    <path d="M96.831468,21.4347808 L99.7589049,21.8906654 C99.7589049,21.8906654 98.9361476,24.4920115 100.198332,26.7122423 C100.198332,26.7122423 98.0946913,28.9906269 96.6268175,28.3883192 C95.0581767,27.7444731 95.6420019,26.1608192 95.6420019,26.1608192 C95.6420019,26.1608192 97.2407689,24.8959731 96.831468,21.4347808" id="Fill-31" fill="#E45940" mask="url(#mask-2)"></path>
                    <path d="M102.695276,76.1142462 C102.695276,76.1142462 103.48479,79.2462462 103.033936,79.7550923 C102.58412,80.2649769 96.0186835,81.3854769 95.386033,80.8652077 C94.7523437,80.3449385 94.9497223,79.3044 96.2867029,78.7394769 C97.7202951,78.1330154 98.5025379,78.4435154 99.3834699,77.9346692 C100.265441,77.4258231 99.8270524,75.9896308 99.8270524,75.9896308 L102.695276,76.1142462 Z" id="Fill-32" fill="#424444" mask="url(#mask-2)"></path>
                    <path d="M94.5326301,75.5757 C94.5326301,75.5757 94.690533,79.5042 94.1669602,79.9382769 C93.6444262,80.3733923 86.9844553,80.4751615 86.439067,79.8635077 C85.8936786,79.2518538 86.2094845,78.3805846 87.5599699,78.0825462 C88.7733291,77.8135846 89.6771155,78.0513923 90.6141447,77.6515846 C91.4358631,77.3005846 91.8451641,75.4593923 91.8451641,75.4593923 L94.5326301,75.5757 Z" id="Fill-33" fill="#424444" mask="url(#mask-2)"></path>
                    <path d="M91.7225816,42.8296846 L100.282582,41.3083385 C100.282582,41.3083385 97.0424553,58.9237615 96.6123777,60.9549923 C96.1823,62.9862231 94.904533,76.3771846 94.904533,76.3771846 L91.1740767,75.9389538 C91.1740767,75.9389538 91.2166689,61.3039154 91.4046981,60.0016846 C91.5927272,58.6994538 91.7225816,42.8296846 91.7225816,42.8296846" id="Fill-34" fill="#00D8DF" mask="url(#mask-2)"></path>
                    <path d="M94.8846913,49.8413769 C94.4608466,47.0790692 94.7465262,44.9325692 94.1356913,43.5856846 C93.8936427,43.0508769 93.1030893,43.1900308 92.9244097,42.6438 C93.0334874,42.5139923 93.1269825,42.3769154 93.1903515,42.2232231 L100.299099,41.1598385 C100.299099,41.1598385 97.0755942,56.3452615 96.239332,60.0702231 C96.239332,60.0702231 95.2223126,52.0460308 94.8846913,49.8413769" id="Fill-35" fill="#00A7CC" mask="url(#mask-2)"></path>
                    <path d="M95.2732155,41.9748231 L102.147186,43.7246308 C102.147186,43.7246308 103.033313,46.2491308 102.563759,49.4226692 C101.997594,53.2452462 101.941497,59.2402846 101.872934,60.0534 C101.802293,60.8665154 103.157973,73.7839385 103.261856,76.8754385 L99.5573709,77.0332846 C99.5573709,77.0332846 96.718235,60.8519769 96.5520214,60.4968231 C96.3858078,60.1416692 95.2732155,41.9748231 95.2732155,41.9748231" id="Fill-36" fill="#00D8DF" mask="url(#mask-2)"></path>
                    <path d="M92.095835,35.9570423 C92.240233,33.0618115 91.4569515,28.6940423 93.1575243,27.6670038 C94.5838447,26.8050808 95.7598058,26.1072346 95.7598058,26.1072346 C95.7598058,26.1072346 96.186767,27.1446577 97.1996311,27.2806962 C98.2145728,27.4167346 99.824767,25.8901962 99.824767,25.8901962 C99.824767,25.8901962 101.681165,26.9826577 103.35265,27.7293115 C102.947505,29.0710038 103.783767,30.2735423 103.776495,31.6110808 C103.773379,32.3961577 103.884534,33.1064654 104.067369,33.7908115 C103.387971,35.2446577 102.72935,36.6683885 102.587029,37.6912731 C102.215126,40.3289654 103.407709,44.3800038 103.407709,44.3800038 C103.407709,44.3800038 100.703621,45.0363115 97.0396505,45.3447346 C95.0606699,45.5108885 92.7741942,45.1038115 90.7588544,44.5980808 C90.7588544,44.5980808 91.9503981,38.8522731 92.095835,35.9570423" id="Fill-37" fill="#FF5D12" mask="url(#mask-2)"></path>
                    <path d="M104.06685,33.7867615 C104.013869,33.5915308 103.982704,33.3859154 103.943228,33.1844538 C103.914141,33.0349154 103.872587,32.8916077 103.851811,32.7379154 C103.801947,32.3775692 103.775976,32.0037231 103.777015,31.6111846 C103.78117,30.9548769 103.733383,30.2549538 103.728189,29.5529538 C103.382257,29.8063385 102.958413,30.4148769 102.538723,30.1698 C100.569092,29.0129538 100.298995,34.2893769 100.298995,36.9478385 C100.298995,39.5959154 100.23251,42.7081846 99.1822476,45.1153385 C101.707655,44.7913385 103.407189,44.3801077 103.407189,44.3801077 C103.407189,44.3801077 103.239937,43.8099923 103.04983,42.9584538 C102.955296,42.5337231 102.854529,42.0373385 102.766228,41.5077231 C102.737141,41.3311846 102.709092,41.1494538 102.683121,40.9666846 C102.606248,40.4173385 102.547034,39.8461846 102.525218,39.2874923 C102.502364,38.7298385 102.516908,38.1856846 102.58651,37.6913769 C102.730908,36.6653769 103.389529,35.2416462 104.06685,33.7867615" id="Fill-38" fill="#D64C1D" mask="url(#mask-2)"></path>
                    <path d="M99.703535,16.6075962 C99.703535,16.6075962 95.5128748,15.9730962 95.0298165,16.4372885 C94.5477971,16.9014808 94.4678068,18.5889808 94.4875447,20.01375 C94.5083214,21.4395577 93.9078748,24.1686346 95.5720883,24.6733269 C97.2383796,25.1769808 100.414098,23.6224038 101.539156,20.7977885 C102.97171,17.2005577 99.9902534,16.6480962 99.703535,16.6075962" id="Fill-39" fill="#F88667" mask="url(#mask-2)"></path>
                    <path d="M100.413683,16.2729 C100.413683,16.2729 98.4315854,16.3393615 98.0835757,19.3249385 C97.9256728,20.6697462 97.5880515,21.7071692 98.0035854,21.7746692 C98.4180806,21.8411308 98.8471194,21.5607462 98.8471194,21.1723615 C98.8471194,20.7839769 98.9665854,19.5170538 99.7571388,19.8690923 C100.547692,20.2221692 100.279673,21.7476692 99.2751194,22.1890154 C99.2751194,22.1890154 99.0673524,23.0457462 99.8714107,23.5275923 C99.8714107,23.5275923 101.960508,22.2149769 102.26177,19.8690923 C102.563032,17.5242462 101.678983,16.2064385 100.413683,16.2729" id="Fill-40" fill="#424444" mask="url(#mask-2)"></path>
                    <path d="M101.207976,16.5365654 C101.207976,16.5365654 100.738422,14.6621423 98.5288204,14.5157192 C96.3192184,14.3672192 94.5521602,15.6933346 93.4935874,17.4607962 C93.4935874,17.4607962 94.0961117,18.5169115 96.3732379,18.6519115 C97.3196165,18.70695 99.0025291,18.4442192 99.8419078,18.0091038 C101.022024,17.39745 101.207976,16.5365654 101.207976,16.5365654" id="Fill-41" fill="#424444" mask="url(#mask-2)"></path>
                    <path d="M106.89113,40.76595 C106.754004,40.0940654 106.120315,36.1261038 105.898004,34.6577192 C104.612965,35.0814115 103.426616,35.5206808 102.10314,35.8737577 C102.495819,36.8125269 103.408955,40.3484885 103.5118,41.3080269 C103.655159,42.6476423 103.046402,48.5710269 102.864606,50.6219885 C102.849023,50.7860654 102.837596,50.9252192 102.827208,51.0415269 C102.7628,51.4029115 102.623596,51.9179885 102.353499,52.2554885 C102.053276,52.6334885 101.048722,53.8599115 101.22013,54.3947192 C101.390499,54.9305654 102.2278,53.9502577 102.534256,53.6169115 C102.839674,53.2835654 102.892654,54.3978346 102.816819,54.9970269 C102.740984,55.5972577 101.532819,56.60145 101.661635,57.0137192 C101.750975,57.3013731 102.1208,57.0936808 102.588276,56.5630269 C102.368043,56.8911808 102.201829,57.2110269 102.324412,57.2951423 C102.489586,57.4072962 102.790849,57.2006423 103.11912,56.8465269 C102.943557,57.1186038 102.831363,57.3626423 102.946674,57.4228731 C103.118082,57.5121808 103.462975,57.2266038 103.777742,56.8828731 C103.613606,57.1300269 103.501412,57.3667962 103.617761,57.4405269 C103.836955,57.5776038 104.542324,56.9306423 104.811383,56.0811808 C105.030577,55.3926808 104.51012,53.4507577 104.32313,52.4590269 C104.268072,52.15995 104.289887,51.8639885 104.38546,51.5742577 C104.954742,49.8535269 107.27446,42.6486808 106.89113,40.76595" id="Fill-42" fill="#F88667" mask="url(#mask-2)"></path>
                    <path d="M102.102724,37.1678885 C103.423083,36.9674654 105.207802,36.41085 106.727617,35.7784269 C106.373375,33.2840423 105.495559,29.8571192 104.206365,28.4915423 C103.849006,28.1114654 103.211161,27.4167346 102.631491,27.6161192 C101.866909,27.8778115 100.889365,28.9214654 100.812491,30.9464654 C100.793792,31.4407731 101.22387,34.4035038 101.577074,35.3547346 C101.734977,35.7794654 101.891841,36.5551962 102.102724,37.1678885" id="Fill-43" fill="#FF5D12" mask="url(#mask-2)"></path>
                </g>
            </g>
        </g>
    </g>
</svg>