<?xml version="1.0" encoding="UTF-8"?>
<svg width="77px" height="82px" viewBox="0 0 77 82" version="1.1" xmlns="http://www.w3.org/2000/svg" xmlns:xlink="http://www.w3.org/1999/xlink">
    <title>03834DF4-8047-4B53-A03D-48E9F70611C9</title>
    <defs>
        <polygon id="path-1" points="0 82 76.9893092 82 76.9893092 0.583213483 0 0.583213483"></polygon>
    </defs>
    <g id="Page-1" stroke="none" stroke-width="1" fill="none" fill-rule="evenodd">
        <g id="SERVICES" transform="translate(-178.000000, -810.000000)">
            <g id="Group-39-Copy" transform="translate(178.000000, 810.000000)">
                <polygon id="Fill-1" fill="#424444" points="46 77 32 77 33.1504241 60 44.8495759 60"></polygon>
                <g id="Group-38">
                    <path d="M47.3935446,74.7849213 C47.2228001,74.5278652 46.9351825,74.3730787 46.6274773,74.3730787 L38.8188864,74.3730787 L38.1706054,74.3730787 L30.3620145,74.3730787 C30.0543093,74.3730787 29.7666916,74.5278652 29.5959472,74.7849213 L27.4657505,77.9921348 C27.0557812,78.6103596 27.4940557,79.4404944 28.2309047,79.4404944 L38.1706054,79.4404944 L38.8188864,79.4404944 L48.7585871,79.4404944 C49.4954361,79.4404944 49.9346237,78.6103596 49.5237413,77.9921348 L47.3935446,74.7849213 Z" id="Fill-2" fill="#424444"></path>
                    <path d="M73.0210987,64.9384719 L3.96912353,64.9384719 C1.77683791,64.9384719 0,63.1455281 0,60.9342921 L0,16.8662022 C0,14.6549663 1.77683791,12.8620225 3.96912353,12.8620225 L73.0210987,12.8620225 C75.2124712,12.8620225 76.9893092,14.6549663 76.9893092,16.8662022 L76.9893092,60.9342921 C76.9893092,63.1455281 75.2124712,64.9384719 73.0210987,64.9384719" id="Fill-4" fill="#424444"></path>
                    <mask id="mask-2" fill="white">
                        <use xlink:href="#path-1"></use>
                    </mask>
                    <g id="Clip-7"></g>
                    <polygon id="Fill-6" fill="#FF5D12" mask="url(#mask-2)" points="3.5445451 60.9490337 73.4447641 60.9490337 73.4447641 16.3115506 3.5445451 16.3115506"></polygon>
                    <path d="M64.3112146,74.1978382 C56.1903531,72.6794562 46.7217976,70.8782202 46.6961056,74.0513438 C46.6715786,77.0503326 50.270908,79.3758157 53.3799178,80.8610292 C55.0654486,80.2124 56.9673773,80.0898607 58.766129,79.8088494 C61.9472714,79.3122427 65.0690642,79.8254337 68.253859,79.8199056 C71.5737884,78.4452539 73.3287126,76.0294787 73.3287126,76.0294787 C73.3287126,76.0294787 70.5694093,75.3688719 64.3112146,74.1978382" id="Fill-8" fill="#616161" mask="url(#mask-2)"></path>
                    <path d="M57.4716669,79.8856899 C57.7291532,80.0192854 54.6247088,81.4998921 54.8721512,81.6242742 C56.2006708,82.0453303 69.2868173,82.1208809 70.4865937,81.8085438 C72.56018,81.2704764 66.6407349,78.6731955 68.7079297,78.2392404 C72.1082094,75.8133303 74.0192689,72.6374427 72.1776029,72.2412629 C70.1012774,71.794409 66.8562199,72.8991056 64.7570676,73.1202292 C63.1582787,73.288836 62.2315107,73.3975551 60.7130722,72.863173 L55.6026088,72.2947011 C50.3624892,73.3450382 49.2841512,75.2476225 49.2293669,75.2227461 C49.2293669,75.976409 53.0514859,77.5307236 56.4773316,79.362364 C56.8224728,79.4802966 57.154831,79.6516674 57.4716669,79.8856899" id="Fill-9" fill="#00BAD1" mask="url(#mask-2)"></path>
                    <path d="M57.4716669,79.8856899 C57.7291532,80.0192854 54.6247088,81.4998921 54.8721512,81.6242742 C56.2006708,82.0453303 69.2868173,82.1208809 70.4865937,81.8085438 C72.56018,81.2704764 66.6407349,78.6731955 68.7079297,78.2392404 C72.1082094,75.8133303 74.0192689,72.6374427 72.1776029,72.2412629 C70.1012774,71.794409 66.8562199,72.8991056 64.7570676,73.1202292 C63.1582787,73.288836 62.2315107,73.3975551 60.7130722,72.863173 L55.6026088,72.2947011 C50.3624892,73.3450382 49.2841512,75.2476225 49.2293669,75.2227461 C49.2293669,75.976409 53.0514859,77.5307236 56.4773316,79.362364 C56.8224728,79.4802966 57.154831,79.6516674 57.4716669,79.8856899" id="Fill-10" fill="#00547A" mask="url(#mask-2)"></path>
                    <path d="M55.5185148,77.8566966 L57.1803057,80.1268989 C57.1803057,80.1268989 55.3760756,81.3983596 54.8720599,81.6240899 C54.3680442,81.8498202 50.2920913,82.0175056 49.2247103,81.1910562 C48.2668978,80.4493708 47.9372789,79.4773483 48.4285116,79.0194382 C49.0530527,78.434382 50.5641867,78.249191 51.316558,78.1478427 C52.9737835,77.9276404 55.5185148,77.8566966 55.5185148,77.8566966" id="Fill-11" fill="#000000" mask="url(#mask-2)"></path>
                    <path d="M54.5135879,77.9394337 L55.4704873,81.3613213 C55.4704873,81.3613213 71.5597271,81.1208494 73.2416056,78.6286022 C75.4001075,76.379591 76.2739173,71.9589618 71.9249559,71.8705124 C71.2684572,71.8566921 70.2111199,72.0676809 69.119999,72.4389843 C63.2179023,74.4466022 54.5135879,77.9394337 54.5135879,77.9394337" id="Fill-12" fill="#00BAD1" mask="url(#mask-2)"></path>
                    <path d="M72.2926499,77.7073461 C71.2891839,77.7073461 70.4500708,77.2015258 69.62648,76.6984697 C68.5947088,76.0682674 67.467065,75.6527393 66.2946807,75.3781775 C65.2775186,75.1404697 64.2137898,74.7802225 63.3984166,74.4992112 C58.7216624,76.0304921 54.513314,77.9395258 54.513314,77.9395258 L55.2638591,80.6224921 C55.6738284,80.7210764 56.0865369,80.8279528 56.4974192,80.9412787 C56.9877388,80.9873461 57.4817107,81.042627 57.9574212,81.1725371 C58.0587722,81.2001775 58.1601231,81.2204472 58.2633003,81.2379528 C62.8861833,80.9827393 72.2022558,80.2604022 73.4376421,78.4296831 C73.6348656,78.1376157 74.0439218,77.6308742 74.1900133,77.2991888 C73.8256976,77.434627 72.7446205,77.7073461 72.2926499,77.7073461" id="Fill-13" fill="#00547A" mask="url(#mask-2)"></path>
                    <path d="M68.3669886,78.0636315 L66.9727278,79.8473618 C66.9727278,79.8473618 69.248103,81.2450472 69.7219873,81.4763056 C70.1958716,81.7066427 73.4847566,81.8623506 74.5283978,81.1059236 C75.4642965,80.4287326 75.8076115,79.5110697 75.3529017,79.059609 C74.7749272,78.4828449 73.3395782,78.2589573 72.6246429,78.1401034 C71.0505069,77.8784404 68.3669886,78.0636315 68.3669886,78.0636315" id="Fill-14" fill="#000000" mask="url(#mask-2)"></path>
                    <path d="M69.9827607,77.6223056 L68.5510639,81.620036 C68.5510639,81.620036 48.790362,80.0500584 47.1824424,77.2657438 C46.2218907,75.6017888 46.0821907,73.0137213 48.1530378,72.0905303 C49.42586,71.5229798 51.2273508,71.2309124 53.7894306,72.1200135 C60.1590201,74.3321708 69.9827607,77.6223056 69.9827607,77.6223056" id="Fill-15" fill="#00BAD1" mask="url(#mask-2)"></path>
                    <path d="M62.2153493,51.1029528 L60.8165232,51.1029528 L59.4176971,51.1029528 C59.4176971,51.1029528 59.0150324,54.9486607 58.2845748,55.4065708 C58.2845748,55.4065708 57.3842859,59.9497393 60.8165232,59.9497393 C64.9700873,59.9497393 63.3484716,55.4065708 63.3484716,55.4065708 C62.6180141,54.9486607 62.2153493,51.1029528 62.2153493,51.1029528" id="Fill-16" fill="#E45940" mask="url(#mask-2)"></path>
                    <path d="M64.4543842,51.8556022 C64.0663287,51.4059843 63.600662,52.0905461 63.600662,52.0905461 C63.600662,52.0905461 64.2407254,49.5476247 63.600662,48.4327933 C62.9615117,47.3170404 60.8870124,47.9039393 60.8870124,47.9039393 C60.8870124,47.9039393 58.812513,47.3170404 58.1733627,48.4327933 C57.5332993,49.5476247 58.1733627,52.0905461 58.1733627,52.0905461 C58.1733627,52.0905461 57.707696,51.4059843 57.3205535,51.8556022 C56.932498,52.3061416 57.9597039,53.4403213 58.1925372,53.5776022 C58.1925372,53.5776022 59.6854097,56.394164 60.8870124,56.394164 C62.089528,56.394164 63.5814875,53.5776022 63.5814875,53.5776022 C63.8143208,53.4403213 64.8415267,52.3061416 64.4543842,51.8556022" id="Fill-17" fill="#F88667" mask="url(#mask-2)"></path>
                    <path d="M60.3651918,48.911618 C60.3651918,48.911618 58.7947081,49.1907865 58.6203114,50.041191 C58.5363088,50.4548764 58.6294421,50.9026517 58.704314,51.310809 C58.7444892,51.5264045 58.895146,52.683618 58.8385356,52.7121798 C58.7828382,52.7398202 58.6769218,52.7103371 58.6349205,52.6762472 C58.4221748,52.5067191 58.2559957,52.252427 58.1044258,52.0294607 C57.8058512,51.5890562 57.3776205,51.662764 57.2534427,51.9419326 C57.2534427,51.9419326 56.9046493,47.7673034 58.6349205,47.620809 C60.3651918,47.4733933 60.3651918,48.911618 60.3651918,48.911618" id="Fill-18" fill="#424444" mask="url(#mask-2)"></path>
                    <path d="M61.3874671,48.911618 C61.3874671,48.911618 62.9579507,49.1907865 63.1323475,50.041191 C63.2163501,50.4548764 63.1232167,50.9026517 63.0483448,51.310809 C63.0081697,51.5264045 62.8575128,52.683618 62.9141233,52.7121798 C62.9689076,52.7398202 63.075737,52.7103371 63.1177383,52.6762472 C63.3304841,52.5067191 63.4966631,52.252427 63.6482331,52.0294607 C63.9468076,51.5890562 64.3750383,51.662764 64.4992161,51.9419326 C64.4992161,51.9419326 64.8480095,47.7673034 63.1177383,47.620809 C61.3874671,47.4733933 61.3874671,48.911618 61.3874671,48.911618" id="Fill-19" fill="#424444" mask="url(#mask-2)"></path>
                    <path d="M63.6955302,47.8674539 C63.6955302,47.8674539 63.7329661,47.1801281 62.9577681,46.7544652 C62.1825701,46.3297236 60.6413047,46.1390045 59.4196145,46.7544652 C58.1988374,47.3708472 57.8281302,47.5108921 57.4720322,47.3054315 C57.115021,47.0999708 57.3414629,46.8945101 57.3414629,46.8945101 C57.3414629,46.8945101 56.5416119,46.8871393 56.5799609,48.1383303 C56.619223,49.3904427 58.1440531,50.9466 60.137289,50.9466 C63.1814707,50.9466 64.1657622,48.7989371 63.6955302,47.8674539" id="Fill-20" fill="#424444" mask="url(#mask-2)"></path>
                    <path d="M63.348289,55.4064787 C63.2012844,59.2687708 60.8163406,58.869827 60.8163406,58.869827 C60.8163406,58.869827 58.4323099,59.2687708 58.2853053,55.4064787 C58.2853053,55.4064787 54.4768824,56.4687933 52.6196942,57.724591 C52.6196942,57.724591 53.4095014,61.0985685 53.4597203,64.8429281 L55.6373968,73.3525011 L60.8163406,72.3989056 L65.9943713,73.3525011 L68.1720478,64.8429281 C68.2222667,61.0985685 69.012987,57.724591 69.012987,57.724591 C67.1548857,56.4687933 63.348289,55.4064787 63.348289,55.4064787" id="Fill-21" fill="#D0D1DE" mask="url(#mask-2)"></path>
                    <path d="M67.7967752,59.9565573 C65.4300929,61.2298607 64.2787092,64.158827 61.9795942,65.5933663 C59.6010419,67.0785798 57.9173373,64.0786697 56.7604752,62.518827 C55.7624876,61.1727371 54.49697,60.0901528 52.9529654,59.4599506 C53.175755,60.796827 53.4323282,62.7611416 53.4597203,64.8424674 L55.6373968,73.3520404 L60.8154275,72.7117034 L65.9943713,73.3520404 L68.1720478,64.8424674 C68.1994399,62.8026022 68.4459693,60.8769843 68.6660197,59.5428719 C68.3647059,59.6737034 68.0706968,59.8082202 67.7967752,59.9565573" id="Fill-22" fill="#B8B9CD" mask="url(#mask-2)"></path>
                    <path d="M52.6192376,57.7246831 C52.6192376,57.7246831 48.3031468,67.9534921 48.2520148,69.3622337 C48.1524899,72.0903461 54.0664566,73.1950427 56.7627579,72.6938292 L57.8602703,72.4892899 C57.8602703,72.4892899 53.8573631,57.6509753 52.6192376,57.7246831" id="Fill-23" fill="#D0D1DE" mask="url(#mask-2)"></path>
                    <path d="M69.0036737,57.7246831 C69.0036737,57.7246831 73.3617658,67.9525708 73.3709393,69.3622337 C73.389158,72.1207506 67.5564547,73.1950427 64.8592403,72.6938292 L63.762641,72.4892899 C63.762641,72.4892899 67.7655482,57.6509753 69.0036737,57.7246831" id="Fill-24" fill="#D0D1DE" mask="url(#mask-2)"></path>
                    <path d="M54.4551513,61.3169281 C54.4478467,61.7905011 54.3948886,62.2861865 54.2752761,62.8168831 C53.8580023,64.6724787 53.2024167,66.6100742 53.8908729,68.4951528 C54.4113239,69.9204787 55.2467846,71.3688382 56.0165042,72.7379618 C56.2831212,72.7480966 56.534216,72.7361191 56.762484,72.6937371 L57.8599964,72.4891978 C57.8599964,72.4891978 56.0247219,65.6878045 54.4551513,61.3169281" id="Fill-25" fill="#B8B9CD" mask="url(#mask-2)"></path>
                    <path d="M66.428537,72.6413124 C66.771852,71.7789303 66.9818586,70.8723236 66.949901,69.9049079 C66.8868991,68.008773 66.8768553,66.1117169 66.9060736,64.2146607 C66.9197697,63.3946607 66.9407703,62.6004584 66.9882501,61.8228404 C65.4615939,66.1918742 63.7623671,72.4892899 63.7623671,72.4892899 L64.8598795,72.6938292 C65.310937,72.7776719 65.8478233,72.7481888 66.428537,72.6413124" id="Fill-26" fill="#B8B9CD" mask="url(#mask-2)"></path>
                    <polygon id="Fill-27" fill="#424444" mask="url(#mask-2)" points="54.0301163 73.4194831 67.6029301 73.4194831 67.6029301 72.6077753 54.0301163 72.6077753"></polygon>
                    <path d="M69.5989052,63.1124517 L52.0341412,63.1124517 C52.0341412,63.1124517 51.0863725,63.1124517 51.2488993,64.179373 C51.4114261,65.2472157 53.6247124,72.7119798 54.0721176,72.7119798 L60.8160667,72.7119798 L67.5618418,72.7119798 C67.9535497,72.7119798 70.2225333,65.2472157 70.3841471,64.179373 C70.5475869,63.1124517 69.5989052,63.1124517 69.5989052,63.1124517" id="Fill-28" fill="#424444" mask="url(#mask-2)"></path>
                    <path d="M61.543511,68.2802022 C61.543511,68.6855955 61.2184575,69.0135955 60.8167058,69.0135955 C60.4149542,69.0135955 60.0899006,68.6855955 60.0899006,68.2802022 C60.0899006,67.8757303 60.4149542,67.546809 60.8167058,67.546809 C61.2184575,67.546809 61.543511,67.8757303 61.543511,68.2802022" id="Fill-29" fill="#FFFFFF" mask="url(#mask-2)"></path>
                    <path d="M14.9822315,38.6305685 C14.9822315,38.6305685 36.9763073,66.6275798 62.0072603,38.6305685 C36.9763073,10.6344787 14.9822315,38.6305685 14.9822315,38.6305685" id="Fill-30" fill="#424444" mask="url(#mask-2)"></path>
                    <path d="M18.2737644,38.6305685 C18.2737644,38.6305685 37.1889618,62.7072427 58.7155448,38.6305685 C37.1889618,14.5538944 18.2737644,38.6305685 18.2737644,38.6305685" id="Fill-31" fill="#FFFFFF" mask="url(#mask-2)"></path>
                    <path d="M48.947319,38.6305685 C48.947319,44.4553326 44.2678256,49.178164 38.494472,49.178164 C32.7220314,49.178164 28.042538,44.4553326 28.042538,38.6305685 C28.042538,32.8058045 32.7220314,28.0838944 38.494472,28.0838944 C44.2678256,28.0838944 48.947319,32.8058045 48.947319,38.6305685" id="Fill-32" fill="#00D8DF" mask="url(#mask-2)"></path>
                    <path d="M45.0783595,38.6305685 C45.0783595,42.2993775 42.1309634,45.2734899 38.4951111,45.2734899 C34.8592588,45.2734899 31.9109497,42.2993775 31.9109497,38.6305685 C31.9109497,34.9617596 34.8592588,31.9876472 38.4951111,31.9876472 C42.1309634,31.9876472 45.0783595,34.9617596 45.0783595,38.6305685" id="Fill-33" fill="#424444" mask="url(#mask-2)"></path>
                    <path d="M46.2848014,34.4458045 C46.2848014,35.9383888 45.085938,37.1481191 43.6076746,37.1481191 C42.1284981,37.1481191 40.9296347,35.9383888 40.9296347,34.4458045 C40.9296347,32.9532202 42.1284981,31.7444112 43.6076746,31.7444112 C45.085938,31.7444112 46.2848014,32.9532202 46.2848014,34.4458045" id="Fill-34" fill="#FFFFFF" mask="url(#mask-2)"></path>
                    <path d="M36.1063324,21.8330989 L7.80566902,21.8330989 C7.02407948,21.8330989 6.39132065,21.1936831 6.39132065,20.405009 L6.39132065,2.01121124 C6.39132065,1.22253708 7.02407948,0.583121348 7.80566902,0.583121348 L36.1063324,0.583121348 C36.887922,0.583121348 37.5215939,1.22253708 37.5215939,2.01121124 L37.5215939,20.405009 C37.5215939,21.1936831 36.887922,21.8330989 36.1063324,21.8330989" id="Fill-35" fill="#E5E6ED" mask="url(#mask-2)"></path>
                    <polygon id="Fill-36" fill="#424444" mask="url(#mask-2)" points="7.80585163 20.1397528 36.106515 20.1397528 36.106515 2.27480899 7.80585163 2.27480899"></polygon>
                    <polygon id="Fill-37" fill="#FF5D12" mask="url(#mask-2)" points="18.1472126 7.07531011 18.1472126 15.8262764 26.5894754 11.4507933"></polygon>
                </g>
            </g>
        </g>
    </g>
</svg>