<?xml version="1.0" encoding="UTF-8"?>
<svg width="95px" height="90px" viewBox="0 0 95 90" version="1.1" xmlns="http://www.w3.org/2000/svg" xmlns:xlink="http://www.w3.org/1999/xlink">
    <title>3A780CB9-8D41-4649-9F51-5453B6C01FC6</title>
    <defs>
        <polygon id="path-1" points="0 89.8972759 94.9039674 89.8972759 94.9039674 -0.000310344828 0 -0.000310344828"></polygon>
    </defs>
    <g id="Page-1" stroke="none" stroke-width="1" fill="none" fill-rule="evenodd">
        <g id="SERVICES" transform="translate(-540.000000, -1060.000000)">
            <g id="Group-42" transform="translate(540.000000, 1060.000000)">
                <path d="M84.8221957,7.887 C84.8221957,7.887 89.5019783,8.9307931 94.9035543,13.649069 L88.4249674,25.499069 C88.4249674,25.499069 85.9539348,22.8466552 81.7832283,21.9363103 L84.8221957,7.887 Z" id="Fill-1" fill="#FF5D12"></path>
                <path d="M85.9889402,15.4056207 C86.556875,13.2859655 87.0215489,11.1342414 87.5688315,9.00837931 C85.8877446,8.19837931 84.8220924,7.887 84.8220924,7.887 L81.783125,21.9363103 C83.4786685,20.4601034 83.9319837,21.0218276 84.229375,20.8666552 C84.7353533,19.0397586 85.5015489,17.2232069 85.9889402,15.4056207" id="Fill-3" fill="#D64C1D"></path>
                <path d="M59.4688641,1.42903448 C59.4688641,1.42903448 77.788375,-0.402 87.9698967,4.87386207 L84.229788,20.8669655 C84.229788,20.8669655 75.2440272,16.0317931 60.3352228,18.0986897 L59.4688641,1.42903448 Z" id="Fill-5" fill="#FF5D12"></path>
                <mask id="mask-2" fill="white">
                    <use xlink:href="#path-1"></use>
                </mask>
                <g id="Clip-8"></g>
                <polygon id="Fill-7" fill="#424444" mask="url(#mask-2)" points="59.451413 62.8993448 60.9177174 62.8993448 60.9177174 -0.000310344828 59.451413 -0.000310344828"></polygon>
                <polygon id="Fill-9" fill="#424444" mask="url(#mask-2)" points="58.33 63.9503793 62.0380978 63.9503793 62.0380978 60.999 58.33 60.999"></polygon>
                <polygon id="Fill-10" fill="#424444" mask="url(#mask-2)" points="56.8833152 64.7893448 63.4868478 64.7893448 63.4868478 63.3048621 56.8833152 63.3048621"></polygon>
                <path d="M33.2331685,27.8295517 L33.2331685,38.3119655 L35.8456685,38.3119655 L35.8456685,30.9247241 C35.8456685,30.1778276 36.4497446,29.5726552 37.1963207,29.5726552 L48.4156141,29.5726552 C49.1611576,29.5726552 49.7652337,30.1778276 49.7652337,30.9247241 L49.7652337,38.3119655 L52.3787663,38.3119655 L52.3787663,27.8295517 C52.3787663,27.0826552 51.7736576,26.4774828 51.0281141,26.4774828 L34.582788,26.4774828 C33.8372446,26.4774828 33.2331685,27.0826552 33.2331685,27.8295517" id="Fill-11" fill="#D0D1DE" mask="url(#mask-2)"></path>
                <path d="M81.0245707,89.8974828 L4.58674457,89.8974828 C2.05272283,89.8974828 -0.00010326087,87.8398966 -0.00010326087,85.3023103 L-0.00010326087,39.3567931 C-0.00010326087,36.8181724 2.05272283,34.7616207 4.58674457,34.7616207 L81.0245707,34.7616207 C83.5575598,34.7616207 85.6103859,36.8181724 85.6103859,39.3567931 L85.6103859,85.3023103 C85.6103859,87.8398966 83.5575598,89.8974828 81.0245707,89.8974828" id="Fill-12" fill="#424444" mask="url(#mask-2)"></path>
                <path d="M85.6107989,50.1234828 L85.6107989,39.3565862 C85.6107989,36.819 83.5579728,34.7614138 81.0249837,34.7614138 L4.586125,34.7614138 C2.05313587,34.7614138 0.000309782609,36.819 0.000309782609,39.3565862 L0.000309782609,50.1234828 C0.000309782609,56.6593448 5.28933152,61.9579655 11.8133533,61.9579655 L73.798788,61.9579655 C80.3217772,61.9579655 85.6107989,56.6593448 85.6107989,50.1234828" id="Fill-13" fill="#565656" mask="url(#mask-2)"></path>
                <polygon id="Fill-14" fill="#D0D1DE" mask="url(#mask-2)" points="40.0827717 65.6707241 45.52875 65.6707241 45.52875 59.4752069 40.0827717 59.4752069"></polygon>
                <polygon id="Fill-15" fill="#424444" mask="url(#mask-2)" points="41.9259783 63.9772759 43.6855435 63.9772759 43.6855435 62.4462414 41.9259783 62.4462414"></polygon>
                <path d="M20.4737391,7.45913793 L19.0404783,7.45913793 L17.6092826,7.45913793 C17.6092826,7.45913793 17.1952065,11.3694828 16.4486304,11.8339655 C16.4486304,11.8339655 15.5265109,16.452931 19.0404783,16.452931 C23.2937935,16.452931 21.6333587,11.8339655 21.6333587,11.8339655 C20.88575,11.3694828 20.4737391,7.45913793 20.4737391,7.45913793" id="Fill-16" fill="#F88667" mask="url(#mask-2)"></path>
                <path d="M20.4737391,7.45913793 L19.0404783,7.45913793 L17.6092826,7.45913793 C17.6092826,7.45913793 17.1952065,11.3694828 16.4486304,11.8339655 C16.4486304,11.8339655 15.5265109,16.452931 19.0404783,16.452931 C23.2937935,16.452931 21.6333587,11.8339655 21.6333587,11.8339655 C20.88575,11.3694828 20.4737391,7.45913793 20.4737391,7.45913793" id="Fill-17" fill="#E45940" mask="url(#mask-2)"></path>
                <path d="M22.7658207,8.22486207 C22.3692989,7.76762069 21.8922337,8.4627931 21.8922337,8.4627931 C21.8922337,8.4627931 22.5479402,5.87762069 21.8922337,4.74382759 C21.2375598,3.61106897 19.1134837,4.20693103 19.1134837,4.20693103 C19.1134837,4.20693103 16.988375,3.61106897 16.3337011,4.74382759 C15.6790272,5.87762069 16.3337011,8.4627931 16.3337011,8.4627931 C16.3337011,8.4627931 15.8576685,7.76762069 15.4601141,8.22486207 C15.0635924,8.68210345 16.1158207,9.83555172 16.3533207,9.9752069 C16.3533207,9.9752069 17.8826141,12.8386552 19.1134837,12.8386552 C20.3433207,12.8386552 21.8726141,9.9752069 21.8726141,9.9752069 C22.1111467,9.83555172 23.163375,8.68210345 22.7658207,8.22486207" id="Fill-18" fill="#F88667" mask="url(#mask-2)"></path>
                <path d="M18.5789022,5.23158621 C18.5789022,5.23158621 16.9700978,5.51503448 16.7924891,6.37986207 C16.70575,6.80089655 16.80075,7.25606897 16.8781957,7.66986207 C16.9195,7.88917241 17.0733587,9.06744828 17.0145,9.09537931 C16.9587391,9.12331034 16.8492826,9.09331034 16.805913,9.05917241 C16.5890652,8.88744828 16.4186848,8.62882759 16.2637935,8.40124138 C15.9581413,7.95331034 15.5192826,8.02882759 15.3922717,8.31227586 C15.3922717,8.31227586 15.0349891,4.0677931 16.8069457,3.91882759 C18.5789022,3.76986207 18.5789022,5.23158621 18.5789022,5.23158621" id="Fill-19" fill="#424444" mask="url(#mask-2)"></path>
                <path d="M19.6256576,5.23158621 C19.6256576,5.23158621 21.2334293,5.51503448 21.4120707,6.37986207 C21.4988098,6.80089655 21.4038098,7.25606897 21.3253315,7.66986207 C21.2850598,7.88917241 21.1312011,9.06744828 21.1890272,9.09537931 C21.2458207,9.12331034 21.3542446,9.09331034 21.3976141,9.05917241 C21.6154946,8.88744828 21.785875,8.62882759 21.9407663,8.40124138 C22.2464185,7.95331034 22.6852772,8.02882759 22.812288,8.31227586 C22.812288,8.31227586 23.1695707,4.0677931 21.3976141,3.91882759 C19.6256576,3.76986207 19.6256576,5.23158621 19.6256576,5.23158621" id="Fill-20" fill="#424444" mask="url(#mask-2)"></path>
                <path d="M22.2788424,4.51686207 C22.2788424,4.51686207 22.1404728,3.56306897 21.1181902,3.10582759 C20.2931359,2.73755172 19.0612337,2.55651724 17.7043859,2.901 C15.4574293,3.47306897 15.4223207,5.80582759 16.2742228,6.5072069 C16.9154728,7.03686207 17.3532989,7.29962069 18.3446033,7.29962069 C21.4620489,7.29962069 22.7610707,5.46444828 22.2788424,4.51686207" id="Fill-21" fill="#424444" mask="url(#mask-2)"></path>
                <path d="M21.633462,11.8344828 C21.4827011,15.7613793 19.0395489,15.3558621 19.0395489,15.3558621 C19.0395489,15.3558621 16.598462,15.7613793 16.4487337,11.8344828 C16.4487337,11.8344828 12.5485707,12.9144828 10.6465054,14.192069 C10.6465054,14.192069 11.4560707,17.6224138 11.5066685,21.4282759 L13.7381359,30.0796552 L19.0395489,30.3424138 L24.3430272,30.0796552 L26.573462,21.4282759 C26.6250924,17.6224138 27.433625,14.192069 27.433625,14.192069 C25.5315598,12.9144828 21.633462,11.8344828 21.633462,11.8344828" id="Fill-22" fill="#00BAD1" mask="url(#mask-2)"></path>
                <path d="M26.1894348,16.4603793 C23.7648696,17.7545172 22.586663,20.7327931 20.2312826,22.1924483 C17.7963913,23.7017586 16.0719348,20.6521034 14.8875326,19.0662414 C13.8642174,17.6976207 12.5693261,16.596931 10.9884022,15.9565862 C11.2166087,17.3158966 11.4788913,19.3124483 11.5067717,21.4279655 L13.7372065,30.0803793 L19.0396522,30.3421034 L24.344163,30.0803793 L26.5735652,21.4279655 C26.600413,19.3538276 26.8544348,17.3965862 27.0785109,16.0403793 C26.7707935,16.1738276 26.4692717,16.3103793 26.1894348,16.4603793" id="Fill-23" fill="#00547A" mask="url(#mask-2)"></path>
                <path d="M28.8738043,33.5838621 C28.8738043,30.5476552 25.1151087,28.550069 25.1151087,28.550069 L12.4852717,28.550069 C12.4852717,28.550069 8.72657609,30.5476552 8.72657609,33.5838621 C8.72657609,34.0773103 8.84119565,34.9007586 9.03016304,35.928 L13.2256522,35.928 C13.0552717,36.2352414 12.9003804,36.5238621 12.7775,36.7669655 C12.7403261,36.8404138 12.6990217,36.9055862 12.6597826,36.975931 L14.5370652,36.975931 L15.7111413,36.975931 C15.941413,36.975931 15.8670652,37.0731724 15.8030435,36.7328276 C15.7101087,36.2497241 15.4116848,35.9755862 15.7049457,35.4686897 C15.9352174,35.0704138 17.0628261,34.7466207 17.5161413,34.7362759 C17.6152717,34.7331724 17.7133696,34.7342069 17.8104348,34.7362759 C18.4713043,34.7517931 19.1290761,34.7517931 19.7899457,34.7362759 C20.0708152,34.730069 20.2566848,34.8128276 20.5261957,34.8583448 C20.7399457,34.8935172 21.3739674,34.8386897 21.6476087,35.1997241 C21.82625,35.4345517 21.8097283,35.6445517 21.8623913,35.9321379 C21.8778804,36.0190345 21.7746196,36.975931 21.7467391,36.975931 L25.5704891,36.975931 C25.2761957,36.6024828 25.0407609,36.255931 24.837337,35.928 L28.5702174,35.928 C28.7602174,34.9007586 28.8738043,34.0773103 28.8738043,33.5838621" id="Fill-24" fill="#FF5D12" mask="url(#mask-2)"></path>
                <path d="M28.8738043,33.5838621 C28.8738043,30.5476552 25.1151087,28.550069 25.1151087,28.550069 L12.4852717,28.550069 C12.4852717,28.550069 8.72657609,30.5476552 8.72657609,33.5838621 C8.72657609,34.0773103 8.84119565,34.9007586 9.03016304,35.928 L13.2256522,35.928 C13.0552717,36.2352414 12.9003804,36.5238621 12.7775,36.7669655 C12.7403261,36.8404138 12.6990217,36.9055862 12.6597826,36.975931 L14.5370652,36.975931 L15.7111413,36.975931 C15.941413,36.975931 15.8670652,37.0731724 15.8030435,36.7328276 C15.7101087,36.2497241 15.4116848,35.9755862 15.7049457,35.4686897 C15.9352174,35.0704138 17.0628261,34.7466207 17.5161413,34.7362759 C17.6152717,34.7331724 17.7133696,34.7342069 17.8104348,34.7362759 C18.4713043,34.7517931 19.1290761,34.7517931 19.7899457,34.7362759 C20.0708152,34.730069 20.2566848,34.8128276 20.5261957,34.8583448 C20.7399457,34.8935172 21.3739674,34.8386897 21.6476087,35.1997241 C21.82625,35.4345517 21.8097283,35.6445517 21.8623913,35.9321379 C21.8778804,36.0190345 21.7746196,36.975931 21.7467391,36.975931 L25.5704891,36.975931 C25.2761957,36.6024828 25.0407609,36.255931 24.837337,35.928 L28.5702174,35.928 C28.7602174,34.9007586 28.8738043,34.0773103 28.8738043,33.5838621" id="Fill-25" fill="#D64C1D" mask="url(#mask-2)"></path>
                <path d="M10.6468152,14.1918621 C10.6468152,14.1918621 5.8235,24.633931 6.17355435,26.0232414 C6.26132609,26.3708276 12.1286087,29.9201379 14.8898043,29.4101379 L16.0132826,29.2032414 C16.0132826,29.2032414 11.9148587,14.1163448 10.6468152,14.1918621" id="Fill-26" fill="#00BAD1" mask="url(#mask-2)"></path>
                <path d="M27.4247446,14.1918621 C27.4247446,14.1918621 32.2480598,24.633931 31.8969728,26.0232414 C31.8092011,26.3708276 25.9429511,29.9201379 23.1817554,29.4101379 L22.0582772,29.2032414 C22.0582772,29.2032414 26.1567011,14.1163448 27.4247446,14.1918621" id="Fill-27" fill="#00BAD1" mask="url(#mask-2)"></path>
                <path d="M12.5264728,17.8438966 C12.5192446,18.324931 12.4634837,18.8297586 12.3416359,19.3687241 C11.9151685,21.2556207 11.2439728,23.2252759 11.948212,25.1411379 C12.4820707,26.5914828 13.3370707,28.0635517 14.1249511,29.454931 C14.3975598,29.4652759 14.6567446,29.4538966 14.8901141,29.4104483 L16.0135924,29.2035517 C16.0135924,29.2035517 14.1342446,22.287 12.5264728,17.8438966" id="Fill-28" fill="#00547A" mask="url(#mask-2)"></path>
                <path d="M24.7876685,29.3575862 C25.139788,28.4803448 25.3545707,27.5586207 25.3225598,26.5758621 C25.2564728,24.6465517 25.2461467,22.7193103 25.2781576,20.79 C25.2905489,19.9562069 25.3122337,19.1482759 25.3607663,18.357931 C23.7973967,22.8010345 22.0574511,29.2034483 22.0574511,29.2034483 L23.1809293,29.4103448 C23.643538,29.4962069 24.1939185,29.4651724 24.7876685,29.3575862" id="Fill-29" fill="#00547A" mask="url(#mask-2)"></path>
                <path d="M14.226663,51.6550345 C14.226663,51.6550345 11.1670435,55.3026207 10.8087283,56.0784828 C10.4524783,56.8543448 11.3260652,57.8298621 12.5187283,57.4315862 C13.7103587,57.0343448 14.4053043,56.2181379 14.4249239,55.7008966 C14.4455761,55.1826207 15.0806304,54.9074483 15.3594348,54.866069 C15.6372065,54.8246897 17.2263913,53.0133103 17.0673696,52.5157241 C16.9093804,52.0181379 16.1111739,51.4729655 16.1111739,51.4729655 L14.226663,51.6550345 Z" id="Fill-30" fill="#000000" mask="url(#mask-2)"></path>
                <path d="M23.3739239,51.6550345 C23.3739239,51.6550345 26.4335435,55.3026207 26.7908261,56.0784828 C27.1481087,56.8543448 26.2745217,57.8298621 25.0818587,57.4315862 C23.8902283,57.0343448 23.19425,56.2181379 23.175663,55.7008966 C23.1550109,55.1826207 22.5199565,54.9074483 22.2411522,54.866069 C21.9633804,54.8246897 20.3741957,53.0133103 20.5321848,52.5157241 C20.6912065,52.0181379 21.489413,51.4729655 21.489413,51.4729655 L23.3739239,51.6550345 Z" id="Fill-31" fill="#000000" mask="url(#mask-2)"></path>
                <path d="M15.2975815,33.4237241 C14.9330707,32.5557931 14.8587228,30.7185517 12.4052446,30.7185517 C7.67899457,30.7185517 8.7869837,34.5130345 8.8592663,35.079931 C9.57486413,40.7292414 13.003125,51.999931 13.003125,51.999931 L17.7366033,51.999931 C17.7366033,51.999931 16.0152446,38.1895862 15.7488315,36.0595862 C15.7126902,35.7678621 15.5474728,34.0206207 15.2975815,33.4237241" id="Fill-32" fill="#FF5D12" mask="url(#mask-2)"></path>
                <path d="M22.313125,33.4237241 C22.6776359,32.5557931 22.7509511,30.7185517 25.205462,30.7185517 C29.9337772,30.7185517 28.8237228,34.5130345 28.7504076,35.079931 C28.0358424,40.7292414 24.6075815,51.999931 24.6075815,51.999931 L19.8741033,51.999931 C19.8741033,51.999931 21.595462,38.1895862 21.861875,36.0595862 C21.8980163,35.7678621 22.0622011,34.0206207 22.313125,33.4237241" id="Fill-33" fill="#FF5D12" mask="url(#mask-2)"></path>
                <polygon id="Fill-34" fill="#424444" mask="url(#mask-2)" points="12.0908152 30.1486552 25.9907609 30.1486552 25.9907609 29.3231379 12.0908152 29.3231379"></polygon>
                <path d="M28.0348098,19.6693448 L10.0467663,19.6693448 C10.0467663,19.6693448 9.07714674,19.6693448 9.24339674,20.7545172 C9.40964674,21.8396897 11.6762228,29.4296897 12.1347011,29.4296897 L19.040788,29.4296897 L25.9479076,29.4296897 C26.3495924,29.4296897 28.6719293,21.8396897 28.839212,20.7545172 C29.0044293,19.6693448 28.0348098,19.6693448 28.0348098,19.6693448" id="Fill-35" fill="#424444" mask="url(#mask-2)"></path>
                <path d="M19.7849891,24.9235862 C19.7849891,25.3353103 19.4524891,25.6694483 19.0404783,25.6694483 C18.6305326,25.6694483 18.297,25.3353103 18.297,24.9235862 C18.297,24.5118621 18.6305326,24.1777241 19.0404783,24.1777241 C19.4524891,24.1777241 19.7849891,24.5118621 19.7849891,24.9235862" id="Fill-36" fill="#D0D1DE" mask="url(#mask-2)"></path>
                <polygon id="Fill-37" fill="#D0D1DE" mask="url(#mask-2)" points="37.5894348 76.1613103 38.4237826 78.734069 41.1240543 78.734069 38.940087 80.324069 39.7734022 82.8968276 37.5894348 81.3068276 35.4044348 82.8968276 36.2387826 80.324069 34.0548152 78.734069 36.7540543 78.734069"></polygon>
                <polygon id="Fill-38" fill="#D0D1DE" mask="url(#mask-2)" points="47.2368913 76.1613103 48.0712391 78.734069 50.7715109 78.734069 48.5865109 80.324069 49.4208587 82.8968276 47.2368913 81.3068276 45.0518913 82.8968276 45.8862391 80.324069 43.7012391 78.734069 46.4015109 78.734069"></polygon>
                <polygon id="Fill-39" fill="#D0D1DE" mask="url(#mask-2)" points="56.8833152 76.1613103 57.7186957 78.734069 60.4179348 78.734069 58.2339674 80.324069 59.0672826 82.8968276 56.8833152 81.3068276 54.6993478 82.8968276 55.532663 80.324069 53.3486957 78.734069 56.0489674 78.734069"></polygon>
                <polygon id="Fill-40" fill="#D0D1DE" mask="url(#mask-2)" points="66.5306685 76.1613103 67.3650163 78.734069 70.065288 78.734069 67.8813207 80.324069 68.7146359 82.8968276 66.5306685 81.3068276 64.3456685 82.8968276 65.1800163 80.324069 62.9950163 78.734069 65.695288 78.734069"></polygon>
                <polygon id="Fill-41" fill="#D0D1DE" mask="url(#mask-2)" points="76.1770924 76.1613103 77.0124728 78.734069 79.711712 78.734069 77.5277446 80.324069 78.3610598 82.8968276 76.1770924 81.3068276 73.993125 82.8968276 74.8264402 80.324069 72.6424728 78.734069 75.3427446 78.734069"></polygon>
            </g>
        </g>
    </g>
</svg>