<?xml version="1.0" encoding="UTF-8"?>
<svg width="87px" height="92px" viewBox="0 0 87 92" version="1.1" xmlns="http://www.w3.org/2000/svg" xmlns:xlink="http://www.w3.org/1999/xlink">
    <title>3C7EA229-BE10-4C29-9B43-04652FB425A7</title>
    <defs>
        <polygon id="path-1" points="0.7951 0.4038 17.824 0.4038 17.824 47.5228 0.7951 47.5228"></polygon>
        <polygon id="path-3" points="0.433800571 0.965 8.8589 0.965 8.8589 17.8347 0.433800571 17.8347"></polygon>
    </defs>
    <g id="Page-1" stroke="none" stroke-width="1" fill="none" fill-rule="evenodd">
        <g id="SERVICES" transform="translate(-896.000000, -1060.000000)">
            <g id="Group-83" transform="translate(896.000000, 1060.000000)">
                <path d="M75.6964,46.8995 C75.6964,67.8025 58.7514,84.7475 37.8484,84.7475 C16.9454,84.7475 0.0004,67.8025 0.0004,46.8995 C0.0004,25.9965 16.9454,9.0515 37.8484,9.0515 C58.7514,9.0515 75.6964,25.9965 75.6964,46.8995" id="Fill-1" fill="#FF5D12"></path>
                <path d="M66.5357,46.8995 C66.5357,62.7435 53.6917,75.5865 37.8487,75.5865 C22.0047,75.5865 9.1607,62.7435 9.1607,46.8995 C9.1607,31.0555 22.0047,18.2115 37.8487,18.2115 C53.6917,18.2115 66.5357,31.0555 66.5357,46.8995" id="Fill-3" fill="#FFFFFF"></path>
                <path d="M58.3389,46.8995 C58.3389,58.2155 49.1649,67.3905 37.8479,67.3905 C26.5309,67.3905 17.3579,58.2155 17.3579,46.8995 C17.3579,35.5825 26.5309,26.4085 37.8479,26.4085 C49.1649,26.4085 58.3389,35.5825 58.3389,46.8995" id="Fill-5" fill="#FF5D12"></path>
                <path d="M51.9507,46.8995 C51.9507,54.6885 45.6367,61.0025 37.8477,61.0025 C30.0597,61.0025 23.7457,54.6885 23.7457,46.8995 C23.7457,39.1105 30.0597,32.7965 37.8477,32.7965 C45.6367,32.7965 51.9507,39.1105 51.9507,46.8995" id="Fill-7" fill="#FFFFFF"></path>
                <path d="M44.357,46.8995 C44.357,50.4945 41.443,53.4085 37.848,53.4085 C34.253,53.4085 31.339,50.4945 31.339,46.8995 C31.339,43.3045 34.253,40.3905 37.848,40.3905 C41.443,40.3905 44.357,43.3045 44.357,46.8995" id="Fill-9" fill="#FF5D12"></path>
                <path d="M54.6968,29.9967 C54.6968,29.9967 54.1458,31.3297 54.1718,31.2877 C54.1978,31.2457 53.3318,30.8767 53.2798,30.8887 C53.2288,30.8997 52.5118,30.8717 52.2218,30.8127 C51.9308,30.7547 51.7038,30.5547 51.6098,30.4977 C51.5048,30.4337 51.3268,30.2307 51.4848,30.1827 C51.6238,30.1407 51.7808,30.3327 51.8718,30.3707 C51.9628,30.4087 52.2798,30.4097 52.2798,30.4097 C52.2798,30.4097 52.1608,30.3537 51.9288,30.2617 C51.6468,30.1487 51.2328,29.9847 51.1488,29.9007 C51.0688,29.8207 51.0878,29.6487 51.3048,29.6897 C51.5678,29.7397 51.8088,29.8617 51.8528,29.8737 C51.8978,29.8867 52.3108,30.0377 52.3108,30.0377 C52.3108,30.0377 51.9538,29.9007 51.8268,29.8437 C51.6848,29.7787 51.2928,29.6247 51.0448,29.5137 C50.8058,29.4067 50.8598,29.1367 51.0788,29.1527 C51.2418,29.1637 51.7898,29.4607 51.8758,29.4897 C51.9628,29.5177 52.3418,29.6927 52.3418,29.6927 C52.3418,29.6927 51.8868,29.4857 51.8118,29.4347 C51.7358,29.3847 51.2318,29.1937 51.1728,29.0437 C51.1448,28.9707 51.1768,28.8237 51.3518,28.8527 C51.5558,28.8867 51.8498,28.9987 51.9848,29.0687 C52.0938,29.1247 52.8128,29.4687 52.9708,29.4747 C53.1138,29.4797 53.2718,29.4657 53.2748,29.2857 L53.5208,28.8307 C53.5208,28.8307 53.6858,28.9117 53.7728,29.3237 C53.8198,29.5467 54.1938,29.8317 54.6968,29.9967" id="Fill-11" fill="#F88667"></path>
                <path d="M69.7276,35.3141 C69.7256,34.2031 68.8526,33.2851 67.7536,33.1191 C65.9516,32.8471 62.6026,32.3301 61.5926,32.0971 C60.1876,31.7731 54.4476,29.8581 54.4476,29.8581 L53.8196,31.3731 C53.8196,31.3731 60.0646,34.5101 61.1876,34.7551 C62.3106,35.0011 68.0776,37.0461 69.1946,36.4021 C69.5866,36.1761 69.7276,35.7661 69.7276,35.3141" id="Fill-13" fill="#00BAD1"></path>
                <polygon id="Fill-15" fill="#424444" points="74.2891 50.3366 73.9271 49.2516 57.7101 49.2516 58.0561 50.3366"></polygon>
                <polygon id="Fill-17" fill="#424444" points="76.2164 56.1173 75.8504 55.0203 59.5484 55.0203 59.8974 56.1173"></polygon>
                <polygon id="Fill-19" fill="#424444" points="71.8497 44.5553 71.4877 43.4703 55.2717 43.4703 55.6167 44.5553"></polygon>
                <polygon id="Fill-21" fill="#424444" points="78.1646 61.9601 77.7946 60.8521 61.4046 60.8521 61.7576 61.9601"></polygon>
                <polygon id="Fill-23" fill="#424444" points="80.1334 67.8663 79.7604 66.7453 63.2814 66.7453 63.6384 67.8663"></polygon>
                <polygon id="Fill-25" fill="#424444" points="82.1241 73.8361 81.7461 72.7031 65.1791 72.7031 65.5401 73.8361"></polygon>
                <polygon id="Fill-27" fill="#424444" points="84.1363 79.8707 83.7543 78.7257 67.0963 78.7257 67.4613 79.8707"></polygon>
                <g id="Group-31" transform="translate(69.000000, 41.035000)">
                    <mask id="mask-2" fill="white">
                        <use xlink:href="#path-1"></use>
                    </mask>
                    <g id="Clip-30"></g>
                    <path d="M16.9971,47.5228 L17.0741,47.5228 C17.5861,47.5228 17.9471,47.0208 17.7851,46.5348 L2.5561,0.9168 C2.4541,0.6098 2.1671,0.4038 1.8441,0.4038 L0.7951,0.4038 L16.2851,47.0088 C16.3871,47.3158 16.6741,47.5228 16.9971,47.5228" id="Fill-29" fill="#424444" mask="url(#mask-2)"></path>
                </g>
                <path d="M69.502,88.5578 L69.585,88.5578 C70.093,88.5578 70.454,88.0628 70.3,87.5788 L55.739,41.9608 C55.64,41.6498 55.351,41.4388 55.024,41.4388 L55.009,41.4388 C54.501,41.4388 54.14,41.9328 54.294,42.4158 L68.787,88.0348 C68.886,88.3458 69.175,88.5578 69.502,88.5578" id="Fill-32" fill="#424444"></path>
                <path d="M69.4654,28.1696 C69.4324,28.2056 69.4024,28.2426 69.3674,28.2776 C69.0494,28.5976 68.7154,28.9236 68.3384,29.1736 C68.1094,29.3266 67.7534,29.4246 67.5564,29.5856 C67.4774,29.6486 67.3944,29.7076 67.3094,29.7596 C67.4234,30.4006 67.7084,32.0896 67.6634,32.7486 C67.6634,32.7486 69.7164,32.6036 70.4654,31.7736 C70.4654,31.7736 69.6134,29.4866 69.4654,28.1696" id="Fill-34" fill="#F88667"></path>
                <path d="M68.3643,31.6027 C68.5073,31.0177 68.8353,30.4457 69.2993,30.0547 C69.4593,29.9197 69.6213,29.7997 69.7913,29.6897 C69.6433,29.1557 69.5143,28.6087 69.4653,28.1697 C69.4323,28.2057 69.4023,28.2427 69.3673,28.2777 C69.0493,28.5977 68.7153,28.9237 68.3383,29.1737 C68.1093,29.3267 67.7533,29.4247 67.5563,29.5847 C67.4773,29.6487 67.3943,29.7067 67.3093,29.7597 C67.4243,30.4007 67.7083,32.0897 67.6633,32.7487 C67.6633,32.7487 68.0163,32.7227 68.4803,32.6357 C68.3303,32.3217 68.2773,31.9607 68.3643,31.6027" id="Fill-36" fill="#E45940"></path>
                <path d="M68.3282,64.8112 C68.3282,64.8112 68.2722,66.8582 67.9522,67.1382 C67.6312,67.4182 63.5582,67.5402 63.2082,67.1662 C62.8582,66.7932 63.0642,66.1642 63.9382,65.9212 C64.8752,65.6612 65.3342,65.9162 65.9212,65.6722 C66.5092,65.4272 66.3532,64.5022 66.3532,64.5022 L68.3282,64.8112 Z" id="Fill-38" fill="#424444"></path>
                <path d="M78.4283,64.7418 C78.4283,64.7418 78.7423,66.7358 78.4333,67.0278 C78.1243,67.3198 73.9753,67.6458 73.6113,67.2858 C73.2463,66.9258 73.4283,66.2898 74.2923,66.0138 C75.2183,65.7178 75.6673,65.9058 76.2643,65.6878 C76.7353,65.5158 76.4183,64.5668 76.4183,64.5668 L78.4283,64.7418 Z" id="Fill-40" fill="#424444"></path>
                <path d="M75.418,53.2643 C75.508,47.6003 74.861,43.7053 74.568,41.8813 C73.89,41.9063 73.211,41.9663 72.534,42.2743 C71.291,42.8403 70.041,43.3833 68.792,43.9273 C69.807,46.0253 72.026,52.8743 72.293,54.3073 C72.626,56.0903 76.353,65.1843 76.353,65.1843 L78.607,64.9013 C78.571,63.4353 75.41,53.7563 75.418,53.2643" id="Fill-42" fill="#D0D1DE"></path>
                <path d="M70.7921,43.0836 C70.1371,43.4026 69.4591,43.6546 68.7801,43.9016 C69.7751,45.9596 71.5901,51.6546 72.0001,53.1676 C72.3161,52.2126 73.8461,49.9056 74.4331,47.3786 C74.8251,45.6886 74.8931,43.9406 74.6231,42.2276 C74.6221,42.2206 74.6211,42.2136 74.6201,42.2076 C73.3551,42.2936 72.1301,42.4306 70.7921,43.0836" id="Fill-44" fill="#ABADC4"></path>
                <path d="M72.4771,42.7741 C71.5991,43.0701 69.9991,43.4961 68.7921,43.9271 C67.9511,46.0521 65.4671,51.0681 65.3381,53.3361 C65.1951,55.8381 66.0611,65.3181 66.0611,65.3181 L68.6421,65.3181 C68.6421,65.3181 68.8811,54.6321 69.2431,53.9461 C70.4351,51.6821 71.7511,49.8871 72.4991,48.4791 C73.7551,46.1151 74.1811,44.5981 74.4021,43.4911 C74.4991,43.0031 74.9271,41.3661 74.0981,40.8531 C73.4121,41.0481 73.2131,42.5251 72.4771,42.7741" id="Fill-46" fill="#D0D1DE"></path>
                <path d="M67.8521,44.442 C67.8521,44.442 70.0191,45.317 72.1541,45.112 C73.7341,44.961 74.5521,44.936 75.4771,44.437 C75.4771,44.437 74.4881,36.734 73.3481,34.305 C72.2081,31.877 70.3361,31.412 70.3361,31.412 C70.3361,31.412 68.8601,32.269 67.6551,32.25 C67.6551,32.25 67.6851,36.983 67.7761,38.873 C67.8681,40.762 67.8521,44.442 67.8521,44.442" id="Fill-48" fill="#00BAD1"></path>
                <path d="M67.7496,38.1813 C67.7426,37.9733 67.7366,37.7533 67.7296,37.5193 C67.7296,37.4923 67.7286,37.4633 67.7286,37.4353 C67.7226,37.2123 67.7176,36.9823 67.7126,36.7463 C67.7116,36.7073 67.7106,36.6683 67.7106,36.6283 C67.7056,36.3663 67.7006,36.0993 67.6956,35.8323 L67.6956,35.8203 C67.7936,35.8203 67.8916,35.8193 67.9866,35.8003 C68.7406,35.6543 69.3956,35.2323 70.0486,34.8473 C70.1576,34.7833 70.2746,34.7293 70.3896,34.6733 C70.5196,35.6853 70.0646,36.9203 69.8686,37.7243 C69.3246,39.9493 69.0306,42.7653 69.4976,44.9153 C68.5336,44.7103 67.8526,44.4423 67.8526,44.4423 C67.8526,44.4423 67.8686,40.7623 67.7766,38.8723 C67.7686,38.7053 67.7606,38.5103 67.7536,38.3033 C67.7516,38.2633 67.7506,38.2233 67.7496,38.1813" id="Fill-50" fill="#00A7CC"></path>
                <path d="M70.5303,26.2526 C70.5303,26.2526 69.6533,24.4216 68.4873,24.4956 C67.3203,24.5696 66.5713,24.7606 66.4153,25.2106 C66.2603,25.6616 65.9983,26.9026 65.6993,27.3616 C65.4013,27.8196 64.7573,28.4226 64.7703,28.6296 C64.7843,28.8376 65.4523,28.9106 65.4893,28.9946 C65.5263,29.0796 65.8863,30.5906 66.1303,30.7486 C66.3743,30.9056 68.6163,30.0296 68.9633,29.3626 C69.3093,28.6956 70.6323,27.4356 70.5303,26.2526" id="Fill-52" fill="#F88667"></path>
                <path d="M68.149,26.4259 C68.034,26.4339 67.892,26.5089 67.8,26.5249 C67.629,26.5559 67.453,26.5699 67.281,26.5989 C66.935,26.6589 66.586,26.7109 66.243,26.5979 C65.737,26.4309 65.899,25.9319 65.667,25.5809 C65.554,25.4099 65.314,25.4099 65.191,25.2199 C65.073,25.0399 65.036,24.7799 65.039,24.5679 C65.047,24.0339 65.566,23.9849 65.976,23.8839 C66.453,23.7639 66.481,23.4989 66.711,23.1369 C67.276,22.2429 68.076,23.4849 68.705,23.4079 C69.026,23.3699 69.363,23.1599 69.675,23.3379 C69.944,23.4909 70.105,23.7599 70.286,23.9999 C70.474,24.2499 70.66,24.1479 70.934,24.2519 C71.135,24.3279 71.357,24.5199 71.501,24.6839 C71.822,25.0509 72.031,25.6069 71.933,26.0899 C71.849,26.5009 71.518,26.7239 71.501,27.1559 C71.488,27.4999 71.507,27.9249 71.339,28.2389 C71.096,28.6949 70.554,28.7549 70.191,29.0649 C69.847,29.3609 69.357,29.5739 68.89,29.4679 C68.842,29.1439 68.872,28.6009 69.156,28.4389 C69.269,28.3749 69.408,28.3639 69.587,28.2179 C69.912,27.9529 69.719,27.2859 69.107,27.3719 C68.739,27.4229 68.573,28.4289 68.172,28.2649 C67.867,28.1409 68.234,27.6329 68.318,27.4599 C68.429,27.2309 68.488,26.6529 68.271,26.4599 C68.239,26.4309 68.196,26.4229 68.149,26.4259" id="Fill-54" fill="#424444"></path>
                <path d="M58.3726,44.4835 C58.2536,44.4735 58.1116,44.4455 58.0696,44.4595 C57.8736,44.5255 57.5446,44.4295 57.4066,44.3785 C57.0936,44.2595 56.6146,44.0515 56.2926,44.1085 C56.1056,44.1415 54.9826,44.4035 55.2586,44.8635 C55.2956,44.9255 55.4326,45.0225 55.4726,45.0075 C55.5876,44.9645 55.9106,44.8465 55.9106,44.8465 C55.9106,44.8465 55.6636,44.9375 55.6116,44.9735 C55.5686,45.0045 55.4856,45.0425 55.4566,45.0865 C55.3946,45.1825 55.4886,45.3875 55.5866,45.4205 C55.6826,45.4545 55.7576,45.3575 55.8386,45.3125 C55.8366,45.3135 55.8346,45.3155 55.8326,45.3165 C55.7556,45.3785 55.5866,45.4205 55.6906,45.6575 C55.8086,45.9225 55.8886,45.7555 56.0006,45.7275 C56.0396,45.7175 56.0806,45.6985 56.1226,45.6795 C56.0796,45.7035 55.9216,45.7785 55.8896,45.8075 C55.7846,45.9005 56.0176,46.2125 56.2256,46.1865 C56.3526,46.1705 56.6556,45.9865 56.7276,46.0065 C56.8076,46.0285 56.9046,46.0275 56.9866,46.0355 C57.2426,46.0595 57.5106,45.9905 57.7456,45.8845 C57.8506,45.8365 58.0596,45.7545 58.1636,45.6985 C58.4236,45.5585 58.7106,45.3375 58.7876,45.2735 C58.6146,44.9435 58.3376,44.8595 58.3726,44.4835" id="Fill-56" fill="#F88667"></path>
                <path d="M58.7628,45.8937 L57.8558,44.0987 C57.8558,44.0987 62.3508,41.2217 63.9938,39.5637 C65.6378,37.9067 67.4138,34.5337 68.6668,34.3207 C69.9198,34.1087 71.1808,34.7997 70.4548,36.5437 C69.7288,38.2877 66.0548,40.5987 65.3058,41.3667 C64.5568,42.1337 59.4978,45.4807 58.7628,45.8937" id="Fill-58" fill="#00BAD1"></path>
                <path d="M71.2369,3.4113 C70.4359,3.0683 67.8759,1.7353 65.8189,6.5923 C63.8609,11.2183 61.7879,17.4873 61.7879,17.4873 C61.7879,17.4873 66.8839,13.2893 70.4889,9.7913 C74.2749,6.1193 71.9859,3.8923 71.2369,3.4113" id="Fill-60" fill="#FF5D12"></path>
                <path d="M66.8633,7.1207 L61.9653,12.1627 C60.4893,13.6827 59.1523,15.3327 57.9713,17.0927 L37.9653,46.8997 L60.6333,22.3587 C63.1903,19.5897 65.2873,16.4307 66.8473,12.9997 L68.7613,8.7887 C68.0173,8.3817 67.3743,7.8087 66.8633,7.1207" id="Fill-62" fill="#424444"></path>
                <g id="Group-66" transform="translate(59.000000, 0.035000)">
                    <mask id="mask-4" fill="white">
                        <use xlink:href="#path-3"></use>
                    </mask>
                    <g id="Clip-65"></g>
                    <path d="M1.9639,17.8347 C1.9639,17.8347 -1.3321,8.6447 1.7509,2.6927 C4.8329,-3.2583 8.8589,8.0737 8.8589,8.0737 L1.9639,17.8347 Z" id="Fill-64" fill="#FF5D12" mask="url(#mask-4)"></path>
                </g>
                <path d="M60.9385,17.8151 C60.9385,17.8151 70.7025,17.7981 75.2555,12.8801 C79.8085,7.9611 67.7825,8.01908434 67.7825,8.01908434 L60.9385,17.8151 Z" id="Fill-67" fill="#FF5D12"></path>
                <path d="M53.647,30.0197 C53.572,29.9897 53.494,30.1887 53.421,30.1657 C53.421,30.1627 53.434,29.9467 53.433,29.9417 C53.405,29.7437 52.652,29.6937 52.486,29.6067 C51.981,29.3427 52.185,29.0257 52.414,29.0977 C52.57,29.1467 52.924,29.2517 53.06,29.3117 C53.204,29.3767 53.439,29.3457 53.582,29.3717 C53.722,29.3967 54.109,29.7417 54.23,29.8217 C54.488,29.9917 53.921,30.1307 53.647,30.0197" id="Fill-69" fill="#F88667"></path>
                <path d="M18.3585,58.9811 C18.3585,58.9811 14.3315,59.9881 11.3105,62.2261 C8.2895,64.4631 5.1575,71.3991 4.5425,76.2661 C3.9265,81.1321 2.6955,84.9361 4.5425,87.4251 C6.3875,89.9151 12.3735,90.4181 17.5195,90.9211 C22.6655,91.4251 29.7665,90.1941 31.1945,88.4041 C32.6225,86.6141 32.5105,73.0651 29.8255,67.9531 C27.1405,62.8411 22.2745,58.8691 18.3585,58.9811" id="Fill-71" fill="#00BAD1"></path>
                <path d="M25.2178,88.1325 C24.1828,87.7895 23.1188,87.4135 22.2648,86.7095 C20.4328,85.1995 19.3158,84.7525 17.0358,84.7745 C14.9498,84.7955 12.9338,84.7895 11.1428,83.6055 C9.5468,82.5505 8.6558,80.1945 9.0398,78.3435 C9.3208,76.9965 9.7248,75.9235 10.5558,74.8195 C11.7288,73.2605 11.9538,72.1415 11.5368,70.1945 C11.0378,67.8665 10.9628,65.8785 11.6458,63.5715 C11.9988,62.3805 12.8308,61.5145 13.7658,60.7355 C12.9378,61.1535 12.0908,61.6475 11.3108,62.2255 C8.2898,64.4635 5.1568,71.3995 4.5418,76.2655 C3.9268,81.1325 2.6958,84.9365 4.5418,87.4255 C6.3878,89.9145 12.3728,90.4185 17.5198,90.9215 C22.6658,91.4245 29.7668,90.1945 31.1948,88.4045 C31.4718,88.0565 31.6898,87.2635 31.8438,86.1775 C30.0568,87.9445 27.7398,88.9705 25.2178,88.1325" id="Fill-73" fill="#00A7CC"></path>
                <path d="M17.7989,59.9879 C17.7989,59.9879 13.4779,58.9389 12.8909,55.6669 C12.3029,52.3939 14.0239,51.2609 15.3449,52.0169 C16.6669,52.7719 16.8759,52.3649 17.7989,51.7919 C18.7219,51.2189 20.0649,52.1429 20.7359,53.1079 C21.4069,54.0719 21.5329,52.9399 23.1279,52.8139 C24.7209,52.6879 25.2669,54.1559 24.4279,56.0859 C23.5889,58.0159 22.7919,60.0719 17.7989,59.9879" id="Fill-75" fill="#00BAD1"></path>
                <path d="M22.4825,58.1476 C21.3635,58.4366 22.0265,56.9896 21.8435,56.4866 C21.5515,56.5016 21.4415,56.9866 21.3445,57.1976 C21.1345,57.6536 20.6595,57.9596 20.1545,57.9536 C19.4575,57.9446 19.3605,57.1836 19.0625,56.7156 C18.9375,56.5186 18.8785,56.5256 18.8005,56.7616 C18.7145,57.0216 18.7975,57.3256 18.5555,57.5286 C18.1085,57.9036 17.3655,57.4786 17.0185,57.1766 C16.6395,56.8486 16.4825,56.3076 16.0785,55.9886 C16.0035,56.0646 15.9735,56.1666 15.9525,56.2696 C15.8525,56.7406 15.8815,57.6356 15.1145,57.4716 C14.4635,57.3326 14.0275,56.2696 13.8185,55.7286 C13.5775,55.1056 13.3505,54.3626 13.3525,53.6906 C13.3535,53.3976 13.3705,53.1156 13.4105,52.8296 C13.4335,52.6656 13.4895,52.3076 13.5695,52.1696 L13.5655,52.1676 C12.9425,52.7146 12.5675,53.8676 12.8905,55.6666 C13.3905,58.4496 16.5905,59.6246 17.5365,59.9136 C17.7015,59.9636 17.8745,59.9896 18.0465,59.9906544 C21.9795,60.0006 23.2025,58.6306 23.9735,57.0856 C23.9705,57.0876 23.9685,57.0916 23.9665,57.0926 C23.9665,57.0926 22.8835,58.0436 22.4825,58.1476" id="Fill-77" fill="#00A7CC"></path>
                <path d="M19.6187,69.7091 C21.7367,69.9181 23.6517,70.8701 23.6147,72.9911 L20.0767,72.9281 C20.0727,72.1261 19.2537,71.9391 18.7377,71.9301 C18.4117,71.9241 17.3617,71.9061 17.3497,72.5551 C17.3237,74.0081 23.8687,72.6141 23.7957,76.7231 C23.7527,79.1881 21.8057,80.0721 19.4327,80.2021 L19.5387,82.8241 L17.3797,82.7861 L17.5597,80.1491 C15.3657,79.8811 13.3387,78.8131 13.3777,76.5961 L16.9137,76.6581 L16.9127,76.7341 C16.9137,77.7101 17.9997,77.9201 18.5547,77.9301 C19.0907,77.9401 20.1417,77.9211 20.1547,77.2131 C20.1807,75.7031 13.6397,76.9641 13.7087,72.9881 C13.7497,70.6941 15.5437,69.8461 17.7447,69.6941 L17.6587,67.0541 L19.8187,67.0921 L19.6187,69.7091 Z" id="Fill-79" fill="#FFFFFF"></path>
                <path d="M14.6519,58.4323 L14.2619,60.4923 C14.2619,60.4923 15.3659,61.5543 18.3729,61.5543 C21.3789,61.5543 23.0019,60.4913 23.0019,60.4913 L22.8059,58.6313 C22.8059,58.6313 18.6929,59.6733 14.6519,58.4323" id="Fill-81" fill="#424444"></path>
            </g>
        </g>
    </g>
</svg>